<svg width="29" height="32" viewBox="0 0 29 32" fill="none" xmlns="http://www.w3.org/2000/svg">
<path d="M28.7346 17.6028L26.3986 9.21081C25.6451 6.50674 24.0095 4.13204 21.7517 2.464C19.494 0.795951 16.7436 -0.0697627 13.9374 0.00439711C11.1313 0.0785569 8.43045 1.08834 6.26395 2.87331C4.09746 4.65827 2.58959 7.11605 1.97993 9.85614L0.174593 17.9748C-0.0635755 19.0467 -0.0580066 20.1584 0.190889 21.2278C0.439785 22.2972 0.925654 23.2971 1.61264 24.1537C2.29962 25.0102 3.17018 25.7016 4.16007 26.1767C5.14996 26.6518 6.23392 26.8986 7.33193 26.8988H7.86526C8.28957 28.3662 9.17918 29.6559 10.4001 30.5738C11.621 31.4917 13.1071 31.988 14.6346 31.988C16.1621 31.988 17.6482 31.4917 18.8691 30.5738C20.09 29.6559 20.9796 28.3662 21.4039 26.8988H21.6613C22.7918 26.8989 23.9071 26.6377 24.92 26.1354C25.9329 25.6331 26.8159 24.9035 27.5001 24.0034C28.1843 23.1034 28.6511 22.0573 28.8641 20.947C29.0771 19.8367 29.0305 18.6921 28.7279 17.6028H28.7346ZM24.3226 21.5815C24.0131 21.9924 23.612 22.3255 23.1511 22.5542C22.6903 22.7829 22.1824 22.9009 21.6679 22.8988H7.33193C6.83287 22.8987 6.3402 22.7865 5.89029 22.5706C5.44037 22.3546 5.04468 22.0404 4.73242 21.6511C4.42016 21.2618 4.1993 20.8074 4.08614 20.3213C3.97298 19.8353 3.9704 19.33 4.07859 18.8428L5.88393 10.7095C6.29848 8.83757 7.32732 7.15814 8.80665 5.93853C10.286 4.71891 12.1308 4.02922 14.0474 3.97923C15.964 3.92925 17.8423 4.52185 19.3832 5.66269C20.9241 6.80354 22.039 8.42706 22.5506 10.2748L24.8813 18.6668C25.0219 19.1626 25.0446 19.6843 24.9476 20.1904C24.8506 20.6965 24.6366 21.1729 24.3226 21.5815Z" fill="#E3F2FE"/>
</svg>
