<svg width="32" height="32" viewBox="0 0 32 32" fill="none" xmlns="http://www.w3.org/2000/svg">
<g clip-path="url(#clip0_1535_12225)">
<path d="M31.7035 5.71029C31.8403 5.486 31.9316 5.23697 31.9721 4.9774C32.0127 4.71783 32.0017 4.45282 31.9398 4.19751C31.8779 3.9422 31.7663 3.70158 31.6113 3.48941C31.4564 3.27724 31.2612 3.09767 31.0369 2.96095L26.6795 0.294287C26.4555 0.14508 26.2036 0.0426444 25.939 -0.00688041C25.6743 -0.0564052 25.4025 -0.0520001 25.1396 0.00607111C24.8767 0.0641423 24.6283 0.174684 24.4092 0.331072C24.1901 0.48746 24.0048 0.686476 23.8644 0.916192C23.724 1.14591 23.6315 1.4016 23.5923 1.66794C23.5531 1.93428 23.5681 2.20578 23.6364 2.46619C23.7047 2.72659 23.8248 2.97053 23.9896 3.18339C24.1544 3.39625 24.3605 3.57365 24.5955 3.70495L28.9542 6.37162C29.1785 6.50842 29.4275 6.5997 29.6871 6.64023C29.9467 6.68077 30.2117 6.66977 30.467 6.60786C30.7223 6.54595 30.9629 6.43434 31.1751 6.27942C31.3872 6.1245 31.5668 5.92929 31.7035 5.70495V5.71029ZM0.947529 23.977C1.39894 23.6985 1.94246 23.6108 2.45855 23.7331C2.97463 23.8553 3.42102 24.1776 3.69953 24.629L6.3662 28.9503C6.5104 29.1738 6.60857 29.4238 6.65497 29.6857C6.70138 29.9476 6.69507 30.2161 6.63644 30.4755C6.5778 30.7349 6.46801 30.9801 6.31349 31.1966C6.15897 31.413 5.96282 31.5965 5.73652 31.7363C5.51022 31.876 5.25832 31.9692 4.99556 32.0105C4.7328 32.0517 4.46446 32.0401 4.20624 31.9763C3.94802 31.9125 3.70511 31.7979 3.49173 31.6392C3.27835 31.4804 3.09878 31.2806 2.96353 31.0516L0.296864 26.7303C0.158524 26.5067 0.0656109 26.2581 0.0234413 25.9986C-0.0187263 25.7392 -0.00933075 25.4739 0.0511036 25.2181C0.111536 24.9622 0.221815 24.7208 0.375633 24.5076C0.529449 24.2944 0.723787 24.1136 0.947529 23.9756V23.977ZM4.2182 20.6436L9.0182 28.4636C9.60193 29.4198 10.396 30.2304 11.34 30.8336C12.2841 31.4369 13.3532 31.817 14.4662 31.945C14.7597 31.9788 15.0548 31.9962 15.3502 31.997C16.9891 31.9904 18.5785 31.4351 19.8649 30.4196C20.9112 31.4341 22.3131 31.9987 23.7705 31.9926C25.2279 31.9865 26.625 31.4102 27.6628 30.387C28.7007 29.3638 29.2968 27.975 29.3236 26.5179C29.3504 25.0607 28.8057 23.6509 27.8062 22.5903L29.7982 20.5903C30.5954 19.7996 31.202 18.8376 31.5716 17.7774C31.9413 16.7171 32.0644 15.5866 31.9315 14.4716C31.8051 13.3678 31.4288 12.3072 30.8311 11.3706C30.2334 10.434 29.4301 9.64592 28.4822 9.06629L21.1662 4.55029C19.1481 3.25901 16.7892 2.60269 14.3942 2.66615C11.9992 2.72961 9.67836 3.50995 7.73153 4.90629L6.0782 3.25162C5.703 2.87643 5.19413 2.66565 4.66353 2.66565C4.13293 2.66565 3.62406 2.87643 3.24886 3.25162C2.87367 3.62681 2.66289 4.13568 2.66289 4.66629C2.66289 5.19689 2.87367 5.70576 3.24886 6.08095L4.90086 7.73295C3.5739 9.59922 2.80511 11.8044 2.68424 14.0912C2.56336 16.3779 3.09538 18.6519 4.2182 20.6476V20.6436ZM9.0182 9.03429C10.3119 7.73268 12.0127 6.91379 13.837 6.71411C15.6613 6.51443 17.4989 6.94603 19.0435 7.93695L26.3769 12.4703C26.8095 12.7357 27.176 13.096 27.4486 13.5241C27.7212 13.9522 27.8927 14.4367 27.9502 14.941C28.0111 15.4563 27.9537 15.9788 27.7822 16.4686C27.6108 16.9585 27.3299 17.4027 26.9609 17.7676L17.7449 27.005C17.3796 27.3686 16.9368 27.6449 16.4496 27.8132C15.9624 27.9815 15.4435 28.0374 14.9317 27.9767C14.4198 27.9161 13.9283 27.7404 13.494 27.4629C13.0596 27.1854 12.6937 26.8132 12.4235 26.3743L7.65953 18.617C6.8144 17.0897 6.48973 15.3287 6.73463 13.6004C6.97953 11.8721 7.78068 10.2707 9.01686 9.03829L9.0182 9.03429Z" fill="#273469"/>
</g>
<defs>
<clipPath id="clip0_1535_12225">
<rect width="32" height="32" fill="white" transform="matrix(-1 0 0 1 32 0)"/>
</clipPath>
</defs>
</svg>
