<svg width="50" height="50" viewBox="0 0 50 50" fill="none" xmlns="http://www.w3.org/2000/svg">
<path d="M46.9837 27.521L43.3337 14.4085C42.1563 10.1834 39.6007 6.47292 36.073 3.8666C32.5453 1.26028 28.2477 -0.0924026 23.8632 0.0234721C19.4786 0.139347 15.2585 1.71713 11.8734 4.50614C8.48821 7.29516 6.13218 11.1354 5.17957 15.4168L2.35874 28.1022C1.9866 29.777 1.9953 31.514 2.3842 33.185C2.7731 34.856 3.53227 36.4183 4.60568 37.7567C5.6791 39.0951 7.03935 40.1753 8.58605 40.9177C10.1328 41.6601 11.8264 42.0457 13.5421 42.046H14.3754C15.0384 44.3387 16.4284 46.354 18.3361 47.7882C20.2438 49.2224 22.5658 49.9979 24.9525 49.9979C27.3392 49.9979 29.6612 49.2224 31.5689 47.7882C33.4766 46.354 34.8666 44.3387 35.5296 42.046H35.9317C37.6982 42.0462 39.4408 41.638 41.0235 40.8532C42.6061 40.0684 43.9858 38.9283 45.0549 37.522C46.1239 36.1157 46.8534 34.4812 47.1862 32.7463C47.519 31.0114 47.4461 29.2231 46.9733 27.521H46.9837ZM40.09 33.7377C39.6064 34.3798 38.9796 34.9002 38.2595 35.2575C37.5395 35.6149 36.7459 35.7992 35.9421 35.796H13.5421C12.7623 35.7958 11.9925 35.6206 11.2895 35.2831C10.5865 34.9457 9.96825 34.4548 9.48035 33.8465C8.99244 33.2382 8.64735 32.5281 8.47053 31.7687C8.29371 31.0092 8.28968 30.2197 8.45874 29.4585L11.2796 16.7502C11.9273 13.8253 13.5349 11.2012 15.8463 9.29555C18.1578 7.3899 21.0403 6.31226 24.035 6.23415C27.0297 6.15605 29.9645 7.08199 32.3721 8.86456C34.7798 10.6471 36.5219 13.1839 37.3212 16.071L40.9629 29.1835C41.1826 29.9581 41.2181 30.7733 41.0665 31.5641C40.915 32.3549 40.5806 33.0992 40.09 33.7377Z" fill="#273469"/>
</svg>
