<svg width="17" height="16" viewBox="0 0 17 16" fill="none" xmlns="http://www.w3.org/2000/svg">
<path d="M16.1013 3C16.1013 2.44772 15.6311 2 15.0511 2H12.4076C11.9652 0.804906 10.7811 0.0040625 9.45039 0H7.35011C6.01942 0.0040625 4.83529 0.804906 4.39292 2H1.74936C1.16939 2 0.699219 2.44772 0.699219 3C0.699219 3.55228 1.16939 4 1.74936 4H2.09942V12.3333C2.09942 14.3584 3.82335 16 5.94991 16H10.8506C12.9771 16 14.7011 14.3584 14.7011 12.3333V4H15.0511C15.6311 4 16.1013 3.55228 16.1013 3ZM12.6008 12.3333C12.6008 13.2538 11.8172 14 10.8506 14H5.94991C4.98329 14 4.19969 13.2538 4.19969 12.3333V4H12.6008V12.3333Z" fill="#273469"/>
<path d="M6.64975 12C7.22972 12 7.69989 11.5523 7.69989 11V7C7.69989 6.44772 7.22972 6 6.64975 6C6.06978 6 5.59961 6.44772 5.59961 7V11C5.59961 11.5523 6.06978 12 6.64975 12Z" fill="#273469"/>
<path d="M10.1497 12C10.7297 12 11.1999 11.5523 11.1999 11V7C11.1999 6.44772 10.7297 6 10.1497 6C9.56978 6 9.09961 6.44772 9.09961 7V11C9.09961 11.5523 9.56978 12 10.1497 12Z" fill="#273469"/>
</svg>
