<svg width="28" height="28" viewBox="0 0 28 28" fill="none" xmlns="http://www.w3.org/2000/svg">
<rect x="1" y="1" width="26" height="26" rx="13" fill="#FFFEFA" stroke="#273469" stroke-width="2"/>
<g clip-path="url(#clip0_2386_8986)">
<path d="M21.3327 9C21.3327 8.44772 20.885 8 20.3327 8H17.8154C17.3941 6.80491 16.2665 6.00406 14.9994 6H12.9994C11.7322 6.00406 10.6046 6.80491 10.1834 8H7.66602C7.11373 8 6.66602 8.44772 6.66602 9C6.66602 9.55228 7.11373 10 7.66602 10H7.99936V18.3333C7.99936 20.3584 9.64098 22 11.666 22H16.3327C18.3577 22 19.9994 20.3584 19.9994 18.3333V10H20.3327C20.885 10 21.3327 9.55228 21.3327 9ZM17.9994 18.3333C17.9994 19.2538 17.2532 20 16.3327 20H11.666C10.7455 20 9.99936 19.2538 9.99936 18.3333V10H17.9994V18.3333Z" fill="#273469"/>
<path d="M12.332 18C12.8843 18 13.332 17.5523 13.332 17V13C13.332 12.4477 12.8843 12 12.332 12C11.7797 12 11.332 12.4477 11.332 13V17C11.332 17.5523 11.7797 18 12.332 18Z" fill="#273469"/>
<path d="M15.666 18C16.2183 18 16.666 17.5523 16.666 17V13C16.666 12.4477 16.2183 12 15.666 12C15.1137 12 14.666 12.4477 14.666 13V17C14.666 17.5523 15.1137 18 15.666 18Z" fill="#273469"/>
</g>
<defs>
<clipPath id="clip0_2386_8986">
<rect width="16" height="16" fill="white" transform="translate(6 6)"/>
</clipPath>
</defs>
</svg>
