<svg width="40" height="40" viewBox="0 0 40 40" fill="none" xmlns="http://www.w3.org/2000/svg">
<g clip-path="url(#clip0_2433_4102)">
<path d="M40 9.16664C39.9945 4.10633 35.8937 0.00554688 30.8334 0H9.16664C4.10633 0.00554688 0.00554688 4.10633 0 9.16664V10.8333C0.000625 12.3559 0.599141 13.8175 1.66664 14.9033V30.8333C1.67219 35.8937 5.77305 39.9945 10.8334 40H29.1667C34.227 39.9945 38.3279 35.8937 38.3334 30.8334V14.9034C39.4009 13.8176 39.9995 12.356 40 10.8334V9.16664ZM5 9.16664C5 6.86547 6.86547 5 9.16664 5H30.8333C33.1345 5 35 6.86547 35 9.16664V10.8333C35 11.2935 34.6269 11.6666 34.1666 11.6666H5.83336C5.37313 11.6666 5 11.2935 5 10.8333V9.16664ZM33.3334 30.8334C33.3334 33.1345 31.4679 35 29.1667 35H10.8334C8.53219 35 6.66672 33.1345 6.66672 30.8334V16.6666H33.3334V30.8334Z" fill="#273469"/>
<path d="M15.833 20H24.1664C25.5471 20 26.6664 21.1193 26.6664 22.5C26.6664 23.8807 25.5471 25 24.1664 25H15.833C14.4523 25 13.333 23.8807 13.333 22.5C13.333 21.1193 14.4523 20 15.833 20Z" fill="#273469"/>
</g>
<defs>
<clipPath id="clip0_2433_4102">
<rect width="40" height="40" fill="white"/>
</clipPath>
</defs>
</svg>
