<svg width="43" height="44" viewBox="0 0 43 44" fill="none" xmlns="http://www.w3.org/2000/svg">
<ellipse cx="21.3453" cy="21.6374" rx="21.3453" ry="21.6374" fill="#273469"/>
<g clip-path="url(#clip0_2298_6530)">
<path d="M16.8772 34.2179C17.9738 34.2179 18.8628 33.3168 18.8628 32.2052C18.8628 31.0935 17.9738 30.1924 16.8772 30.1924C15.7806 30.1924 14.8916 31.0935 14.8916 32.2052C14.8916 33.3168 15.7806 34.2179 16.8772 34.2179Z" fill="#E3F2FE"/>
<path d="M26.8049 34.2179C27.9016 34.2179 28.7906 33.3168 28.7906 32.2052C28.7906 31.0935 27.9016 30.1924 26.8049 30.1924C25.7083 30.1924 24.8193 31.0935 24.8193 32.2052C24.8193 33.3168 25.7083 34.2179 26.8049 34.2179Z" fill="#E3F2FE"/>
<path d="M29.5356 23.3101C29.3917 23.8416 29.0794 24.3105 28.647 24.6447C28.2145 24.9789 27.6858 25.1599 27.142 25.1598H17.0928C17.0116 25.1591 16.9336 25.1278 16.874 25.072C16.8143 25.0162 16.7773 24.9399 16.7702 24.8579L15.9203 18.1151H20.3522C20.7472 18.1151 21.1259 17.956 21.4052 17.6729C21.6845 17.3898 21.8414 17.0059 21.8414 16.6055C21.8414 16.2051 21.6845 15.8212 21.4052 15.5381C21.1259 15.255 20.7472 15.0959 20.3522 15.0959H15.5401L15.2799 13.0217C15.1856 12.207 14.7994 11.4557 14.1947 10.9105C13.5901 10.3653 12.809 10.064 11.9997 10.064H11.4169C11.022 10.064 10.6432 10.223 10.3639 10.5061C10.0846 10.7892 9.92773 11.1732 9.92773 11.5735C9.92773 11.9739 10.0846 12.3579 10.3639 12.641C10.6432 12.9241 11.022 13.0831 11.4169 13.0831H11.9997C12.0809 13.0838 12.1589 13.1151 12.2186 13.1709C12.2782 13.2267 12.3152 13.3031 12.3224 13.3851L13.8116 25.2202C13.9058 26.0353 14.292 26.787 14.8969 27.3324C15.5018 27.8779 16.2832 28.1791 17.0928 28.179H27.142C28.3374 28.1783 29.4995 27.7799 30.4501 27.0451C31.4006 26.3103 32.087 25.2796 32.4039 24.1112L32.4197 24.0508C32.4805 23.827 32.4895 23.5921 32.4462 23.3643C32.4028 23.1364 32.3082 22.9218 32.1697 22.737C32.0312 22.5522 31.8526 22.4023 31.6477 22.2989C31.4427 22.1954 31.217 22.1413 30.9881 22.1406C30.6623 22.1406 30.3455 22.2488 30.0862 22.4488C29.8269 22.6487 29.6394 22.9294 29.5525 23.2477L29.5356 23.3101Z" fill="#E3F2FE"/>
<path d="M32.2654 13.0831H30.7762V11.5735C30.7762 11.1732 30.6193 10.7892 30.34 10.5061C30.0607 10.223 29.6819 10.064 29.287 10.064C28.892 10.064 28.5132 10.223 28.2339 10.5061C27.9547 10.7892 27.7978 11.1732 27.7978 11.5735V13.0831H26.3085C25.9136 13.0831 25.5348 13.2422 25.2555 13.5253C24.9762 13.8084 24.8193 14.1924 24.8193 14.5927C24.8193 14.9931 24.9762 15.3771 25.2555 15.6602C25.5348 15.9433 25.9136 16.1023 26.3085 16.1023H27.7978V17.6119C27.7978 18.0123 27.9547 18.3962 28.2339 18.6793C28.5132 18.9624 28.892 19.1215 29.287 19.1215C29.6819 19.1215 30.0607 18.9624 30.34 18.6793C30.6193 18.3962 30.7762 18.0123 30.7762 17.6119V16.1023H32.2654C32.6603 16.1023 33.0391 15.9433 33.3184 15.6602C33.5977 15.3771 33.7546 14.9931 33.7546 14.5927C33.7546 14.1924 33.5977 13.8084 33.3184 13.5253C33.0391 13.2422 32.6603 13.0831 32.2654 13.0831Z" fill="#E3F2FE"/>
</g>
<defs>
<clipPath id="clip0_2298_6530">
<rect width="23.8273" height="24.1534" fill="white" transform="translate(9.92773 10.064)"/>
</clipPath>
</defs>
</svg>
