<svg width="41" height="41" viewBox="0 0 41 41" fill="none" xmlns="http://www.w3.org/2000/svg">
<path d="M39.2917 18.7911H1.70833C0.764847 18.7911 0 19.556 0 20.4995C0 21.443 0.764847 22.2078 1.70833 22.2078H39.2917C40.2352 22.2078 41 21.443 41 20.4995C41 19.556 40.2352 18.7911 39.2917 18.7911Z" fill="#E3F2FE"/>
<path d="M39.2917 6.83386H1.70833C0.764847 6.83386 0 7.59871 0 8.54219C0 9.48568 0.764847 10.2505 1.70833 10.2505H39.2917C40.2352 10.2505 41 9.48568 41 8.54219C41 7.59871 40.2352 6.83386 39.2917 6.83386Z" fill="#E3F2FE"/>
<path d="M39.2917 30.75H1.70833C0.764847 30.75 0 31.5149 0 32.4583C0 33.4018 0.764847 34.1667 1.70833 34.1667H39.2917C40.2352 34.1667 41 33.4018 41 32.4583C41 31.5149 40.2352 30.75 39.2917 30.75Z" fill="#E3F2FE"/>
</svg>
