<svg width="40" height="40" viewBox="0 0 40 40" fill="none" xmlns="http://www.w3.org/2000/svg">
<circle cx="20" cy="20" r="20" fill="#273469"/>
<g clip-path="url(#clip0_1535_10483)">
<path d="M26.7708 9.58333H26.25V9.0625C26.25 8.6481 26.0854 8.25067 25.7924 7.95765C25.4993 7.66462 25.1019 7.5 24.6875 7.5V7.5C24.2731 7.5 23.8757 7.66462 23.5826 7.95765C23.2896 8.25067 23.125 8.6481 23.125 9.0625V9.58333H16.875V9.0625C16.875 8.6481 16.7104 8.25067 16.4174 7.95765C16.1243 7.66462 15.7269 7.5 15.3125 7.5V7.5C14.8981 7.5 14.5007 7.66462 14.2076 7.95765C13.9146 8.25067 13.75 8.6481 13.75 9.0625V9.58333H13.2292C11.7097 9.58333 10.2525 10.1869 9.17803 11.2614C8.10361 12.3358 7.5 13.793 7.5 15.3125L7.5 26.7708C7.5 28.2903 8.10361 29.7475 9.17803 30.822C10.2525 31.8964 11.7097 32.5 13.2292 32.5H26.7708C28.2903 32.5 29.7475 31.8964 30.822 30.822C31.8964 29.7475 32.5 28.2903 32.5 26.7708V15.3125C32.5 13.793 31.8964 12.3358 30.822 11.2614C29.7475 10.1869 28.2903 9.58333 26.7708 9.58333V9.58333ZM26.7708 29.375H13.2292C12.5385 29.375 11.8761 29.1006 11.3877 28.6123C10.8994 28.1239 10.625 27.4615 10.625 26.7708V17.9167H29.375V26.7708C29.375 27.4615 29.1006 28.1239 28.6123 28.6123C28.1239 29.1006 27.4615 29.375 26.7708 29.375Z" fill="white"/>
</g>
<defs>
<clipPath id="clip0_1535_10483">
<rect width="25" height="25" fill="white" transform="translate(7.5 7.5)"/>
</clipPath>
</defs>
</svg>
