<svg width="40" height="41" viewBox="0 0 40 41" fill="none" xmlns="http://www.w3.org/2000/svg">
<g clip-path="url(#clip0_2437_9881)">
<path d="M11.6663 40.5794C13.5073 40.5794 14.9997 39.0655 14.9997 37.1979C14.9997 35.3304 13.5073 33.8164 11.6663 33.8164C9.82539 33.8164 8.33301 35.3304 8.33301 37.1979C8.33301 39.0655 9.82539 40.5794 11.6663 40.5794Z" fill="#273469"/>
<path d="M28.3333 40.5794C30.1743 40.5794 31.6667 39.0655 31.6667 37.1979C31.6667 35.3304 30.1743 33.8164 28.3333 33.8164C26.4924 33.8164 25 35.3304 25 37.1979C25 39.0655 26.4924 40.5794 28.3333 40.5794Z" fill="#273469"/>
<path d="M32.9167 22.2555C32.6747 23.1479 32.1507 23.9351 31.4251 24.4962C30.6995 25.0573 29.8124 25.3612 28.9 25.3614H12.0283C11.8921 25.3603 11.7611 25.3077 11.6609 25.2139C11.5608 25.1202 11.4987 24.9919 11.4867 24.8542L10.06 13.5261H15.8333C16.4964 13.5261 17.1323 13.2589 17.6011 12.7833C18.0699 12.3077 18.3333 11.6626 18.3333 10.99C18.3333 10.3173 18.0699 9.67225 17.6011 9.19663C17.1323 8.72101 16.4964 8.45381 15.8333 8.45381H9.42167L8.985 4.96915C8.82656 3.60035 8.17829 2.33819 7.16321 1.4222C6.14814 0.506204 4.83689 0.000123429 3.47833 0L2.5 0C1.83696 0 1.20107 0.2672 0.732233 0.742819C0.263392 1.21844 0 1.86352 0 2.53614C0 3.20877 0.263392 3.85385 0.732233 4.32947C1.20107 4.80508 1.83696 5.07228 2.5 5.07228H3.47833C3.61461 5.07343 3.74558 5.12601 3.84572 5.21978C3.94586 5.31356 4.00799 5.4418 4.02 5.57951L6.52 25.4629C6.67809 26.8323 7.32644 28.0951 8.34191 29.0114C9.35737 29.9278 10.6692 30.434 12.0283 30.4337H28.8983C30.9051 30.4325 32.8561 29.7633 34.4517 28.5288C36.0474 27.2942 37.1997 25.5626 37.7317 23.5997L37.7583 23.4982C37.8603 23.1223 37.8755 22.7277 37.8027 22.3449C37.7299 21.9621 37.5711 21.6014 37.3386 21.291C37.1061 20.9806 36.8062 20.7287 36.4622 20.555C36.1182 20.3812 35.7393 20.2902 35.355 20.2891C34.8081 20.289 34.2762 20.4709 33.8409 20.8068C33.4056 21.1427 33.0909 21.6142 32.945 22.149L32.9167 22.2555Z" fill="#273469"/>
<path d="M35.6881 4.20304L28.5315 11.4632L27.1132 9.97361C26.8856 9.73348 26.6137 9.54116 26.3129 9.40763C26.0122 9.27411 25.6884 9.20199 25.3602 9.1954C25.0319 9.1888 24.7056 9.24786 24.3998 9.3692C24.0941 9.49055 23.8149 9.67179 23.5782 9.9026C23.3415 10.1334 23.1519 10.4092 23.0203 10.7144C22.8886 11.0195 22.8175 11.3479 22.811 11.6809C22.7979 12.3535 23.0487 13.0037 23.5082 13.4887L25.6132 15.7104C25.9781 16.1034 26.4166 16.4186 26.9032 16.6375C27.3897 16.8564 27.9144 16.9746 28.4465 16.9852H28.5132C29.5696 16.9825 30.5823 16.5572 31.3315 15.8017L39.2215 7.79591C39.4602 7.56196 39.6507 7.28211 39.7817 6.97269C39.9127 6.66327 39.9817 6.33047 39.9846 5.99373C39.9875 5.65698 39.9242 5.32302 39.7985 5.01134C39.6728 4.69966 39.4872 4.41649 39.2525 4.17837C39.0177 3.94024 38.7386 3.75192 38.4314 3.6244C38.1241 3.49689 37.7949 3.43272 37.463 3.43564C37.131 3.43857 36.803 3.50853 36.498 3.64145C36.193 3.77437 35.9171 3.96757 35.6865 4.2098L35.6881 4.20304Z" fill="#273469"/>
</g>
<defs>
<clipPath id="clip0_2437_9881">
<rect width="40" height="40.5783" fill="white"/>
</clipPath>
</defs>
</svg>
