<svg width="40" height="40" viewBox="0 0 40 40" fill="none" xmlns="http://www.w3.org/2000/svg">
<g clip-path="url(#clip0_2226_11443)">
<path d="M11.6592 40.0006C13.499 40.0006 14.9904 38.5083 14.9904 36.6673C14.9904 34.8264 13.499 33.334 11.6592 33.334C9.81952 33.334 8.32812 34.8264 8.32812 36.6673C8.32812 38.5083 9.81952 40.0006 11.6592 40.0006Z" fill="#E3F2FE"/>
<path d="M28.3145 40.0006C30.1543 40.0006 31.6456 38.5083 31.6456 36.6673C31.6456 34.8264 30.1543 33.334 28.3145 33.334C26.4748 33.334 24.9834 34.8264 24.9834 36.6673C24.9834 38.5083 26.4748 40.0006 28.3145 40.0006Z" fill="#E3F2FE"/>
<path d="M32.8949 21.9367C32.6534 22.817 32.1296 23.5935 31.4041 24.1469C30.6786 24.7004 29.7915 25.0001 28.8792 25H12.0204C11.8842 24.9989 11.7533 24.947 11.6532 24.8546C11.5532 24.7622 11.4911 24.6357 11.4791 24.5L10.0534 13.3333H17.4884C18.151 13.3333 18.7865 13.0699 19.255 12.6011C19.7236 12.1323 19.9868 11.4964 19.9868 10.8333C19.9868 10.1703 19.7236 9.53441 19.255 9.06557C18.7865 8.59672 18.151 8.33333 17.4884 8.33333H9.41544L8.97906 4.89833C8.82073 3.54904 8.17289 2.30487 7.15848 1.40193C6.14407 0.49899 4.8337 0.00012167 3.47604 0L2.49835 0C1.83575 0 1.20028 0.263392 0.731749 0.732233C0.263218 1.20107 0 1.83696 0 2.5C0 3.16304 0.263218 3.79893 0.731749 4.26777C1.20028 4.73661 1.83575 5 2.49835 5H3.47604C3.61222 5.00113 3.74311 5.05296 3.84318 5.1454C3.94326 5.23783 4.00534 5.36425 4.01734 5.5L6.51569 25.1C6.67368 26.4499 7.3216 27.6947 8.33639 28.598C9.35119 29.5013 10.6622 30.0002 12.0204 30H28.8792C30.8847 29.9988 32.8344 29.3391 34.429 28.1222C36.0236 26.9053 37.1751 25.1983 37.7067 23.2633L37.7334 23.1633C37.8353 22.7928 37.8505 22.4038 37.7777 22.0264C37.705 21.6491 37.5463 21.2936 37.3139 20.9876C37.0816 20.6816 36.7819 20.4333 36.4381 20.262C36.0943 20.0907 35.7157 20.0011 35.3316 20C34.7851 19.9999 34.2535 20.1791 33.8185 20.5103C33.3835 20.8414 33.069 21.3062 32.9232 21.8333L32.8949 21.9367Z" fill="#E3F2FE"/>
<path d="M37.4751 5H34.9768V2.5C34.9768 1.83696 34.7136 1.20107 34.245 0.732233C33.7765 0.263392 33.141 0 32.4784 0C31.8158 0 31.1804 0.263392 30.7118 0.732233C30.2433 1.20107 29.9801 1.83696 29.9801 2.5V5H27.4817C26.8191 5 26.1837 5.26339 25.7151 5.73223C25.2466 6.20107 24.9834 6.83696 24.9834 7.5C24.9834 8.16304 25.2466 8.79893 25.7151 9.26777C26.1837 9.73661 26.8191 10 27.4817 10H29.9801V12.5C29.9801 13.163 30.2433 13.7989 30.7118 14.2678C31.1804 14.7366 31.8158 15 32.4784 15C33.141 15 33.7765 14.7366 34.245 14.2678C34.7136 13.7989 34.9768 13.163 34.9768 12.5V10H37.4751C38.1377 10 38.7732 9.73661 39.2417 9.26777C39.7103 8.79893 39.9735 8.16304 39.9735 7.5C39.9735 6.83696 39.7103 6.20107 39.2417 5.73223C38.7732 5.26339 38.1377 5 37.4751 5Z" fill="#E3F2FE"/>
</g>
<defs>
<clipPath id="clip0_2226_11443">
<rect width="39.9736" height="40" fill="white"/>
</clipPath>
</defs>
</svg>
