<svg width="41" height="41" viewBox="0 0 41 41" fill="none" xmlns="http://www.w3.org/2000/svg">
<g clip-path="url(#clip0_2209_886)">
<path d="M11.9587 41.001C13.8456 41.001 15.3753 39.4714 15.3753 37.5844C15.3753 35.6974 13.8456 34.1677 11.9587 34.1677C10.0717 34.1677 8.54199 35.6974 8.54199 37.5844C8.54199 39.4714 10.0717 41.001 11.9587 41.001Z" fill="#273469"/>
<path d="M29.0417 41.001C30.9286 41.001 32.4583 39.4714 32.4583 37.5844C32.4583 35.6974 30.9286 34.1677 29.0417 34.1677C27.1547 34.1677 25.625 35.6974 25.625 37.5844C25.625 39.4714 27.1547 41.001 29.0417 41.001Z" fill="#273469"/>
<path d="M39.2643 10.2808C38.0618 9.13086 36.452 8.50536 34.7885 8.54167H9.65892L9.20963 5.01908C9.04648 3.63652 8.38173 2.36187 7.34139 1.43677C6.30105 0.511677 4.95745 0.000447373 3.56529 0L2.5625 0C1.88288 0 1.2311 0.269977 0.750539 0.750539C0.269977 1.2311 0 1.88288 0 2.5625H0C0 3.24212 0.269977 3.8939 0.750539 4.37446C1.2311 4.85502 1.88288 5.125 2.5625 5.125H3.56529C3.70504 5.1265 3.83929 5.1797 3.94214 5.27434C4.04498 5.36898 4.10913 5.49835 4.12221 5.6375L6.68471 25.7258C6.84633 27.1094 7.51047 28.3855 8.55101 29.3117C9.59154 30.238 10.936 30.7498 12.329 30.75H29.6208C31.6777 30.7488 33.6775 30.0726 35.313 28.8253C36.9486 27.5779 38.1297 25.8283 38.675 23.8449L40.8035 16.1045C41.0873 15.0845 41.0943 14.0074 40.8238 12.9839C40.5532 11.9603 40.015 11.0273 39.2643 10.2808ZM33.7396 22.4868C33.4895 23.3876 32.9515 24.1819 32.2079 24.7485C31.4643 25.3151 30.5557 25.6229 29.6208 25.625H12.329C12.1894 25.6238 12.0551 25.5707 11.9525 25.476C11.8498 25.3812 11.7861 25.2516 11.7738 25.1125L10.3132 13.6667H35.0448C35.1767 13.6657 35.3071 13.6953 35.4257 13.7531C35.5443 13.811 35.6478 13.8955 35.7283 14.0001C35.8087 14.1047 35.8638 14.2265 35.8893 14.356C35.9147 14.4855 35.9098 14.6191 35.875 14.7463L33.7396 22.4868Z" fill="#273469"/>
</g>
<defs>
<clipPath id="clip0_2209_886">
<rect width="41" height="41" fill="white"/>
</clipPath>
</defs>
</svg>
