<svg width="40" height="41" viewBox="0 0 40 41" fill="none" xmlns="http://www.w3.org/2000/svg">
<g clip-path="url(#clip0_2433_7893)">
<path d="M13.7701 30.052H5.83341C4.28632 30.052 2.80259 29.4363 1.70862 28.3405C0.614661 27.2446 7.99168e-05 25.7583 7.99168e-05 24.2085V15.4133C-0.00730579 13.1078 0.497322 10.8295 1.47741 8.74349C2.45749 6.65748 3.88849 4.81597 5.66675 3.35235C7.35261 1.95103 9.33231 0.948705 11.4584 0.420005C13.5846 -0.108695 15.8024 -0.150151 17.9467 0.298725C20.9067 0.895174 23.6183 2.37164 25.7278 4.53541C27.8373 6.69919 29.2466 9.44975 29.7717 12.4281C30.1616 14.5294 30.0806 16.6912 29.5347 18.7574C28.9888 20.8235 27.9916 22.7424 26.6151 24.3755C25.0163 26.2021 23.0383 27.6566 20.8195 28.6372C18.6007 29.6177 16.1947 30.1006 13.7701 30.052V30.052ZM14.9651 5.00856C12.7254 5.00394 10.5552 5.78749 8.83341 7.2224C7.6353 8.22372 6.67108 9.47617 6.00875 10.8914C5.34641 12.3066 5.0021 13.8502 5.00008 15.4133V24.2085C5.00008 24.4299 5.08788 24.6422 5.24416 24.7988C5.40044 24.9553 5.6124 25.0433 5.83341 25.0433H13.7701C15.4662 25.0894 17.152 24.7643 18.7099 24.0907C20.2677 23.4171 21.6602 22.4112 22.7901 21.1432C23.6928 20.0665 24.3454 18.8024 24.7008 17.4421C25.0562 16.0819 25.1055 14.6595 24.8451 13.2779C24.4787 11.304 23.5354 9.48354 22.1349 8.04731C20.7344 6.61109 18.9398 5.62378 16.9784 5.21057C16.3154 5.07791 15.6411 5.01026 14.9651 5.00856V5.00856ZM34.9651 16.3315C34.4388 15.9081 33.8817 15.5247 33.2984 15.1845C33.2919 17.0781 32.9807 18.9582 32.3767 20.7525C34.0465 22.4213 34.9896 24.684 35.0001 27.0468V34.2259C35.0001 34.4473 34.9123 34.6596 34.756 34.8162C34.5997 34.9727 34.3878 35.0607 34.1667 35.0607H27.7334C26.4222 35.09 25.1183 34.8585 23.897 34.3796C22.6757 33.9007 21.5613 33.184 20.6184 32.2708C18.8506 32.8595 17.0132 33.2126 15.1534 33.321C15.5043 33.9207 15.9034 34.4908 16.3467 35.0256C17.7631 36.6468 19.5161 37.9382 21.483 38.8095C23.4499 39.6807 25.5832 40.1107 27.7334 40.0693H34.1667C35.7138 40.0693 37.1976 39.4537 38.2915 38.3578C39.3855 37.262 40.0001 35.7757 40.0001 34.2259V27.0468C40.0075 24.9995 39.5601 22.9761 38.6904 21.1234C37.8208 19.2707 36.5505 17.635 34.9717 16.3349L34.9651 16.3315Z" fill="#273469"/>
</g>
<defs>
<clipPath id="clip0_2433_7893">
<rect width="40" height="40.0695" fill="white"/>
</clipPath>
</defs>
</svg>
