<svg width="33" height="33" viewBox="0 0 33 33" fill="none" xmlns="http://www.w3.org/2000/svg">
<g clip-path="url(#clip0_2374_7967)">
<path d="M15.7475 19.276C9.88762 19.8057 5.42321 24.7572 5.501 30.6404V30.9387C5.501 32.0778 6.42442 33.0012 7.5635 33.0012C8.70258 33.0012 9.626 32.0778 9.626 30.9387V30.5579C9.564 26.9456 12.2298 23.8652 15.8135 23.4079C19.5964 23.0328 22.9673 25.7954 23.3424 29.5783C23.3646 29.802 23.3758 30.0265 23.376 30.2513V30.9387C23.376 32.0778 24.2994 33.0012 25.4385 33.0012C26.5776 33.0012 27.501 32.0778 27.501 30.9387V30.2512C27.4943 24.1692 22.5584 19.2443 16.4765 19.251C16.2333 19.2513 15.9902 19.2596 15.7475 19.276Z" fill="#273469"/>
<path d="M16.501 16.5C21.0573 16.5 24.751 12.8063 24.751 8.25C24.751 3.69368 21.0573 0 16.501 0C11.9447 0 8.25098 3.69368 8.25098 8.25C8.25549 12.8045 11.9465 16.4954 16.501 16.5ZM16.501 4.125C18.7791 4.125 20.626 5.97184 20.626 8.25C20.626 10.5282 18.7791 12.375 16.501 12.375C14.2228 12.375 12.376 10.5282 12.376 8.25C12.376 5.97184 14.2228 4.125 16.501 4.125Z" fill="#273469"/>
</g>
<defs>
<clipPath id="clip0_2374_7967">
<rect width="33" height="33" fill="white"/>
</clipPath>
</defs>
</svg>
