<svg width="40" height="42" viewBox="0 0 40 42" fill="none" xmlns="http://www.w3.org/2000/svg">
<g clip-path="url(#clip0_2433_10646)">
<path d="M37.5 36.3732H9.16667C8.0616 36.3732 7.00179 35.917 6.22039 35.105C5.43899 34.2929 5 33.1915 5 32.0431V2.59809C5 1.90903 4.73661 1.2482 4.26777 0.760963C3.79893 0.273726 3.16304 0 2.5 0C1.83696 0 1.20107 0.273726 0.732233 0.760963C0.263392 1.2482 0 1.90903 0 2.59809L0 32.0431C0.00264695 34.5688 0.969268 36.9902 2.68778 38.7762C4.40629 40.5621 6.73633 41.5667 9.16667 41.5694H37.5C38.163 41.5694 38.7989 41.2957 39.2678 40.8085C39.7366 40.3212 40 39.6604 40 38.9713C40 38.2823 39.7366 37.6214 39.2678 37.1342C38.7989 36.647 38.163 36.3732 37.5 36.3732Z" fill="#E4E4E4"/>
<path d="M15.834 15.5889C15.1709 15.5889 14.5351 15.8626 14.0662 16.3498C13.5974 16.8371 13.334 17.4979 13.334 18.187V30.3114C13.334 31.0004 13.5974 31.6613 14.0662 32.1485C14.5351 32.6357 15.1709 32.9095 15.834 32.9095C16.497 32.9095 17.1329 32.6357 17.6018 32.1485C18.0706 31.6613 18.334 31.0004 18.334 30.3114V18.187C18.334 17.4979 18.0706 16.8371 17.6018 16.3498C17.1329 15.8626 16.497 15.5889 15.834 15.5889Z" fill="#E4E4E4"/>
<path d="M23.334 23.3832V30.3115C23.334 31.0005 23.5974 31.6614 24.0662 32.1486C24.5351 32.6358 25.1709 32.9096 25.834 32.9096C26.497 32.9096 27.1329 32.6358 27.6017 32.1486C28.0706 31.6614 28.334 31.0005 28.334 30.3115V23.3832C28.334 22.6942 28.0706 22.0334 27.6017 21.5461C27.1329 21.0589 26.497 20.7852 25.834 20.7852C25.1709 20.7852 24.5351 21.0589 24.0662 21.5461C23.5974 22.0334 23.334 22.6942 23.334 23.3832V23.3832Z" fill="#E4E4E4"/>
<path d="M33.334 16.4545V30.311C33.334 31 33.5974 31.6609 34.0662 32.1481C34.5351 32.6353 35.1709 32.9091 35.834 32.9091C36.497 32.9091 37.1329 32.6353 37.6017 32.1481C38.0706 31.6609 38.334 31 38.334 30.311V16.4545C38.334 15.7655 38.0706 15.1046 37.6017 14.6174C37.1329 14.1302 36.497 13.8564 35.834 13.8564C35.1709 13.8564 34.5351 14.1302 34.0662 14.6174C33.5974 15.1046 33.334 15.7655 33.334 16.4545Z" fill="#E4E4E4"/>
<path d="M10.0003 12.9907C10.5677 12.9919 11.1184 12.7908 11.5603 12.4208L15.3569 9.26676C16.1236 8.62713 17.0906 8.30446 18.0723 8.36072C19.0539 8.41699 19.9809 8.84823 20.6753 9.57161C22.2776 11.2157 24.4121 12.1799 26.6619 12.276C28.9117 12.3721 31.1152 11.5931 32.8419 10.0912L39.1152 4.57461C39.3825 4.35992 39.6051 4.09116 39.7697 3.78456C39.9343 3.47796 40.0373 3.13989 40.0726 2.79075C40.108 2.44161 40.0749 2.08865 39.9753 1.75318C39.8757 1.41771 39.7118 1.10669 39.4933 0.838908C39.2749 0.571122 39.0065 0.352124 38.7043 0.195136C38.4021 0.0381481 38.0725 -0.0535722 37.7353 -0.0744868C37.3981 -0.0954014 37.0603 -0.0450763 36.7423 0.0734496C36.4243 0.191976 36.1328 0.376243 35.8852 0.615127L29.6136 6.13174C28.8454 6.7974 27.866 7.14143 26.8668 7.09659C25.8676 7.05174 24.9203 6.62125 24.2102 5.88925C22.647 4.26013 20.5599 3.28838 18.3495 3.16051C16.1391 3.03264 13.9611 3.75767 12.2336 5.19642L8.43861 8.36436C8.03429 8.70073 7.74048 9.15929 7.59777 9.67668C7.45505 10.1941 7.47048 10.7448 7.64192 11.2526C7.81337 11.7605 8.13236 12.2005 8.55482 12.5119C8.97728 12.8232 9.48236 12.9905 10.0003 12.9907V12.9907Z" fill="#E4E4E4"/>
</g>
<defs>
<clipPath id="clip0_2433_10646">
<rect width="40" height="41.5694" fill="white"/>
</clipPath>
</defs>
</svg>
