<svg width="40" height="40" viewBox="0 0 40 40" fill="none" xmlns="http://www.w3.org/2000/svg">
<g clip-path="url(#clip0_2433_1733)">
<path d="M37.5 35H9.16667C8.0616 35 7.00179 34.561 6.22039 33.7796C5.43899 32.9982 5 31.9384 5 30.8333V2.5C5 1.83696 4.73661 1.20107 4.26777 0.732233C3.79893 0.263392 3.16304 0 2.5 0C1.83696 0 1.20107 0.263392 0.732233 0.732233C0.263392 1.20107 0 1.83696 0 2.5L0 30.8333C0.00264695 33.2637 0.969268 35.5937 2.68778 37.3122C4.40629 39.0307 6.73633 39.9974 9.16667 40H37.5C38.163 40 38.7989 39.7366 39.2678 39.2678C39.7366 38.7989 40 38.163 40 37.5C40 36.837 39.7366 36.2011 39.2678 35.7322C38.7989 35.2634 38.163 35 37.5 35Z" fill="#273469"/>
<path d="M15.834 15C15.1709 15 14.5351 15.2634 14.0662 15.7322C13.5974 16.2011 13.334 16.837 13.334 17.5V29.1667C13.334 29.8297 13.5974 30.4656 14.0662 30.9344C14.5351 31.4033 15.1709 31.6667 15.834 31.6667C16.497 31.6667 17.1329 31.4033 17.6018 30.9344C18.0706 30.4656 18.334 29.8297 18.334 29.1667V17.5C18.334 16.837 18.0706 16.2011 17.6018 15.7322C17.1329 15.2634 16.497 15 15.834 15Z" fill="#273469"/>
<path d="M23.334 22.5V29.1667C23.334 29.8297 23.5974 30.4656 24.0662 30.9344C24.5351 31.4033 25.1709 31.6667 25.834 31.6667C26.497 31.6667 27.1329 31.4033 27.6017 30.9344C28.0706 30.4656 28.334 29.8297 28.334 29.1667V22.5C28.334 21.837 28.0706 21.2011 27.6017 20.7322C27.1329 20.2634 26.497 20 25.834 20C25.1709 20 24.5351 20.2634 24.0662 20.7322C23.5974 21.2011 23.334 21.837 23.334 22.5Z" fill="#273469"/>
<path d="M33.334 15.833V29.1663C33.334 29.8294 33.5974 30.4652 34.0662 30.9341C34.5351 31.4029 35.1709 31.6663 35.834 31.6663C36.497 31.6663 37.1329 31.4029 37.6017 30.9341C38.0706 30.4652 38.334 29.8294 38.334 29.1663V15.833C38.334 15.17 38.0706 14.5341 37.6017 14.0652C37.1329 13.5964 36.497 13.333 35.834 13.333C35.1709 13.333 34.5351 13.5964 34.0662 14.0652C33.5974 14.5341 33.334 15.17 33.334 15.833Z" fill="#273469"/>
<path d="M10.0003 12.5002C10.5677 12.5014 11.1184 12.3078 11.5603 11.9518L15.3569 8.91685C16.1236 8.30136 17.0906 7.99087 18.0723 8.04501C19.0539 8.09916 19.9809 8.51412 20.6753 9.21018C22.2776 10.7922 24.4121 11.72 26.6619 11.8124C28.9117 11.9049 31.1152 11.1553 32.8419 9.71018L39.1152 4.40185C39.3825 4.19526 39.6051 3.93665 39.7697 3.64162C39.9343 3.3466 40.0373 3.02129 40.0726 2.68533C40.108 2.34937 40.0749 2.00973 39.9753 1.68693C39.8757 1.36413 39.7118 1.06485 39.4933 0.807179C39.2749 0.549503 39.0065 0.338773 38.7043 0.187712C38.4021 0.0366511 38.0725 -0.0516064 37.7353 -0.0717314C37.3981 -0.0918563 37.0603 -0.0434313 36.7423 0.0706198C36.4243 0.184671 36.1328 0.361982 35.8852 0.591846L29.6136 5.90018C28.8454 6.54071 27.866 6.87175 26.8668 6.8286C25.8675 6.78545 24.9203 6.37121 24.2102 5.66685C22.647 4.09923 20.5599 3.16417 18.3495 3.04113C16.1391 2.91809 13.9611 3.61574 12.2336 5.00018L8.43861 8.04851C8.03429 8.37218 7.74048 8.81343 7.59777 9.31129C7.45505 9.80914 7.47048 10.339 7.64192 10.8277C7.81337 11.3165 8.13236 11.7399 8.55482 12.0395C8.97728 12.339 9.48236 12.5 10.0003 12.5002Z" fill="#273469"/>
</g>
<defs>
<clipPath id="clip0_2433_1733">
<rect width="40" height="40" fill="white"/>
</clipPath>
</defs>
</svg>
