<svg width="19" height="19" viewBox="0 0 19 19" fill="none" xmlns="http://www.w3.org/2000/svg">
<path d="M15.9259 0.45804L9.29681 7.08717L2.66768 0.45804C2.05749 -0.15215 1.06817 -0.15215 0.457975 0.45804C-0.152215 1.06823 -0.152215 2.05756 0.457975 2.66775L7.0871 9.29688L0.457975 15.926C-0.152215 16.5362 -0.152215 17.5255 0.457975 18.1357C1.06817 18.7459 2.05749 18.7459 2.66768 18.1357L9.29681 11.5066L15.9259 18.1357C16.5361 18.7459 17.5255 18.7459 18.1356 18.1357C18.7458 17.5255 18.7458 16.5362 18.1356 15.926L11.5065 9.29688L18.1356 2.66775C18.7458 2.05756 18.7458 1.06823 18.1356 0.45804C17.5255 -0.15215 16.5361 -0.15215 15.9259 0.45804Z" fill="#BABABA"/>
</svg>
