<svg width="38" height="37" viewBox="0 0 38 37" fill="none" xmlns="http://www.w3.org/2000/svg">
<g clip-path="url(#clip0_2313_11410)">
<path d="M15.7475 19.276C9.88762 19.8057 5.42321 24.7572 5.501 30.6404V30.9387C5.501 32.0778 6.42442 33.0012 7.5635 33.0012C8.70258 33.0012 9.626 32.0778 9.626 30.9387V30.5579C9.564 26.9456 12.2298 23.8652 15.8135 23.4079C19.5964 23.0328 22.9673 25.7954 23.3424 29.5783C23.3646 29.802 23.3758 30.0265 23.376 30.2513V30.9387C23.376 32.0778 24.2994 33.0012 25.4385 33.0012C26.5776 33.0012 27.501 32.0778 27.501 30.9387V30.2512C27.4943 24.1692 22.5584 19.2443 16.4765 19.251C16.2333 19.2513 15.9902 19.2596 15.7475 19.276Z" fill="#273469"/>
<path d="M16.501 16.5C21.0573 16.5 24.751 12.8063 24.751 8.25C24.751 3.69368 21.0573 0 16.501 0C11.9447 0 8.25098 3.69368 8.25098 8.25C8.25549 12.8045 11.9465 16.4954 16.501 16.5ZM16.501 4.125C18.7791 4.125 20.626 5.97184 20.626 8.25C20.626 10.5282 18.7791 12.375 16.501 12.375C14.2228 12.375 12.376 10.5282 12.376 8.25C12.376 5.97184 14.2228 4.125 16.501 4.125Z" fill="#273469"/>
</g>
<path d="M31.581 29.1983C31.8153 29.4418 32.1332 29.5785 32.4646 29.5785C32.7959 29.5785 33.1138 29.4418 33.3481 29.1983L37.2858 25.1074C37.7431 24.6312 38 23.9858 38 23.313C38 22.6402 37.7431 21.9949 37.2858 21.5187L33.344 17.4278C33.2303 17.2971 33.0922 17.1918 32.9381 17.1183C32.784 17.0449 32.6171 17.0047 32.4476 17.0004C32.2781 16.9961 32.1095 17.0276 31.9522 17.0931C31.7948 17.1586 31.6518 17.2567 31.5321 17.3815C31.4124 17.5062 31.3183 17.6549 31.2556 17.8186C31.1929 17.9823 31.163 18.1576 31.1675 18.3337C31.1721 18.5098 31.2111 18.6831 31.2822 18.8431C31.3533 19.003 31.4549 19.1463 31.581 19.2641L34.2738 22.0061H22.4317C21.2568 22.0077 20.1305 22.4934 19.2997 23.3567C18.469 24.22 18.0015 25.3904 18 26.6113V32.3957C18.0013 33.6164 18.4686 34.7867 19.2992 35.6499C20.1299 36.5131 21.2562 36.9986 22.4309 37H33.5656C33.8971 37 34.215 36.8632 34.4493 36.6196C34.6837 36.3761 34.8154 36.0457 34.8154 35.7013C34.8154 35.3569 34.6837 35.0265 34.4493 34.783C34.215 34.5394 33.8971 34.4026 33.5656 34.4026H22.4309C21.9189 34.4019 21.428 34.1903 21.066 33.814C20.7039 33.4378 20.5002 32.9277 20.4996 32.3957V26.6113C20.5 26.0789 20.7037 25.5685 21.066 25.1921C21.4282 24.8157 21.9194 24.604 22.4317 24.6035H34.2288L31.581 27.3619C31.3467 27.6055 31.215 27.9358 31.215 28.2801C31.215 28.6245 31.3467 28.9548 31.581 29.1983Z" fill="#273469"/>
<defs>
<clipPath id="clip0_2313_11410">
<rect width="33" height="33" fill="white"/>
</clipPath>
</defs>
</svg>
