<svg width="20" height="20" viewBox="0 0 20 20" fill="none" xmlns="http://www.w3.org/2000/svg">
<g clip-path="url(#clip0_2397_3425)">
<path d="M15.4167 0.833984H4.58333C3.36816 0.835308 2.20314 1.31862 1.34389 2.17787C0.484634 3.03713 0.00132347 4.20215 0 5.41732L0 14.584C0.00132347 15.7992 0.484634 16.9642 1.34389 17.8234C2.20314 18.6827 3.36816 19.166 4.58333 19.1673H15.4167C16.6318 19.166 17.7969 18.6827 18.6561 17.8234C19.5154 16.9642 19.9987 15.7992 20 14.584V5.41732C19.9987 4.20215 19.5154 3.03713 18.6561 2.17787C17.7969 1.31862 16.6318 0.835308 15.4167 0.833984ZM15.4167 3.33398C15.9221 3.33567 16.4092 3.52277 16.7858 3.85982L11.3692 9.27648C11.0013 9.62787 10.5121 9.82395 10.0033 9.82395C9.49458 9.82395 9.0054 9.62787 8.6375 9.27648L3.22083 3.85982C3.59571 3.52429 4.08025 3.33729 4.58333 3.33398H15.4167ZM15.4167 16.6673H4.58333C4.0308 16.6673 3.5009 16.4478 3.11019 16.0571C2.71949 15.6664 2.5 15.1365 2.5 14.584V6.68148L6.86583 11.0473C7.2773 11.459 7.76584 11.7855 8.30353 12.0083C8.84123 12.2311 9.41756 12.3458 9.99958 12.3458C10.5816 12.3458 11.1579 12.2311 11.6956 12.0083C12.2333 11.7855 12.7219 11.459 13.1333 11.0473L17.5 6.68148V14.584C17.5 15.1365 17.2805 15.6664 16.8898 16.0571C16.4991 16.4478 15.9692 16.6673 15.4167 16.6673Z" fill="#273469"/>
</g>
<defs>
<clipPath id="clip0_2397_3425">
<rect width="20" height="20" fill="white"/>
</clipPath>
</defs>
</svg>
