<svg width="36" height="61" viewBox="0 0 36 61" fill="none" xmlns="http://www.w3.org/2000/svg">
<path d="M-0.000229723 57.1595C0.000827203 56.1479 0.478608 55.1781 1.32808 54.4633L24.489 34.9489C25.1901 34.3584 25.7462 33.6574 26.1256 32.8857C26.505 32.1141 26.7003 31.2871 26.7003 30.4519C26.7003 29.6167 26.505 28.7897 26.1256 28.018C25.7462 27.2464 25.1901 26.5454 24.489 25.9549L1.35827 6.46597C0.533395 5.74638 0.0769641 4.78261 0.0872816 3.78223C0.097599 2.78186 0.57384 1.82491 1.41343 1.11751C2.25302 0.410113 3.38879 0.00885502 4.5761 0.00016202C5.76342 -0.00853098 6.90729 0.376036 7.76134 1.07104L30.8921 20.5447C34.0023 23.1703 35.749 26.7283 35.749 30.4379C35.749 34.1475 34.0023 37.7055 30.8921 40.3312L7.73115 59.8582C7.09785 60.3921 6.29079 60.7558 5.41211 60.9032C4.53342 61.0505 3.62261 60.975 2.79491 60.686C1.96721 60.3971 1.25983 59.9078 0.762278 59.2801C0.264726 58.6523 -0.000635825 57.9143 -0.000229723 57.1595V57.1595Z" fill="#273469"/>
</svg>
