<svg width="36" height="61" viewBox="0 0 36 61" fill="none" xmlns="http://www.w3.org/2000/svg">
<path d="M35.7493 3.8171C35.7482 4.82865 35.2704 5.79846 34.4209 6.51329L11.26 26.0276C10.559 26.6181 10.0029 27.3192 9.62345 28.0908C9.24404 28.8624 9.04876 29.6895 9.04876 30.5247C9.04876 31.3599 9.24404 32.1869 9.62345 32.9585C10.0029 33.7301 10.559 34.4312 11.26 35.0217L34.3908 54.5106C35.2156 55.2302 35.6721 56.194 35.6617 57.1943C35.6514 58.1947 35.1752 59.1516 34.3356 59.859C33.496 60.5664 32.3602 60.9677 31.1729 60.9764C29.9856 60.9851 28.8417 60.6005 27.9877 59.9055L4.85693 40.4319C1.74676 37.8063 0 34.2482 0 30.5387C0 26.8291 1.74676 23.271 4.85693 20.6454L28.0179 1.11836C28.6512 0.584424 29.4582 0.220768 30.3369 0.0734076C31.2156 -0.0739524 32.1264 0.00160751 32.9541 0.290526C33.7818 0.579445 34.4892 1.06874 34.9867 1.69649C35.4843 2.32424 35.7497 3.06224 35.7493 3.8171V3.8171Z" fill="#273469"/>
</svg>
