<svg width="41" height="41" viewBox="0 0 41 41" fill="none" xmlns="http://www.w3.org/2000/svg">
<path d="M39.249 14.8521L27.1437 2.74689C23.4718 -0.915631 17.5283 -0.915631 13.8563 2.74689L1.75109 14.8521C0.626153 15.971 -0.00438137 17.4935 2.29188e-05 19.0802V36.8093C0.00378658 39.1234 1.87985 40.9979 4.19403 40.9998H36.806C39.1202 40.998 40.9962 39.1234 40.9999 36.8093V19.0802C41.0044 17.4935 40.3739 15.971 39.249 14.8521ZM35.875 35.8748H27.3334V30.4389C27.3334 26.8367 24.4131 23.9165 20.8109 23.9165H20.1891C16.5869 23.9165 13.6667 26.8367 13.6667 30.4389V35.8748H5.12501V19.0802C5.12557 18.8537 5.2151 18.6365 5.37446 18.4755L17.4797 6.37026C19.1473 4.70216 21.8515 4.70184 23.5196 6.36946C23.5198 6.3697 23.5201 6.37002 23.5204 6.37026L35.6256 18.4755C35.7849 18.6365 35.8745 18.8537 35.875 19.0802V35.8748H35.875Z" fill="#E3F2FE"/>
</svg>
