<svg width="20" height="23" viewBox="0 0 20 23" fill="none" xmlns="http://www.w3.org/2000/svg">
<g clip-path="url(#clip0_2732_3120)">
<path d="M8.91667 2.47662C8.68235 1.91247 8.31108 1.43547 7.84626 1.10137C7.38143 0.767261 6.84223 0.589844 6.29167 0.589844C5.7411 0.589844 5.2019 0.767261 4.73708 1.10137C4.27225 1.43547 3.90099 1.91247 3.66667 2.47662H1.25C0.918479 2.47662 0.600537 2.62575 0.366116 2.89119C0.131696 3.15664 0 3.51666 0 3.89206H0C0 4.26746 0.131696 4.62748 0.366116 4.89293C0.600537 5.15838 0.918479 5.3075 1.25 5.3075H3.6625C3.89682 5.87166 4.26808 6.34865 4.73291 6.68276C5.19774 7.01686 5.73693 7.19428 6.2875 7.19428C6.83807 7.19428 7.37726 7.01686 7.84209 6.68276C8.30692 6.34865 8.67818 5.87166 8.9125 5.3075H18.75C19.0815 5.3075 19.3995 5.15838 19.6339 4.89293C19.8683 4.62748 20 4.26746 20 3.89206C20 3.51666 19.8683 3.15664 19.6339 2.89119C19.3995 2.62575 19.0815 2.47662 18.75 2.47662H8.91667Z" fill="white"/>
<path d="M13.7125 8.01953C13.162 8.02064 12.623 8.19855 12.1582 8.53261C11.6935 8.86667 11.3219 9.34317 11.0867 9.90679H1.25C0.918479 9.90679 0.600537 10.0559 0.366116 10.3214C0.131696 10.5868 0 10.9468 0 11.3222H0C0 11.6976 0.131696 12.0576 0.366116 12.3231C0.600537 12.5885 0.918479 12.7377 1.25 12.7377H11.0833C11.3177 13.3018 11.6889 13.7788 12.1537 14.1129C12.6186 14.447 13.1578 14.6244 13.7083 14.6244C14.2589 14.6244 14.7981 14.447 15.2629 14.1129C15.7278 13.7788 16.099 13.3018 16.3333 12.7377H18.75C19.0815 12.7377 19.3995 12.5885 19.6339 12.3231C19.8683 12.0576 20 11.6976 20 11.3222C20 10.9468 19.8683 10.5868 19.6339 10.3214C19.3995 10.0559 19.0815 9.90679 18.75 9.90679H16.3375C16.1023 9.34332 15.7309 8.86692 15.2663 8.53287C14.8016 8.19882 14.2629 8.02082 13.7125 8.01953Z" fill="white"/>
<path d="M6.2875 15.4512C5.73713 15.4525 5.19836 15.6305 4.73373 15.9645C4.2691 16.2986 3.89765 16.775 3.6625 17.3384H1.25C0.918479 17.3384 0.600537 17.4876 0.366116 17.753C0.131696 18.0184 0 18.3785 0 18.7539H0C0 19.1293 0.131696 19.4893 0.366116 19.7547C0.600537 20.0202 0.918479 20.1693 1.25 20.1693H3.6625C3.89682 20.7335 4.26808 21.2104 4.73291 21.5446C5.19774 21.8787 5.73693 22.0561 6.2875 22.0561C6.83807 22.0561 7.37726 21.8787 7.84209 21.5446C8.30692 21.2104 8.67818 20.7335 8.9125 20.1693H18.75C19.0815 20.1693 19.3995 20.0202 19.6339 19.7547C19.8683 19.4893 20 19.1293 20 18.7539C20 18.3785 19.8683 18.0184 19.6339 17.753C19.3995 17.4876 19.0815 17.3384 18.75 17.3384H8.91667C8.68121 16.7742 8.30912 16.2973 7.84368 15.9632C7.37823 15.6291 6.83858 15.4516 6.2875 15.4512Z" fill="white"/>
</g>
<defs>
<clipPath id="clip0_2732_3120">
<rect width="20" height="22.6471" fill="white"/>
</clipPath>
</defs>
</svg>
