<svg width="24" height="24" viewBox="0 0 24 24" fill="none" xmlns="http://www.w3.org/2000/svg">
<path d="M12.6417 10.5188L12.6422 1.06327C12.6422 0.476297 12.1663 0.000461135 11.5794 0.000484622C10.9924 0.000484622 10.5166 0.47632 10.5166 1.06327L10.5171 10.5188L1.06162 10.5183C0.474638 10.5183 -0.00119718 10.9941 -0.00117369 11.5811C-0.0011502 12.168 0.474662 12.6439 1.06162 12.6438L10.5171 12.6434L10.5166 22.0988C10.5166 22.6858 10.9924 23.1616 11.5794 23.1616C12.1663 23.1616 12.6422 22.6858 12.6422 22.0988L12.6417 12.6434L22.0972 12.6439C22.6841 12.6439 23.16 12.168 23.1599 11.5811C23.1599 10.9941 22.6841 10.5183 22.0972 10.5183L12.6417 10.5188Z" fill="white"/>
</svg>
