<svg width="40" height="40" viewBox="0 0 40 40" fill="none" xmlns="http://www.w3.org/2000/svg">
<g clip-path="url(#clip0_1535_8467)">
<path d="M20 0C16.0444 0 12.1776 1.17298 8.8886 3.37061C5.59962 5.56824 3.03617 8.69181 1.52242 12.3463C0.00866572 16.0009 -0.387401 20.0222 0.384303 23.9018C1.15601 27.7814 3.06082 31.3451 5.85787 34.1421C8.65492 36.9392 12.2186 38.844 16.0982 39.6157C19.9778 40.3874 23.9992 39.9913 27.6537 38.4776C31.3082 36.9638 34.4318 34.4004 36.6294 31.1114C38.827 27.8224 40 23.9556 40 20C39.9943 14.6974 37.8853 9.61368 34.1358 5.8642C30.3863 2.11471 25.3026 0.00573514 20 0V0ZM20 35C17.0333 35 14.1332 34.1203 11.6665 32.472C9.19972 30.8238 7.27713 28.4811 6.14182 25.7403C5.0065 22.9994 4.70945 19.9834 5.28823 17.0736C5.86701 14.1639 7.29562 11.4912 9.39341 9.3934C11.4912 7.29561 14.1639 5.867 17.0737 5.28822C19.9834 4.70944 22.9994 5.00649 25.7403 6.14181C28.4812 7.27712 30.8238 9.19971 32.4721 11.6664C34.1203 14.1332 35 17.0333 35 20C34.9952 23.9768 33.4132 27.7893 30.6013 30.6012C27.7893 33.4132 23.9768 34.9952 20 35V35Z" fill="#273469"/>
<path d="M19.2421 15.909H18.7421C18.0871 15.8929 17.4497 16.1221 16.9548 16.5516C16.46 16.981 16.1434 17.5799 16.0671 18.2307C16.0235 18.8817 16.2362 19.524 16.6597 20.0204C17.0832 20.5168 17.684 20.8279 18.3338 20.8873V28.6373C18.3338 29.3004 18.5972 29.9363 19.066 30.4051C19.5349 30.8739 20.1708 31.1373 20.8338 31.1373C21.4968 31.1373 22.1327 30.8739 22.6016 30.4051C23.0704 29.9363 23.3338 29.3004 23.3338 28.6373V20.0007C23.3338 18.9155 22.9027 17.8748 22.1354 17.1074C21.368 16.3401 20.3273 15.909 19.2421 15.909V15.909Z" fill="#273469"/>
<path d="M19.7174 14.1106C20.2831 14.1106 20.836 13.9429 21.3064 13.6286C21.7767 13.3144 22.1433 12.8677 22.3597 12.3451C22.5762 11.8225 22.6328 11.2475 22.5225 10.6927C22.4121 10.1379 22.1397 9.62828 21.7398 9.2283C21.3398 8.82832 20.8302 8.55593 20.2754 8.44558C19.7206 8.33523 19.1456 8.39186 18.623 8.60833C18.1004 8.8248 17.6537 9.19137 17.3394 9.6617C17.0252 10.132 16.8574 10.685 16.8574 11.2506C16.8572 11.6263 16.931 11.9983 17.0747 12.3454C17.2183 12.6925 17.429 13.0078 17.6946 13.2734C17.9602 13.5391 18.2756 13.7497 18.6227 13.8934C18.9698 14.037 19.3418 14.1108 19.7174 14.1106V14.1106Z" fill="#273469"/>
</g>
<defs>
<clipPath id="clip0_1535_8467">
<rect width="40" height="40" fill="white"/>
</clipPath>
</defs>
</svg>
