<svg width="46" height="78" viewBox="0 0 46 78" fill="none" xmlns="http://www.w3.org/2000/svg">
<path d="M45.3937 4.87721C45.3924 6.16971 44.7857 7.40885 43.7071 8.32221L14.2977 33.2562C13.4076 34.0107 12.7014 34.9065 12.2197 35.8924C11.7379 36.8783 11.49 37.935 11.49 39.0022C11.49 40.0694 11.7379 41.1261 12.2197 42.112C12.7014 43.0979 13.4076 43.9937 14.2977 44.7482L43.6687 69.6497C44.7162 70.5691 45.2957 71.8006 45.2826 73.0788C45.2695 74.357 44.6648 75.5797 43.5987 76.4836C42.5326 77.3874 41.0904 77.9001 39.5828 77.9113C38.0752 77.9224 36.6227 77.431 35.5382 76.543L6.16724 51.661C2.218 48.3061 0 43.7599 0 39.0201C0 34.2803 2.218 29.7341 6.16724 26.3792L35.5766 1.42896C36.3807 0.746735 37.4055 0.282081 38.5213 0.0937949C39.637 -0.094491 40.7935 0.00205396 41.8445 0.371213C42.8955 0.740373 43.7937 1.36555 44.4255 2.16765C45.0573 2.96975 45.3943 3.91271 45.3937 4.87721V4.87721Z" fill="#273469"/>
</svg>
