<svg width="150" height="150" viewBox="0 0 150 150" fill="none" xmlns="http://www.w3.org/2000/svg">
<circle cx="75" cy="75" r="74" fill="#BABABA" stroke="black" stroke-width="2"/>
<g clip-path="url(#clip0_1535_10466)">
<path d="M73.024 82.0756C57.6344 83.3463 45.9096 95.2249 46.114 109.339V110.054C46.114 112.787 48.5391 115.002 51.5306 115.002C54.5221 115.002 56.9473 112.787 56.9473 110.054V109.141C56.7845 100.475 63.7855 93.0851 73.1973 91.988C83.1323 91.0881 91.985 97.7156 92.9702 106.791C93.0284 107.327 93.0578 107.866 93.0583 108.405V110.054C93.0583 112.787 95.4835 115.002 98.475 115.002C101.467 115.002 103.892 112.787 103.892 110.054V108.405C103.874 93.8144 90.9111 81.9996 74.9384 82.0156C74.2998 82.0164 73.6613 82.0364 73.024 82.0756Z" fill="white" fill-opacity="0.5"/>
<path d="M75.0026 75.4163C86.9687 75.4163 96.6693 66.5552 96.6693 55.6247C96.6693 44.6941 86.9687 35.833 75.0026 35.833C63.0365 35.833 53.3359 44.6941 53.3359 55.6247C53.3478 66.5508 63.0414 75.4054 75.0026 75.4163ZM75.0026 45.7288C80.9857 45.7288 85.8359 50.1594 85.8359 55.6247C85.8359 61.09 80.9857 65.5205 75.0026 65.5205C69.0196 65.5205 64.1693 61.09 64.1693 55.6247C64.1693 50.1594 69.0196 45.7288 75.0026 45.7288Z" fill="white" fill-opacity="0.5"/>
</g>
<defs>
<clipPath id="clip0_1535_10466">
<rect x="31.668" y="35.833" width="86.6667" height="79.1667" rx="2" fill="white"/>
</clipPath>
</defs>
</svg>
