<svg width="18" height="18" viewBox="0 0 18 18" fill="none" xmlns="http://www.w3.org/2000/svg">
<g clip-path="url(#clip0_1535_11551)">
<path d="M8.85812 2.20797C10.6201 2.2139 12.308 2.91721 13.5529 4.16413L11.8005 5.91656H16.104C16.3284 5.91656 16.5436 5.82743 16.7022 5.66879C16.8609 5.51014 16.95 5.29497 16.95 5.07061V0.767048L15.1112 2.60584C13.8752 1.36404 12.2982 0.517366 10.5803 0.173238C8.86236 -0.17089 7.08092 0.0030397 5.46199 0.67296C3.84306 1.34288 2.45962 2.4786 1.48717 3.93602C0.51473 5.39343 -0.00288141 7.10687 1.2065e-05 8.85893H2.20716C2.20911 7.09558 2.91046 5.40502 4.15734 4.15815C5.40421 2.91127 7.09477 2.20992 8.85812 2.20797V2.20797Z" fill="white"/>
<path d="M15.5085 8.85791C15.5109 10.1735 15.1224 11.4602 14.3923 12.5546C13.6622 13.649 12.6234 14.5018 11.4078 15.0049C10.1922 15.5079 8.85451 15.6384 7.56457 15.3799C6.27463 15.1213 5.09058 14.4854 4.16271 13.5527L5.91514 11.8003H1.47058C1.28368 11.8005 1.10448 11.8748 0.972318 12.007C0.840155 12.1391 0.76582 12.3183 0.765625 12.5052V16.9498L2.60442 15.111C3.8404 16.3528 5.4174 17.1995 7.13533 17.5436C8.85326 17.8877 10.6347 17.7138 12.2536 17.0439C13.8726 16.374 15.256 15.2382 16.2284 13.7808C17.2009 12.3234 17.7185 10.61 17.7156 8.85791H15.5085Z" fill="white"/>
</g>
<defs>
<clipPath id="clip0_1535_11551">
<rect width="17.7162" height="17.7162" fill="white"/>
</clipPath>
</defs>
</svg>
