<svg width="18" height="18" viewBox="0 0 18 18" fill="none" xmlns="http://www.w3.org/2000/svg">
<path d="M2.13884 9.58483C2.6601 13.1271 5.95419 15.576 9.49641 15.0548C10.7049 14.877 11.8386 14.3613 12.7669 13.5672L11.9313 12.7316C11.6512 12.4514 11.6513 11.9972 11.9314 11.7172C12.0659 11.5827 12.2483 11.5072 12.4384 11.5071H15.7279C16.124 11.5071 16.4452 11.8283 16.4452 12.2244V15.5139C16.4451 15.91 16.1239 16.2311 15.7277 16.231C15.5376 16.231 15.3552 16.1555 15.2208 16.021L14.2882 15.0886C10.7323 18.2584 5.27998 17.9453 2.1102 14.3894C0.987229 13.1296 0.258489 11.5681 0.0142531 9.8983C-0.0820425 9.3063 0.319783 8.74833 0.911746 8.65204C0.965071 8.64336 1.01894 8.63869 1.07297 8.63802C1.61456 8.64387 2.06918 9.04771 2.13884 9.58483Z" fill="#273469"/>
<path d="M16.0362 8.6382C15.4946 8.63234 15.04 8.2285 14.9703 7.69138C14.4491 4.14916 11.155 1.70019 7.61274 2.22141C6.40421 2.39924 5.27052 2.91491 4.34226 3.70901L5.17788 4.54463C5.45796 4.82478 5.4579 5.27895 5.17772 5.55903C5.04326 5.69345 4.86089 5.769 4.67075 5.76904H1.38134C0.985194 5.76904 0.664062 5.44791 0.664062 5.05176V1.76229C0.664163 1.36615 0.985362 1.04508 1.38151 1.04515C1.57164 1.04519 1.75401 1.12074 1.88847 1.25516L2.82093 2.18762C6.37603 -0.982498 11.8279 -0.670445 14.9981 2.88468C16.1217 4.14469 16.8507 5.70673 17.0949 7.37718C17.1916 7.9691 16.7901 8.52734 16.1982 8.62404C16.1447 8.63281 16.0905 8.63756 16.0362 8.6382Z" fill="#273469"/>
</svg>
