<svg width="46" height="78" viewBox="0 0 46 78" fill="none" xmlns="http://www.w3.org/2000/svg">
<path d="M-0.000183837 73.0344C0.00115823 71.7419 0.607835 70.5028 1.68648 69.5894L31.0958 44.6554C31.986 43.9009 32.6921 43.0051 33.1739 42.0192C33.6556 41.0333 33.9036 39.9766 33.9036 38.9094C33.9036 37.8422 33.6556 36.7855 33.1739 35.7996C32.6921 34.8137 31.986 33.9179 31.0958 33.1634L1.72481 8.26191C0.677403 7.34247 0.0978355 6.11104 0.110936 4.83283C0.124037 3.55462 0.728759 2.33191 1.79486 1.42804C2.86095 0.524177 4.30313 0.0114783 5.81076 0.000370986C7.31839 -0.0107363 8.77085 0.480636 9.85531 1.36866L39.2263 26.2507C43.1756 29.6055 45.3936 34.1517 45.3936 38.8915C45.3936 43.6314 43.1756 48.1776 39.2263 51.5324L9.81698 76.4827C9.01282 77.1649 7.98804 77.6295 6.8723 77.8178C5.75657 78.0061 4.60003 77.9096 3.54903 77.5404C2.49804 77.1712 1.59982 76.5461 0.968035 75.744C0.336252 74.9419 -0.000699498 73.9989 -0.000183837 73.0344V73.0344Z" fill="#273469"/>
</svg>
