<svg width="41" height="41" viewBox="0 0 41 41" fill="none" xmlns="http://www.w3.org/2000/svg">
<path d="M40.2518 36.6356L32.3156 28.6968C38.2538 20.762 36.6347 9.516 28.6992 3.57831C20.7637 -2.35939 9.5168 -0.740371 3.57861 7.19446C-2.35958 15.1293 -0.740433 26.3753 7.19506 32.3129C13.5695 37.0826 22.3247 37.0826 28.6992 32.3129L36.6387 40.2518C37.6364 41.2494 39.254 41.2494 40.2517 40.2518C41.2494 39.2541 41.2494 37.6366 40.2517 36.639L40.2518 36.6356ZM18.0133 30.7807C10.9606 30.7807 5.24333 25.0639 5.24333 18.0118C5.24333 10.9597 10.9606 5.24289 18.0133 5.24289C25.066 5.24289 30.7833 10.9597 30.7833 18.0118C30.7757 25.0607 25.0629 30.7732 18.0133 30.7807Z" fill="#273469"/>
</svg>
