<svg width="25" height="25" viewBox="0 0 25 25" fill="none" xmlns="http://www.w3.org/2000/svg">
<g clip-path="url(#clip0_1535_9807)">
<path d="M11.1458 2.73515C10.8529 2.11238 10.3889 1.58583 9.80782 1.21701C9.22678 0.848194 8.55279 0.652344 7.86458 0.652344C7.17638 0.652344 6.50238 0.848194 5.92135 1.21701C5.34031 1.58583 4.87623 2.11238 4.58333 2.73515H1.5625C1.1481 2.73515 0.750671 2.89977 0.457646 3.1928C0.16462 3.48582 0 3.88325 0 4.29765H0C0 4.71205 0.16462 5.10948 0.457646 5.4025C0.750671 5.69553 1.1481 5.86015 1.5625 5.86015H4.57812C4.87102 6.48292 5.3351 7.00947 5.91614 7.37829C6.49717 7.74711 7.17117 7.94296 7.85938 7.94296C8.54758 7.94296 9.22158 7.74711 9.80261 7.37829C10.3836 7.00947 10.8477 6.48292 11.1406 5.86015H23.4375C23.8519 5.86015 24.2493 5.69553 24.5424 5.4025C24.8354 5.10948 25 4.71205 25 4.29765C25 3.88325 24.8354 3.48582 24.5424 3.1928C24.2493 2.89977 23.8519 2.73515 23.4375 2.73515H11.1458Z" fill="#273469"/>
<path d="M17.1406 8.85352C16.4525 8.85474 15.7788 9.05114 15.1978 9.41991C14.6168 9.78867 14.1523 10.3147 13.8583 10.9368H1.5625C1.1481 10.9368 0.750671 11.1015 0.457646 11.3945C0.16462 11.6875 0 12.0849 0 12.4993H0C0 12.9138 0.16462 13.3112 0.457646 13.6042C0.750671 13.8972 1.1481 14.0619 1.5625 14.0619H13.8542C14.1471 14.6846 14.6111 15.2112 15.1922 15.58C15.7732 15.9488 16.4472 16.1447 17.1354 16.1447C17.8236 16.1447 18.4976 15.9488 19.0787 15.58C19.6597 15.2112 20.1238 14.6846 20.4167 14.0619H23.4375C23.8519 14.0619 24.2493 13.8972 24.5424 13.6042C24.8354 13.3112 25 12.9138 25 12.4993C25 12.0849 24.8354 11.6875 24.5424 11.3945C24.2493 11.1015 23.8519 10.9368 23.4375 10.9368H20.4219C20.1279 10.3148 19.6636 9.78894 19.0828 9.42018C18.502 9.05143 17.8286 8.85494 17.1406 8.85352Z" fill="#273469"/>
<path d="M7.85938 17.0566C7.17141 17.0581 6.49795 17.2546 5.91716 17.6233C5.33637 17.9921 4.87207 18.518 4.57812 19.14H1.5625C1.1481 19.14 0.750671 19.3046 0.457646 19.5976C0.16462 19.8906 0 20.2881 0 20.7025H0C0 21.1169 0.16462 21.5143 0.457646 21.8073C0.750671 22.1003 1.1481 22.265 1.5625 22.265H4.57812C4.87102 22.8877 5.3351 23.4143 5.91614 23.7831C6.49717 24.1519 7.17117 24.3478 7.85938 24.3478C8.54758 24.3478 9.22158 24.1519 9.80261 23.7831C10.3836 23.4143 10.8477 22.8877 11.1406 22.265H23.4375C23.8519 22.265 24.2493 22.1003 24.5424 21.8073C24.8354 21.5143 25 21.1169 25 20.7025C25 20.2881 24.8354 19.8906 24.5424 19.5976C24.2493 19.3046 23.8519 19.14 23.4375 19.14H11.1458C10.8515 18.5172 10.3864 17.9907 9.80459 17.6219C9.22279 17.2531 8.54823 17.0571 7.85938 17.0566Z" fill="#273469"/>
</g>
<defs>
<clipPath id="clip0_1535_9807">
<rect width="25" height="25" fill="white"/>
</clipPath>
</defs>
</svg>
