<svg width="16" height="15" viewBox="0 0 16 15" fill="none" xmlns="http://www.w3.org/2000/svg">
<path d="M12.4547 2.72727H11.21C11.0158 1.94908 10.5743 1.25893 9.95493 0.765269C9.33551 0.271606 8.57328 0.00241613 7.788 0H3.54533C2.60538 0.00108277 1.70422 0.383445 1.03957 1.0632C0.374924 1.74296 0.00105871 2.66459 0 3.62591L0 9.97977C0.00219695 10.6063 0.198139 11.216 0.559778 11.7217C0.921418 12.2274 1.43021 12.6031 2.01333 12.795C2.00933 12.8482 2 12.9 2 12.9545C2 13.497 2.21071 14.0173 2.58579 14.4009C2.96086 14.7845 3.46957 15 4 15C4.53043 15 5.03914 14.7845 5.41421 14.4009C5.78929 14.0173 6 13.497 6 12.9545H10C10 13.497 10.2107 14.0173 10.5858 14.4009C10.9609 14.7845 11.4696 15 12 15C12.5304 15 13.0391 14.7845 13.4142 14.4009C13.7893 14.0173 14 13.497 14 12.9545C14 12.9 13.9907 12.8489 13.9867 12.7957C14.5698 12.6036 15.0787 12.2278 15.4403 11.722C15.8019 11.2162 15.9978 10.6064 16 9.97977V6.32182C15.9951 5.3646 15.619 4.4485 14.9543 3.77459C14.2896 3.10067 13.3906 2.72401 12.4547 2.72727ZM14 6.32182V6.81818H11.3333V4.77273H12.4547C12.6562 4.76846 12.8565 4.80538 13.0438 4.88133C13.2312 4.95727 13.4018 5.07071 13.5458 5.215C13.6897 5.35928 13.804 5.5315 13.882 5.72156C13.96 5.91162 14.0001 6.1157 14 6.32182ZM2.90933 10.9091C2.66833 10.9089 2.43724 10.811 2.26677 10.6367C2.09629 10.4625 2.00035 10.2263 2 9.97977V3.62591C2.00053 3.20691 2.16351 2.80523 2.4532 2.50896C2.74289 2.21268 3.13565 2.046 3.54533 2.04545H7.788C8.19769 2.046 8.59044 2.21268 8.88013 2.50896C9.16982 2.80523 9.3328 3.20691 9.33333 3.62591V10.9091H2.90933ZM13.0913 10.9091H11.3333V8.86364H14V9.97977C13.9998 10.2262 13.904 10.4625 13.7337 10.6367C13.5633 10.8109 13.3323 10.9089 13.0913 10.9091Z" fill="#FFFEFA"/>
</svg>
