<svg width="28" height="41" viewBox="0 0 28 41" fill="none" xmlns="http://www.w3.org/2000/svg">
<path d="M12.7317 23.9488C5.45128 24.6069 -0.0954103 30.7587 0.00124402 38.0682V38.4389C0.00124402 39.8541 1.14852 41.0014 2.56374 41.0014C3.97896 41.0014 5.12624 39.8541 5.12624 38.4389V37.9657C5.04921 33.4777 8.36124 29.6505 12.8137 29.0824C17.5138 28.6163 21.7018 32.0486 22.1678 36.7487C22.1954 37.0265 22.2093 37.3055 22.2096 37.5848V38.4389C22.2096 39.8541 23.3568 41.0014 24.7721 41.0014C26.1873 41.0014 27.3346 39.8541 27.3346 38.4389V37.5847C27.3262 30.0283 21.1938 23.9094 13.6374 23.9177C13.3353 23.9181 13.0332 23.9285 12.7317 23.9488Z" fill="#E3F2FE"/>
<path d="M13.668 20.5C19.3289 20.5 23.918 15.9109 23.918 10.25C23.918 4.58912 19.3289 0 13.668 0C8.00709 0 3.41797 4.58912 3.41797 10.25C3.42357 15.9086 8.00941 20.4943 13.668 20.5ZM13.668 5.125C16.4984 5.125 18.793 7.41956 18.793 10.25C18.793 13.0804 16.4984 15.375 13.668 15.375C10.8375 15.375 8.54297 13.0804 8.54297 10.25C8.54297 7.41956 10.8375 5.125 13.668 5.125Z" fill="#E3F2FE"/>
</svg>
