<svg width="107" height="82" viewBox="0 0 107 82" fill="none" xmlns="http://www.w3.org/2000/svg">
<path d="M0 0H107V82H0V0Z" fill="#E3F2FE"/>
<path d="M53.5645 43.9487C46.284 44.6068 40.7373 50.7587 40.834 58.0681V58.4388C40.834 59.854 41.9813 61.0013 43.3965 61.0013C44.8117 61.0013 45.959 59.854 45.959 58.4388V57.9656C45.882 53.4776 49.194 49.6505 53.6465 49.0823C58.3465 48.6163 62.5345 52.0486 63.0006 56.7486C63.0281 57.0265 63.0421 57.3055 63.0423 57.5847V58.4388C63.0423 59.854 64.1896 61.0013 65.6048 61.0013C67.02 61.0013 68.1673 59.854 68.1673 58.4388V57.5846C68.159 50.0282 62.0265 43.9093 54.4702 43.9177C54.168 43.9181 53.866 43.9284 53.5645 43.9487Z" fill="#273469"/>
<path d="M54.5007 40.5C60.1616 40.5 64.7507 35.9109 64.7507 30.25C64.7507 24.5891 60.1616 20 54.5007 20C48.8399 20 44.2507 24.5891 44.2507 30.25C44.2563 35.9086 48.8422 40.4943 54.5007 40.5ZM54.5007 25.125C57.3312 25.125 59.6257 27.4196 59.6257 30.25C59.6257 33.0804 57.3312 35.375 54.5007 35.375C51.6703 35.375 49.3757 33.0804 49.3757 30.25C49.3757 27.4196 51.6703 25.125 54.5007 25.125Z" fill="#273469"/>
</svg>
