<svg width="45" height="45" viewBox="0 0 45 45" fill="none" xmlns="http://www.w3.org/2000/svg">
<g clip-path="url(#clip0_2386_11410)">
<path d="M9.28055 45.0012C10.745 45.0012 11.9322 43.85 11.9322 42.4298C11.9322 41.0097 10.745 39.8584 9.28055 39.8584C7.81609 39.8584 6.62891 41.0097 6.62891 42.4298C6.62891 43.85 7.81609 45.0012 9.28055 45.0012Z" fill="white"/>
<path d="M22.5384 45.0012C24.0028 45.0012 25.19 43.85 25.19 42.4298C25.19 41.0097 24.0028 39.8584 22.5384 39.8584C21.0739 39.8584 19.8867 41.0097 19.8867 42.4298C19.8867 43.85 21.0739 45.0012 22.5384 45.0012Z" fill="white"/>
<path d="M26.185 31.0673C25.9926 31.746 25.5757 32.3446 24.9985 32.7712C24.4213 33.1979 23.7156 33.429 22.9898 33.4292H9.56848C9.46007 33.4283 9.35588 33.3883 9.27622 33.317C9.19656 33.2457 9.14714 33.1482 9.13759 33.0435L8.00268 24.4292H12.5953C13.1228 24.4292 13.6286 24.226 14.0016 23.8644C14.3746 23.5027 14.5841 23.0121 14.5841 22.5007C14.5841 21.9892 14.3746 21.4986 14.0016 21.137C13.6286 20.7753 13.1228 20.5721 12.5953 20.5721H7.49489L7.14752 17.9223C7.02149 16.8814 6.50579 15.9216 5.6983 15.225C4.89081 14.5285 3.84772 14.1436 2.767 14.1436H1.98874C1.46129 14.1436 0.955448 14.3467 0.582488 14.7084C0.209527 15.0701 0 15.5606 0 16.0721C0 16.5836 0.209527 17.0741 0.582488 17.4358C0.955448 17.7975 1.46129 18.0007 1.98874 18.0007H2.767C2.8754 18.0015 2.97959 18.0415 3.05925 18.1128C3.13891 18.1841 3.18834 18.2817 3.19789 18.3864L5.18663 33.5063C5.31239 34.5476 5.82815 35.5079 6.63595 36.2048C7.44374 36.9016 8.48732 37.2865 9.56848 37.2863H22.9885C24.5849 37.2854 26.1368 36.7765 27.4062 35.8377C28.6756 34.8989 29.5922 33.5822 30.0154 32.0895L30.0366 32.0123C30.1177 31.7265 30.1298 31.4264 30.0718 31.1353C30.0139 30.8442 29.8876 30.57 29.7027 30.3339C29.5177 30.0979 29.2792 29.9063 29.0055 29.7742C28.7318 29.6421 28.4304 29.5729 28.1247 29.5721C27.6896 29.572 27.2665 29.7102 26.9202 29.9657C26.574 30.2211 26.3236 30.5797 26.2076 30.9863L26.185 31.0673Z" fill="white"/>
</g>
<path d="M25.3125 16.3645L22.5 19.0919L19.6875 16.3645C19.3145 16.0029 18.8087 15.7997 18.2812 15.7997C17.7538 15.7997 17.248 16.0029 16.875 16.3645C16.502 16.7262 16.2925 17.2168 16.2925 17.7282C16.2925 18.2397 16.502 18.7303 16.875 19.0919L19.6875 21.8193L16.875 24.5467C16.502 24.9084 16.2925 25.3989 16.2925 25.9104C16.2925 26.4219 16.502 26.9125 16.875 27.2741C17.248 27.6358 17.7538 27.839 18.2812 27.839C18.8087 27.839 19.3145 27.6358 19.6875 27.2741L22.5 24.5467L25.3125 27.2741C25.6855 27.6358 26.1913 27.839 26.7187 27.839C27.2462 27.839 27.752 27.6358 28.125 27.2741C28.498 26.9125 28.7075 26.4219 28.7075 25.9104C28.7075 25.3989 28.498 24.9084 28.125 24.5467L25.3125 21.8193L28.125 19.0919C28.498 18.7303 28.7075 18.2397 28.7075 17.7282C28.7075 17.2168 28.498 16.7262 28.125 16.3645C27.752 16.0029 27.2462 15.7997 26.7187 15.7997C26.1913 15.7997 25.6855 16.0029 25.3125 16.3645Z" fill="white"/>
<defs>
<clipPath id="clip0_2386_11410">
<rect width="31.8198" height="30.857" fill="white" transform="translate(0 14.1436)"/>
</clipPath>
</defs>
</svg>
