<svg width="21" height="21" viewBox="0 0 21 21" fill="none" xmlns="http://www.w3.org/2000/svg">
<g clip-path="url(#clip0_2469_6779)">
<path d="M15.5237 0.857422H4.61517C3.39156 0.858784 2.21845 1.35603 1.35322 2.24006C0.488 3.1241 0.00133267 4.32271 0 5.57292L0 15.0039C0.00133267 16.2541 0.488 17.4527 1.35322 18.3368C2.21845 19.2208 3.39156 19.7181 4.61517 19.7194H15.5237C16.7474 19.7181 17.9205 19.2208 18.7857 18.3368C19.6509 17.4527 20.1376 16.2541 20.1389 15.0039V5.57292C20.1376 4.32271 19.6509 3.1241 18.7857 2.24006C17.9205 1.35603 16.7474 0.858784 15.5237 0.857422V0.857422ZM15.5237 3.42951C16.0326 3.43124 16.5232 3.62375 16.9024 3.97051L11.4481 9.54337C11.0777 9.90489 10.5851 10.1066 10.0728 10.1066C9.56053 10.1066 9.06795 9.90489 8.69749 9.54337L3.2432 3.97051C3.62068 3.62531 4.10859 3.43292 4.61517 3.42951H15.5237ZM15.5237 17.1473H4.61517C4.0588 17.1473 3.52521 16.9215 3.1318 16.5195C2.73838 16.1176 2.51736 15.5724 2.51736 15.0039V6.87354L6.91352 11.3653C7.32785 11.7888 7.81978 12.1247 8.36121 12.354C8.90264 12.5832 9.48297 12.7011 10.069 12.7011C10.6551 12.7011 11.2354 12.5832 11.7769 12.354C12.3183 12.1247 12.8102 11.7888 13.2246 11.3653L17.6216 6.87354V15.0039C17.6216 15.5724 17.4005 16.1176 17.0071 16.5195C16.6137 16.9215 16.0801 17.1473 15.5237 17.1473Z" fill="white"/>
</g>
<defs>
<clipPath id="clip0_2469_6779">
<rect width="20.1389" height="20.5767" fill="white"/>
</clipPath>
</defs>
</svg>
