<svg xmlns="http://www.w3.org/2000/svg" version="1.1" width="600px" height="600px" viewBox="0 0 200 200" style="overflow:hidden!important;"><defs id="SvgjsDefs14482"></defs><g id="svga-group-wrapper"><g id="svga-group-backs-single"><path id="SvgjsPath15176" d="M0 151.2s23.5-5.1 41.7 13.1S59.6 192.1 87 200H0v-48.8z" fill="#ff0000" stroke-width="none" opacity="1"></path><path id="SvgjsPath15177" d="M133.6 180.5c-23.4-5.2-55.2-7.3-78.3-46.1S0 100 0 100v51.2s23.5-5.1 41.7 13.1S59.6 192.1 87 200h80.9s-10.9-14.4-34.3-19.5z" fill="#ff6700" stroke-width="none" opacity="1"></path><path id="SvgjsPath15178" d="M170.8 156c-37.1 6.4-73.1-10.7-84.6-38.1-17-40.6-35.4-62.5-53.5-65-17.9-2.5-32.8 0-32.8 0V100s32.3-4.5 55.3 34.4 54.9 41 78.3 46.1 34.3 19.5 34.3 19.5H200v-50.1s-13.7 3.4-29.2 6.1z" fill="#ffb600" stroke-width="none" opacity="1"></path><path id="SvgjsPath15179" d="M149.1 124.2c-28.7-13.4-33-30-37.2-43.8-4.2-13.7-16.3-50-45.7-65.3S0 8 0 8v45s14.9-2.5 32.8 0c18.1 2.5 36.4 24.5 53.5 65 11.5 27.4 47.5 44.5 84.6 38.1 15.5-2.7 29.2-6.1 29.2-6.1v-14.3c-.1-.1-22.3 1.9-51-11.5z" fill="#378c00" stroke-width="none" opacity="1"></path><path id="SvgjsPath15180" d="M170.3 103c-17.6-9.8-25.8-29.7-34.3-63.3C127.5 6 100 0 100 0H0v8s36.8-8.2 66.1 7.2 41.5 51.6 45.7 65.3 8.5 30.4 37.2 43.8c28.7 13.4 50.9 11.4 50.9 11.4v-21.2c.1-.1-12-1.7-29.6-11.5z" fill="#00b1ba" stroke-width="none" opacity="1"></path><path id="SvgjsPath15181" d="M166.1 37.8C152.1 27.3 149.9 0 149.9 0H100s27.5 6 36 39.6 16.6 53.5 34.3 63.3 29.7 11.4 29.7 11.4V61.1s-19.8-12.9-33.9-23.3z" fill="#0530e2" stroke-width="none" opacity="1"></path><path id="SvgjsPath15182" d="M149.9 0s2.1 27.3 16.2 37.8S200 61.1 200 61.1V0h-50.1z" fill="#8900ea" stroke-width="none" opacity="1"></path><path id="SvgjsPath15183" d="M74.2 196.2c-2.6-1.1-5-2.4-7.4-3.9l-1.7-1.2c-.6-.4-1.1-.9-1.7-1.3-.5-.4-1.1-.9-1.7-1.3-.5-.5-1-.9-1.6-1.4-.5-.5-1.1-.9-1.6-1.4l-1.5-1.5c-1-1-2-2.1-3-3.1-3.9-4.4-7.2-9.2-10.5-14.1-1.7-2.4-3.2-5-5.1-7.4-.5-.6-.9-1.2-1.4-1.8-.5-.6-1-1.2-1.6-1.8l-.8-.8-.9-.8c-.6-.5-1.3-1-1.9-1.4-2.7-1.7-5.7-2.9-8.7-3.6s-6.1-1-9.2-1c-3.1 0-6.1.3-9 .9-1.7.3-3.3.7-5 1.2v1.6c4.7-.2 9.3-.2 13.8.2 2.8.3 5.6.7 8.3 1.4 2.7.7 5.2 1.7 7.7 2.9 1.2.6 2.4 1.3 3.5 2.1.6.4 1.1.8 1.6 1.3.5.4 1 1 1.6 1.5 2.1 2 4 4.2 5.8 6.5 3.5 4.7 6.4 9.8 9.7 14.8 1.7 2.5 3.4 5 5.4 7.3.5.6 1 1.1 1.5 1.7s1.1 1.1 1.7 1.6c.6.5 1.1 1.1 1.7 1.5l1.8 1.4c1.9 1.5 3.9 2.7 6 3.9h14.6c-.9-.3-1.7-.6-2.6-.9-2.6-1.1-5.2-2-7.8-3.1zm82.6-11.6c-.5-.3-1.1-.6-1.6-.9l-1.6-.8c-1.1-.5-2.2-1.1-3.3-1.6l-3.4-1.4c-1.1-.5-2.3-.9-3.4-1.3-4.6-1.7-9.3-3-14-4-2.4-.6-4.8-.9-7.1-1.3-2.4-.3-4.8-.7-7.2-.9-2.4-.3-4.8-.5-7.2-.7-1.2-.1-2.3-.2-3.4-.3-1.1-.2-2.2-.3-3.3-.6-8.8-1.9-17.1-6.4-24.4-12.2-7.3-5.8-13.6-13.1-19-20.9-2.7-3.9-5.1-8-7.4-12.1-1.2-2.1-2.3-4.2-3.4-6.2l-1.7-3.1c-.6-1.1-1.2-2.2-1.9-3.2-2.8-4.1-6.3-7.9-10.4-10.7-2-1.5-4.2-2.7-6.4-3.8-2.2-1.1-4.6-1.9-6.9-2.7-2.4-.8-4.8-1.2-7.2-1.6-2.4-.4-4.8-.6-7.3-.7-1.8 0-3.5 0-5.3.1v2c6.4.5 12.6 1.7 18.5 3.8 2.1.8 4.2 1.7 6.2 2.8 2 1.1 4 2.2 5.8 3.6.9.6 1.8 1.4 2.6 2.1.8.8 1.7 1.5 2.5 2.3l1.2 1.2 1.1 1.3c.8.8 1.4 1.7 2.2 2.6.7.9 1.3 1.8 2 2.8.7 1 1.3 2 2 3 1.4 2 2.7 3.9 4.1 5.9 2.8 3.9 5.6 7.8 8.5 11.6 5.7 7.7 11.5 15.2 18.5 22 3.5 3.4 7.3 6.5 11.5 9s8.8 4.5 13.7 5.7c1.2.3 2.4.5 3.7.8 1.2.2 2.5.4 3.7.5 2.3.3 4.7.6 7 .9 2.3.3 4.6.7 7 1.1 2.3.4 4.6.8 6.9 1.3 9.2 1.8 18.1 4.4 26.5 8.3 4.2 1.9 8.2 4.3 12.1 6.9l2.9 2c.9.7 1.8 1.5 2.8 2.2l.9.7h1.9c-5.5-6.2-11.9-11.5-19-15.5zm-6.8-28.8c-5.6-.1-11.3-.7-16.8-1.7-5.5-1.1-10.8-2.7-15.9-5.1-10-4.9-18.3-12.8-24.3-22.6-1.5-2.4-3-4.9-4.3-7.4-1.4-2.5-2.7-5.1-4-7.7-2.5-5.2-4.9-10.5-7.3-15.8-1.2-2.6-2.4-5.3-3.7-7.9-1.2-2.6-2.5-5.2-3.9-7.8-2.8-5.2-6-10.2-9.9-14.7-4-4.5-8.7-8.4-14.1-11.2-5.3-2.9-11.1-4.8-17-5.8-.7-.1-1.5-.3-2.2-.4l-2.2-.2-2.2-.2h-4.4l-2.2.1c-1.5 0-3 .2-4.4.4-.7.1-1.5.2-2.2.3l-2.2.4c-1.4.3-2.9.6-4.3 1.1-.8.2-1.7.5-2.5.8v1.5c9.4-1.9 19-1.9 28.2.2 1.4.3 2.7.6 4 1.1l2 .6 1 .3 1 .4c1.3.5 2.6 1 3.9 1.6l3.7 1.9c.6.3 1.2.7 1.8 1 .6.4 1.2.7 1.8 1.1l1.6.9 1.7 1.2c2.2 1.7 4.3 3.6 6.2 5.6 7.9 8 14 17.9 19.1 28.3 2.5 5.2 4.9 10.5 7.2 15.8 2.4 5.3 4.7 10.6 7.5 15.8 2.7 5.2 6 10.3 10.2 14.6 4.1 4.4 9 8 14.4 10.8 10.7 5.6 22.9 7.9 34.7 8 11.9 0 23.6-1.8 34.9-5 5.1-1.5 10.2-3.2 15.1-5.2v-2.8c-5.3 1.6-10.7 3.1-16.1 4.2-11.2 2.3-22.6 3.6-33.9 3.5zm41.1-20.2-2.1-.1-2.1-.1c-.7 0-1.4-.1-2.1-.2-2.9-.2-5.6-.7-8.5-1.1-2.8-.6-5.6-1.1-8.3-2-2.8-.7-5.4-1.7-8.1-2.6-1.3-.5-2.6-1.1-3.9-1.7-1.3-.6-2.6-1-3.9-1.7-2.5-1.3-5.1-2.5-7.5-3.9-1.2-.7-2.4-1.5-3.6-2.2-1.1-.8-2.4-1.6-3.5-2.4-2.3-1.7-4.4-3.5-6.5-5.5-4.1-4-7.6-8.5-10.6-13.5-2.9-5-5.2-10.3-7.2-15.7-2-5.4-3.5-11-5.2-16.6-.8-2.8-1.7-5.6-2.6-8.4-.9-2.8-1.9-5.6-3-8.3-1.1-2.7-2.4-5.5-3.8-8.1-1.4-2.6-2.9-5.2-4.5-7.7-1.7-2.5-3.4-4.9-5.3-7.2s-4-4.5-6.2-6.6c-4.4-4.1-9.6-7.5-15.1-10.1C61.8 7.3 56 5.5 50 4.6c-5.9-.9-11.9-1.1-17.8-.8-3 .1-5.9.4-8.8.8-1.5.2-2.9.4-4.4.7l-4.3.8c-2.9.7-5.7 1.3-8.6 2.1-2 .6-4.1 1.2-6.1 1.9v.8C10.7 9 21.5 7.6 32.3 7.8c5.7 0 11.4.5 16.9 1.6 5.5 1.1 10.9 2.8 15.9 5.2 2.5 1.2 4.9 2.5 7.2 4.1 2.3 1.6 4.5 3.2 6.6 5.1 4.2 3.7 7.9 8 11.2 12.6 3.2 4.7 6.2 9.6 8.6 14.7 2.4 5.2 4.6 10.5 6.6 16 2 5.4 4.1 10.9 6.2 16.3 1.1 2.7 2.2 5.4 3.4 8.1.6 1.3 1.3 2.6 1.9 4 .7 1.3 1.3 2.6 2.1 3.9 1.4 2.6 2.9 5.1 4.6 7.5 1.6 2.5 3.5 4.8 5.4 7.1 3.9 4.5 8.4 8.6 13.4 11.8 2.5 1.7 5.1 3 7.8 4.4 1.3.7 2.7 1.2 4.1 1.9 1.4.6 2.7 1.2 4.1 1.7 5.6 2 11.4 3.5 17.3 4.3 3 .3 5.9.6 8.9.7.7 0 1.5.1 2.2.1l2.2-.1 2.2-.1 2.2-.2c2.2-.2 4.5-.5 6.7-.9v-2c-2.3.2-4.5.2-6.8.2l-2.1-.2zM118.9 6.8c1.3 1.3 2.5 2.7 3.6 4.1 2.2 2.9 4.4 5.9 6.3 9 1.9 3.1 3.6 6.4 5 9.8l1 2.6c.3.9.5 1.8.8 2.7.3.9.4 1.8.6 2.7.2.9.4 1.8.6 2.8 1.3 7.5 2.5 15 4.1 22.5.9 3.7 1.7 7.5 3 11.2.3.9.6 1.8 1 2.8l1.1 2.7.6 1.3.7 1.3c.4.9.9 1.8 1.3 2.6 1.9 3.5 4.2 6.8 6.9 9.7 2.7 3 5.8 5.6 9.3 7.7 3.5 2.1 7.4 3.5 11.2 4.4 3.9.9 7.7 1.4 11.6 1.6l2.9.1h2.9c1.9 0 3.8-.1 5.8-.2.3 0 .6-.1.9-.1v-2.4c-4.1-.3-8.1-.8-12.1-1.4-.9-.1-1.8-.3-2.7-.5l-1.4-.2-1.4-.3c-1.8-.3-3.6-.8-5.3-1.3-3.5-1.1-6.7-2.4-9.7-4.3-6.1-3.7-11-9-14.9-15.2-.5-.8-.9-1.6-1.4-2.4l-.7-1.2-.6-1.2-1.2-2.5-1.1-2.5c-.4-.8-.8-1.7-1.1-2.6l-1.1-2.6c-.7-1.7-1.3-3.5-1.9-5.3-2.4-7.1-4.1-14.5-5.1-22-.5-3.8-1-7.6-2-11.4-.9-3.8-2.2-7.5-4-11-1.8-3.5-3.9-6.8-6.5-9.8-1.3-1.5-2.6-2.9-4-4.3-1.4-1.3-2.8-2.6-4.3-3.8h-5.9c1.1.9 2.2 1.9 3.3 2.9 1.4 1.3 2.7 2.6 3.9 4zm32.4-1.4c.2 2.4.4 4.9 1 7.3.2 1.2.6 2.4.8 3.6.4 1.2.7 2.4 1.1 3.5.7 2.3 1.7 4.6 2.8 6.8 1.2 2.2 2.5 4.3 4 6.2.7 1 1.5 1.9 2.3 2.9.4.5.8.9 1.2 1.4s.8.9 1.2 1.4c.9.8 1.7 1.7 2.5 2.6l1.2 1.3 1.2 1.3c.8.9 1.6 1.7 2.4 2.7.8.9 1.7 1.7 2.5 2.6.8.9 1.7 1.7 2.6 2.5.9.8 1.8 1.7 2.8 2.3l3 2.1c1.1.6 2.1 1.2 3.2 1.8 1.1.5 2.2 1 3.4 1.5 1.1.4 2.3.8 3.5 1.2 1.2.3 2.4.7 3.6.9.8.2 1.6.3 2.4.4v-3.1c-1.6-.6-3.1-1.2-4.6-1.9l-3.1-1.5-3.1-1.5c-1-.6-2-1.1-3-1.7-1-.6-2-1.2-3-1.7s-2-1.2-3-1.7-2-1.1-3-1.8c-1-.6-1.9-1.3-2.9-2-.9-.7-1.8-1.5-2.7-2.3-.4-.4-.9-.8-1.3-1.2l-1.2-1.3c-.8-.9-1.6-1.8-2.3-2.7-1.4-1.8-2.6-3.8-3.6-5.9-2-4.2-3.4-8.5-4.6-12.9-1.1-4.4-1.6-9-2.1-13.5-.2-1.7-.3-3.3-.4-5h-5c0 1.8 0 3.6.2 5.4z" fill="#ffffff" stroke-width="none" opacity="1"></path></g><g id="svga-group-humanwrap-move" transform="matrix(1,0,0,1,0,0)"><g id="svga-group-humanwrap" transform="matrix(1,0,0,1,0,0)"><g id="svga-group-hair-back-move" transform="matrix(1,0,0,1,0,0)"><g id="svga-group-hair-back" transform="matrix(1,0,0,1,0,0)"><path id="SvgjsPath15276" d="M123.7 122c1.7 12.1 2.4 24.2 2.3 36.3 0 2.4 3.7 2.4 3.8 0 .1-12.5-.7-24.9-2.4-37.3-.4-2.4-4-1.4-3.7 1zm3.8-4.1c2.3 11.6 3.3 23.3 3.1 35.2-.1 2.4 3.7 2.4 3.8 0 .3-12.2-.8-24.2-3.2-36.2-.6-2.4-4.2-1.4-3.7 1zm7.2-6.8c-.7-2.3-4.4-1.3-3.6 1 3.9 12.1 4 25.7 3.5 38.3-.1 2.4 3.7 2.4 3.8 0 .5-12.9.3-26.9-3.7-39.3zm-59.8 10.5c-1.1 12.1-1.2 24.3-.5 36.4.1 2.4-3.6 2.6-3.8.2-.7-12.5-.5-24.9.6-37.4.2-2.4 3.9-1.6 3.7.8zm-4-3.9c-1.8 11.7-2.2 23.5-1.3 35.3.2 2.4-3.6 2.6-3.8.2-.9-12.1-.4-24.2 1.4-36.3.4-2.4 4-1.6 3.7.8zm-7.6-6.4c.6-2.3 4.3-1.5 3.7.8-3.2 12.3-2.7 25.9-1.6 38.5.2 2.4-3.5 2.6-3.8.2-1.1-12.9-1.6-26.9 1.7-39.5zM88.8 129c-1.1 12.1-1.2 24.3-.5 36.4.1 2.4-3.6 2.6-3.8.2-.7-12.5-.5-24.9.6-37.4.2-2.4 3.9-1.6 3.7.8zm-4.1-3.9c-1.8 11.7-2.2 23.5-1.3 35.3.2 2.4-3.6 2.6-3.8.2-.9-12.1-.4-24.2 1.4-36.3.4-2.4 4.1-1.6 3.7.8zm-7.5-6.4c.6-2.3 4.3-1.5 3.7.8-3.2 12.3-2.7 25.9-1.6 38.5.2 2.4-3.5 2.6-3.8.2-1.2-13-1.6-26.9 1.7-39.5zm38.6 12c1.1 12.5 1.3 24.9.6 37.4-.1 2.4-3.9 2.2-3.8-.2.7-12.1.6-24.3-.5-36.4-.2-2.4 3.5-3.2 3.7-.8zm4-3.9c1.8 12 2.3 24.1 1.4 36.3-.2 2.4-3.9 2.2-3.8-.2.9-11.8.4-23.6-1.3-35.3-.3-2.4 3.4-3.2 3.7-.8zm5.6 33.8c-.2 2.4-4 2.2-3.8-.2 1.1-12.6 1.6-26.1-1.6-38.5-.6-2.3 3.1-3.1 3.7-.8 3.3 12.7 2.9 26.7 1.7 39.5z" fill="#b7513b" stroke-width="none" opacity="1" stroke="none"></path><path id="SvgjsPath15277" d="M135.2 110.9c-.5-1.5-1.9-1.9-3.1-1.5-1.1.3-2 1.4-1.5 2.8 2.2 7 3.2 14.6 3.6 22-.5-5.9-1.4-11.7-2.6-17.5-.2-.8-.6-1.4-1.4-1.6-.8-.3-1.8-.1-2.5.6-.7.6-.9 1.4-.8 2.3.1.6.2 1.3.3 1.9-.5-.6-1.2-.8-1.9-.7-1.3.2-2.5 1.3-2.3 2.9 1.6 11.8 2.4 24 2.3 36.2 0 .9.4 1.6 1.1 2 .4.2.8.3 1.3.3.4 0 .9-.1 1.3-.3.7-.4 1.1-1.1 1.1-2v-4.4c.3.9 1.2 1.4 2.1 1.4h.1c1.2 0 2.4-.8 2.4-2.3v-.9c.4.4 1 .6 1.5.6h.1c1.2 0 2.4-.8 2.4-2.3.6-12.3.6-26.6-3.5-39.5zm-6.6 48.5c-.5.3-1.1.3-1.6 0-.3-.2-.6-.5-.6-1.1.1-12.3-.7-24.6-2.3-36.4-.2-1.1.7-1.7 1.4-1.8h.2c.4 0 .9.1 1 .9 1.7 12.4 2.5 25 2.4 37.2.1.7-.2 1.1-.5 1.2zm-.1-32.8c1 7.2 1.6 14.6 1.6 22-.2-7.3-.7-14.6-1.6-22zm5.3 26.4c0 .9-.7 1.3-1.4 1.3-.6 0-1.3-.4-1.3-1.3.3-11.9-.8-23.8-3.1-35.3-.1-.7.2-1.1.4-1.3.3-.3.7-.4 1.1-.4.1 0 .3 0 .4.1.4.1.6.4.7.9 2.4 11.9 3.5 24 3.2 36zm4.1-2.6c0 .9-.8 1.3-1.5 1.3-.6 0-1.3-.4-1.2-1.3.5-12.1.4-26.1-3.6-38.5-.3-.9.3-1.4.9-1.6.2-.1.3-.1.5-.1.5 0 1.1.3 1.3 1 4 12.7 4 27 3.6 39.2zm-76.8.4c.1 1.5 1.4 2.2 2.6 2.2h.1c.5-.1 1.1-.3 1.5-.6 0 .3 0 .6.1.9.1 1.5 1.3 2.2 2.5 2.2h.1c.9-.1 1.8-.6 2.1-1.6.1 1.5.1 2.9.2 4.4.1.9.5 1.6 1.2 1.9.4.2.8.3 1.3.3.4 0 .9-.2 1.3-.4.7-.4 1-1.2 1-2-.7-12.2-.5-24.5.5-36.3.1-1.6-1.1-2.7-2.4-2.8-.7-.1-1.4.2-1.9.8.1-.6.2-1.3.3-1.9.1-.9-.2-1.7-.9-2.2-.7-.6-1.7-.7-2.5-.4-.7.3-1.2.9-1.3 1.7-.9 5.8-1.4 11.7-1.7 17.6 0-7.4.6-15 2.5-22.2.4-1.5-.6-2.5-1.6-2.8-1.2-.3-2.6.2-3 1.7-3.7 12.9-3.1 27.2-2 39.5zm10.1 7.4c-.7-12.2-.5-24.8.6-37.3.1-.8.6-1 1-1h.2c.7.1 1.6.6 1.5 1.7-1 11.9-1.2 24.2-.5 36.5 0 .6-.3 1-.5 1.1-.4.3-1.1.3-1.5.1-.4-.2-.8-.5-.8-1.1zm-1.4-9.6c-.3-7.4-.2-14.8.5-22.1-.5 7.4-.6 14.8-.5 22.1zM67.7 117c.1-.5.3-.8.7-.9.1-.1.3-.1.4-.1.4 0 .8.1 1.1.4.3.2.6.6.5 1.3-1.7 11.6-2.2 23.5-1.3 35.4.1.9-.6 1.3-1.2 1.4-.7 0-1.4-.3-1.5-1.2-1-12.2-.5-24.3 1.3-36.3zm-3.9-5.6c.2-.7.7-1 1.2-1 .2 0 .3 0 .5.1.6.2 1.2.6.9 1.5-3.3 12.6-2.7 26.6-1.7 38.6.1.9-.6 1.3-1.2 1.4-.7 0-1.5-.3-1.6-1.2-.8-12.3-1.5-26.5 1.9-39.4zM75 158.2c.1 1.5 1.4 2.2 2.6 2.2h.1c.5-.1 1.1-.3 1.5-.6 0 .3 0 .6.1.9.1 1.5 1.3 2.2 2.5 2.2h.1c.9-.1 1.8-.6 2.1-1.6.1 1.5.1 2.9.2 4.4.1.9.5 1.6 1.2 1.9.4.2.8.3 1.3.3.4 0 .9-.2 1.3-.4.7-.4 1-1.2 1-2-.7-12.2-.5-24.5.5-36.3.1-1.6-1.1-2.7-2.4-2.8-.7-.1-1.4.2-1.9.8.1-.6.2-1.3.3-1.9.1-.9-.2-1.7-.9-2.2-.7-.6-1.7-.7-2.5-.4-.7.3-1.2.9-1.3 1.7-.9 5.8-1.4 11.7-1.7 17.6 0-7.4.6-15.1 2.5-22.2.4-1.5-.6-2.5-1.6-2.8-1.2-.3-2.6.2-3 1.7-3.7 12.9-3.1 27.2-2 39.5zm10 7.4c-.7-12.2-.5-24.8.6-37.3.1-.8.6-1 1-1h.2c.7.1 1.6.6 1.5 1.7-1 11.9-1.2 24.2-.5 36.5 0 .6-.3 1-.5 1.1-.4.3-1.1.3-1.5.1-.4-.2-.7-.5-.8-1.1zm-1.4-9.6c-.3-7.4-.2-14.8.5-22.1-.4 7.4-.6 14.7-.5 22.1zm-2-31.6c.1-.5.3-.8.7-.9.1-.1.3-.1.4-.1.4 0 .8.1 1.1.4.3.2.6.6.5 1.3-1.7 11.6-2.2 23.5-1.3 35.4.1.9-.6 1.3-1.2 1.4-.7 0-1.4-.3-1.5-1.2-1-12.2-.5-24.3 1.3-36.3zm-3.9-5.6c.2-.7.7-1 1.2-1 .2 0 .3 0 .5.1.6.2 1.2.6.9 1.5-3.2 12.6-2.6 26.6-1.6 38.6.1.9-.6 1.3-1.2 1.4-.7 0-1.5-.3-1.6-1.2-1-12.3-1.6-26.5 1.8-39.4zm46.5 2.3c-.4-1.5-1.8-2-3-1.7-1.1.3-2 1.3-1.6 2.8 1.9 7.1 2.5 14.7 2.5 22.2-.2-5.9-.8-11.8-1.7-17.6-.1-.8-.6-1.4-1.3-1.7-.8-.3-1.8-.2-2.5.4-.7.5-1 1.4-.9 2.2.1.6.2 1.3.3 1.9-.4-.6-1.2-.9-1.9-.8-1.3.1-2.6 1.2-2.4 2.8 1 11.9 1.2 24.1.5 36.3-.1.9.3 1.6 1 2 .4.2.8.4 1.3.4.4 0 .9-.1 1.3-.3.7-.4 1.2-1.1 1.2-1.9.1-1.5.2-2.9.2-4.4.3.9 1.2 1.5 2.1 1.6h.1c1.2.1 2.4-.7 2.5-2.2 0-.3 0-.6.1-.9.4.4.9.6 1.5.6h.1c1.2.1 2.4-.7 2.6-2.2.8-12.2 1.4-26.5-2-39.5zm-9 48c-.5.2-1.1.2-1.5-.1-.3-.2-.6-.5-.5-1.1.7-12.3.5-24.6-.5-36.5-.1-1.1.8-1.6 1.5-1.7h.2c.4 0 .9.2 1 1 1.1 12.5 1.3 25.1.6 37.3-.1.7-.5 1-.8 1.1zm1.6-32.7c.7 7.3.8 14.7.5 22.1.1-7.3-.1-14.7-.5-22.1zm4 26.6c-.1.9-.8 1.3-1.5 1.2-.6 0-1.3-.4-1.2-1.4.9-11.9.4-23.8-1.3-35.4-.1-.7.2-1.1.5-1.3.3-.2.7-.4 1.1-.4.1 0 .3 0 .4.1.4.2.6.5.7.9 1.7 12.2 2.1 24.3 1.3 36.3zm4.1-2.4c-.1.9-.9 1.3-1.6 1.2-.6-.1-1.3-.4-1.2-1.4 1.1-12 1.7-26-1.7-38.6-.2-.9.4-1.4.9-1.5.2 0 .3-.1.5-.1.5 0 1.1.3 1.2 1 3.6 13 3 27.2 1.9 39.4z" fill="#a83c25" stroke-width="none" opacity="1" stroke="none"></path><path id="SvgjsPath15278" d="M64.8 148.8c-.1 0-.1-.1-.2-.1.1-.1.1-.3 0-.4-.6-.6-1.3-1-1.8-1.7s-.6-1.4-1-2.1c-.1-.2-.5-.2-.5.1-.2 1.3.8 3.1 2.1 3.9-.5 0-.9 0-1.3.1-.1 0-.2.1-.2.2v.2c.1.1.2.2.3.2.4 0 .8-.1 1.2-.1s.8.2 1.1.2c.4 0 .6-.3.3-.5zm-.7-4.7-1.2-1.2c-.4-.4-1.1-1-.9-1.6.1-.2-.3-.5-.5-.3-1.2 1.3 1.3 3.1 2.3 3.4.3.1.5-.2.3-.3zm-1.1-4.4c-.3-.6-.6-1-.6-1.7 0-.4-.5-.4-.5 0 0 .7.2 1.5.8 2 .1.2.5 0 .3-.3zm.9-4.6c-.4-.5-1-.9-1.3-1.6-.4-.6-.6-1.4-.6-2.1 0-.3-.4-.4-.5-.1-.3 1.6.4 3.8 2.1 4.3.4 0 .5-.3.3-.5zm-.1-4c-.2-.4-.6-.7-.8-1.1-.3-.4-.4-.9-.5-1.4 0-.3-.5-.3-.5 0 0 1 .4 2.5 1.5 2.8.2.1.4-.1.3-.3zm-1.3-6.4c0-.4-.7-.4-.7 0 0 .9.2 2 .8 2.6.2.2.4 0 .4-.2-.2-.8-.5-1.5-.5-2.4zm6.3 27.5c-1.1-.6-2.2-1.4-2.4-2.7 0-.2-.4-.2-.4.1 0 1.4 1.1 3.2 2.7 3 .2 0 .3-.3.1-.4zm-.5-3.2c-.2-.4-.7-.7-.9-1-.3-.4-.5-.9-.6-1.4-.1-.3-.5-.2-.5.1 0 1 .6 2.7 1.8 2.8.1 0 .3-.3.2-.5zm-.7-3c-.5-.8-1-1.5-1.1-2.5 0-.3-.5-.3-.5 0 0 1 .3 2.1 1.1 2.8.3.2.7 0 .5-.3zm.5-5.7c-.7-.6-1.4-1.3-1.5-2.3 0-.3-.4-.3-.4 0 0 1.1.6 2.4 1.8 2.6 0 .1.2-.1.1-.3zm-.2-2.9c-.2-.4-.6-.8-.8-1.2-.2-.4-.4-1-.5-1.5-.1-.3-.5-.2-.5.1 0 1.1.4 2.6 1.5 3 .2.1.4-.2.3-.4zm3.6 17.6c-.4.1-.3.7.1.7s.8 0 1.2.2c.3.1.6.4.9.4.2 0 .3-.2.3-.4-.3-1-1.8-1.1-2.5-.9zm2-2c-.3-.3-.7-.5-1.1-.8-.4-.3-.7-.6-.9-1.1-.2-.3-.5 0-.4.2.4.9 1.2 2 2.2 2.1.2 0 .4-.3.2-.4zm-.4-2.1c-.2-.4-.4-.7-.7-1.1-.3-.4-.7-.8-.9-1.3-.2-.3-.7 0-.5.3.4.8 1 1.9 1.9 2.3.1.2.3 0 .2-.2zm.1-2.3c-.3-.4-.8-.7-1.1-1.1-.3-.5-.6-1-.6-1.6 0-.4-.6-.4-.6 0 0 .7.1 1.4.5 2 .3.5.9 1.1 1.5 1 .3.1.4-.1.3-.3zm-.7-4c-.1-.4-.4-.7-.6-1-.2-.4-.4-.8-.5-1.2-.1-.3-.7-.3-.6.1.1.8.5 2.2 1.4 2.5.1 0 .4-.2.3-.4zm.3-5.7c-.2-.4-.5-.6-.7-.9-.2-.3-.5-.7-.6-1.1-.1-.3-.5-.2-.5.1.2.8.6 2 1.5 2.3.2.1.3-.2.3-.4zm5.9 17.3c-.1 0-.1-.1-.2-.1.1-.1.1-.3 0-.4-.6-.6-1.3-1-1.8-1.7s-.6-1.4-1-2.1c-.1-.2-.4-.2-.5.1-.2 1.3.8 3.1 2.1 3.9-.4 0-.9 0-1.3.1-.1 0-.2.1-.2.2v.2c.1.1.2.2.3.2.4 0 .8-.1 1.2-.1s.8.2 1.2.2c.2 0 .4-.3.2-.5zm-.7-4.8-1.2-1.2c-.4-.4-1.1-1-.9-1.6.1-.2-.3-.5-.4-.3-1.2 1.3 1.3 3.1 2.3 3.4.2.2.3-.1.2-.3zm-1.1-4.3c-.3-.6-.6-1-.6-1.7 0-.4-.6-.4-.6 0 0 .7.2 1.5.8 2 .2.2.5 0 .4-.3zm.9-4.6c-.4-.5-1-.9-1.3-1.6-.4-.6-.6-1.4-.6-2.1 0-.3-.4-.4-.5-.1-.3 1.6.4 3.8 2.1 4.3.3 0 .5-.3.3-.5zm-.2-4c-.2-.4-.6-.7-.8-1.1-.3-.4-.4-.9-.5-1.4 0-.3-.5-.3-.4 0 0 1 .4 2.5 1.5 2.8.2.1.3-.1.2-.3zm-1.3-6.4c0-.4-.7-.4-.7 0 0 .9.2 2 .8 2.6.2.2.4 0 .4-.2-.1-.8-.5-1.5-.5-2.4zm6.3 27.5c-1.1-.6-2.2-1.4-2.4-2.7 0-.2-.4-.2-.4.1 0 1.4 1.1 3.2 2.7 3 .2-.1.3-.3.1-.4zm-.5-3.2c-.2-.4-.7-.7-.9-1-.3-.4-.5-.9-.6-1.4-.1-.3-.5-.2-.5.1 0 1 .6 2.7 1.8 2.8.2 0 .3-.3.2-.5zm-.6-3c-.5-.8-1-1.5-1.1-2.5 0-.3-.5-.3-.5 0 0 1 .3 2.1 1.1 2.8.3.2.6 0 .5-.3zm.4-5.7c-.7-.6-1.4-1.3-1.5-2.3 0-.3-.4-.3-.4 0 0 1.1.6 2.4 1.8 2.6.1.1.3-.1.1-.3zm-.2-2.9c-.2-.4-.6-.8-.8-1.2-.2-.4-.4-1-.5-1.5-.1-.3-.5-.2-.5.1 0 1.1.4 2.6 1.5 3 .3.1.4-.3.3-.4zm3.6 17.6c-.4.1-.3.7.1.7s.8 0 1.2.2c.3.1.6.4.9.4.2 0 .3-.2.3-.4-.2-1-1.7-1.1-2.5-.9zm2-2c-.3-.3-.7-.5-1.1-.8-.4-.3-.7-.6-.9-1.1-.2-.3-.5 0-.4.2.4.9 1.2 2 2.2 2.1.3 0 .4-.3.2-.4zm-.3-2.1c-.2-.4-.4-.7-.7-1.1-.3-.4-.7-.8-.9-1.3-.2-.3-.7 0-.5.3.4.8 1 1.9 1.9 2.3 0 .2.2 0 .2-.2zm.1-2.3c-.3-.4-.8-.7-1.1-1.1-.3-.5-.6-1-.6-1.6 0-.4-.6-.4-.6 0 0 .7.1 1.4.5 2 .3.5.9 1.1 1.5 1 .2.1.4-.1.3-.3zm-.8-4c-.1-.4-.4-.7-.6-1-.2-.4-.4-.8-.5-1.2-.1-.3-.7-.3-.6.1.1.8.5 2.2 1.4 2.5.2 0 .4-.2.3-.4zm.3-5.7c-.2-.4-.5-.6-.7-.9-.2-.3-.5-.7-.6-1.1-.1-.3-.5-.2-.5.1.2.8.6 2 1.5 2.3.2.1.4-.2.3-.4zm35.8 12.9c.4 0 .8-.1 1.2-.2s.8 0 1.2.1c.1 0 .2-.1.3-.2v-.2c0-.1-.1-.2-.2-.2-.4-.1-.8-.2-1.3-.1 1.3-.8 2.3-2.6 2.1-3.9 0-.2-.4-.3-.5-.1-.3.7-.5 1.5-1 2.1-.5.7-1.2 1.1-1.8 1.7-.1.1-.1.3 0 .4-.1 0-.1.1-.2.1-.2.2 0 .5.2.5zm.8-4.9c1.1-.3 3.5-2.2 2.3-3.4-.2-.2-.5 0-.4.3.2.6-.5 1.2-.9 1.6L123 154c-.2.1-.1.4.2.3zm1.2-4.4c.6-.5.8-1.3.8-2 0-.4-.5-.4-.6 0-.1.7-.3 1.1-.6 1.7-.1.3.2.5.4.3zm-1-4.4c1.7-.4 2.4-2.7 2.1-4.3-.1-.3-.5-.2-.5.1 0 .7-.2 1.5-.6 2.1-.3.6-.9 1-1.3 1.6-.2.2 0 .6.3.5zm.1-4.1c1.1-.4 1.5-1.9 1.5-2.8 0-.3-.4-.3-.4 0-.1.5-.2 1-.5 1.4-.2.4-.6.7-.8 1.1-.1.1 0 .3.2.3zm.5-4.4c-.1.2.2.4.4.2.7-.7.8-1.7.8-2.6 0-.4-.6-.4-.7 0 .1.9-.3 1.6-.5 2.4zm-5.6 25.5c1.6.2 2.7-1.6 2.7-3 0-.2-.4-.3-.4-.1-.2 1.3-1.3 2.1-2.4 2.7-.2.1-.1.3.1.4zm.7-3.1c1.2-.1 1.8-1.8 1.8-2.8 0-.3-.5-.4-.5-.1-.1.5-.3 1-.6 1.4-.3.4-.7.6-.9 1-.2.2-.1.5.2.5zm.8-3.2c.8-.7 1.1-1.8 1.1-2.8 0-.3-.4-.3-.5 0-.1.9-.6 1.7-1.1 2.5-.1.3.2.5.5.3zm-.7-5.7c1.2-.2 1.8-1.5 1.8-2.6 0-.3-.4-.3-.4 0-.1 1-.8 1.7-1.5 2.3-.3.2-.1.4.1.3zm.3-2.8c1.1-.5 1.6-1.9 1.5-3 0-.3-.5-.4-.5-.1-.1.5-.2 1-.5 1.5-.2.4-.6.8-.8 1.2-.1.2 0 .5.3.4zm-6.4 18.1c0 .2.1.4.3.4.4 0 .6-.2.9-.4.4-.2.8-.2 1.2-.2.4 0 .5-.6.1-.7-.8-.2-2.3-.1-2.5.9zm.7-2.5c1 0 1.8-1.2 2.2-2.1.1-.3-.2-.5-.4-.2-.2.4-.6.8-.9 1.1-.3.3-.8.5-1.1.8-.2.1-.1.5.2.4zm.5-2.2c.9-.4 1.5-1.5 1.9-2.3.2-.3-.3-.6-.5-.3-.3.4-.6.9-.9 1.3-.3.3-.6.6-.7 1.1-.2.1 0 .3.2.2zm-.2-2.2c.6.1 1.2-.6 1.5-1 .4-.6.6-1.3.5-2 0-.4-.6-.4-.6 0 0 .6-.2 1.1-.6 1.6-.3.4-.8.6-1.1 1.1 0 .1.1.3.3.3zm.8-4c.9-.2 1.3-1.7 1.4-2.5 0-.4-.5-.4-.6-.1-.1.4-.3.9-.5 1.2-.2.3-.5.6-.6 1-.1.2.1.4.3.4zm-.3-5.7c.9-.3 1.3-1.5 1.5-2.3.1-.3-.3-.4-.5-.1-.1.4-.4.8-.6 1.1-.2.3-.6.6-.7.9-.1.2.1.5.3.4zm14.9 7.4c-.6-.4-1.3-.6-1.8-1.1-.6-.5-1.1-1.1-1.3-1.8-.1-.3-.5-.2-.5.1.3 1.6 1.8 3.5 3.6 3.2.2.1.2-.2 0-.4zm-1.1-3.7c-.3-.4-.7-.6-1-1-.3-.4-.5-.9-.6-1.4-.1-.3-.6-.2-.5.1.1 1.1.8 2.6 2 2.7.1 0 .2-.3.1-.4zm-.3-3.2c-.2-.4-.6-.7-.9-1.1-.3-.4-.5-.9-.7-1.4-.1-.3-.6-.2-.5.1.2 1 .8 2.2 1.8 2.6.3.2.4 0 .3-.2zm1.1-6.4c-.7-.4-1.4-.7-2-1.3-.6-.6-1.1-1.3-1.4-2.1-.1-.2-.5-.2-.4.1.3 1.6 1.8 3.6 3.6 3.7.4.1.4-.3.2-.4zm-.9-3.7c-.4-.4-1-.6-1.4-1-.4-.5-.7-1.1-.9-1.7-.1-.2-.4-.2-.4.1.1 1.2 1 3.1 2.5 3.1.2 0 .3-.3.2-.5zm-1.4-3.2c-.5-.5-1-1-1.4-1.7-.1-.2-.4 0-.3.2.4.7.9 1.3 1.5 1.7.1.1.3-.1.2-.2zm-.1-5.2c-.1-.3-.3-.5-.5-.7-.1-.2-.3.1-.2.2.2.2.3.4.6.6.1.1.2 0 .1-.1zm6.7 19.9c-.4-.4-.9-.6-1.2-1.1-.3-.5-.5-1.1-.4-1.7 0-.2-.3-.2-.4-.1-.3 1.3.4 3.1 1.9 3.3.1 0 .2-.3.1-.4zm-.1-4.3c-.2-.3-.5-.6-.7-.9-.2-.3-.4-.6-.6-1-.1-.2-.5-.1-.4.2.3.7.7 1.6 1.4 2 .1.2.4-.1.3-.3zm-.1-6.2c-.4-.4-.8-.7-1.1-1.1-.4-.4-.6-1-.8-1.5-.1-.2-.4-.2-.4.1.1 1.2.8 2.6 2.1 3 .2 0 .4-.3.2-.5zm-.7-3.6c-.2-.3-.6-.6-.8-.9-.3-.4-.5-.8-.6-1.2-.1-.3-.5-.2-.5.1.1.9.6 2.1 1.6 2.4.2 0 .4-.2.3-.4zm-1.8-4.7c-.1-.2-.4 0-.3.2.2.4.4.9.7 1.3.1.1.3.1.3-.1-.2-.5-.4-.9-.7-1.4zm6.3 14.8c-.6-.6-1.1-1.2-1.1-2.2 0-.2-.4-.2-.4 0-.1.9.4 2.1 1.3 2.5.2.2.4-.1.2-.3zm.3-3.7c-.2-.4-.5-.7-.8-1.1-.2-.4-.4-.9-.6-1.3-.1-.2-.4-.2-.4.1.1 1 .4 2.2 1.3 2.8.4.1.7-.2.5-.5zm-.1-4.2c-.5-.9-1.1-1.6-1.4-2.6-.1-.3-.5-.1-.4.1.2 1 .7 2.1 1.5 2.7.1.3.4.1.3-.2zm.2-4.9c-.7-.4-1.4-.6-1.9-1.4-.1-.2-.5 0-.4.2.4.8 1.2 1.7 2.2 1.6.2 0 .2-.3.1-.4zm-.3-7.3c-.1-.3-.5-.2-.4.1.4 1.3.1 3.1-1.3 3.7-.2.1-.2.3 0 .4.8.2 1.4-.5 1.7-1.2.4-.9.4-2 0-3zm-.9.1c-.6 0-1.3.2-1.6-.6-.1-.3-.6-.2-.5.2.2.8 1.6 1.7 2.3.8.1-.2 0-.4-.2-.4zm-.9-5.7c-.1-.2-.3-.2-.4 0-.2.5-.5.9-1 .6-.2-.1-.4.3-.2.4.7.3 1.8-.2 1.6-1z" fill="#c66854" stroke-width="none" opacity="1" stroke="none"></path></g></g><g id="svga-group-humanbody-back"><path id="SvgjsPath14883" d="M166.5 181.1c-10.9-6.6-27.6-8.4-35-12.1-4.9-2.5-9.1-4.7-8.9-17.8s1.9-42.4 1.9-42.4H75.4s1.6 29.4 1.9 42.4-4.2 15.6-8.9 17.8c-7.4 3.5-24.1 5.4-35 12.1-10.8 6.6-10 18.9-10 18.9v19.7h153.3V200c-.1 0 .7-12.3-10.2-18.9z" fill="#f4baa3" stroke-width="none" opacity="1" stroke="none"></path></g><g id="svga-group-chinshadow-single"><path id="SvgjsPath15128" d="M76.5 160c4.2 4.3 10.1 13.3 14.2 13.3 5.3 0 6.5-1.4 9.3-1.4s4 1.4 9.3 1.4c4.1 0 9.9-8.9 14.1-13.3-.6-2.2-.9-5.1-.8-8.8.2-13.1 1.9-42.4 1.9-42.4H75.4s1.6 29.4 1.9 42.4c.1 3.7-.2 6.5-.8 8.8z" fill="#d58464" stroke-width="none" opacity="0.65" stroke="none"></path></g><g id="svga-group-humanbody-front"><path id="SvgjsPath14884" d="M78.7 156.8c.5 4.8 1.7 9.4 3.1 13.9.8 2.3 1.6 4.6 2.6 6.9.8 2 1.7 4.2 3.1 5.9.3.4 1 0 .9-.5-.5-2.2-1.6-4.3-2.4-6.4-.9-2.2-1.7-4.4-2.5-6.6-1.5-4.4-2.8-8.9-4.1-13.3-.2-.4-.8-.3-.7.1zm41.3-1c-1.3 8.2-3.9 16.1-5.4 24.2-.1.4.4.5.6.2 3.1-7.7 4.1-16.1 5.1-24.3-.1-.2-.3-.2-.3-.1zm-25.8 11.9c-.9 3.6 1.9 8.6 6.2 7.6.5-.1.4-.8 0-1-1.4-.5-2.9-.9-3.9-2.1-1.1-1.2-1.5-2.9-1.4-4.5 0-.4-.8-.5-.9 0z" fill="#d58464" stroke-width="none" opacity="1" stroke="none"></path><path id="SvgjsPath14885" d="M177.3 219.7c-.1-6.6-.3-13.1-.3-19.7l-.3-.3c.1 0 .1 0 .2.1s.1.2.1.1v-1.4c0-.5-.1-.9-.1-1.4-.1-.9-.3-1.9-.5-2.8-.5-1.8-1.1-3.6-2-5.3-1.7-3.4-4.4-6.2-7.7-8.1-3.6-2.2-7.6-3.8-11.6-5.1-4-1.3-8.1-2.4-12.1-3.5-4-1.2-8.1-2.2-11.8-4.2-1.9-1-3.6-2.1-4.8-3.6-1.2-1.6-1.9-3.5-2.3-5.5-.8-4-.4-8.2-.3-12.4l.7-12.6 1.5-25.2.1-1.4h-1.4c-8.2 0-16.4 0-24.6.1l-24.6.3h-.9l.1.9c.8 11.9 1.6 23.8 2.1 35.7.1 3 .3 6 .2 8.9-.1 2.9-.4 5.9-1.6 8.6-.6 1.3-1.4 2.5-2.4 3.5s-2.3 1.8-3.6 2.4c-2.6 1.3-5.4 2.2-8.3 3-5.8 1.5-11.6 2.8-17.3 4.7-2.8.9-5.7 2-8.4 3.4-1.3.7-2.7 1.4-4 2.4-1.3.9-2.4 1.9-3.5 3.1-2.1 2.3-3.6 5.2-4.5 8.1-.5 1.5-.8 3-1 4.6-.1.8-.1 1.6-.1 2.4v2.3l-.2 17.9v1.3h1.4l38.3.2c12.8.1 25.5.1 38.3 0 12.8-.1 25.6-.1 38.3-.3 12.8-.2 25.6-.5 38.3-.7h.6v-.5zm-77.2-1.6H61.8l-37 .2-.1-16.6v-2.2c0-.7 0-1.4.1-2.1.1-1.4.4-2.8.8-4.2.8-2.7 2.1-5.3 3.9-7.5.9-1.1 2-2.1 3.1-2.9 1.1-.9 2.4-1.6 3.7-2.3 2.6-1.4 5.3-2.5 8.1-3.5 5.6-2 11.4-3.4 17.1-5.1 2.9-.8 5.8-1.7 8.5-3.1 1.3-.7 2.7-1.5 3.8-2.6 1.1-1.1 2-2.4 2.6-3.9 1.2-2.9 1.5-5.9 1.6-8.9 0-3-.1-6-.2-9l-1.3-34.8 23.5.4c7.7.1 15.4.1 23.1.1-.4 7.9-.8 15.9-1.1 23.8-.2 4.2-.2 8.4-.3 12.6 0 4.2-.2 8.5.8 12.8.5 2.1 1.3 4.2 2.8 6 1.4 1.7 3.4 2.9 5.3 3.8 3.9 1.9 8 2.8 12.1 3.8s8.2 2 12.2 3.3c4 1.3 7.9 2.8 11.5 5 3.2 1.9 5.8 4.7 7.5 8 .9 1.6 1.5 3.4 1.9 5.2.2.9.4 1.8.4 2.7.1.5.1.9.1 1.4V200l-.3 19c-12.6-.2-25.1-.5-37.7-.7-12.7-.1-25.5-.1-38.2-.2z" fill="#c66c49" stroke-width="none" opacity="1" stroke="none"></path></g><g id="svga-group-clothes-single"><path id="SvgjsPath15025" d="M179.3 220.1c0-17.5-1.6-26.7-1.6-26.7-3.2-15.2-21.5-18.1-30.1-20.5-2.8-.8-7.9-2.4-7.9-2.4-4.8 5.3-10.2 17.8-16.2 23.3-7.5 7-14.9 13-21.8 18.1-6.4-4-13.8-9.3-21.4-16.1-7.7-6.9-13.9-20.7-18.6-26.7-3.1.5-6.3 1.8-10 2.6-8.7 1.9-26.5 7.6-29.5 21.6 0 0-1.6 9.2-1.6 26.7h158.7z" fill="#ededed" stroke-width="none" opacity="1"></path><path id="SvgjsPath15026" d="m72.9 159.9.7-8.2-14.3 9-9.1 6.8 2.1 1-27.1 9.9-3.3.8-5 19.8v20.9h59.9L72 175.8l.9-15.9zm105.2 19.5-3.3-.8-27.1-9.9 2.1-1-9.1-6.8-13.8-9.3.2 8.5.8 16.1-4.8 44.1H183v-20.9l-4.9-20z" fill="#1e78a2" stroke-width="none" opacity="1"></path><path id="SvgjsPath15027" d="M148.5 181.7c-2-1.7-4-3.5-6-5.2l-5.9-5.3c-2-1.7-4-3.5-6-5.3 1.7 2 3.6 3.9 5.4 5.9 1.8 1.9 3.7 3.8 5.6 5.7 1.9 1.9 3.8 3.7 5.8 5.5 1.6 1.5 3.3 3 5.1 4.4-2.3 1.6-4.6 3.3-6.8 5-2.6 2-5.1 4-7.6 6.2-1.2 1.1-2.4 2.2-3.5 3.6-.3.3-.5.9-.6 1.3l-.4 1.1-.8 2.3c-1.1 3.1-2.1 6.1-3.1 9.2 1.4-2.9 2.8-5.9 4.1-8.8l1-2.2.5-1.1c.2-.4.3-.6.5-.9.9-1.1 2.2-2.2 3.4-3.2 2.5-2.1 5.1-3.9 7.6-5.9l7.8-5.7.2-.2c.3-.4.2-1.1-.2-1.4-2-1.6-4.1-3.3-6.1-5zm11.6-6.8c-3.6-1.2-7.3-2.3-11-3.2 3.5 1.6 7.1 2.9 10.7 4.1 3.6 1.2 7.3 2.3 11 3.2-3.5-1.6-7-2.9-10.7-4.1zm12.6 7.8c-1 .7-2.1 1.4-2.7 2.8-1.1 2.3-1.7 4.6-2.4 6.9-.6 2.3-1.1 4.7-1.5 7.1-.4 2.4-.7 4.8-.6 7.2.7-2.3 1.5-4.6 2.1-6.9.7-2.3 1.3-4.6 1.9-6.9l.9-3.5c.3-1.1.6-2.3 1-3.4.2-1 1.1-1.8 1.9-2.6.8-.8 1.8-1.5 2.8-2.2-1.2.3-2.3.8-3.4 1.5zm-36.1-22 4.6 3.1c1.4 1 2.8 1.9 4 3.1-.6.4-1.3.7-1.9 1.1-.8.4-1.5.9-2.2 1.3.8-.3 1.6-.7 2.4-1 .8-.3 1.6-.7 2.4-1.1h.1c.1-.1.1-.3 0-.4-1.2-1.5-2.7-2.6-4.2-3.7s-3-2.1-4.6-3.2c-3.1-2.1-6.2-4-9.1-6.3 1.2 1.4 2.6 2.6 4.1 3.8 1.4 1.2 2.9 2.2 4.4 3.3zM72 190.8l-.9-6.3-.9-6.3c-.1-.9 0-2 .1-3.1l.3-3.2c.2-2.1.4-4.2.5-6.4-.6 2.1-1 4.2-1.4 6.2l-.6 3.2c-.2 1.1-.4 2.1-.3 3.3.3 4.4.8 8.5 1.3 12.8.6 4.2 1.2 8.4 1.9 12.6.7 4.2 1.5 8.4 2.5 12.6-.2-4.3-.5-8.5-.9-12.8-.5-4.2-1.1-8.4-1.6-12.6z" fill="#3389b1" stroke-width="none" opacity="1"></path><path id="SvgjsPath15028" d="M183.4 199.2c0-.1 0-.1 0 0-.8-3.4-1.5-6.7-2.3-10.1l-2.3-10c-.1-.3-.3-.5-.5-.5l-3.2-.9c-4.5-1.7-9-3.4-13.5-5-3.9-1.4-7.9-2.9-11.9-4.2l.4-.2c.4-.2.5-.6.3-1-.1-.1-.1-.2-.2-.3l-5.7-4.1c-1.9-1.4-3.8-2.8-5.8-4-2-1.3-4.1-2.5-6.1-3.8l-5.8-3.7c-1.1-.4-3.3-1-3.3-1s-.3 2.1-.2 4.6c.2 2.6.5 5.7 1.8 8.1.9 1.6 1.4 2.1 1.7 2.2l.3 10.7-1.7 13.7c-.9 1.1-1.8 2.2-2.8 3.2-6.7 6.3-13.7 12.4-21.1 18-4-2.5-7.9-5.1-11.7-7.9-2-1.5-3.9-3-5.8-4.6s-3.8-3.1-5.5-4.9c-1.6-1.7-3-3.5-4.3-5.4L72.8 176l.3-10.7c.2-.2.9-.8 1.6-1.9.9-1.5 2.4-4.5 2.6-6.9.2-2.3.3-5.4.3-6.2 0 0-3.4.5-4.5 1l-5.8 3.7c-2 1.2-4 2.5-6.1 3.8s-3.9 2.7-5.8 4l-5.7 4.1c-.1.1-.2.2-.2.3-.2.4 0 .8.3 1l.4.2c-4 1.4-7.9 2.8-11.9 4.2-4.5 1.6-9 3.3-13.5 5l-3.2.9c-.2.1-.5.3-.5.5l-2.3 10c-.8 3.3-1.5 6.6-2.3 10v.1c0 3.5.1 7 .1 10.5l-.1 10.5c0 .2.2 2.1.4 2.1l166.1-.6c.2 0 .4-1.3.4-1.5l-.1-10.5c.1-3.4.1-6.9.1-10.4zM17.3 219.7l-.1-10.1c0-3.5 0-6.9.1-10.4.9-3.3 1.8-6.6 2.6-9.8l2.5-9.4 2.3-.5c1.4.9 2.8 1.9 4.1 2.9.4.3.7.6 1 .9.2.2.2.3.3.4l.3.6c.3.8.7 1.7 1 2.6.6 1.8 1.1 3.6 1.6 5.4l1.5 5.4.7 2.7c.2.9.4 1.8.5 2.7.3 1.8.6 3.7.9 5.6.5 3.6 1.1 7.2 1.8 10.8l-21.1.2zm29.6-.4-8.2.1c0-3.6-.1-7.3-.3-10.9-.1-1.9-.3-3.8-.5-5.7-.1-.9-.3-2-.5-2.9l-.7-2.8c-1-3.7-2.2-7.3-3.6-10.8-.4-.9-.8-1.8-1.3-2.6l-.4-.6c-.2-.2-.4-.5-.6-.6-.4-.3-.8-.6-1.2-.8-1.4-.8-2.9-1.5-4.4-2.1l.4-.1h.1c4.5-1.6 9.1-3.2 13.6-4.9s9-3.3 13.5-5.1c.2-.1.3-.2.4-.3.8.3 1.6.5 2.4.8 1.5.5 2.9.9 4.4 1.4-1.5 1.3-3 2.6-4.6 3.9l-7 6.1c-1.2 1-2.3 2.1-3.5 3L41 187l-.2.2c-.3.4-.2 1.1.2 1.4l17.7 13.3c.7.6 1.5 1.1 2.2 1.7l.3.2.1.1.2.2.2.3.7 1.2 2.8 4.8c1.7 2.9 3.4 5.8 5.1 8.6-7.9.1-15.6.2-23.4.3zm23.4-.2c-1.4-3.1-2.9-6.1-4.3-9.1l-2.5-5-.6-1.2-.2-.3c0-.1-.1-.2-.2-.4-.1-.1-.2-.3-.3-.4l-.3-.2-2.1-1.8c-2.9-2.4-5.8-4.6-8.7-6.9-2.6-2-5.2-4-7.8-5.9l2.7-2c1.3-1 2.3-2.1 3.5-3.1 2.3-2.1 4.5-4.2 6.8-6.4 2.2-2.1 4.5-4.3 6.7-6.5s4.4-4.4 6.5-6.6c-2.4 1.9-4.8 4-7.1 6-.8.7-1.6 1.4-2.3 2-.6-.4-1.2-.7-1.8-1-.8-.4-1.6-.8-2.4-1.1-1-.4-2.1-.8-3.1-1.1l-.9-.4 4.5-3.5c1.8-1.4 3.7-2.9 5.5-4.1 1.8-1.3 3.7-2.7 5.6-4l5.8-4.1c-.1 2.1-.3 4.1-.4 6.1-.1 1.9-.3 4-.4 6.1L71.4 176v.1l2.1 22.1c.7 7 1.4 13.9 2.2 20.9h-5.4zm29.1-.3c-7.2-.1-14.4-.1-21.7-.1-.7-6.9-1.5-13.8-2.3-20.6l-1-7.9c1 1.4 2.2 2.8 3.3 4.1 1.7 1.9 3.6 3.5 5.5 5.1s3.8 3.2 5.8 4.7c3.9 3.1 8 6 12.1 8.7.3.2.7.2 1 0 7.7-5.6 15.2-11.5 22.2-17.9.2-.1.3-.3.5-.5l-.4 3.7c-.8 7-1.6 14.1-2.3 21.1l-22.7-.4zm24.9.2c.8-6.9 1.5-13.9 2.2-20.9l2.1-22.1v-.1l-.9-12.3c-.2-2.1-.3-4.1-.4-6.1s-.3-4-.4-6.1l5.8 4.1c1.9 1.4 3.7 2.7 5.6 4 1.9 1.2 3.7 2.7 5.5 4.1l4.6 3.5-.9.4c-1 .4-2.1.7-3.1 1.1-.8.3-1.6.7-2.4 1.1-.6.3-1.2.6-1.8 1-.8-.7-1.6-1.4-2.3-2-2.4-2-4.7-4-7.1-6 2.1 2.2 4.4 4.4 6.5 6.6 2.2 2.2 4.4 4.4 6.7 6.5 2.2 2.1 4.5 4.3 6.8 6.4 1.2 1.1 2.2 2.1 3.5 3.1l2.7 2c-2.6 1.9-5.2 3.9-7.8 5.9-2.9 2.3-5.8 4.5-8.7 6.9l-2.1 1.8-.3.2c-.1.1-.2.3-.4.4-.1.2-.2.3-.2.4l-.2.3-.6 1.2-2.4 5c-1.4 3-2.9 6.1-4.3 9.1-2.1.6-3.9.6-5.7.5zm28.8.3c-7.8-.1-15.5-.1-23.2-.2 1.7-2.9 3.4-5.7 5.1-8.6l2.8-4.8.7-1.2.2-.3c.1-.1.1-.2.2-.2s.1 0 .1-.1l.3-.2c.7-.6 1.4-1.1 2.1-1.7l17.7-13.3c.4-.3.5-.9.2-1.4l-.2-.2-3.7-2.8c-1.1-.9-2.3-2-3.5-3l-7-6.1c-1.5-1.3-3-2.6-4.6-3.9 1.5-.5 2.9-.9 4.4-1.4.8-.2 1.6-.5 2.4-.8.1.1.2.3.4.3l13.5 5.1c4.5 1.7 9 3.3 13.6 4.9h.1l.4.1c-1.5.6-2.9 1.3-4.4 2.1-.4.2-.8.5-1.2.8-.2.1-.4.4-.6.6l-.4.6c-.5.9-.9 1.8-1.3 2.6-1.5 3.5-2.6 7.2-3.6 10.8l-.7 2.8c-.2.9-.4 1.9-.5 2.9-.2 1.9-.4 3.8-.5 5.7-.3 3.6-.4 7.3-.4 10.9h-8.4zm29.6.4-21.3-.3c.7-3.6 1.3-7.2 1.8-10.8.3-1.9.5-3.7.9-5.6.2-.9.3-1.8.6-2.7l.7-2.7 1.5-5.4c.5-1.8 1.1-3.6 1.6-5.4.3-.9.6-1.8 1-2.6l.3-.6c.1-.1.1-.3.3-.4.3-.3.7-.6 1-.9 1.3-1 2.7-1.9 4.1-2.9l2.3.5 2.6 9.4c.9 3.3 1.8 6.6 2.6 9.8.1 3.5.1 6.9.1 10.4l-.1 10.2z" fill="#005a83" stroke-width="none" opacity="1"></path></g><g id="svga-group-head" transform="matrix(1,0,0,1,0,0)"><g id="svga-group-ears-left-move" transform="matrix(1,0,0,1,0,0)"><g id="svga-group-ears-left" transform="matrix(1,0,0,1,0,0)"><path id="SvgjsPath15044" d="M63 101.3s-1.7-4.6-3.4-7.5-4.3-6.9-5.9-7.9-2.7-.4-2.3 2.3 2.5 11.4 3 14c.6 2.6 1.9 8.4 3.4 12.2 1.5 3.8 2.5 5.5 4 .5s2.4-10.4 1.2-13.6z" fill="#f4baa3" stroke-width="none" opacity="1" stroke="none"></path><path id="SvgjsPath15045" d="M67.1 106c0 1.6-.8 7.1-2.2 10.6-1.3 1.2-4.7 2.2-4.8 2.1-.1 0-.2 0-.4-.1-.4-.2-.7-.6-.9-1s-.4-.7-.6-1.1c-.3-.7-.6-1.4-.9-2.2-.6-1.5-1-3-1.5-4.6-.9-3.1-1.5-6.2-2-9.4-.6-3.1-1.2-6.2-1.9-9.3l-.5-2.3c-.2-.8-.4-1.6-.3-2.5.1-.5.3-.9.6-1.1s.6-.3 1-.2c.6.1 6.8.8 7.3 1.3 3.4 1.3 7.2 8.5 7.1 19.8zm-8.2-12.6c-.8-1.2-1.6-2.3-2.4-3.5-.8-1.1-1.6-2.3-2.5-3.1-.4-.4-.9-.7-1.4-.8-.5-.1-.9.1-1 .6-.1.6 0 1.4.1 2.2.1.8.3 1.6.4 2.3.6 3.1 1.4 6.2 2.1 9.3.7 3.1 1.5 6.1 2.4 9.1.4 1.5.9 3 1.5 4.3.3.7.6 1.4.9 2 .2.3.3.6.5.9.2.2.3.4.4.5.1 0 .1 0 .3-.1.1-.1.1-.2.2-.3.1-.1.1-.2.2-.4.3-.6.5-1.2.7-1.9.4-1.4.9-2.7 1.2-4.2.4-1.4.7-2.9.8-4.4s.1-3.2-.4-4.6c-1-2.9-2.4-5.6-4-7.9z" fill="#e59e82" stroke-width="none" opacity="1" stroke="none"></path><path id="SvgjsPath15046" d="M52.1 88.9c3.2 3.5 5.8 9.5 6.2 15.1 0 .4-.3.4-.4.1l-.3-1.5c-.3-.7-.8-.8-1.4-.2.1.4.1.9.2 1.3.1.6.3 1.1.5 1.7.5 1.3 1.2 2.3 1.8 3.5.1.2 0 .6-.2.5-1.5-1.3-3.1-4.8-3-7.3 0-.8.3-1.4.8-1.5.3 0 .6.1.8.4-1.1-4.4-2.7-8-5.2-11.6-.1-.4.1-.7.2-.5z" fill="#d58464" stroke-width="none" opacity="1" stroke="none"></path></g></g><g id="svga-group-ears-right-move" transform="matrix(1,0,0,1,0,0)"><g id="svga-group-ears-right" transform="matrix(1,0,0,1,0,0)"><path id="SvgjsPath15047" d="M137 101.3s1.7-4.6 3.4-7.5 4.3-6.9 5.9-7.9c1.6-1 2.7-.4 2.3 2.3-.5 2.7-2.5 11.4-3 14-.6 2.6-1.9 8.4-3.4 12.2-1.5 3.8-2.5 5.5-4 .5s-2.4-10.4-1.2-13.6z" fill="#f4baa3" stroke-width="none" opacity="1" stroke="none"></path><path id="SvgjsPath15048" d="M140.1 86.2c.5-.5 6.7-1.2 7.3-1.3.3 0 .7 0 1 .2s.5.7.6 1.1c.1.9-.1 1.8-.3 2.5l-.5 2.3c-.7 3.1-1.3 6.2-1.9 9.3-.6 3.1-1.2 6.3-2 9.4-.4 1.5-.9 3.1-1.5 4.6-.3.7-.6 1.4-.9 2.2-.2.4-.4.7-.6 1.1-.2.3-.5.7-.9 1-.1 0-.2.1-.4.1-.1 0-3.5-1-4.8-2.1-1.4-3.5-2.2-9-2.2-10.6-.2-11.3 3.6-18.5 7.1-19.8zm-3.1 15.1c-.5 1.5-.6 3.1-.4 4.6.1 1.5.4 3 .8 4.4l1.2 4.2c.2.7.4 1.3.7 1.9.1.2.1.3.2.4.1.1.1.2.2.3.1.1.2.2.3.1s.3-.2.4-.5c.2-.3.3-.6.5-.9.3-.6.6-1.4.9-2 .6-1.4 1-2.8 1.5-4.3.9-3 1.6-6 2.4-9.1.8-3.1 1.5-6.2 2.1-9.3.2-.8.3-1.6.4-2.3.1-.8.2-1.6.1-2.2-.1-.6-.5-.8-1-.6-.5.1-1 .4-1.4.8-.9.8-1.7 2-2.5 3.1s-1.6 2.3-2.4 3.5c-1.5 2.3-2.9 5-4 7.9z" fill="#e59e82" stroke-width="none" opacity="1" stroke="none"></path><path id="SvgjsPath15049" d="M147.9 88.9c-3.2 3.5-5.8 9.5-6.2 15.1 0 .4.3.4.4.1l.3-1.5c.3-.7.8-.8 1.4-.2-.1.4-.1.9-.2 1.3-.1.6-.3 1.1-.5 1.7-.5 1.3-1.2 2.3-1.8 3.5-.1.2 0 .6.2.5 1.5-1.3 3.1-4.8 3-7.3 0-.8-.3-1.4-.8-1.5-.3 0-.6.1-.8.4 1.1-4.4 2.7-8 5.2-11.6.1-.4-.1-.7-.2-.5z" fill="#d58464" stroke-width="none" opacity="1" stroke="none"></path></g></g><g id="svga-group-faceshape-wrap" transform="matrix(1,0,0,1,0,0)"><g id="svga-group-faceshape-single"><path id="SvgjsPath15118" d="M143.2 106c.1-6.7 0-16-.1-24.1v-.3c-1.3-29.9-20.7-46.4-43.2-46.4S58.1 51.8 56.8 81.7v.3c0 8-.2 17.3-.1 24.1.3 17.1-1.2 18.4 3.7 23.9 2.2 2.5 9.9 9.4 14.1 12.2s11.3 15 16.1 15c5.3 0 6.5-1.4 9.3-1.4 2.8 0 4 1.4 9.3 1.4 4.8 0 11.9-12.2 16.1-15s11.9-9.7 14.1-12.2c5-5.6 3.5-6.9 3.8-24z" fill="#f4baa3" stroke-width="none" opacity="1" stroke="none"></path><path id="SvgjsPath15119" d="M90.6 157.2c5.3 0 6.5-1.4 9.3-1.4s4 1.4 9.3 1.4c4.8 0 11.9-12.2 16.1-15s11.9-9.7 14.1-12.2c5-5.6 3.5-6.9 3.8-24 .1-6.7 0-16-.1-24.1v-.3c-1.3-29.9-20.7-46.4-43.2-46.4S58.1 51.8 56.8 81.7v.3c0 8-.2 17.3-.1 24.1.3 17.1-1.2 18.4 3.7 23.9 2.2 2.5 9.9 9.4 14.1 12.2s11.3 15 16.1 15zm-30.2-31.1c-.8-1.2-1.1-2.4-1.3-4-.1-1.6-.2-3.4-.2-5.2 0-3.6-.1-7.2-.2-10.8-.1-7.2-.4-12.3-.6-19.5 0-1.8-.1-3.6-.1-5.3.1-1.7.2-3.5.3-5.3.3-1.7.4-3.5.8-5.2l.6-2.6c.2-.9.4-1.7.7-2.6 2.1-6.7 5.7-13.1 10.8-18 5.1-4.8 11.5-8.3 18.3-9.7 11.1-2.5 17.4-.6 20.7.4 6.8 2 12.5 5.6 17.4 10.2 4.9 4.7 8.6 10.7 11.1 17.2.4.8.6 1.6.9 2.5l.8 2.5c.5 1.7.8 3.4 1.2 5.2.3 1.7.5 3.5.7 5.2s.2 3.6.3 5.4c.3 7.2.5 12.4.5 19.5-.1 3.6-.1 7.2-.1 10.8 0 1.8-.1 3.6-.2 5.3-.2 1.8-.7 3.4-1.6 4.8-2 2.8-4.8 5-7.6 7.3-2.8 2.2-5.6 4.4-8.5 6.3 0 0-2.1 1.5-2.5 1.9-.7.7-1.4 1.3-2 2-1.3 1.3-2.5 2.7-3.7 4s-2.4 2.6-3.6 3.8c-.6.6-1.2 1.1-1.8 1.6-.6.5-1.5 1.7-8.1.1-.9-.3-2.1-.5-3.3-.5-1.2 0-2.4.2-3.3.5-.9.2-3.9.8-4.7.8-.4 0-1.6.1-3.2-1.1-1.7-1.2-4.1-4.1-5.2-5.5s-2.3-2.8-3.5-4.2c-.6-.7-1.3-1.4-2-2.1-.4-.4-2.5-2-2.5-2-2.8-1.9-5.5-4.2-8.2-6.5-2.7-2.4-5.5-4.7-7.1-7.2z" fill="#c66c49" stroke-width="none" opacity="1" stroke="none"></path></g></g><g id="svga-group-mouth-single-move" transform="matrix(1,0,0,1,0,0)"><g id="svga-group-mouth-single" transform="matrix(1,0,0,1,0,0)"><path id="SvgjsPath15244" d="M86.4 128s.3.4 2.5.8 4.9-1.7 4.9-1.7 3.6 1 6.3 1c2.8 0 5.5-1.5 5.5-1.5 1.3 1.3 3.8 2.2 5.3 2.5 1.6.3 3-.9 3-.9s-1.8-4.6-4.2-5.9-4.6-.1-6.2.4-3.8.6-6 .1c-2.2-.6-6.2-1.9-8.4.4s-3.2 4.8-3.2 4.8h.5z" fill="#e66638" stroke-width="none" opacity="1" transform="translate(0 2)" stroke="none"></path><path id="SvgjsPath15245" d="M91.6 122.6c3.2-.6 5.3.3 5.1.1-4.1-1.6-7.2-.6-8.9 2.3-.1.3 1.6-1.9 3.8-2.4zm21.4 4.3c-1.3-2.5-2.4-4.3-4.1-4.8-2.9-.9-3.9.8-8.7 1.2.4.2 1.8.1 3.2-.3 3.2-.9 4.1-.9 5.4-.5 1.8.6 2.2 1.7 4.2 4.4z" fill="#f57f54" stroke-width="none" opacity="1" transform="translate(0 2)" stroke="none"></path><path id="SvgjsPath15246" d="M95.7 130.6c2.4.8 5.6.9 8 .2.2-.1.2-.4-.1-.4-1.3 0-2.6.2-4 .2-1.3 0-2.6-.2-4-.3 0 0 0 .2.1.3z" fill="#fcc9b5" stroke-width="none" opacity="1" transform="translate(0 2)" stroke="none"></path><path id="SvgjsPath15247" d="M115 127.1c-2.5 1.4-4.3 1.7-5.7 1.2-1.2-.4-2.2-1.2-3.3-1.7.6-.3 1.2-.7 1.6-1.2.1-.1 0-.3-.2-.3-.7.2-1.2.6-1.8.9-1.5.8-3.2 1.3-4.9 1.5-2.9.3-6.1-.1-8.6-1.7-.2-.1-.3.1-.2.3.4.3.8.6 1.3.9-.6.3-1.1.7-1.6.9-1.3.5-4.1.4-6.6-1.1-.2-.1.9 1 1.8 1.5 1.3.9 3.1.9 4.5.4.8-.2 2.1-.7 2.5-1.5 3.4 1.6 8 1.3 11.4-.4.8 1.1 2.7 1.8 4 2.2 1.4.4 3.2 0 4.3-.8.3.1 1.7-1.1 1.5-1.1z" fill="#d74f1f" stroke-width="none" opacity="1" transform="translate(0 2)" stroke="none"></path><path id="SvgjsPath15248" d="M108.1 131.5c-2.5.5-4.7 1.5-7.3 1.6-2.9.1-5.8-.3-8.5-1.3-.1-.1.9.8 1.1.9 4.2 2.5 8.8 3 13.5 0 .2-.3 1.4-1.3 1.2-1.2z" fill="#e59e82" stroke-width="none" opacity="1" transform="translate(0 2)" stroke="none"></path></g></g><g id="svga-group-eyes-left-move" transform="matrix(1,0,0,1,0,0)"><g id="svga-group-eyes-left" transform="matrix(1,0,0,1,0,0)"><g id="svga-group-eyesback-left"><path id="SvgjsPath15076" d="M89.2 98s-.1-2.4-1.3-4.2c-1.2-1.8-3.7-4.7-8.4-4.9S71 90.8 71 90.8s.5 3.5 2.2 4.9c1.7 1.4 4.6 3.5 9.3 3.3 4.8-.1 6.7-1 6.7-1z" fill="#ffffff" stroke-width="none" opacity="1"></path></g><g id="svga-group-eyesiriswrapper-left" transform="matrix(1,0,0,1,0,0)"><g id="svga-group-eyesiriscontrol-left" transform="matrix(1,0,0,1,0,0)"><g id="svga-group-eyesiris-left" transform="matrix(1,0,0,1,0,0)"><path id="SvgjsPath15132" d="M77.2 88.9c2.5-1.6 5.9-.9 7.6 1.6 1.6 2.5.9 5.9-1.6 7.6-2.5 1.6-5.9.9-7.6-1.6s-.9-5.9 1.6-7.6z" fill="#fdd70e" stroke-width="none" opacity="1"></path><path id="SvgjsPath15133" d="M84.8 90.5c.4.6.7 1.3.8 2 .2.7.2 1.5.1 2.2s-.4 1.5-.8 2.1c-.4.6-1 1.2-1.6 1.6-.7.4-1.4.6-2.1.7-.7.1-1.5.1-2.2-.1-1.4-.3-2.7-1.2-3.6-2.4-.4-.6-.8-1.3-.9-2s-.2-1.5 0-2.3c.2-.8.4-1.5.9-2.1.4-.6 1-1.2 1.6-1.6.7-.4 1.4-.7 2.1-.8.8-.1 1.5-.1 2.2.1 1.5.5 2.8 1.4 3.5 2.6zm0 .1-.3-.4c-.1-.1-.2-.3-.4-.4-.1-.1-.3-.2-.4-.3-.1-.1-.3-.2-.4-.3-.6-.4-1.3-.6-1.9-.7-1.4-.2-2.7.1-3.8.8-1.1.7-1.9 1.9-2.2 3.2-.3 1.3-.1 2.7.6 3.9.3.6.8 1.1 1.4 1.5.6.4 1.2.7 1.9.8.7.1 1.4.1 2.1-.1s1.3-.5 1.8-.8c.6-.4 1-.9 1.4-1.4.4-.6.7-1.2.9-1.8.2-.7.3-1.4.2-2.1-.3-.6-.5-1.3-.9-1.9z" fill="#debb00" stroke-width="none" opacity="1"></path><path id="SvgjsPath15134" d="M80.2 91.6c1.1 0 1.9.9 1.9 1.9s-.9 1.9-1.9 1.9-1.9-.9-1.9-1.9.8-1.9 1.9-1.9z" fill="#000000" stroke-width="none" opacity="1"></path><path id="SvgjsPath15135" d="M80.2 95.7c-1.2 0-2.1-.9-2.1-2.1 0-1.2.9-2.1 2.1-2.1s2.1.9 2.1 2.1c0 1.1-.9 2.1-2.1 2.1zm0-3.9c-1 0-1.8.8-1.8 1.8s.8 1.8 1.8 1.8 1.8-.8 1.8-1.8-.8-1.8-1.8-1.8z" fill="#cfae00" stroke-width="none" opacity="1"></path><path id="SvgjsPath15136" d="M77.7 89.5c.4-.3 1.2.3 1.7 1.1.5.9.6 1.8.1 2-.4.3-1.2-.3-1.7-1.1-.5-.9-.5-1.8-.1-2zm3.7 5c.4 0 .7.3.7.7s-.3.7-.7.7-.7-.3-.7-.7.4-.7.7-.7z" fill="#ffffff" stroke-width="none" opacity="1"></path></g></g></g><g id="svga-group-eyesfront-left"><path id="SvgjsPath15084" d="M69.4 94.6c0 6.4 4.7 11.5 10.6 11.5 5.9 0 10.6-5.2 10.6-11.5S85.9 83.1 80 83.1c-5.8 0-10.6 5.1-10.6 11.5zm1.6-3.8s3.7-2.1 8.5-1.9c4.8.2 7.3 3 8.4 4.9 1.2 1.8 1.3 4.2 1.3 4.2s-2 .9-6.7 1c-4.7.1-7.6-1.9-9.3-3.3-1.7-1.4-2.2-4.9-2.2-4.9z" fill="#f4baa3" stroke-width="none" opacity="1" stroke="none"></path><path id="SvgjsPath15085" d="M90.6 95.9c-2-3.6-4.1-6.6-8.3-7.9-4.3-1.4-8.1-.2-11.9 1.9-.2.1-.5-.2-.3-.4 6.3-5.7 18.8-2.3 20.6 6.3.1.2 0 .2-.1.1z" fill="#e59e82" stroke-width="none" opacity="1" stroke="none"></path><path id="SvgjsPath15086" d="M83.1 89.2c-4.8-2-10.6-.9-14.6 2.4-.5.4.1 1.1.6.8.5-.3 1-.6 1.6-.9 1.3 8.3 11.8 9.4 18.2 6.8.1.4.1.8.2 1.2 0 .3.5.4.6.1.7-4.5-2.5-8.7-6.6-10.4zm-4.6 8.9c-3.5-.9-6.2-3.4-6.7-7 0-.1 0-.1-.1-.1 3-1.5 6.2-2.3 9.7-1.3 4.2 1.2 6.7 4.2 7.5 8.2-3.6.2-6.9 1.2-10.4.2z" fill="#1b2a40" stroke-width="none" opacity="1" stroke="none"></path></g></g></g><g id="svga-group-eyes-right-move" transform="matrix(1,0,0,1,0,0)"><g id="svga-group-eyes-right" transform="matrix(1,0,0,1,0,0)"><g id="svga-group-eyesback-right"><path id="SvgjsPath15077" d="M110.8 98s.1-2.4 1.3-4.2c1.2-1.8 3.7-4.7 8.4-4.9s8.5 1.9 8.5 1.9-.5 3.5-2.2 4.9c-1.7 1.4-4.6 3.5-9.3 3.3-4.8-.1-6.7-1-6.7-1z" fill="#ffffff" stroke-width="none" opacity="1"></path></g><g id="svga-group-eyesiriswrapper-right" transform="matrix(1,0,0,1,0,0)"><g id="svga-group-eyesiriscontrol-right" transform="matrix(1,0,0,1,0,0)"><g id="svga-group-eyesiris-right" transform="matrix(1,0,0,1,0,0)"><path id="SvgjsPath15137" d="M117 89c2.5-1.6 5.9-.9 7.6 1.6 1.6 2.5.9 5.9-1.6 7.6-2.5 1.6-5.9.9-7.6-1.6-1.7-2.6-1-6 1.6-7.6z" fill="#fdd70e" stroke-width="none" opacity="1"></path><path id="SvgjsPath15138" d="M124.6 90.5c.4.6.7 1.3.8 2 .2.7.2 1.5.1 2.2s-.4 1.5-.8 2.1c-.4.6-1 1.2-1.6 1.6-.7.4-1.4.6-2.1.7-.7.1-1.5.1-2.2-.1-1.4-.3-2.7-1.2-3.6-2.4-.4-.6-.8-1.3-.9-2s-.2-1.5 0-2.3c.2-.8.4-1.5.9-2.1.4-.6 1-1.2 1.6-1.6.7-.4 1.4-.7 2.1-.8.8-.1 1.5-.1 2.2.1 1.5.5 2.7 1.4 3.5 2.6zm-.1.1-.3-.4c-.1-.1-.2-.3-.4-.4-.1-.1-.3-.2-.4-.3-.1-.1-.3-.2-.4-.3-.6-.4-1.3-.6-1.9-.7-1.4-.2-2.7.1-3.8.8-1.1.7-1.9 1.9-2.2 3.2-.3 1.3-.1 2.7.6 3.9.3.6.8 1.1 1.4 1.5.6.4 1.2.7 1.9.8.7.1 1.4.1 2.1-.1s1.3-.5 1.8-.8c.6-.4 1-.9 1.4-1.4.4-.6.7-1.2.9-1.8.2-.7.3-1.4.2-2.1-.3-.6-.5-1.3-.9-1.9z" fill="#debb00" stroke-width="none" opacity="1"></path><path id="SvgjsPath15139" d="M119.9 91.6c1.1 0 1.9.9 1.9 1.9s-.9 1.9-1.9 1.9-1.9-.9-1.9-1.9.9-1.9 1.9-1.9z" fill="#000000" stroke-width="none" opacity="1"></path><path id="SvgjsPath15140" d="M119.9 95.7c-1.2 0-2.1-.9-2.1-2.1 0-1.2.9-2.1 2.1-2.1s2.1.9 2.1 2.1c.1 1.1-.9 2.1-2.1 2.1zm0-3.9c-1 0-1.8.8-1.8 1.8s.8 1.8 1.8 1.8 1.8-.8 1.8-1.8-.8-1.8-1.8-1.8z" fill="#cfae00" stroke-width="none" opacity="1"></path><path id="SvgjsPath15141" d="M117.4 89.5c.4-.3 1.2.3 1.7 1.1.5.9.6 1.8.1 2s-1.2-.3-1.7-1.1c-.5-.9-.5-1.8-.1-2zm3.8 5c.4 0 .7.3.7.7s-.3.7-.7.7-.7-.3-.7-.7.3-.7.7-.7z" fill="#ffffff" stroke-width="none" opacity="1"></path></g></g></g><g id="svga-group-eyesfront-right"><path id="SvgjsPath15087" d="M120 83.1c-5.9 0-10.6 5.2-10.6 11.5s4.7 11.5 10.6 11.5c5.9 0 10.6-5.2 10.6-11.5s-4.8-11.5-10.6-11.5zm6.8 12.6c-1.7 1.4-4.6 3.5-9.3 3.3-4.7-.1-6.7-1-6.7-1s.1-2.4 1.3-4.2c1.2-1.8 3.7-4.7 8.4-4.9 4.8-.2 8.5 1.9 8.5 1.9s-.5 3.5-2.2 4.9z" fill="#f4baa3" stroke-width="none" opacity="1" stroke="none"></path><path id="SvgjsPath15090" d="M109.4 95.9c2-3.6 4.1-6.6 8.3-7.9 4.3-1.4 8.1-.2 11.9 1.9.2.1.5-.2.3-.4-6.3-5.7-18.8-2.3-20.6 6.3-.1.2 0 .2.1.1z" fill="#e59e82" stroke-width="none" opacity="1" stroke="none"></path><path id="SvgjsPath15091" d="M131.5 91.6c-4-3.3-9.7-4.4-14.6-2.4-4 1.7-7.3 5.9-6.6 10.4.1.3.5.2.6-.1 0-.4.1-.8.2-1.2 6.5 2.6 17 1.4 18.2-6.8.5.3 1 .6 1.6.9.4.3 1-.5.6-.8zm-3.2-.5c-.5 3.6-3.3 6.1-6.7 7-3.6 1-6.9 0-10.4-.3.8-3.9 3.3-7 7.5-8.2 3.5-1 6.7-.1 9.7 1.3-.1.1-.1.2-.1.2z" fill="#1b2a40" stroke-width="none" opacity="1" stroke="none"></path></g></g></g><g id="svga-group-facehighlight-single"></g><g id="svga-group-eyebrows-left-move" transform="matrix(1,0,0,1,0,0)"><g id="svga-group-eyebrows-left-rotate" transform="matrix(1,0,0,1,0,0)"><g id="svga-group-eyebrows-left" transform="matrix(1,0,0,1,0,0)"><path id="SvgjsPath15001" d="M65.8 82.4c.4-.2 1 0 1.4.1l.1-.1c.5-.1 1.1-.1 1.7-.1.3-.1.5-.1.8-.1.4 0 .9-.1 1.3-.1.1 0 .2 0 .2.1.7-.1 1.5-.1 2.2-.2 1.2-.1 2.3-.2 3.5-.2 2-.2 4.1-.5 6.1-.2h1.8c1 0 2.1-.3 3.1-.1h1.2c.2 0 .4.2.5.4.5-.1.9-.2 1.4-.2.2 0 .4 0 .5.1.1-.1.3-.1.4.1.1-.1.3-.1.4 0 .1.3.1.6.1.9v.2c-.2.7-.3 2.5-1.3 2.6-.2 0-.4 0-.7-.1-.6.2-1.2.2-1.9.1-.9-.2-1.8-.3-2.8-.5-1.7.3-3.4 0-5.1-.5 0 0-.1.1-.2.1-1.2-.1-2.4-.2-3.6-.4-1.3-.2-2.7-.1-4-.4-.8 0-1.6-.1-2.4-.2-.9-.1-1.8-.1-2.6-.4-.1 0-.1-.1-.1-.2h-.2c-.2 0-.5 0-.7-.2-.4 0-.7 0-1-.3-.2 0-.2-.1-.1-.2z" fill="#b7513b" stroke-width="none" opacity="1"></path><path id="SvgjsPath15002" d="M90.6 82.2c.2.5.3 1.1.4 1.7.1.4.2.9.1 1.3 0 .1-.2.2-.3 0-.2-.4-.3-1-.4-1.5-.1-.5-.2-1-.2-1.5 0-.2.3-.2.4 0zm-4.3-.2c.6.4 1 1 1.5 1.6l.9 1.2c-.2-.4-.3-.8-.5-1.2-.3-.6-.7-1.2-1-1.8-.1-.2.1-.4.3-.2.9 1 1.6 2.6 1.8 3.8 0 .1-.2.3-.2.1 0-.1-.1-.2-.1-.2 0 .1-.1.2-.2.1-.5-.4-.9-1.1-1.3-1.6s-.9-1-1.2-1.5c-.3-.2-.1-.4 0-.3zm-3.3-.2c.7.5 1.2 1.1 1.7 1.7s1.1 1.2 1.6 1.8c.1.2-.1.3-.2.2-.6-.5-1.2-1.1-1.8-1.7-.5-.5-1.1-1-1.5-1.7-.2-.2 0-.4.2-.3zm-2.4-.5c.6.3 1 1 1.4 1.5.4.6.8 1.2 1.1 1.9.1.2-.2.3-.3.1-.4-.6-.7-1.2-1.2-1.7-.4-.6-.9-1-1.3-1.6 0-.1.2-.3.3-.2zm-6.8.3c2.1.3 3.7 2.1 5.6 2.6.2 0 .1.3 0 .3-.9.1-1.7-.6-2.4-.9-1.1-.6-2.3-.9-3.3-1.6-.2-.1-.1-.4.1-.4zm-5.3.6c1.2.1 2.5.5 3.7.7 1.1.2 2.2.4 3.3.9.2.1.1.4-.1.3-2.2-.9-4.7-.8-6.9-1.7-.2.1-.2-.2 0-.2z" fill="#c66854" stroke-width="none" opacity="1"></path><path id="SvgjsPath15003" d="M65.5 82.7c2.8-.1 5.7-.4 8.5-.6.7.7 1.5 1.4 2.4 1.9-.9-.1-1.9-.2-2.8-.3-2.4-.3-4.8-.8-7.3-.9-.2 0-.3.3-.1.4 4 1.1 8.4 1.4 12.6 1.8 4.4.5 8.7.8 13.1 1 .1 0 .3-.1.3-.2.3-1.2.6-2.4.8-3.6 0-.2-.3-.3-.4-.1-.3.7-.5 1.3-.7 2-.1.4-.2.9-.5 1.2.1-.4.1-.9.1-1.3 0-.6 0-1.2-.1-1.8 0-.1-.2-.1-.2 0-.1.5-.2 1.1-.2 1.8 0 .4-.1 1 0 1.4-.3 0-.8-.1-1.2-.1-.2-1.2-.6-2.3-1-3.4 1.3.1 2.7.1 3.9-.1.1 0 .1-.2 0-.2-2-.6-4.6-.3-6.7-.3-2.3 0-4.6 0-6.9.1-4.5.1-9.2.2-13.7.9-.3-.1-.3.5.1.4zm23.7 2.5c-.5 0-.9-.1-1.4-.1V85c-1-1.1-1.9-2.3-3.1-3.3h1.6c.7 0 1.4.1 2.1.1.2 1.1.6 2.3 1 3.4h-.2zm-14.8-3.1c1.6-.1 3.3-.2 4.9-.3 1.7-.1 3.3-.1 5-.1.9 1.2 2.1 2.3 3.2 3.3-1-.1-2-.1-3-.2-.9-1-1.8-2.1-2.9-2.8-.1-.1-.3.1-.2.2.7.9 1.6 1.8 2.5 2.6-.5 0-1-.1-1.5-.1-.5-.9-1.2-1.8-1.9-2.6-.1-.1-.2 0-.2.1.4.9 1 1.7 1.6 2.4-.5 0-.9-.1-1.4-.1-1.2-.1-2.3-.2-3.4-.4-.8-.7-1.8-1.4-2.7-2z" fill="#a83c25" stroke-width="none" opacity="1"></path></g></g></g><g id="svga-group-eyebrows-right-move" transform="matrix(1,0,0,1,0,0)"><g id="svga-group-eyebrows-right-rotate" transform="matrix(1,0,0,1,0,0)"><g id="svga-group-eyebrows-right" transform="matrix(1,0,0,1,0,0)"><path id="SvgjsPath15004" d="M134.2 82.4c-.4-.2-1 0-1.4.1l-.1-.1c-.5-.1-1.1-.1-1.6-.1-.3-.1-.5-.1-.8-.1-.4 0-.9-.1-1.3-.1-.1 0-.2 0-.2.1-.7-.1-1.5-.1-2.2-.2-1.2-.1-2.3-.2-3.5-.2-2-.2-4.1-.5-6.1-.2h-1.8c-1 0-2.1-.3-3.1-.1h-1.2c-.2 0-.4.2-.5.4-.5-.1-.9-.2-1.4-.2-.2 0-.4 0-.5.1-.1-.1-.3-.1-.4.1-.1-.1-.3-.1-.4 0-.1.3-.1.6-.1.9v.2c.2.7.3 2.5 1.3 2.6.2 0 .4 0 .7-.1.6.2 1.2.2 1.9.1.9-.2 1.8-.3 2.8-.5 1.7.3 3.4 0 5.1-.5 0 0 .1.1.2.1 1.2-.1 2.4-.2 3.6-.4 1.3-.2 2.7-.1 4-.4.8 0 1.6-.1 2.4-.2.9-.1 1.8-.1 2.6-.4.1 0 .1-.1.1-.2h.2c.2 0 .5 0 .7-.2.4 0 .7 0 1-.3.1 0 .1-.1 0-.2z" fill="#b7513b" stroke-width="none" opacity="1"></path><path id="SvgjsPath15005" d="M109.4 82.2c-.2.5-.3 1.1-.4 1.7-.1.4-.2.9-.1 1.3 0 .1.2.2.3 0 .2-.4.3-1 .4-1.5.1-.5.2-1 .2-1.5 0-.2-.3-.2-.4 0zm4.3-.2c-.6.4-1 1-1.5 1.6l-.9 1.2c.2-.4.3-.8.5-1.2.3-.6.7-1.2 1-1.8.1-.2-.1-.4-.3-.2-.9 1-1.6 2.6-1.8 3.8 0 .1.2.3.2.1 0-.1.1-.2.1-.2 0 .1.1.2.2.1.5-.4.9-1.1 1.3-1.6s.9-1 1.2-1.5c.3-.2.1-.4 0-.3zm3.3-.2c-.7.5-1.2 1.1-1.7 1.7s-1.1 1.2-1.6 1.8c-.1.2.1.3.2.2.6-.5 1.2-1.1 1.8-1.7.5-.5 1.1-1 1.5-1.7.2-.2 0-.4-.2-.3zm2.4-.5c-.6.3-1 1-1.4 1.5-.4.6-.8 1.2-1.1 1.9-.1.2.2.3.3.1.4-.6.7-1.2 1.2-1.7.4-.6.9-1 1.3-1.6 0-.1-.2-.3-.3-.2zm6.8.3c-2.1.3-3.7 2.1-5.6 2.6-.2 0-.1.3 0 .3.9.1 1.7-.6 2.4-.9 1.1-.6 2.3-.9 3.3-1.6.2-.1.1-.4-.1-.4zm5.3.6c-1.2.1-2.5.5-3.7.7-1.1.2-2.2.4-3.3.9-.2.1-.1.4.1.3 2.2-.9 4.7-.8 6.9-1.7.2.1.2-.2 0-.2z" fill="#c66854" stroke-width="none" opacity="1"></path><path id="SvgjsPath15006" d="M134.6 82.2c-4.4-.8-9.1-.8-13.7-.9-2.3-.1-4.6-.1-6.9-.1-2.1 0-4.7-.3-6.7.3-.1 0-.1.2 0 .2 1.2.2 2.6.2 3.9.1-.5 1.1-.8 2.3-1 3.4-.4.1-.9.1-1.2.1.1-.4 0-1 0-1.4 0-.6-.1-1.2-.2-1.8 0-.1-.2-.1-.2 0-.1.6-.1 1.2-.1 1.8 0 .4 0 .9.1 1.3-.4-.3-.4-.7-.5-1.2-.2-.7-.4-1.4-.7-2-.1-.2-.4-.1-.4.1.2 1.2.5 2.4.8 3.6 0 .1.2.2.3.2 4.4-.2 8.8-.6 13.1-1 4.1-.4 8.6-.7 12.6-1.8.2-.1.2-.4-.1-.4-2.4.1-4.9.6-7.3.9-.9.1-1.9.2-2.8.3.8-.5 1.7-1.2 2.4-1.9 2.8.2 5.6.5 8.5.6.4.2.4-.4.1-.4zm-24 3c.5-1.1.9-2.2 1-3.4.7-.1 1.4-.1 2.1-.1h1.6c-1.2 1-2.1 2.2-3.1 3.3v.1c-.5 0-.9.1-1.4.1h-.2zm12.3-1.1c-1.2.1-2.3.2-3.4.4-.5.1-.9.1-1.4.1.6-.7 1.2-1.5 1.6-2.4.1-.1-.1-.2-.2-.1-.8.8-1.4 1.6-1.9 2.6-.5.1-1 .1-1.5.1.9-.8 1.8-1.6 2.5-2.6.1-.1-.1-.3-.2-.2-1.1.8-2.1 1.8-2.9 2.8-1 .1-2 .2-3 .2 1.1-1 2.3-2.1 3.2-3.3 1.7 0 3.3 0 5 .1 1.6.1 3.3.2 4.9.3-.9.6-1.9 1.3-2.7 2z" fill="#a83c25" stroke-width="none" opacity="1"></path></g></g></g><g id="svga-group-beardwrap" transform="matrix(1,0,0,1,0,0)"><g id="svga-group-beard-single-move" transform="matrix(1,0,0,1,0,0)"><g id="svga-group-beard-single" transform="matrix(1,0,0,1,0,0)"></g></g></g><g id="svga-group-mustache-single-move" transform="matrix(1,0,0,1,0,0)"><g id="svga-group-mustache-single" transform="matrix(1,0,0,1,0,0)"></g></g><g id="svga-group-nose-single-move" transform="matrix(1,0,0,1,0,0)"><g id="svga-group-nose-single" transform="matrix(1,0,0,1,0,0)"><path id="SvgjsPath15216" d="M100.57 118.86c-1.05.15-3.5-1.3-3.9-1.3s-1.1 1-2.6.95c-1.5-.05-2.7-.4-2.7-1.8s1.1-3.85 1.35-5.31.54-2.68 1.52-2.89c0 0 .23-.61.43-1.56.2-.95 1.3-9.01 1.8-9.91s5.06-2.05 7.11.25c0 0 1.7 10.41 2.05 11.01 0 0 .75.2 1.2 1.7.45 1.5 1.1 3.25 1.55 4.21.45.95.7 2.45.25 3.1-.45.65-1.05.7-1.05.7s-1.4.15-1.95-.25-1.05-.7-1.4-.7c-.35 0-1.15 1.05-2.05 1.45-.91.4-1.61.35-1.61.35z" fill="#f4baa3" stroke-width="none" opacity="1" transform="translate(0 1)" stroke="none"></path><path id="SvgjsPath15217" d="M94.84 118.22c-.67.22-1.27.02-1.79-.6-1.17-.15-1.54-.71-1.09-1.68.13-.75.33-1.49.5-2.23.17-.74.35-1.48.53-2.23l.18-.74c.04-.93.6-1.48 1.68-1.66.09.25.5.23.5-.07-.01-.52-.29-.88-.69-.99.98-2.9 1.29-6.16 1.77-9.15.49-3 .97-6.06 1.1-9.11 0-.1-.16-.13-.18-.02-.69 3.21-1.09 6.48-1.63 9.72-.47 2.81-1.26 5.68-1.46 8.53-.16.01-.32.05-.49.14-1.35.66-1.45 3.45-1.74 4.68-.32 1.35-1.44 3.93-.51 5.28.77 1.12 2.33.9 3.42.51.24-.1.14-.42-.1-.38z" fill="#c66c49" stroke-width="none" opacity="1" transform="translate(0 1)" stroke="none"></path><path id="SvgjsPath15218" d="M103.83 116.56c-.35.22-.57.47-.89.74-1.27 1.05-2.41 1.52-4.06.79-1.82-.81-3.94-2.66-5.88-1.09-.16.13.02.36.19.32 3.02-.69 4.45 1.92 7.21 2.04 2.36.1 3.3-2.46 5.58-2.61.21-.01.34-.32.12-.44-.83-.41-1.49-.24-2.27.25z" fill="#c66c49" stroke-width="none" opacity="1" transform="translate(0 1)" stroke="none"></path><path id="SvgjsPath15219" d="M105.55 107.1c-.17-2.48-.83-4.95-1.23-7.4-.44-2.69-.91-5.38-1.31-8.07-.02-.11-.2-.08-.19.03.51 5.07.82 10.63 2.4 15.49.05.16.35.15.33-.05z" fill="#c66c49" stroke-width="none" opacity="1" transform="translate(0 1)" stroke="none"></path><path id="SvgjsPath15220" d="M108.1 112.37c-.45-1.13-.89-3.39-1.89-4.2-.62-.5-1.36-.41-1.59.37-.04.15.16.22.24.1.75-1.09 1.68 1.64 1.8 1.95.29.77.58 1.53.88 2.3.52 1.35 2.15 4.32-.36 4.92-.18.04-.23.33-.05.41.84.39 1.59-.02 2.02-.84.81-1.53-.49-3.61-1.05-5.01z" fill="#c66c49" stroke-width="none" opacity="1" transform="translate(0 1)" stroke="none"></path><path id="SvgjsPath15221" d="M102.44 108.2c-.34-2.54-.69-5.09-1.02-7.63-.3-2.33-.08-4.95-1.04-7.12-.17-.38-.69-.21-.81.11-.65 1.75-.36 3.65-.3 5.48.06 1.91.07 3.83.25 5.73.16 1.77.37 3.53.64 5.28.23 1.53 1.42 4.45.05 5.49-.42.32-.49 1.16.17 1.27 4.63.82 2.36-6.42 2.06-8.61z" fill="#fcc9b5" stroke-width="none" opacity="1" transform="translate(0 1)" stroke="none"></path><path id="SvgjsPath15222" d="M107.83 114.6c-.25-1.04-.66-2.05-1.01-3.05-.31-.88-.46-1.65-1.23-2.21-.14-.1-.33.01-.38.15-.36 1.15.33 2.38.69 3.48.36 1.1 1.43 3 .37 3.97-.49.45.13 1.15.68.88 1.22-.6 1.16-2.06.88-3.22z" fill="#fcc9b5" stroke-width="none" opacity="1" transform="translate(0 1)" stroke="none"></path></g></g><g id="svga-group-hair-front" transform="matrix(1,0,0,1,0,0)"><path id="SvgjsPath15273" d="M143.6 75.2s.6-3.3-1.2-6.4c0 0 .6-3.2-1.2-5.6 0 0-.2-5.5-4.2-7.2 0 0 .2-4.5-4.1-6 0 0 .2-5-6.8-6.8 0 0-1.7-4.4-6.1-4.2 0 0-3.2-4.2-7.7-2.9 0 0-1.9-2.9-6.3-.8 0 0-2.8-2.2-6.1-.5h.1c-3.3-1.8-6.1.5-6.1.5-4.4-2.1-6.3.8-6.3.8-4.5-1.2-7.7 2.9-7.7 2.9-4.4-.2-6.1 4.2-6.1 4.2C66.8 45 67 50 67 50c-4.3 1.5-4.1 6-4.1 6-3.9 1.7-4.2 7.2-4.2 7.2-1.8 2.5-1.2 5.6-1.2 5.6-1.8 3.2-1.2 6.4-1.2 6.4S55 79.6 54.9 82s4.4 11.2 7.2 8-.1-6.6-.1-6.6c4.6 1.1 1.1-8.3 1.1-8.3 3.4-2.4 1.5-6.2 1.5-6.2 3.7-1.9 2.1-5.6 2.1-5.6 3.7-.2 3-3.8 3-3.8 3.3-.5 4.1-3.7 4.1-3.7 3.8.5 4.7-2.2 4.7-2.2 3.8 1.6 5.5-2.4 5.5-2.4 3.5 4.1 8.1.3 8.1.3 4.5 4.3 7.7-.5 7.7-.5h.3s3.2 4.7 7.7.5c0 0 4.6 3.7 8.1-.3 0 0 1.7 3.9 5.5 2.4 0 0 .9 2.7 4.7 2.2 0 0 .8 3.3 4.1 3.7 0 0-.7 3.6 3 3.8 0 0-1.6 3.7 2.1 5.6 0 0-1.9 3.8 1.5 6.2 0 0-3.5 9.5 1.1 8.3 0 0-2.9 3.4-.1 6.5 2.8 3.2 7.3-5.6 7.2-8 0-2.3-1.4-6.7-1.4-6.7z" fill="#b7513b" stroke-width="none" opacity="1" stroke="none"></path><path id="SvgjsPath15274" d="M145.6 81.1c0-.1 0-.2-.1-.2 0-2.2-.6-4.4-1.4-6.1l-.2-.2c.9-1.9.2-4.4-1.1-5.9 0-.1-.1-.1-.1-.1.8-1.9 0-4.2-1.2-5.8-.1-.1-.2-.2-.4-.2.4-2.4-1.3-6.4-3.5-7.1h-.2c.4-2.5-1.9-5.3-4-6.2-.1 0-.2-.1-.3-.1-.6-3.2-3.4-6.3-6.7-6.5h-.2c-.6-2.2-3.5-4.4-5.8-4.1-.1 0-.2.1-.2.1-1.2-2.8-5.2-4-7.9-3.3-1.3-1.8-4.5-1.8-6.2-.6-1.5-1.5-4.2-1.7-6-.5-1.8-1.2-4.5-1-6 .5-1.8-1.2-4.9-1.3-6.2.6-2.9-.6-6.9.6-8.1 3.4-.1-.1-.1-.1-.2-.1-2.3-.3-5.2 1.8-5.8 4.1h-.2c-3.3.2-6.1 3.4-6.7 6.5-.1 0-.2 0-.3.1-2.1 1-4.4 3.7-4 6.2h-.2c-2.2.7-3.9 4.7-3.5 7.1-.1 0-.3 0-.4.2-1.2 1.5-2 3.9-1.2 5.8l-.1.1c-1.2 1.6-2 4-1.1 5.9-.1 0-.1.1-.2.2-.9 1.7-1.5 3.9-1.5 6.1 0 .1-.1.1-.1.2.2 2.6 2.2 8.6 5.3 9.4v.1c1.3.9 3.1-.3 3.6-1.6.7-1.6.2-3.8-1-5 3.8.3 2.4-6.7 1-8.7.1 0 .2 0 .2-.1 1.6-1.3 2.5-4.3 1.1-6.1 2.2-.8 3.4-3.5 2.3-5.5.9.2 2.1-.7 2.5-1.4.4-.6.7-1.8.3-2.6 1 .4 2.4-.6 3.1-1.3.5-.5.9-1.3 1-2.1 1.7.2 4-.6 4.4-2.4 1.2.5 2.6.4 3.7-.3.7-.4 1.5-1.1 1.8-2h.1c1.1 2.5 6.6 2.3 7.9 0 1.9 3.2 6.5 2.7 7.9-.6h.2c1.4 3.3 6 3.8 7.9.6 1.3 2.3 6.7 2.5 7.9 0h.1c.3.8 1.1 1.6 1.8 2 1.2.7 2.5.7 3.7.3.4 1.8 2.7 2.7 4.4 2.4.1.8.5 1.6 1 2.1.6.7 2 1.7 3.1 1.3-.4.7-.1 2 .3 2.6.5.7 1.6 1.6 2.5 1.4-1.1 2 .1 4.7 2.3 5.5-1.4 1.8-.4 4.8 1.1 6.1.1.1.1.1.2.1-1.3 1.9-2.8 9 1.1 8.7-1.3 1.2-1.7 3.5-1 5 .6 1.2 2.3 2.5 3.6 1.6v-.1c3.7-.9 5.7-6.9 5.9-9.5zm-83.8 8.4c-.5.4-1 .3-1.6.3-2.3-1.2-3.5-3.7-4.3-6.3-.1-1.1-.3-2.1-.3-3.2 0-1.4.4-2.8.9-4.1.2 3.4 1.8 6.4 5.3 7.6h.2c-.1.1-.2.2-.1.3.3 1.1 1 2 1 3.2-.1 1-.4 1.8-1.1 2.2zm.5-6.4c-.1 0-.2 0-.3.1-1.5-.8-3-1.6-3.8-3.2-.8-1.6-.8-3.4-1-5.2 0-.2-.2-.3-.3-.4-.2-1.5-.2-2.9.6-4.2 1 2.6 2.4 5.2 5.5 5.4.3 1 .7 2 .9 3.1.2 1.4.5 4.5-1.6 4.4zm2.3-11.2c-.1 1.1-.7 2-1.5 2.7-.1.1-.2.2-.2.3-1.2-.5-2.3-.8-3.1-1.9-.8-1.1-1.2-2.4-1.7-3.6 0-.1.1-.2.1-.3 0-.1.1-.1.1-.2-.3-1.9-.3-3.4.7-4.8.4 1.2 1.2 2.4 2 3.2s1.8 1.5 3 1.7c.3 1 .7 1.8.6 2.9zm-.3-3.4c-1-.6-1.9-1-2.7-1.8-.9-1-1.2-2.4-2.1-3.4v-.1c.4-1.3.4-2.7 1-4 .5-1.1 1.5-1.8 2.1-2.8.4 2.4 1.3 5.9 3.7 6.9.8 2.3.2 4.1-2 5.2zm4.6-6.7c-.3.4-.7.7-1.2.9-.3.1-.5.1-.8.2-.9-1-1.9-1.6-2.5-2.9-.6-1.3-.8-2.8-1.1-4.2v-.1c.3-1 .4-2 .9-2.9.5-.9 1.3-1.6 2.2-2.1.1 3.2.5 6.5 2.8 8.9 0 .3.1.5.1.8 0 .5-.1 1-.4 1.4zM82 52.6c-1 .6-2.1.5-3.2.2-1-4.7-.1-8.7 1.3-13.2.1-.2-.2-.3-.3-.1-2.3 4.3-2.8 8.9-1.9 13.6v.2c-.4.6-.7 1.2-1.4 1.6-.8.5-1.6.5-2.4.3-.2-3.6-.1-7-.1-10.6 0-.2-.3-.2-.3 0-.9 3.5-1.1 7.3-.4 10.8-.1.1-.1.3-.1.4-.3.7-.4 1.4-.9 2-.4.4-.8.6-1.3.8-.4.1-.8.1-1.1.3-.1.1-.2.2-.2.3-1.8-3-2.3-5.6-2.4-9 .1-.1.2-.3.1-.5.4-1.4 1.1-2.8 2.2-3.8 1.2-1.2 2.5-1.7 4.1-2.2.2-.1.3-.2.4-.4.1 0 .1 0 .1-.1.7-.9 1.3-1.8 2.3-2.5.9-.6 2-.7 3-1.1.1 0 .2-.1.2-.2.1.1.3.1.4 0 1.1-.9 1.9-1.9 3.2-2.4 1.4-.5 2.7-.6 4.2-.3-3.1 4-4.1 9.4-4.1 14.3-.4.5-.7 1.2-1.4 1.6zm6.3-.2c-.7.1-1.4.1-2-.2-.8-.3-1.2-1.1-1.8-1.6h-.1c0-5.2 1.7-9.4 3.9-14 .1-.2.2-.4.1-.6.8-.5 1.5-.9 2.5-1 1-.1 1.9.2 2.7.8-2 4.8-1.8 10.4-1.9 15.5v.1c-.9.6-2.3.8-3.4 1zm4.4-1.6c-.1-.1-.1-.2-.2-.2.1-5 .3-9.8 1.6-14.7.1 0 .1 0 .2-.1 1.6-1.4 3.5-1.8 5.4-.8-.4 5.1-.1 10.3-.1 15.5-.1 0-.1 0-.2.1-1.5 2.8-5 2.8-6.7.2zm14.6 0c-1.7 2.5-5.2 2.6-6.8-.2l-.1-.1c0-5.1.2-10.3-.2-15.5 2-1.1 3.8-.7 5.5.7.1.1.1.1.2.1 1.2 4.9 1.5 9.7 1.6 14.7-.1.2-.2.2-.2.3zm6.4 1.3c-.7.3-1.3.3-2 .2-1.1-.1-2.5-.4-3.4-1.1v-.1c-.1-5.1.2-10.7-1.9-15.5.8-.5 1.7-.8 2.7-.8 1 .1 1.7.5 2.5 1-.1.2-.1.4.1.6 2.2 4.7 3.9 8.9 3.9 14h-.1c-.6.7-1 1.4-1.8 1.7zm15.3 6.5c-.5-.2-.9-.4-1.3-.8-.6-.6-.7-1.3-.9-2 0-.2 0-.3-.1-.4.7-3.5.4-7.3-.4-10.8 0-.2-.3-.1-.3 0 .1 3.6.2 7-.1 10.6-.8.2-1.7.2-2.4-.3-.7-.4-1-1-1.4-1.6v-.2c.9-4.7.5-9.3-1.9-13.6-.1-.2-.3 0-.3.1 1.4 4.5 2.3 8.5 1.3 13.2-1.1.3-2.2.4-3.2-.2-.7-.4-1-1.1-1.5-1.7 0-4.9-1-10.3-4.1-14.3 1.4-.3 2.8-.2 4.2.3s2.2 1.5 3.2 2.4c.1.1.3.1.4 0l.2.2c1 .4 2 .5 3 1.1 1 .7 1.6 1.6 2.3 2.5l.1.1c0 .2.2.3.4.4 1.6.5 2.9 1 4.1 2.2 1.1 1.1 1.8 2.4 2.2 3.8 0 .2 0 .3.1.5 0 3.4-.6 6.1-2.4 9 0-.1-.1-.2-.2-.3-.3-.1-.6-.1-1-.2zm3.2 4c-.5-.2-.9-.5-1.2-.9-.3-.4-.4-.8-.4-1.3 0-.3.1-.6.1-.8 2.3-2.4 2.7-5.8 2.8-8.9.9.5 1.7 1.2 2.2 2.1.6.9.7 1.9.9 2.9v.1c-.3 1.4-.5 2.9-1.1 4.2-.6 1.3-1.6 1.9-2.5 2.9-.2-.2-.5-.2-.8-.3zm1.4.7c2.4-1 3.4-4.5 3.7-6.9.6 1 1.6 1.7 2.1 2.8.6 1.3.6 2.6 1.1 4v.1c-.9 1-1.2 2.4-2.1 3.4-.8.9-1.8 1.3-2.7 1.8-2.2-1.1-2.8-2.9-2.1-5.2zm1.8 8.6c-.1-1.1.2-1.9.6-2.8 1.1-.2 2.2-.9 3-1.7.8-.8 1.7-2.1 2-3.2 1 1.4 1 2.9.8 4.7 0 .1 0 .2.1.2 0 .1 0 .2.1.3-.5 1.2-.9 2.6-1.7 3.6-.8 1.1-2 1.4-3.1 1.9 0-.1 0-.2-.1-.3-1-.7-1.5-1.6-1.7-2.7zm.7 6.8c.2-1.1.6-2.1.9-3.1 3.1-.2 4.5-2.8 5.5-5.4.8 1.3.8 2.7.6 4.2-.2 0-.3.2-.3.4-.2 1.8-.2 3.6-1 5.2s-2.2 2.4-3.8 3.2c-.1-.1-.2-.1-.3-.1-2.1.1-1.8-3-1.6-4.4zm3.7 11.1c-.6 0-1.1 0-1.6-.3-.7-.5-1-1.3-1-2-.1-1.2.6-2.1 1-3.2.1-.2 0-.3-.1-.3.1 0 .2.1.2 0 3.5-1.2 5.1-4.2 5.3-7.6.5 1.3.8 2.6.9 4.1 0 1.1-.2 2.1-.3 3.2-.9 2.4-2.1 5-4.4 6.1z" fill="#a83c25" stroke-width="none" opacity="1" stroke="none"></path><path id="SvgjsPath15275" d="M96.6 51c-.9-.7-1.8-1.2-2.3-2.2-.6-1-.6-2-.7-3.1 0-.2-.2-.2-.3 0-.8 2.1 1 5.2 3.2 5.6.2-.1.3-.2.1-.3zm0-3.7c-1.3-1.7-2.1-3.4-2.6-5.5-.1-.2-.4-.2-.4 0 0 2.1 1 4.3 2.7 5.7.1.2.5 0 .3-.2zm.6-4.4c-1.3-1.6-1.8-3.3-2.1-5.3 0-.2-.3-.1-.4 0-.2 2.1.8 4.1 2.2 5.5.3.2.5 0 .3-.2zm-.3-5.6c-.1-.4-.2-.7-.4-1.1-.1-.1-.3-.1-.3.1 0 .4.2.7.3 1.1.1.3.5.1.4-.1zm-8 13.9c-.7-.5-1.4-1.2-1.9-2-.4-.7-.7-1.4-1.1-2.1-.1-.2-.4-.1-.4.1.1 1.9 1.6 3.6 3.1 4.5.3.1.5-.3.3-.5zm.1-3.6c-.9-1.4-1.3-2.9-1.8-4.5-.1-.2-.4-.2-.4 0-.1 1.7.7 3.3 1.7 4.7.2.3.7.1.5-.2zm0-4.6c-.2-.8-.4-1.7-.8-2.5-.1-.2-.4-.1-.4.1.1.8.4 1.7.7 2.5.1.3.6.2.5-.1zm.4-4.3c.1-.6.1-1.2.1-1.7 0-.1-.2-.1-.2 0-.2.6-.2 1.2-.3 1.8.1.1.4.1.4-.1zm-7.6 12.4c-1.4-.8-2-2.2-2.2-3.8 0-.2-.4-.2-.4 0-.5 1.8.8 3.6 2.3 4.3.3.2.6-.3.3-.5zm.2-3.3c-.8-1.5-1.2-3-1.8-4.6-.1-.2-.3-.1-.3 0 .2 1.7.8 3.3 1.7 4.8.2.2.5 0 .4-.2zm0-5c-.4-1.1-.6-2.3-.5-3.4 0-.2-.3-.2-.3 0-.2 1.3 0 2.5.5 3.6 0 .2.4 0 .3-.2zm1.2-3.7c.2-.5.4-1.1.5-1.6 0-.1-.2-.2-.2-.1-.3.5-.4 1.1-.6 1.6-.1.2.3.3.3.1zm-6.5 14.4c-1.1-.7-1.7-1.7-2.3-2.7-.1-.2-.4-.1-.4.1 0 1.4 1.2 2.5 2.4 3.1.4.1.6-.4.3-.5zm-.4-2.9c-.7-1.1-1-2.3-1.3-3.6 0-.2-.3-.1-.3 0-.1 1.3.5 2.7 1.2 3.8.2.3.6 0 .4-.2zm-.1-4c-.3-.7-.5-1.7-.9-2.3-.1-.2-.4-.1-.4.1.1.8.6 1.6.9 2.3 0 .3.4.2.4-.1zm.3-4.2c.2-.6.6-1.3.7-2 0-.2-.3-.2-.4-.1-.4.6-.5 1.3-.8 2-.1.3.4.4.5.1zm-4.8 14.5c-.6-.3-1.1-.6-1.6-1.1-.4-.4-.8-1-1.2-1.5-.1-.2-.4 0-.3.2.2 1.4 1.7 2.4 2.9 2.8.3.2.4-.3.2-.4zm-.6-2.9c-.4-.2-.7-.5-1-.9-.3-.3-.4-.8-.7-1.1-.1-.2-.4-.1-.4.1.1 1 1 1.8 1.8 2.3.4.1.6-.2.3-.4zm-.7-4c-.3-.4-.5-.8-.6-1.3-.1-.4-.1-.8-.2-1.2-.1-.2-.3-.2-.4-.1-.4 1 .2 2.2.9 2.9.1.3.5-.1.3-.3zm-5.3 10.8c.8.8 3.1.7 3.6-.4.1-.2-.1-.5-.3-.4-.5.2-.8.5-1.4.6-.6.1-1.1-.1-1.7-.2-.2-.1-.4.2-.2.4zm-1-2.9c.3.7 1.2 1.5 2 1.2.2-.1.2-.4 0-.5-.3-.1-.6-.1-.8-.2-.3-.2-.6-.4-.8-.7-.2-.2-.5 0-.4.2zm.1-1.8c.4.2.7.5 1.1.7.2.1.3-.2.2-.3-.3-.3-.7-.5-1.1-.8-.3-.2-.5.2-.2.4zm-2.4 9.7c.5.5 1.1.7 1.8.7.6 0 1.4-.3 1.7-.9.1-.2-.1-.5-.4-.4-.5.2-.8.5-1.3.6-.5.1-1-.1-1.5-.3-.2-.3-.5.1-.3.3zm-1-1.6c.6.7 2.1.9 2.5-.2.1-.2-.2-.3-.3-.2-.6.2-1.2.5-1.7 0-.4-.2-.8.2-.5.4zm-1.2 7.6c.8.7 2.4 1.4 3.4.6.2-.2.2-.5-.1-.5-.5 0-1 .2-1.5.1-.6 0-1.1-.2-1.6-.6-.1 0-.4.3-.2.4zm-1.1-3.4c.4.8 1.4 1.3 2.3.9.2-.1.1-.4-.1-.4-.7.1-1.4-.1-1.7-.7-.2-.4-.7-.1-.5.2zm.4 11.6c1 .9 2.5 1.4 3.7.7.1-.1.1-.3-.1-.3-1.2.1-2.4.1-3.4-.7-.1-.1-.4.2-.2.3zm-1.2-4c.4 1 1.4 2.2 2.6 2 .2 0 .2-.3.1-.4-.4-.3-.8-.4-1.2-.7-.5-.3-.8-.7-1.1-1.2-.1-.2-.5 0-.4.3zM56 83c.6 2 2.5 4.1 4.8 3.9.2 0 .3-.3.1-.4-2-.6-3.7-1.5-4.6-3.6-.1-.1-.4 0-.3.1zm-.1-1.9c.1.6.3 1.2.7 1.6.4.4 1 .9 1.6.9.3 0 .3-.3.1-.5-.4-.3-.9-.4-1.2-.8-.4-.4-.7-.8-.8-1.3-.1-.1-.4-.1-.4.1zM101 46c-.4 3 2.5 5.8 5.4 4.5.2-.1.1-.3-.1-.3-2.7.3-5.1-1.2-5.1-4.1.1-.3-.2-.3-.2-.1zm-.2-3.6c.2 1.6 1.4 3.8 3.2 4 .2 0 .5-.2.2-.4-.6-.5-1.3-.8-1.8-1.4-.6-.6-1-1.4-1.3-2.3-.1-.2-.4-.1-.3.1zm0-4c.3 1.2 1.1 2.7 2.3 3.3.2.1.5-.2.3-.3-.4-.4-.9-.8-1.2-1.2-.4-.5-.8-1.1-1-1.8-.2-.3-.5-.2-.4 0zm.9-2.8c.2.6.3 1.2.6 1.8.1.2.3.1.3-.1-.1-.6-.3-1.2-.5-1.8 0-.3-.5-.2-.4.1zm7.2 12c.6 1.4 1.8 2.7 3.3 3 .1 0 .2-.2.1-.2-1.3-.7-2.4-1.5-3.1-2.9 0-.2-.4-.1-.3.1zm.8-2.7c1.3.8 2.2 1.8 3.3 2.8.2.1.4 0 .3-.2-.7-1.3-2.1-2.2-3.4-2.8-.2-.2-.4.1-.2.2zm-.3-2.8c.6.3 1.3.6 1.9.9.1 0 .2-.1.1-.2-.6-.3-1.3-.6-1.9-.9-.1-.1-.2.1-.1.2zm-1.1-4.1c.6.5 1.3 1.1 2 1.5.1.1.2-.1.2-.2-.6-.6-1.2-1.1-1.9-1.6-.2-.1-.5.1-.3.3zm.5-1.3c.2 0 .2-.2 0-.2s-.2.2 0 .2zm8 12.1c.4.6.9 1.3 1.5 1.8.2.1.4-.1.3-.3-.3-.6-1-1.2-1.5-1.7-.1-.2-.4 0-.3.2zm-1.1-4.6c.3.8.8 1.5 1.3 2.1.5.5 1.1 1.1 1.8 1.2.2 0 .2-.2.2-.4-.4-.5-1.1-.9-1.6-1.3-.5-.5-1-1.1-1.4-1.7-.1-.4-.4-.1-.3.1zm-.9-3.5c.8.7 1.7 1.6 2.7 2.1.2.1.4-.1.2-.3-.3-.4-.8-.7-1.2-1.1-.5-.3-.9-.7-1.4-1-.2-.2-.5.1-.3.3zm-.2-3c.8.5 1.6 1.3 2.5 1.6.2.1.4-.2.2-.4-.6-.7-1.7-1.1-2.5-1.6-.3-.2-.5.2-.2.4zm7.9 14.1c.2 1 .8 2.1 1.8 2.5.1 0 .2-.1.1-.2-.7-.8-1.4-1.4-1.7-2.4 0-.2-.2-.1-.2.1zm.6-4.7c.4 1.2.8 2.6 1.5 3.7.1.2.4.1.3-.1-.4-1.3-1.1-2.5-1.6-3.7-.1-.1-.3 0-.2.1zm-1.2-4.1c.5.9 1 2 1.8 2.8.1.1.3 0 .3-.2-.4-1-1.1-2-1.7-2.9-.1-.1-.5.1-.4.3zm5.6 10.6c.5.9 1 1.9 1.6 2.8.1.1.3 0 .2-.1-.5-1-1.1-1.9-1.6-2.8 0-.2-.2-.1-.2.1zm.2-3.6c.2 1.1.7 2.3 1.6 3.1.1.1.4 0 .3-.2-.7-.9-1.3-1.8-1.6-2.9 0-.2-.3-.2-.3 0zm-.3-4.5c.2.3.3.7.6 1 .1.1.2 0 .2-.1-.1-.4-.3-.7-.5-1.1-.1-.1-.4.1-.3.2zm5 12.1c-.2 1.1-.3 2.3.2 3.3.1.2.4.1.4-.1-.1-1.1-.4-2.1-.3-3.2.1-.1-.2-.2-.3 0zm1.2-1.7c0 1-.1 2 .1 3 0 .2.3.1.3 0 .1-1-.1-2-.2-3 .1-.2-.2-.2-.2 0zm1 7.4c-.2.9-.2 1.9.4 2.7.1.1.2 0 .2-.1-.3-.8-.5-1.7-.3-2.5.1-.2-.2-.3-.3-.1zm1.5-2.3c-.6 1.1-1 2.7-.2 3.8.1.1.4.1.3-.1-.1-1.3-.4-2.3.2-3.6 0-.1-.2-.2-.3-.1zm1.3-1.7c-.1.3-.1.6-.1.9 0 .1.1.1.1 0 .1-.3.1-.6.2-.9h-.2zm-1.2 11c-.3 1-.4 2.2.2 3.1.1.2.4.1.3-.1-.2-1-.4-1.8-.2-2.9.1-.2-.2-.3-.3-.1zm1.5-.5c-.2 1-.1 2.1.5 2.9.1.1.2 0 .2-.1-.4-.9-.6-1.7-.5-2.7 0-.2-.2-.3-.2-.1zm-.5 5.7c-1.4 1.8-1.8 4.7-.1 6.5.2.2.4-.1.3-.2-1-2-1.3-4.1 0-6.1.1-.2-.1-.3-.2-.2zm1.3.5c-.5 1-.9 2.4-.4 3.5.1.2.4.1.4-.1 0-.5-.1-1-.1-1.5 0-.6.1-1.2.4-1.7.1-.3-.2-.5-.3-.2zm1.2-1c0 .6-.1 1.2 0 1.8 0 .1.2.1.3 0 .1-.6 0-1.2 0-1.8 0-.2-.3-.2-.3 0zm-.4 10.6c-.2.8-.4 1.8.1 2.6.1.1.3.1.3-.1 0-.8-.2-1.6 0-2.4.1-.3-.3-.4-.4-.1zm1.7-1.4c-.1.6-.2 1.2-.1 1.7 0 .2.3.3.4.1.2-.6.2-1.2.2-1.8 0-.3-.5-.3-.5 0z" fill="#c66854" stroke-width="none" opacity="1" stroke="none"></path></g><g id="svga-group-glasses-single-move" transform="matrix(1,0,0,1,0,0)"><g id="svga-group-glasses-single" transform="matrix(1,0,0,1,0,0)"></g></g></g></g></g><rect id="svga-credit-rect" width="200" height="15" x="0" y="185" fill="#ecf0f1" opacity="0.5" style="display: none;"></rect><text id="svga-credit-text" font-family="Avenir Next, Roboto, Helvetica, Arial, sans-serif" font-size="10px" text-anchor="start" font-weight="400" size="10px" anchor="start" weight="400" fill="#333333" x="33.402061462402344" y="182.71133995056152" style="display: none;"><tspan id="SvgjsTspan14535" dy="13" x="33.402061462402344">Created on AvatarMaker.com</tspan></text></g></svg>