<svg xmlns="http://www.w3.org/2000/svg" version="1.1" width="600px" height="600px" viewBox="0 0 200 200" style="overflow:hidden!important;"><defs id="SvgjsDefs9589"></defs><g id="svga-group-wrapper"><g id="svga-group-backs-single"><path id="SvgjsPath10286" d="M0 0h200v200H0V0z" fill="#f9f2e7" stroke-width="none" opacity="1"></path><path id="SvgjsPath10287" d="m156.3 131.2-16.8-.4-17 .6c-.7 0-8.8-.3-9.4-.2-9.8 1.2-14.9.6-20.8 0l-10.9-.1c-1.5 0-3.5-1.6-3.5-3.6l.1-5.6c1-5.5-.2-9.4-.2-14.7l.2-3.6c0-1.5 2.3-2.3 5.1-2.4l7.5.2c3.7-.1 9.6.8 12 .3l11-.5c3.8-.2 10.8-.8 20.5-.5 0 0 10.3 0 19.3.2l5.6-.1c1.5 0 3.2 1.2 3.2 2.7v5c-.1 3.3.1 5.9.1 10.1l.2 5.5-.4 3.4c-.1 2.5-3.8 4.1-5.8 3.7zm-43.4-33.4-16.8-.4-17 .6c-.7 0-8.8-.3-9.4-.2-9.8 1.2-14.9.6-20.8 0L38 97.7c-1.5 0-3.5-1.6-3.5-3.6v-5.6c1-5.5-.2-9.4-.2-14.7l.2-3.6c0-1.5 2.3-2.3 5.1-2.4l7.5.2c3.7-.1 9.6.8 12 .3l11-.5c3.8-.2 10.8-.8 20.5-.5 0 0 10.3 0 19.3.2l5.6-.1c1.5 0 3.2 1.2 3.2 2.7v5c-.1 3.3.1 5.9.1 10.1l.2 5.5-.4 3.4c0 2.5-3.6 4.1-5.7 3.7zm43.4-32.4-16.8-.4-17 .6c-.7 0-8.8-.3-9.4-.2-9.8 1.2-14.9.6-20.8 0l-10.9-.1c-1.5 0-3.5-1.6-3.5-3.6l.1-5.6c1-5.5-.2-9.4-.2-14.7l.2-3.6c0-1.5 2.3-2.3 5.1-2.4l7.5.2c3.7-.1 9.6.8 12 .3l11-.5c3.8-.2 10.8-.8 20.5-.5 0 0 10.3 0 19.3.2l5.6-.1c1.5 0 3.2 1.2 3.2 2.7v5c-.1 3.3.1 5.9.1 10.1l.2 5.5-.3 3.4c-.2 2.5-3.9 4.1-5.9 3.7zm-43.4-33.3-16.8-.4-17 .6c-.7 0-8.8-.3-9.4-.2-9.8 1.2-14.9.6-20.8 0L38 32c-1.5 0-3.5-1.6-3.5-3.6v-5.6c1-5.5-.2-9.4-.2-14.7l.2-3.6c0-1.5 2.3-2.3 5.1-2.4l7.5.2c3.7-.1 9.6.8 12 .3l11-.5c3.8-.2 10.8-.8 20.5-.5 0 0 10.3 0 19.3.2l5.6-.1c1.5 0 3.2 1.2 3.2 2.7v5c-.1 3.3.1 5.9.1 10.1l.2 5.5-.4 3.4c0 2.5-3.6 4-5.7 3.7zm43.4 166.2-16.8-.4-17 .6c-.7 0-8.8-.3-9.4-.2-9.8 1.2-14.9.6-20.8 0l-10.9-.1c-1.5 0-3.5-1.6-3.5-3.6l.1-5.6c1-5.5-.2-9.4-.2-14.7l.2-3.6c0-1.5 2.3-2.3 5.1-2.4l7.5.2c3.7-.1 9.6.8 12 .3l11-.5c3.8-.2 10.8-.8 20.5-.5 0 0 10.3 0 19.3.2l5.6-.1c1.5 0 3.2 1.2 3.2 2.7v5c-.1 3.3.1 5.9.1 10.1l.2 5.5-.4 3.4c-.1 2.5-3.8 4.1-5.8 3.7zM112.9 165l-16.8-.4-17 .6c-.7 0-8.8-.3-9.4-.2-9.8 1.2-14.9.6-20.8 0l-10.9-.1c-1.5 0-3.5-1.6-3.5-3.6v-5.6c1-5.5-.2-9.4-.2-14.7l.2-3.6c0-1.5 2.3-2.3 5.1-2.4l7.5.2c3.7-.1 9.6.8 12 .3l11-.4c3.8-.2 10.8-.8 20.5-.5 0 0 10.3 0 19.3.2l5.6-.1c1.5 0 3.2 1.2 3.2 2.7v5c-.1 3.3.1 5.9.1 10.1l.2 5.5-.4 3.4c0 2.4-3.6 4-5.7 3.6zM25.7 97.8c2.1.4 5.7-1.2 5.7-3.7l.4-3.4-.2-5.5c.1-4.2-.1-6.8-.1-10.1v-5c0-1.5-1.8-2.7-3.2-2.7l-5.6.1c-9-.2-19.3-.2-19.3-.2H.1v30.5l8.8-.3 16.8.3zm5.8 39.5c0-1.5-1.8-2.7-3.2-2.7l-5.6.1c-9-.2-19.3-.2-19.3-.2-1.2 0-2.2-.1-3.3-.1v30.5l8.8-.3 16.8.4c2.1.4 5.7-1.2 5.7-3.7l.4-3.4-.2-5.5c.1-4.2-.1-6.8-.1-10.1v-5zM14.9 35.9c-2.4.4-8.3-.4-12-.3L0 35.5v29.9l4.6.1c5.9.6 11 1.2 20.8 0 .7-.1 8.8.2 9.5.2l17-.6 16.8.4c2.1.4 5.7-1.2 5.7-3.7l.4-3.4-.2-5.5c.1-4.2-.1-6.8-.1-10.1v-5c0-1.5-1.8-2.7-3.2-2.7l-5.6.1c-9-.2-19.3-.2-19.3-.2-9.7-.3-16.7.3-20.5.5l-11 .4zm59.6 72.6v-5c0-1.5-1.8-2.7-3.2-2.7l-5.6.1c-9-.2-19.3-.2-19.3-.2-9.7-.3-16.7.3-20.5.5l-11 .5c-2.4.4-8.3-.4-12-.3l-2.9-.1v29.9l4.6.1c5.9.6 11 1.2 20.8 0 .7-.1 8.8.2 9.5.2l17-.6 16.8.4c2.1.4 5.7-1.2 5.7-3.7l.4-3.4-.2-5.5c0-4.2-.2-6.8-.1-10.2zm0 67.2v-5c0-1.5-1.8-2.7-3.2-2.7l-5.6.1c-9-.2-19.3-.2-19.3-.2-9.7-.3-16.7.3-20.5.5l-11 .5c-2.4.4-8.3-.4-12-.3l-2.9-.2v29.9l4.6.1c5.9.6 11 1.2 20.8 0 .7-.1 8.8.2 9.5.2l17-.6 16.8.4c2.1.4 5.7-1.2 5.7-3.7l.4-3.4-.2-5.5c0-4.2-.2-6.8-.1-10.1zM0 32l8.8-.3 16.8.4c2.1.4 5.7-1.2 5.7-3.7l.4-3.4-.2-5.5c.1-4.2-.1-6.8-.1-10.1v-5c0-1.5-1.8-2.7-3.2-2.7l-5.6.1c-9-.2-19.3-.2-19.3-.2-1.1 0-2.2-.1-3.3-.1V32zm169.4 33.3 10.9.1c5.7.6 10.4.6 19.7-.5V35.4l-9-.4c-2.4.4-7.8-.1-11.5 0l-8.4.4c-2.8 0-5.1.9-5.1 2.4l-.2 3.6c0 5.3-1 10.2.2 14.7l-.1 5.6c0 2 2 3.6 3.5 3.6zm0 65.8 10.9.1c5.7.6 10.4.5 19.7-.6v-29.5l-9.1-.4c-2.4.4-7.8-.1-11.5 0l-8.4.4c-2.8.1-5.1.9-5.1 2.4l-.2 3.6c0 5.3-1 10.2.2 14.7l-.1 5.6c.1 2 2.1 3.7 3.6 3.7zM122.1 22.7l-.1 5.6c0 2 2 3.6 3.5 3.6l10.9.1c5.9.6 11 1.2 20.8 0 .7-.1 8.8.2 9.4.2l17-.6 16.4.4V1.8h-2.6c-9-.2-19.3-.2-19.3-.2-9.7-.3-16.7.3-20.5.5l-11 .5c-2.4.4-8.3-.4-12-.3l-7.5-.3c-2.8 0-5.1.9-5.1 2.4l-.1 3.6c0 5.4 1.2 9.2.2 14.7zm0 65.8-.1 5.6c0 2 2 3.6 3.5 3.6l10.9.1c5.9.6 11 1.2 20.8 0 .7-.1 8.8.2 9.4.2l17-.6 16.4.3V67.5l-2.6.1c-9-.2-19.3-.2-19.3-.2-9.7-.3-16.7.3-20.5.5l-11 .5c-2.4.4-8.3-.4-12-.3l-7.5-.2c-2.8.1-5.1.9-5.1 2.4l-.2 3.6c.1 5.2 1.3 9.1.3 14.6zm77.9 79.8-9.1-.4c-2.4.4-7.8-.1-11.5 0l-8.4.4c-2.8.1-5.1.9-5.1 2.4l-.2 3.6c0 5.3-1 10.2.2 14.7l-.1 5.6c0 2 2 3.6 3.5 3.6l10.9.1c5.7.6 10.4.5 19.7-.6l.1-29.4zm-16.4-3.7 16.4.4v-30.3l-2.6.1c-9-.2-19.3-.2-19.3-.2-9.7-.3-16.7.3-20.5.5l-11 .5c-2.4.4-8.3-.4-12-.3l-7.5-.2c-2.8.1-5.1.9-5.1 2.4l-.2 3.6c0 5.3 1.2 9.2.2 14.7l-.1 5.6c0 2 2 3.6 3.5 3.6l10.9.1c5.9.6 11 1.2 20.8 0 .7-.1 8.8.2 9.4.2l17.1-.7z" fill="#eadac1" stroke-width="none" opacity="1"></path><path id="SvgjsPath10288" d="M34.5 22.7v5.6c0 2 2 3.6 3.5 3.6l10.9.1c5.9.6 11 1.2 20.8 0 .7-.1 8.8.2 9.4.2l17-.6 16.8.4c1.3.2 3.3-.3 4.5-1.4-.8 0-1.7-.3-2.6-.3-1.4 0-6.2-1.1-9.3-1.6-1.3-1.2-2.9-2-4.7-1.7-1.3.2-2.3.8-3.8 1-2.1.3-4.2-.1-6.3-.5-2.2-.4-4.2-.8-6.4-.8-.1 0-.1.1 0 .1 4.1.2 7.9 1.8 11.9 1.9 1.4 0 2.7-.5 4-.5.9 0 1.6.1 2.3.3-6.4 0-22.2.9-24.5 1.6-2.7.7-12.6.7-15.9-.7-3.4-1.5-20.3 0-21.7-.2-1.5-.2-1.7-2.7-1-7 .2-1.2.2-2.6.1-4.2.5.2.9.3 1.4.3 1.4 0 3-.9 4.2-1.5 2.2-1.1 4.4-2.2 6.5-3.5.1-.1 0-.2-.1-.2-2.5 1.3-5 2.4-7.7 3.2-1.3.4-2.7 1.1-4.1.5-.1 0-.2-.1-.3-.1-.3-4.1-1.2-8.7-1.5-10.9-.1-.7-.1-1.4 0-2 3.9-1.4 8.2 1 12.1 1.5 3.2.4 6.3.1 9.5-.4.2 0 .1-.3 0-.3-2.5.2-5 .4-7.6.1-2.7-.3-5.2-1.3-7.8-1.8-2-.4-3.9-.7-5.7 0 .1-.3.2-.6.3-.8-2.4.2-4.2 1-4.2 2.3L34.3 8c0 5.4 1.2 9.2.2 14.7zm71.2 39.6c-1.9-1-8.3.3-10.8 1-2.3.6-8.8-.6-11.6-1.8 2.3-.1 4.6-.5 6.4-1.7.1-.1.1-.4-.1-.4-2.6.3-4.9 1.1-7.5 1.3-1.5-1.7-1.2-7.2-.9-9.9.3-2.9-1.3-7.3-1.6-10.5-.2-1.8-.1-3.3.1-4.4-1.1.4-1.8 1-1.8 1.8l-.2 3.6c0 5.3 1.2 9.2.2 14.7l-.1 5.6c0 2 2 3.6 3.5 3.6l10.9.1c5.9.6 11 1.2 20.8 0 .7-.1 8.8.2 9.4.2l17-.6 16.8.4c1.5.3 3.8-.5 5-1.9h-.5c-2.2 0-3.5-1-5.4-1.6-.6-.2-2.2-.1-4.1.2-1.7-1.6-4.1-2.3-6.4-2-1.9.2-3.5 1.3-5.4 1.4-2 0-3.4-.7-5.4-.3-.1 0-.1.2 0 .2 2.5 0 4.9 1 7.3.4 3.4-.8 5.6-.9 8.6.4-3.7.6-8.1 1.4-9.6 1.2-2.6-.3-4.1.3-7 .3s-19.8-.3-22-.6c-2.1-.1-3.7.2-5.6-.7zm-1.2 33c-.4-.1-1.3-.1-2.5-.2.1-.5-.1-1.1-.5-1.4-.5-.4-1.6-.7-1.9.1-.1.2 0 .5.3.5s.7-.1 1-.1c.4.1.6.5.5.9-7.1-.1-22.9.5-25.5.5-3.1 0-16.7-.3-24.6.6s-12.5-2.3-13-3.4c-.1-.2-.2-.4-.2-.8 1.4-.4 2.9-.3 4.4-.2 2.1.1 4.2-.5 6.2-.3.8.1 1.4.6 2.2.4 1-.2 2-1.2 2.7-1.8 0 0 0-.1-.1-.1-1.3 1.1-1.8 1.5-3.4 1.2-.3-.1-.5-.5-.8-.5-2.2-.3-4.4.2-6.7-.1-1.7-.2-3.3-.3-4.7.2-.2-2.1-.2-5.2-.2-7.2 0-.4 0-.9-.1-1.4 2.9.4 5.8-2.4 8.7-2 .1 0 .1-.1 0-.2-1.7-.5-3.3.1-4.8.6 0-.1-.1-.2-.2-.2-1.4-.1-2.7 0-4-.3-.4-2.6-1.1-5.6-1.1-7.7 0-1.7-.6-2.8-1.3-3.5-.3.3-.5.7-.5 1.1l-.2 3.6c0 5.3 1.2 9.2.2 14.7v5.6c0 2 2 3.6 3.5 3.6l10.9.1c5.9.6 11 1.2 20.8 0 .7-.1 8.8.2 9.4.2l17-.6 16.8.4c1.6.3 4.1-.6 5.2-2.1-1.1.3-2.7.7-3.7.7-1.5.2-7.2-.4-9.8-.9zm13.8 34.8c-4.4-.3-7.3-.3-10.8-3.2-.1-.1-.3-.2-.4-.3 1-.2 2.1-.2 3.2.1 1 .3 1.9.8 3 .9 2.8.3 5.6-.5 8-1.7.4-.2.1-.8-.3-.7-1.8.4-3.5 1-5.4 1.2-2.2.3-3.5-.5-5.4-1.1.6.1 1.1.3 1.7.5.2.1.6-.2.3-.4-2.6-2.4-7.8-.6-10.8.1-5.4-.1-12.3 1.2-13.9 1.6-2.3.6-3.5.3-6.7-1.2s-.6-4.1 0-9.4c.1-.6.1-1 .1-1.4 3 2.9 7.2 4 11.3 3.1 2-.5 3.4-1.4 5.6-1.4 1.9 0 3.6.8 5.4 1.3 2.5.8 4.3 1.2 6.9.7.1 0 .1-.2 0-.2-4.6.5-8.4-2.5-12.9-2.6-1.8 0-3.4.7-5.2 1-4.2.8-7.8-.6-11-3.1-.1-2.4-1-2.3-1.9-5.1-.5-1.4-.9-2.9-1.2-4.2l-.1 2.4c0 5.3 1.2 9.2.2 14.7l-.1 5.6c0 2 2 3.6 3.5 3.6l10.9.1c5.9.6 11 1.2 20.8 0 .7-.1 8.8.2 9.4.2l17-.6 16.8.4c1.1.2 2.6-.2 3.8-.9-2-1.1-5.4-2.9-7.8-3.5-3.5-.9-6.7.6-11.4.9-4.7.5-18.2 2.9-22.6 2.6zm-14.1-4.4c1.1-.2 2.1-.4 3.2-.5-.6.2-1.1.5-1.7.8l-1.5-.3zm12.9 38.2c-.7-.1-1.4-.1-2-.1-1.5 0-3.5 0-6.5-.6-3.1-.6-9.4-.9-13.3-1.1s-16.3 1.5-18.5 1.3-6.1-.9-11.3-1.5c-5.2-.6-17.4.9-19.6 1.3-1.4.3-4-.3-5.8-1.7 1.2.1 2.4.1 3.6 0 .3 0 .4-.4.1-.5-1.4-.5-3.1-.5-4.6-.4-.4-.5-.7-1.1-.9-1.8-.6-3-.1-4.5 0-7.8 1.7 1.6 4.2 1.6 6.8 1.5 3.5-.1 5.9 1.2 8.9 2.3 2.9 1.1 5.7-.4 8.6.6.2.1.3-.3.1-.4-1.2-.4-1.6-.4-2.9-.4-2 0-3.6.6-5.6-.4-1.1-.5-2-1.6-3.1-2.2-3.8-1.9-10.2 1.4-12.9-2.9-.2-3.5-1.1-6.1-1.9-9.1-.4-1.6-.7-3.1-.6-4.3-.7.4-1.2.9-1.2 1.6l-.2 3.6c0 5.3 1.2 9.2.2 14.7v5.6c0 2 2 3.6 3.5 3.6l10.9.1c5.9.6 11 1.2 20.8 0 .7-.1 8.8.2 9.4.2l17-.6 16.8.4c1.2.3 2.9-.1 4.2-1zm39 32.9c-2.3-.2-9.7.5-14.4 0s-11.7-1.3-16.4-1.6-17.8.7-17.8.7-2.5-.4-6.5-.9-17.1.7-18.9-2c-1.1-1.6-.9-3-.6-4.7l1.2.6c1.1.4 2.2.4 3.3.5 1.7.2 3.2.7 4.8 1.2.2.1.4-.3.2-.4-1.3-1-2.5-1.5-4.2-1.8-1.7-.3-3.8-.2-5.2-1.2.2-.9.3-1.8.4-3 .1-1.1 0-2.1-.2-3.2.8.1 1.7.3 2.5.2.3 0 .3-.4.1-.5-.8-.2-1.8-.3-2.7-.4-.5-2.6-1.4-5.2-2.2-8.4-.3-1.3-.5-2.2-.6-2.9-.7.4-1.2.9-1.2 1.6l-.2 3.6c0 5.3 1.2 9.2.2 14.7l-.1 5.6c0 2 2 3.6 3.5 3.6l10.9.1c5.9.6 11 1.2 20.8 0 .7-.1 8.8.2 9.4.2l17-.6 16.8.4c1.4.2 3.6-.4 4.8-1.6-1.1 0-3 .4-4.7.2zm42.1-166.6c-1.7-1-7.7-.2-11.1 0s-16.7-.2-18.8 0-11.1-.7-14-1.2c-2.9-.5-14.2.2-17.6.7s-10.3-.7-10.5-2.7c-.2-1.9-.2-3.6.2-7.7.1-.5.1-1 .1-1.4.9.6 2.5.5 3.3.4 1-.1 1.9-.4 2.9-.6 3.3-.7 5.1-.1 8.2.6 5.6 1.4 11.2 1.5 17 1 .1 0 .1-.2 0-.2-6.5.2-12.2-.1-18.5-2.1-4.5-1.4-8.4.5-12.9-.4-.2-2.6-.9-4.5-1.3-7.2-.3-2.6 0-5.4.6-7.3-2.2.2-3.8 1-3.8 2.3l-.1 3.6c0 5.3 1.2 9.2.2 14.7l-.1 5.6c0 2 2 3.6 3.5 3.6l10.9.1c5.9.6 11 1.2 20.8 0 .7-.1 8.8.2 9.4.2l17-.6 16.4.3v-1.3c-.6.1-1.3-.1-1.8-.4zm-10.6 32.1c-1.9-.8-9.5-.2-13.2-.5.5-.1.9-.2 1.4-.3 1.2-.3 2.7-.7 3.5-1.6.1-.2.1-.5-.2-.5-1.2.1-2.2.8-3.3 1-1.3.3-2.6.4-3.8.7-1.7-.9-2.7-2.9-3.8-5.6-.9-2.1-.3-3.4.1-5 1.8-.1 3.7.6 5.5.5 2.7 0 5.2-.6 7.8.5.1 0 .1-.1.1-.1-2.4-1.3-4.8-.8-7.4-1-2.1-.1-3.9-.9-5.8-.8.1-.6.1-1.2.1-1.9-.3-3.2-1-8.6-.3-10.5.2-.6.2-1.2 0-1.7-1.4.4-2.3 1.1-2.3 2l-.2 3.6c0 5.3-1 10.2.2 14.7l-.1 5.6c0 2 2 3.6 3.5 3.6l10.9.1c5.7.9 10.4.9 19.7-.2v-2.8c-1.7 0-2.6.9-4.1 1.1-2 .3-6.1 0-8.3-.9zm7.6 32.4c0-.8-21.2.3-24.4 0s-4.5-.3-6.5-.8-26.9.8-30.6 1.4-7.7-1.4-8.5-3.1c-.8-1.5.3-5.4.3-8.7.3.2.6.4.9.5.6.2 1.3.3 2 .2 1.8-.2 3.4-1.3 5.2-1.4.1 0 .2-.2 0-.2-1.8-.2-3.4.3-5.1.6-1.2.2-2-.4-3-.8v-.1c-.3-3.4-1.1-7.1-2-9.9-.4-1.3-.7-2.4-1.1-3.2-.2.3-.4.6-.4 1l-.2 3.6c0 5.3 1.2 9.2.2 14.7l-.1 5.6c0 2 2 3.6 3.5 3.6l10.9.1c5.9.6 11 1.2 20.8 0 .7-.1 8.8.2 9.4.2l17-.6 16.3.3V96h-.3c-1.8.4-4.3-.4-4.3-1.3zm.2 32.3c-.8-.5-2.1-.2-2.7.5-.2.2-.1.3.1.4-6.8.5-14.9 1.5-16.2 1.3-2.1-.3-6.4-2.9-6.4-6.4v-.6c1.1.2 2.2.8 3.2.9.6.1 1.2.1 1.8-.1 1-.3 2-1.4 3.3-.8.2.1.4-.1.3-.3-1.1-1.9-3.4.1-4.9.1-1.4.1-2.6-.5-3.9-.6-.4-2.2-1.8-2.7-2.8-5.7-1.2-3.5.3-5 .3-9.1 0-2.2-.5-3.4-1.1-4.2-.3.3-.6.7-.6 1.1l-.2 3.6c0 5.3-1 10.2.2 14.7l-.1 5.6c0 2 2 3.6 3.5 3.6l10.9.1c5.7.6 10.4.5 19.7-.6v-3.1c-1 0-2.4 0-3.9.1 0-.1-.2-.3-.5-.5zm-2.1.9c.5-.1.9-.4 1.4-.4.2 0 .4.1.6.2-.7.1-1.3.1-2 .2zm-9.2 34.7c-.6-.2-2.6-.3-5-.4 0-.8 0-1.5-.1-2.2 0-.1-.2-.3-.3-.3-2.5-.5-5.9 0-7.9 1.6-.2.1 0 .4.2.3 1.5-.4 2.9-1 4.4-1.2.6-.1 1.5-.2 2.1 0 .5-.1.8.1 1 .7.1.4.1.7.2 1.1-5.7-.2-13.9-.1-15.4.2-.4.1-1.3.2-2.4.2-.8-.1-1.7-.1-2.4.1h-.1c-4.5.2-10.5.4-11.7.2-1.7-.2-2.6-.9-6.1-1.7s-12 .4-13.9 0-1.5-2.8-1.5-5.9c0-2.2.4-3.3.9-5 .6.5 1.4.8 2.1.9s1.7 0 2.5-.4c.4.1.8.2 1.2.2 1.9.1 3.9-.4 5.8-.3 2.7.1 5.3.6 8 .9.3 0 .4-.5.1-.5-3.3-1-6.8-1.7-10.2-1.5-2.8.1-3.9.7-6.7-1.1-.7-.4-1.3-1-2-1.5.2-2.9-1.5-4.5-2.1-6.6-.5-1.8-1.1-3.2-.8-5-1.1.4-1.9 1-1.9 1.9l-.2 3.6c0 5.3 1.2 9.2.2 14.7l-.1 5.6c0 2 2 3.6 3.5 3.6l10.9.1c5.9.6 11 1.2 20.8 0 .7-.1 8.8.2 9.4.2l17-.6 16.4.5v-1c-.7-.1-1.3-.3-1.8-.5-1.7-.9-12-.2-14.1-.9zm-57.5-14.4c.9.9 2 1.9 3.1 2.4-.5.1-1-.1-1.5-.2-.8-.2-1.3-.6-1.9-1.1.1-.2.2-.6.3-1.1zm66.4 47c-.7-.1-1.5-.1-2.2-.3-.9-.2-1.7-.6-2.4-1.2-.3-.3-.8.2-.5.5.2.2.5.4.8.6-3.2 0-6.9 1.2-9.5 1.3-1.5.1-3.3-.5-4.8-1.5.3-.1.6-.1.8-.2.3-.1.3-.6-.1-.6-.6 0-1.2 0-1.8.1-1.3-1.1-2.2-2.4-2.6-3.8-.7-3.4-1.4-2-2.5-6.1s-.5-4.3.2-9.4c.5-3.6-.4-4.3-1.4-5.4-.7.4-1.2.9-1.2 1.6l-.2 3.6c0 5.3-1 10.2.2 14.7l-.1 5.6c0 2 2 3.6 3.5 3.6l10.9.1c5.7.6 10.4.5 19.7-.6v-1.6c-2.6-.2-5-.4-6.8-.7.2-.2.2-.3 0-.3zM25.7 97.8c1 .2 2.3-.1 3.5-.7-1.7-.2-4-.7-6.2-1 0-.1-.1-.2-.2-.2-1.1-.6-1.7-.6-3-.6-2.6 0-4.3-1.3-6.5-2-3.1-1-6.4-.2-9.6-.1-.4 0-.5.6-.1.7 3.5.6 7-.7 10.3.9.5.3 1 .6 1.6.9-3.7.1-10 .3-15.5.5v1.6l8.8-.3 16.9.3zm-.3 33.4c.7-.1 8.8.2 9.4.2l17-.6 16.8.4c1.1.2 2.7-.2 3.9-1-1.5-.4-3.3-.9-3.9-1.1-.7-.2-4.4-1-7.7-1.2-1.2-1-2.6-1.4-4.5-1.4-4 .2-7.4-1.6-11.5-1.3-.3 0-.3.4 0 .4 1.8.2 3.6.2 5.3.7 1 .3 2.3 1 3.4 1.2 1.1.2 2.2-.1 3.3 0 .5 0 1.1.1 1.6.2-1 .1-1.9.3-2.5.7-2.6 1.8-4.7.3-8.8.3s-15.2-.6-15.2-.6-11.4.3-15.8.9c-1.1.1-2.8.2-4.8.3.3-.3.5-.6.8-.8 2.5-2.3 4.5-2.4 7.8-2.2 4.9.3 9-1.6 13.9-2.1.1 0 .1-.2 0-.2-2.7.2-5.2.6-7.8 1.3-3.2.9-6.2-.1-9.5-.1-4.3 0-3.9 1.6-6.2 4.1-3.4.1-7.3 0-10.5-.2v1.8l4.6.1c6 .8 11.1 1.4 20.9.2zm.3 33.8c1.2.2 2.9-.2 4.1-1.1-1.5-.2-4.2.3-5.5-.2-1.7-.6-5.2-.6-8.3-.2-2 .3-9.6-.1-16-.7v2.1l8.8-.3 16.9.4zm22.8 30.8c-.6-.1-1.5-.1-2.6-.2-.3-1.5-.9-3.2-2.2-3.6-.5-.2-.9.1-1.4.1-1 .1-1.9 0-2.8-.2-1.3-.3-2.5-.7-3.9-.6-.2 0-.2.3 0 .3 1.9.4 3.6 1.4 5.5 1.6.5.1 1.1-.1 1.5-.1 1.5.3 2.1 1.2 2.4 2.4-5.8-.4-15.4-.8-19.5-.8-5.1 0-20.8.3-25.4.3v3.2l4.6.1c5.9.6 11 1.2 20.8 0 .7-.1 8.8.2 9.5.2l17-.6 16.8.4c1.1.2 2.7-.2 3.9-.9-2-.1-4.8-.2-6.1-.2-2.2 0-14.3-1-18.1-1.4zM25.7 32.1c1.3.2 3.2-.3 4.5-1.3-1.4-.3-3.4-.6-4.8-.9-3.4-5.6-12.7-4-18.1-5.5-.1 0-.1.1-.1.1 2.5 1 5.1.9 7.7 1.5 2.8.6 7 1.3 9.1 3.6-2.3-.1-6.6.6-9.5-.3-2.1-.6-9.5-.6-14.5-.8V32l8.8-.3 16.9.4zm-.3 33.3c.7-.1 8.8.2 9.4.2l17-.6 16.8.4c.9.2 2 0 3.1-.5-2-.1-4.3-.6-5.9-.8-2.5-.3-7.3-1.3-10.8-1.9-.4-.1-1-.1-1.8-.1 1.1-.3 2.2-.2 3.4-.3.4 0 .5-.5.1-.7-1-.4-2.1-.3-3.1-.1-.5.1-1 .3-1.5.5-.3.2-.7.4-1 .6-6.5.3-17.9 1.7-19.9 2-2.5.3-18.5-.3-21.7-1.3-1.3-.4-3.7-.5-6.3-.7 4.4-1.9 9.8-.1 14.5-.3 4.2-.2 8.4-.8 12.4-2.2.2 0 .1-.3-.1-.2-6.9 1.7-13 1.8-20.1 1-3.2-.4-5.4-.3-8 1.6-.6.1-1.3 0-1.9 0v3.4l4.6.1c5.9.5 11 1.1 20.8-.1zM155.5 29c3.6-.9 6.7-1.5 10.4-.8 2.3.5 4.3 1 6.6.6.1 0 .1-.2 0-.2-3.4.4-6.6-1.2-9.9-1.4-2.5-.1-5 .2-7.3 1.4-.1.2 0 .5.2.4zM55.2 12c.9-.5 1.8-.7 2.8-.8.1 0 0-.1 0-.1-1 0-2 .3-2.9.8-.1 0 0 .1.1.1zm5.5-.8c1-.1 1.9-.1 2.9-.3.1 0 .1-.1 0-.1-1 0-1.9.2-2.9.3-.2-.1-.2.1 0 .1zm31.1 39.5c.5 0 .5-.8 0-.8-.9 0-2 .2-2.6.9-.2.2 0 .5.3.4.8 0 1.5-.4 2.3-.5zm-6.8 5c-.2 0-.3 0-.4.1-.2.1-.2.4 0 .5.1.1.2.1.4.1.4 0 .4-.6 0-.7zm36 1.7c.1 0 .1-.1.2-.1.1-.1.1-.2 0-.3-.1 0-.1-.1-.2-.1-.6-.5-.6.9 0 .5zm8.9 1.4c.1-.2-.1-.3-.3-.2-.2.1-.3.3-.6.1-.3-.2-.6.3-.3.5.5.1 1.1.1 1.2-.4zm26-6.9c.2-.1.2-.4 0-.5-.2-.1-.3-.1-.5-.1-.6-.1-.6.8 0 .7.2 0 .3 0 .5-.1zm28.2 7.5c.2-.1.2-.3 0-.4-.4-.1-.7-.1-1.1-.1-.4 0-.4.6 0 .6s.8 0 1.1-.1zm6.8.2c.1 0 .1-.2 0-.2-.7-.2-1.4-.1-2.1-.1-.3 0-.3.5 0 .5.7-.1 1.4 0 2.1-.2zM22.2 24c2.6.9 4.7-1.3 6.9-2.2.2-.1.1-.3-.1-.3-2.3.6-4.2 2.9-6.7 2.1-.3-.1-.4.3-.1.4zm5.8-8.4c.3 0 .3-.5 0-.5-.4-.1-.4.5 0 .5zm14.1 43.8c.2 0 .2-.4 0-.4-.3 0-.3.4 0 .4zm11.8-.5c.4-.2.9-.4 1.3-.6.1-.1 0-.2-.1-.2-.5.1-.9.3-1.3.5-.1.1-.1.4.1.3zm-14.8-9.5c-7-.4-14.1-.5-21.1-1.3-5.1-.5-7.7-1.6-12.3 1.1-.1.1 0 .2.1.2 4.7-2.6 10.4-.5 15.6-.4 5.9.1 11.8.4 17.7.6.2 0 .2-.2 0-.2zm15.3-5.2c-.6-.1-1.2-.1-1.9-.2-.4 0-.4.6 0 .6.6 0 1.3 0 1.9-.2.1 0 .1-.2 0-.2zm8.1 2.9c.2 0 .2-.3 0-.3s-.2.3 0 .3zM45 51.5c.2 0 .2-.2 0-.2s-.2.2 0 .2zm-17.6 1.4c.2 0 .2-.4 0-.4s-.2.4 0 .4zm28 29.3c.2 0 .2-.2 0-.2-1.1-.4-2.2-.6-3.4-.9-.3-.1-.4.4-.1.4 1.2.3 2.3.6 3.5.7zm18.7-.1c.2-.1.1-.4-.1-.4-.9-.1-1.8.2-2.6.4-.2.1-.2.5.1.4.8 0 1.7 0 2.6-.4zm11.4 1.6c.2 0 .2-.3 0-.3s-.3 0-.5-.1c-.3 0-.3.5 0 .5.2 0 .3-.1.5-.1zm20.9 6.9c-.3 0-.3.5 0 .5s.3-.5 0-.5zm-13.1 2.3c.3 0 .3-.5 0-.5-.5 0-1.1 0-1.6.1-.2 0-.2.3 0 .3.6.2 1.1.1 1.6.1zm44.6-10.4c-.3-.1-.4.4-.1.4.5.1.9.2 1.4.2.2 0 .2-.3.1-.4-.6 0-1-.1-1.4-.2zm-8.7 11.3c-.3 0-.3.5 0 .5.7 0 1.4.1 2.1-.1.2 0 .2-.3 0-.3-.7-.2-1.4-.2-2.1-.1zm22.9-3.2c-2.3-.1-4.5.1-6.6 1.1-.3.2-.1.8.2.6 4.9-2.1 10.3.2 15.3-.4.4 0 .5-.6.1-.7-2.8-.6-6-.5-9-.6zm20.5 2.7c1.2.1 2.4.4 3.6.6.2 0 .3-.2.1-.3-1.1-.6-2.5-.8-3.8-.8-.3-.1-.3.5.1.5zm20.9-6.7c.2 0 .2-.3 0-.3-1.2-.1-2.4-.3-3.6-.3-.2 0-.2.3 0 .3 1.1.2 2.4.2 3.6.3zm-9.4-.5H183c-.1 0-.1.1 0 .1h1.1c.1.1.1-.1 0-.1zm-10 0c-5.1.5-10.1 0-15.1-.5-.3 0-.3.4-.1.5 5 1.1 10.2 1 15.2.5.3-.1.3-.5 0-.5zm-157.2 3c-.2.1 0 .4.2.3.8-.4 1.6-.5 2.5-.5.1 0 .2-.2 0-.2-.9-.4-1.9-.1-2.7.4zm6.6-10.5c-.1 0-.1.2 0 .2 1.4-.1 2.8-.2 4.2-.1.2 0 .2-.3 0-.3-1.4-.1-2.9-.1-4.2.2zm-18 36.5c-.2 0-.2.3 0 .3 1.1 0 2.3 0 3.4-.1.1 0 .1-.2 0-.2-1.1-.1-2.3 0-3.4 0zm5.4 1.2c.3.9.8 1.9 1.6 2.4.1.1.1-.1.1-.1-.6-.7-1.2-1.4-1.5-2.4 0-.2-.3-.1-.2.1zm3.8 2c-.2.1 0 .4.2.3 3.7-1.7 6.9-2.4 10.9-2.6.2 0 .2-.3 0-.3-3.6-.5-7.9.6-11.1 2.6zm99.6.4c.1 0 .1-.1 0-.2h-.5c-.1 0-.1.2 0 .2h.5zm11.6 6.8c1-.3 2-.2 3.1-.2.2 0 .3-.3.1-.3-1-.5-2.3-.3-3.3.1-.4 0-.3.5.1.4zm8.8.9c.3 0 .3-.4 0-.4s-.3.4 0 .4zm3.6.2c.2 0 .2-.3 0-.3s-.2.3 0 .3zm2.6-13.8c3.1.3 5.9 1.8 9 .9.3-.1.3-.6-.1-.6-2.9.3-5.5-.6-8.3-.8-3-.2-5.9 1.2-8.9.5-.4-.1-.6.4-.3.6 3 1.9 5.5-.9 8.6-.6zm-15.7.5c-2.7.6-5.3.8-8 1-.2 0-.2.3 0 .3 2.7 0 5.5-.4 8.1-1 .2 0 .1-.4-.1-.3zm54.4 5.2c.2 0 .2-.3 0-.3s-.2.3 0 .3zm.6-3.8c-.3 0-.5.1-.8.1-.2 0-.2.3 0 .3.3 0 .5.1.8.1.3 0 .3-.5 0-.5zm-6.8 9.7c.4 0 .4-.6 0-.6s-.4.6 0 .6zm-1.9-5.2c-.2 0-.2.3 0 .3s.2-.3 0-.3zm11.6 4.2c.2 0 .2-.3 0-.3-.2-.1-.4-.1-.6-.1-.3 0-.3.5 0 .5.2 0 .4 0 .6-.1zm4.6 0c-.2 0-.2.3 0 .3s.2-.3 0-.3zm8.2 1.7c-.4 0-.4.6 0 .6.3 0 .3-.6 0-.6zM158.6 150c.6.1 1.3.2 1.9.2.2 0 .2-.3 0-.3-.6-.2-1.2-.3-1.9-.3-.2-.1-.2.4 0 .4zm7.7 1.1c.1-.1 0-.2-.1-.2-.5.2-1 .3-1.5.2-.2 0-.2.3 0 .3.6.1 1.2 0 1.6-.3zm3.9-.1c-.3 0-.3.5 0 .5s.3-.5 0-.5zm-103.7 2.1c.2-.1.3-.2.5-.4.1-.1 0-.3-.2-.3-.2.1-.4.1-.6.2-.2.1 0 .7.3.5zm8.5-1.9c-.4 0-.4.6 0 .6s.4-.6 0-.6zm26.7 37.5c-.3 0-.3.6 0 .5 1-.1 2.2-.1 3.2-.4.2-.1.2-.3-.1-.4-1 0-2.1.2-3.1.3zm18.5 5.3c-.2.1-.2.4 0 .4.2.1.4.1.6.1.3 0 .3-.6 0-.5-.2-.1-.4-.1-.6 0zm6.1-.2c.2 0 .2-.3 0-.3-.5-.1-1-.1-1.6-.1-.3 0-.3.4 0 .4.5.1 1.1.1 1.6 0zm8.6-.2c-.3 0-.3.5 0 .5s.3-.5 0-.5zm46.7 1.6c.8-.2 1.8-.2 2.4-.7.1-.1 0-.2-.1-.2-.8-.2-1.7.2-2.5.4-.4 0-.2.6.2.5zm-161.5-5.3c-.1 0-.1.2 0 .2 3-.8 6.1-.4 8.8 1.1.2.1.4-.2.2-.3-2.8-1.7-5.9-2.1-9-1zm-15-5.2c-.4-.1-.6.6-.2.6 2.9.7 6.1.8 8.9-.5.3-.1.1-.6-.2-.5-3 .5-5.6.9-8.5.4zm25.5-7.2c-.5 0-1.1.1-1.6.2-.2.1-.1.4.1.4l1.5-.3c.2 0 .2-.3 0-.3zm13 1.4c-.2.1-.1.4.1.4 1.8-.4 3.5-.9 5.2-1.7.1-.1 0-.2-.1-.2-1.7.4-3.4 1-5.2 1.5zm11.1-1.9c-.9-.1-1.8-.1-2.7-.1-.3 0-.3.4 0 .4.9 0 1.8.1 2.7-.1.1.1.1-.1 0-.2zm4.9-.3h.3c.1 0 .1-.1 0-.1h-.3c-.1 0-.1.1 0 .1zm4.2 5.7c.3 0 .3-.4 0-.4-.3-.1-.3.4 0 .4zm-10 6.6c.1 0 .1-.1 0 0 0-.1 0 0 0 0zm-24.3-8.7c.3 0 .3-.5 0-.5s-.3.5 0 .5zm-13.3-24.6c.3 0 .3-.5 0-.5s-.3.5 0 .5zm1.8-.5c.3 0 .3-.5 0-.5s-.3.5 0 .5zm-7.6 3.4c.3 0 .3-.5 0-.5s-.3.5 0 .5zm10.4-9.7c.1 0 .1-.1.2-.1.1-.1.1-.2 0-.3-.1-.1-.1-.1-.2-.1-.6-.3-.6.8 0 .5z" fill="#dac39f" stroke-width="none" opacity="1"></path><path id="SvgjsPath10289" d="M65.5 71.8c-3.3-1.8-5.6-.7-9.1-.7-4.1 0-8-.9-12.2-.2-.2 0-.2.4 0 .4 2-.2 3.9-.4 5.9-.2 1.9.2 3.7 1.1 5.5 1.3 3.4.3 6.2-1.4 9.7-.4.2 0 .3-.2.2-.2zm21.3-1.4c-5.7.6-11.2 1.2-16.9 1.2-.2 0-.2.2 0 .2 5.6.1 11.4-.2 16.9-1.3.1 0 .1-.1 0-.1zm12.6-1.2c-1.6-.6-3.3-.4-4.8.2-.1 0 0 .1 0 .1 1.6-.6 3.1-.5 4.8-.1 0 0 .1-.1 0-.2zm14.3 1.3c-1.4-.9-3.1-.8-4.7-.7-.2 0-.2.4 0 .4 1.2 0 2.5 0 3.6.4 1.3.5 1.8 1.4 2.2 2.6.1.2.3.2.4 0 .2-1.1-.6-2.1-1.5-2.7zm3.2 7.7c0-.2-.3-.2-.3 0v1.2c0 .1.2.1.3 0 .1-.4 0-.8 0-1.2zm-8.3 24.7c-5.5-.5-11.1-.2-16.6-.1-3.7.1-8.1-.6-11.5.9-.2.1-.1.5.2.4 4.1-1.7 9.9-.5 14.3-.5 4.6 0 9.2.2 13.7-.2.2.1.2-.5-.1-.5zm50.3 1.4c-6.2-1.2-12.6-1.3-18.9-1.6-7.2-.3-14.4-.7-21.6.1-.2 0-.2.4 0 .3 6.9-.6 13.7-.7 20.6-.2 6.6.5 13.1 1.8 19.8 1.7.2.1.3-.2.1-.3zm1.3 2.8s0 .1 0 0c.1.1.1 0 0 0zm.2 0c0-.1-.1-.1-.1 0 .1 4-.3 8.1-.2 12.1 0 .1.1.1.2 0 .5-3.9.3-8.1.1-12.1zm35.6-4c-2.5 0-5.1.3-7.6.1-1.9-.2-3.8-1-5.7-1.1-3.9-.2-7.3.5-11.2-.2-.4-.1-.5.5-.2.6 4.4 1.3 9.1 1 13.6 1.3 3.6.2 7.4-.1 11-.3.3-.1.3-.4.1-.4zm-36-33.2c-6.2.2-12.5.6-18.7.1-4.8-.4-10.2-2.5-14.9-.8-.2.1-.1.4.1.3 4.9-1.5 11.5 1.3 16.7 1.6 5.6.3 11.3-.2 16.8-.9.1 0 .2-.3 0-.3zm31.7-32.4c-3.1-2-7.1-.2-10.6-.6-3.8-.4-7.1-1-11 0-.3.1-.2.5.1.5 3.8-.6 7.1 0 10.8.5 3.4.4 7.4-1.2 10.6 0 .2 0 .3-.3.1-.4zm-76.6-.3c-11 1.4-21.9-.6-32.9 0-.3 0-.3.5 0 .5 11 .2 22.2 2.4 33-.2.1 0 .1-.3-.1-.3zm40.1-.3c-7.5.5-14.8-1.3-22.4-.2-.2 0-.1.3 0 .3 5.1-.6 9.4-.2 14.4.5 2.4.3 11.8-.5 11.9 2.8 0 .3.4.4.5.1.8-3.1-1.8-3.6-4.4-3.5zM115 5.1c-3.9-2.9-9.1 1-13.3 0-.2 0-.3.2-.1.3 2.8 1.2 5 .4 7.9-.1 3.1-.5 5.8.2 6.7 3.6.6 2.2.5 4.8.7 7 0 .3.5.3.5 0-.2-3.3.6-8.6-2.4-10.8zm-21.7-.9c-3.8 0-7.7-.1-11.5-.2-.2 0-.2.2 0 .2 3.9.3 7.7.2 11.6.1.1.1.1-.1-.1-.1zm-35.6 23c-2.4-.5-4.8-.6-7.2-.5-1.6.1-10.7 2.2-9.6-1.8.1-.2-.3-.4-.4-.2-1 1.9.5 3.5 2.4 3.8 1.5.2 3-.4 4.5-.6 3.4-.6 6.8-.6 10.3-.5.1.2.1-.1 0-.2zm2.8.4c-.4 0-.4.6 0 .6s.4-.6 0-.6zm7.3 1.4c-2-.5-4.1-.8-6.1-1-.1 0-.2.2 0 .2 2 .5 4 1 6.1 1.1.1.1.2-.2 0-.3zm63.5-.8c-1.1-.2-2.4-.1-3.2-.9-1-1-.6-2.4-.3-3.5.3-1.3.6-2.6-.1-3.9-.1-.2-.5 0-.4.2 1 2.2-1.2 4.5-.4 6.7.6 1.7 2.7 2.2 4.3 2 .3 0 .5-.5.1-.6zm13-8.5c-2.5-.4-5.1-1.4-7.6-1.6-2.8-.2-7.1 2.3-9.5.5-.2-.1-.4.2-.2.3 1.6 1.4 3.2.8 5 .3 4.5-1.3 7.9.5 12.3.7.1.1.1-.1 0-.2zM126.6 3.6c0-.2-.3-.4-.4-.1-.5 2.6-.5 5.1.3 7.6.1.2.3.1.3-.1-.4-2.5-.6-4.9-.2-7.4zm-96.9.9c-2.5-2-5.2-1.5-8.2-1.3-4.8.5-9.4.3-14.1-.2-.1 0-.2.2 0 .3 3.4.7 6.7 1.1 10.2 1.1 4.1 0 7.9-.9 11.9.6.2 0 .4-.3.2-.5zm.5 6.1c-.1-1.5.1-3.1-1-4.2-.1-.2-.4.1-.2.2 1.2 1.6.8 4.7.9 6.6.1 1.8.1 3.6.3 5.3 0 .1.2.1.2 0 .2-2.6-.1-5.3-.2-7.9zm.3 14.7c0-.2-.4-.2-.4 0 .1 1 0 1.9-.1 2.9 0 .1.2.1.2 0 .4-.9.4-1.9.3-2.9zm42.9 16.2c-.1-2.2-1-4.1-3.4-3.6-.2 0-.1.3 0 .3 3.9 1.1 2 9.4 2.2 12.2.2 2.7.7 5.1 1.7 7.5.1.1.2 0 .2-.1-2.1-5.5-.5-10.7-.7-16.3zm-4.7-3.8c-2.1.1-4.2 0-6.3-.1-.2 0-.2.3 0 .3 2.1.4 4.2.3 6.3 0 .2 0 .2-.2 0-.2zm-35.4-1.3c-3.4-.8-6.8-.3-10.3 0-4.2.3-8.4.6-12.5 1.2-.2 0-.2.3 0 .3 7.3-.2 15.5-2.6 22.7-1.1.3 0 .4-.4.1-.4zM17.7 46.7c-2.9 1.2-5.8-1.1-8.7-.3-.1 0-.1.2.1.2 2.9-.8 6 1.9 8.8.3.1-.1 0-.3-.2-.2zm6.9 22.8c-6.8.3-12.3 1.3-18.9-1.2-.2-.1-.4.3-.2.4 2.8 1.2 5.7 2 8.8 2.3 2.7.2 13.1-1.7 14.4 1.7.1.2.5.2.5-.1 0-2.7-2.2-3.2-4.6-3.1zm5.9 9.9c0-.3-.4-.3-.4 0 0 1-.1 2.1 0 3.1 0 .2.3.2.3 0 .2-1 .1-2.1.1-3.1zM53.4 104c-6.5-1.7-13.3-1.4-19.9-1.4-.2 0-.2.2 0 .2 6.7 0 13.2.4 19.8 1.5.2.1.3-.2.1-.3zm.8 24.2c-7.7.5-15.5-1.1-23.2-1.3-.2 0-.2.3 0 .3 7.3 1 16 2.8 23.3 1.3.1-.1.1-.3-.1-.3zm18.1-19.3c.2-2.2 1.1-4.8-1.7-5.3-.3-.1-.5.3-.2.5 2.3 1.5.9 8.9 1.2 11.5.3 3.4.9 6.7 1.6 10.1 0 .1.2.1.2 0-.8-5.6-1.6-11.2-1.1-16.8zm33.3 8.2c-3.7-3.4-7.5-3.4-12-1.8-.3.1-.2.6.1.4 2.2-.7 4.4-1.5 6.7-1 1.8.4 3.3 1.7 5 2.5.2.2.3 0 .2-.1zm15.3 4.2c-.5-1-1.6-1.2-2.6-1-.7.2-1.4.6-2 .9-1.4.7-2.6 1.1-4.2 1.2-.3 0-.3.5 0 .5 1.2 0 2.3-.2 3.4-.7 1.7-.7 3.3-2.2 5-.6.3.2.5 0 .4-.3zm37.4 15.8c-5.6-.4-10.5 2.8-16 1.9-5.4-.9-10.6-1.9-16.1-2.4-.3 0-.3.4-.1.5 6 .9 12.1 2.9 18.1 3.4 1.3.1 2.4-.1 3.6-.4 3.6-1.1 6.5-2.1 10.4-2.3.5-.2.5-.7.1-.7zm30.4-1.4c-6.1 0-13.7-.4-19.6 1.5-.2.1-.1.4.1.4 6.1-1.9 13.2-1 19.5-1.6.2 0 .2-.3 0-.3zm-61.1 24.5c-.8 0-1.2-.3-1.2-.9 0-.3-.1-.5-.1-.8-.1-.4-.1-.9-.1-1.3-.1-.9-.1-1.8-.1-2.7 0-.2-.3-.2-.3 0-.1 1.2-.1 2.4 0 3.6.1.7 0 1.8.5 2.4.4.6 1.5.7 1.6-.2-.1-.1-.2-.2-.3-.1zm36.7-.8c-2.9.3-5.8 1-8.6 1.5-3.6.7-6.6.3-10.2-.2-.2 0-.4.3-.1.4 2.5.4 5.1 1.1 7.6.9 3.7-.3 7.7-1.2 11.3-2.2.3-.1.3-.4 0-.4zm-94.1-22.8c-5.6-.1-10.8 1.8-16.3.2-4.9-1.4-9.8-1-14.8-.6-.1 0-.1.2 0 .2 3.2-.1 6.5-.4 9.7-.2 3.1.2 5.3 1.9 8.2 2.4 3.9.7 9.5-.6 13.3-1.6.2 0 .1-.4-.1-.4zm45.6 0c-6.7-.7-13.4-.6-20.1-1-6.1-.3-11.6.9-17.6 1-.2 0-.2.3 0 .3 5.9-.1 11.6-1.2 17.6-.8 6.7.4 13.4 1.2 20.1 1.3.5 0 .5-.7 0-.8zm1.7 10c-.1-.2-.3-.3-.4-.5-.4-.8-.3-1.4-.1-2.3.4-1.8.5-3.2-.5-4.9-.2-.3-.6 0-.5.3.6 1.1.8 2.4.4 3.6-.2.7-.8 1.4-.9 2.1-.1 1.2 1.4 1.7 1.3 3 0 .3.3.3.5.1.4-.5.4-.8.2-1.4zm.2 4.5c0-.3-.4-.3-.4 0 0 1.1-.1 2.3.1 3.4 0 .2.3.2.3 0 .1-1.1 0-2.3 0-3.4zM61 153.5c-2.8-.3-2.3-.8-4.9-2.9-.2-.2-.5-.8-.8-1.1-3.4-2.8-13 2.4-15.5-1.7-.1-.2-.4 0-.3.2 2.5 4.9 10-.1 14.1 2 2.1 1.1 1 2.4 2.7 3.5 1.2.8 3.5.4 4.8.3.1 0 .1-.3-.1-.3zm10.1 1.6c-1.6-.1-3.2.1-4.8.2-.3 0-.3.4 0 .4 1.6-.1 3.3-.1 4.8-.4.2-.1.1-.2 0-.2zm21.3-8.7c-1.6-.2-3.2-.1-4.8-.1-.3 0-.3.4 0 .4 1.6 0 3.2.1 4.8-.1.2 0 .2-.2 0-.2zm-69.7-8.8c-3.3-1.1-6.2-.6-9.6-.4-4 .2-7.8-.3-11.6-1.6-.2-.1-.4.3-.2.4 7.1 3.1 13.8 1.5 21.3 2 .2 0 .3-.3.1-.4zm4.3-.1c-.2 0-.3.4-.1.4 1.4.2 2.3 1.4 2.5 2.8 0 .1.2.1.2 0 .4-1.6-1.1-3.1-2.6-3.2zm3.2 6.8c0-.2-.3-.2-.3 0-.1 1.5-.4 3.2-.1 4.6 0 .2.4.2.4 0 .4-1.4.1-3.1 0-4.6zM71.8 173c-.1-.4-.6-.3-.6.1-.3 4.4.1 8.9.2 13.3 0 1.7.7 4.8.1 6.4-1.2 3.1-4.3 2.6-6.8 2.8-.2 0-.2.3 0 .3 4-.1 7.5 1.2 7.8-3.1.3-6.4.4-13.6-.7-19.8zm-.8-3.6c-2.5-.7-5.3 0-7.8.2-2.8.3-5.5.6-8.3 1.1-.2.1-.2.4.1.4 5.3-.1 10.7-1.4 16-1.3.2.1.2-.3 0-.4zm-24.1.2c-5.4-.9-11-1.3-16.4-.8-6.1.6-11.8 2.4-18 2.3-.2 0-.2.2 0 .3 4.8.5 9.5-.5 14.3-1.2 6.8-1 13.2-1.1 20-.2.2 0 .3-.4.1-.4zm6.6 10.5c-1.9.2-3.7.6-5.6.9-.2.1-.1.4.1.4 1.8-.3 3.7-.6 5.5-1.1.2 0 .1-.2 0-.2zm39.2 9.6c-1.6-2.5-5-3.6-7.9-2.8-.3.1-.2.5.1.5 2.9-.4 5.3.5 7.4 2.5.3.1.5 0 .4-.2zm11.5 1.7c-1.4-.1-3 .3-4.4.5-.3 0-.2.6.1.5 1.4-.2 3-.2 4.4-.7.1 0 .1-.3-.1-.3zm7.2-.3c-.2.1-.5.1-.7.2-.2.1-.1.3.1.3.2-.1.5-.2.7-.3.1-.1 0-.3-.1-.2zm17.1-4c-1.3-.9-3-1-4.5-.7-.3.1-.2.6.1.5 1.5-.3 2.9-.1 4.3.4.1.1.2-.1.1-.2zm7.3 1.6c-.7 0-1.4 0-2.2-.1-.2 0-.2.3 0 .3.7 0 1.4 0 2.2-.1.2 0 .2-.1 0-.1zm8 .4c-.6.1-1 .2-1.6.1-.3-.1-.5.4-.1.5.6.1 1.3.1 1.9-.2.1-.2 0-.4-.2-.4zm5.1-8.1c-.3 0-.3.5 0 .5s.3-.5 0-.5zm-64.4-10.8c-1.1-.8-2.4-.9-3.8-.7-.3 0-.2.4.1.4 1.2-.2 2.4.1 3.6.5.1.1.2-.1.1-.2zm48-.1c-2.8-.9-5.2-.4-8.1.1-4.4.8-8.4.6-12.8.7-3.3.1-6.4 1.4-9.8 1.3-3.3-.1-6.2-.9-9.5-.3-.2 0-.1.3 0 .3 3.2-.2 6.2.6 9.4.8 3.2.2 5.8-.9 8.9-1.1 3.6-.3 7.1.4 10.7-.1 3.7-.6 7-1.6 10.9-1 .6.2.8-.5.3-.7zm25.4-.2c-3.6-.9-7-.3-10.6 0-3.2.3-6.3-.8-9.3.4-.2.1-.1.5.1.4 3.2-.8 6.5.2 9.8.1 3.3-.2 6.6-.1 9.9 0 .4-.1.5-.7.1-.9zm1 1.6c-.2-.2-.5.1-.4.3.4.5.6 1 .8 1.5.2.5.2 1 .3 1.6.1.2.4.2.4 0 .3-1.3-.3-2.6-1.1-3.4zm10.8-.5c-.5 2.7-.8 5.4-.2 8.1 0 .2.4.2.4-.1.1-2.7 0-5.3.4-7.9 0-.2-.5-.4-.6-.1zm.5 11.7c0-.3-.4-.3-.4 0-.1 1 .3 1.9.8 2.7.7 1.2 1.2 2 1.2 3.4 0 .2.2.2.3.1 1.3-2-1.9-4.2-1.9-6.2zm20-12.2c-3.4-.3-6.8 0-10.3-.6-.3-.1-.4.4-.1.5 3.4.6 7.1 1.4 10.5.8.4 0 .2-.6-.1-.7z" fill="#f9f2e7" stroke-width="none" opacity="1"></path></g><g id="svga-group-humanwrap-move" transform="matrix(1,0,0,1,0,0)"><g id="svga-group-humanwrap" transform="matrix(1,0,0,1,0,0)"><g id="svga-group-hair-back-move" transform="matrix(1,0,0,1,0,0)"><g id="svga-group-hair-back" transform="matrix(1,0,0,1,0,0)"></g></g><g id="svga-group-humanbody-back"><path id="SvgjsPath9990" d="M166.5 181.1c-10.9-6.6-27.6-8.4-35-12.1-4.9-2.5-9.1-4.7-8.9-17.8s1.9-42.4 1.9-42.4H75.4s1.6 29.4 1.9 42.4-4.2 15.6-8.9 17.8c-7.4 3.5-24.1 5.4-35 12.1-10.8 6.6-10 18.9-10 18.9v19.7h153.3V200c-.1 0 .7-12.3-10.2-18.9z" fill="#f6e4e2" stroke-width="none" opacity="1" stroke="none"></path></g><g id="svga-group-chinshadow-single"><path id="SvgjsPath10244" d="M124.5 108.9H75.4c.1 1.8 1.6 29.7 1.9 42.3 0 1.4 0 2.7-.1 3.9 1.7 2.2 3.4 4.2 5.1 5.9 5.5 6.1 8.4 6.5 17.7 6.5s12.2-.4 17.7-6.5c1.6-1.7 3.3-3.7 5-5.9-.1-1.2-.1-2.5-.1-3.9.2-12.7 1.8-40.5 1.9-42.3z" fill="#d7a19b" stroke-width="none" opacity="0.65" stroke="none"></path></g><g id="svga-group-humanbody-front"><path id="SvgjsPath9991" d="M78.7 156.8c.5 4.8 1.7 9.4 3.1 13.9.8 2.3 1.6 4.6 2.6 6.9.8 2 1.7 4.2 3.1 5.9.3.4 1 0 .9-.5-.5-2.2-1.6-4.3-2.4-6.4-.9-2.2-1.7-4.4-2.5-6.6-1.5-4.4-2.8-8.9-4.1-13.3-.2-.4-.8-.3-.7.1zm41.3-1c-1.3 8.2-3.9 16.1-5.4 24.2-.1.4.4.5.6.2 3.1-7.7 4.1-16.1 5.1-24.3-.1-.2-.3-.2-.3-.1zm-25.8 11.9c-.9 3.6 1.9 8.6 6.2 7.6.5-.1.4-.8 0-1-1.4-.5-2.9-.9-3.9-2.1-1.1-1.2-1.5-2.9-1.4-4.5 0-.4-.8-.5-.9 0z" fill="#d7a19b" stroke-width="none" opacity="1" stroke="none"></path><path id="SvgjsPath9992" d="M177.3 219.7c-.1-6.6-.3-13.1-.3-19.7l-.3-.3c.1 0 .1 0 .2.1s.1.2.1.1v-1.4c0-.5-.1-.9-.1-1.4-.1-.9-.3-1.9-.5-2.8-.5-1.8-1.1-3.6-2-5.3-1.7-3.4-4.4-6.2-7.7-8.1-3.6-2.2-7.6-3.8-11.6-5.1-4-1.3-8.1-2.4-12.1-3.5-4-1.2-8.1-2.2-11.8-4.2-1.9-1-3.6-2.1-4.8-3.6-1.2-1.6-1.9-3.5-2.3-5.5-.8-4-.4-8.2-.3-12.4l.7-12.6 1.5-25.2.1-1.4h-1.4c-8.2 0-16.4 0-24.6.1l-24.6.3h-.9l.1.9c.8 11.9 1.6 23.8 2.1 35.7.1 3 .3 6 .2 8.9-.1 2.9-.4 5.9-1.6 8.6-.6 1.3-1.4 2.5-2.4 3.5s-2.3 1.8-3.6 2.4c-2.6 1.3-5.4 2.2-8.3 3-5.8 1.5-11.6 2.8-17.3 4.7-2.8.9-5.7 2-8.4 3.4-1.3.7-2.7 1.4-4 2.4-1.3.9-2.4 1.9-3.5 3.1-2.1 2.3-3.6 5.2-4.5 8.1-.5 1.5-.8 3-1 4.6-.1.8-.1 1.6-.1 2.4v2.3l-.2 17.9v1.3h1.4l38.3.2c12.8.1 25.5.1 38.3 0 12.8-.1 25.6-.1 38.3-.3 12.8-.2 25.6-.5 38.3-.7h.6v-.5zm-77.2-1.6H61.8l-37 .2-.1-16.6v-2.2c0-.7 0-1.4.1-2.1.1-1.4.4-2.8.8-4.2.8-2.7 2.1-5.3 3.9-7.5.9-1.1 2-2.1 3.1-2.9 1.1-.9 2.4-1.6 3.7-2.3 2.6-1.4 5.3-2.5 8.1-3.5 5.6-2 11.4-3.4 17.1-5.1 2.9-.8 5.8-1.7 8.5-3.1 1.3-.7 2.7-1.5 3.8-2.6 1.1-1.1 2-2.4 2.6-3.9 1.2-2.9 1.5-5.9 1.6-8.9 0-3-.1-6-.2-9l-1.3-34.8 23.5.4c7.7.1 15.4.1 23.1.1-.4 7.9-.8 15.9-1.1 23.8-.2 4.2-.2 8.4-.3 12.6 0 4.2-.2 8.5.8 12.8.5 2.1 1.3 4.2 2.8 6 1.4 1.7 3.4 2.9 5.3 3.8 3.9 1.9 8 2.8 12.1 3.8s8.2 2 12.2 3.3c4 1.3 7.9 2.8 11.5 5 3.2 1.9 5.8 4.7 7.5 8 .9 1.6 1.5 3.4 1.9 5.2.2.9.4 1.8.4 2.7.1.5.1.9.1 1.4V200l-.3 19c-12.6-.2-25.1-.5-37.7-.7-12.7-.1-25.5-.1-38.2-.2z" fill="#c8837c" stroke-width="none" opacity="1" stroke="none"></path></g><g id="svga-group-clothes-single"><path id="SvgjsPath10137" d="M180.3 220.1c0-17.5-1.6-28.7-1.6-28.7-3.2-15.2-22.5-16.1-31.1-18.5-2.8-.8-13.9-4.5-13.9-4.5-4-8.6-9.1-13.4-9.1-13.4s1.1 16.6-4.8 20.7c-2.8 1.9-8.9 3.1-11.2 5-2.4 2-5.9 10.2-5.9 10.2s-8.5-12.5-10.7-12.3c-4.7.5-8 0-9.2-.4-6.7-2-6.7-23.4-6.7-23.4s-6.5 4.6-9.4 12.4c-3.2 1.4-11 3.2-15 4.7-8.3 3.1-27.5 5.6-30.5 19.6 0 0-1.6 11.2-1.6 28.7l160.7-.1z" fill="#a44974" stroke-width="none" opacity="1"></path><path id="SvgjsPath10138" d="M180.6 210.1c0-3.3-.1-6.7-.3-10-.1-1.7-.2-3.3-.3-5l-.2-2.5-.1-1.3c-.1-.4-.2-.9-.3-1.3-.9-3.4-2.8-6.5-5.4-8.9-2.6-2.3-5.7-4-8.9-5.1-3.2-1.2-6.5-2-9.8-2.7 0 0-17.5-4.4-20.3-5.9-1.1-2.4-2.4-4.7-3.9-6.9-.8-1.2-1.6-2.3-2.5-3.4-.9-1.1-1.7-1.9-2.8-2.9-.2-.2-1-.7-1.3-.7-.7-.1-1 .6-1.1 1.3v.1c-.4 3.8-.6 14.2-1.3 15.9-.8 1.7-1.8 3.2-3.2 4-1.5.9-3.4 1.5-5.2 2.2-.9.3-1.9.7-2.8 1.1-1 .4-1.9.9-2.9 1.6-1 .9-1.5 1.7-2.1 2.6-.6.9-1.1 1.8-1.5 2.6l-1.8 3.6c-2.2-3-4.4-6-7-8.7-.4-.4-.8-.8-1.3-1.2-.2-.2-.5-.4-.8-.6-.3-.2-.6-.4-1.2-.4h-.6l-.4.1-.8.1c-.5.1-1.1.1-1.6.1-1.1 0-2.1 0-3.2-.1-1-.1-2.2-.2-3-.5-.8-.3-1.6-1-2.2-1.8-.6-.8-1.2-1.7-1.7-2.6-1-1.9-1.6-13.9-2.3-18.2 0-.1-.1-.1-.1-.2-.2-.2-.5-.2-.7-.1-1.1.8-2.1 1.7-3 2.7s-1.8 2-2.6 3c-.8 1.1-1.5 2.2-2.2 3.3-.7 1.1-1.2 2.2-1.7 3.4-3.8 1.7-10.8 3-14.7 4.4-4 1.4-8.1 2.3-12.2 3.6-4.1 1.3-8.2 2.9-11.8 5.5-1.8 1.3-3.4 2.9-4.8 4.7-1.3 1.8-2.3 4-2.8 6.2v.1c-.3 2.4-.6 4.8-.8 7.2-.2 2.4-.4 4.8-.5 7.2-.1 2.4-.3 4.8-.3 7.2-.1 2.4-.1 4.8-.1 7.2 0 .8.6 1.4 1.4 1.4l40.5.2c13.5 0 27-.1 40.4-.2l40.2-.5 19.9-.3 19.8-.4c.2-3.5.2-6.9.2-10.2zM120.2 177c1-.6 1.9-1.5 2.5-2.4.7-.9 1.2-1.8 1.7-2.8.9-1.9.9-10.8 1.3-13.9.2.3.4.5.7.8.8 1 2.7 3 3.4 4.1 3.5 5.5 5.5 12.6 5.7 14 0 0 2.7 12.7 3.1 17.1-1.7-.8-3.4-1.8-4.9-2.8-2.1-1.4-4.1-2.9-6.1-4.4-2-1.6-3.9-3.1-5.8-4.9-.9-.9-1.8-1.8-2.9-2.5-.7-.4-1.5-.8-2.4-.9 1.2-.2 2.5-.7 3.7-1.4zm-22.1 19.1c-.6-1.7-1.3-3.3-2.2-4.9-.8-1.5-1.7-3-2.8-4.3.4 0 .8.1 1.2.1.9.1 1.9.1 2.8.2h1.7c1 1.4 1.9 2.7 2.8 4.1-1.2 1.4-2.3 2.9-3.4 4.4 0 .2 0 .2-.1.4zm-9.2-16.5c.6 0 1.1 0 1.7-.1l.8-.1H92s.2.1.3.2c.2.1.4.3.5.4.4.3.7.7 1.1 1.1 1.6 1.8 3.2 3.8 4.6 5.8-1.4-.2-2.8-.5-4.3-.7-1.8-.3-3.7-.6-5.5-1-1.8-.4-3.6-.8-5.4-1.3-1.7-.5-3.4-.9-5-1.5l.1-.1c.8-1 1.7-1.9 2.7-2.6.5-.3 1-.6 1.5-.8 1 .3 1.8.4 2.8.5 1.3.2 2.4.2 3.5.2zm-21.7-12.3c.5-1.2 1-2.4 1.6-3.5.6-1.1 1.3-2.2 2.1-3.2s1.6-2 2.6-2.9c.7-.7 1.5-1.4 2.2-2 .1 6.3.8 15.8 1.8 17.9.5 1 1.1 2 1.8 2.9.7.9 1.6 1.8 2.8 2.3.2.1.3.1.5.1-.5.2-1 .4-1.4.7-1.1.6-2 1.6-2.9 2.5-1.8 1.7-3.8 3.3-5.8 4.9s-4 3.1-6.1 4.4c-1.6 1-3.3 2-5 2.8 2.2-18.3 5.7-26.8 5.8-26.9zm-7.7 51.2-38.5.2c0-4.3.1-8.6.2-12.9.1-2.4.2-4.8.4-7.1.2-2.4.4-4.7.6-7.1.4-1.9 1.2-3.8 2.3-5.4 1.1-1.6 2.5-3.1 4.2-4.4.3-.2.5-.4.8-.6 1.6 2.9 3.3 5.7 5 8.5 1.8 2.9 3.6 5.8 5.5 8.7.5.8.9 1.4 1.1 2.2.3.8.5 1.6.6 2.4.4 1.6.6 3.3.8 5l.6 5.1c.2 1.7.3 3.4.5 5.1v-5.1l-.3-5.1c-.1-1.7-.4-3.4-.7-5.1-.2-.9-.4-1.7-.6-2.6-.2-.9-.7-1.7-1.2-2.4-1.9-2.9-3.7-5.8-5.7-8.6-1.8-2.7-3.7-5.4-5.6-8.1 3.1-2.2 6.7-3.7 10.3-5 4-1.4 8.1-2.4 12.2-3.9 3.9-1.6 10.1-2.6 13.9-4.4-1.8 4.4-3.9 10.7-6.6 27.8 0 .2 0 .4.1.6.2.5.8.7 1.3.5 2.4-1.2 4.5-2.6 6.6-4.1 2-1.6 4-3.2 5.9-4.9 1.8-1.7 3.7-3.3 5.3-5.2 1.5.9 3.2 1.6 4.8 2.2 1.8.6 3.6 1.1 5.4 1.5 1.4.3 2.8.5 4.1.6.6 1.7 1.3 3.3 2.2 4.8.9 1.6 1.8 3.1 3 4.5-.1.1-.2.3-.2.5-.1.4-.1.7-.2 1.1-.1.7-.1 1.4-.1 2.1v4.1c.1 2.7.2 5.4.4 8.1l.3 4.1c.1.9.2 1.8.3 2.6-13-.2-26-.3-39-.3zm39.9.3h-.7v-6.7l-.2-8.1c0-1.4-.1-2.7-.1-4 0-.7 0-1.3.1-2s.1-1.2.5-1.8c.6-1.2 1.4-2.3 2.2-3.4l.8-1.1c.1.1.2.2.4.3.6.3 1.3 0 1.6-.6.6-1.3 1.3-2.6 1.9-3.9 1.2 0 2.3-.1 3.4-.3 1.4-.2 2.8-.6 4.2-1-1.8 2.4-3.5 4.9-5.2 7.4-.9 1.3-1.8 2.6-2.7 4l-.7 1-.3.5c-.1.1-.3.5-.3.7-.2.9-.2 1.7-.3 2.5-.1 3.2.1 6.4.3 9.6.2 2.4.4 4.8.7 7.1l-5.6-.2zm40.2.5-34.3-.4-.1-2.4-.1-4.8c-.1-3.2-.2-6.4-.1-9.5 0-.8.1-1.6.2-2.3.1-.2 0-.2.2-.4l.3-.5.6-1c.8-1.4 1.7-2.7 2.5-4.1 1.6-2.6 3.1-5.1 4.6-7.8 1.4-.4 2.8-.9 4.1-1.5 1.3-.6 2.7-1.2 3.9-2l-4.2 1.2c-1.4.4-2.8.9-4.2 1.3l-4.2 1.2c-1 .3-2.1.5-3.1.8.2-.3.3-.7.5-1 .5-.9.9-1.7 1.5-2.5.5-.8 1.1-1.6 1.6-2 .6-.4 1.4-.9 2.3-1.2.9-.4 1.8-.7 2.7-1 .6-.2 1.2-.4 1.8-.7.8.2 1.7.6 2.4 1.1 1.1.7 1.9 1.6 2.7 2.6 1.7 1.9 3.6 3.6 5.4 5.3 1.9 1.7 3.8 3.3 5.9 4.9 2.1 1.5 4.2 2.9 6.6 4.1.2.1.4.1.6.1.5-.1.9-.6.8-1.1-.8-5-3.9-22.1-5.7-26.1 2.6 1.4 26.2 7.5 29.2 8.6 2.1.8 4.2 1.7 6.1 2.9-2 2.7-3.9 5.5-5.8 8.3-1.9 2.8-3.8 5.7-5.7 8.6-.4.7-1 1.5-1.2 2.4-.3.9-.5 1.7-.6 2.6-.3 1.7-.6 3.4-.7 5.1l-.3 5.1c0 1.7-.1 3.4 0 5.1.2-1.7.3-3.4.5-5.1l.6-5.1c.2-1.7.5-3.4.9-5l.6-2.4c.2-.8.6-1.4 1.1-2.2 1.8-2.9 3.7-5.8 5.5-8.7 1.8-2.9 3.5-5.8 5.1-8.7.8.5 1.6 1 2.3 1.6 2.4 2 4.2 4.7 5.1 7.8l.3 1.1.2 1.2.3 2.5.5 4.9c.3 3.3.6 6.6.8 9.9l.5 9.9-40.5-.7zm-37.8-21.9c.7 0 1.2.5 1.2 1.2s-.5 1.2-1.2 1.2-1.2-.5-1.2-1.2.5-1.2 1.2-1.2zm9.1-15.2c.7 0 1.2.5 1.2 1.2s-.5 1.2-1.2 1.2-1.2-.5-1.2-1.2.6-1.2 1.2-1.2zM102 216c.7 0 1.2.5 1.2 1.2s-.5 1.2-1.2 1.2-1.2-.5-1.2-1.2.5-1.2 1.2-1.2z" fill="#852150" stroke-width="none" opacity="1"></path></g><g id="svga-group-head" transform="matrix(1,0,0,1,0,0)"><g id="svga-group-ears-left-move" transform="matrix(1,0,0,1,0,0)"><g id="svga-group-ears-left" transform="matrix(1,0,0,1,0,0)"><path id="SvgjsPath10150" d="M62.2 95.2s-4.4-4.7-5.8-6.2-3.1-4.7-5-4.1c-1.9.5-1.2 2.7-1.3 5.8-.1 3.1.3 9.1 2.2 12.4s2.9 4.5 3.5 8 2.8 4.2 4.1 3.2 4.3-7 4.4-10.2c0-3.2-1.3-7.6-2.1-8.9z" fill="#f6e4e2" stroke-width="none" opacity="1" stroke="none"></path><path id="SvgjsPath10151" d="M63.1 97.3c.3.8.5 1.5.7 2.3.4 1.6.7 3.2.7 4.9 0 .8-.2 1.6-.3 2.3l-.6 2.1c-.5 1.3-1.1 2.6-1.7 3.8-.3.6-.7 1.1-1.1 1.7-.2.2-.5.5-.8.7s-.6.3-.9.3c-.7.1-1.4-.1-2-.7s-1.1-1.4-1.4-2.3l-.2-.7-.1-.7c-.1-.4-.1-.8-.2-1.1-.2-.7-.4-1.5-.6-2.1-.5-1.4-1.3-2.7-2.1-4-.4-.6-.8-1.4-1-2.2-.3-.8-.5-1.6-.7-2.4-.3-1.6-.6-3.2-.7-4.8-.2-1.6-.2-3.2-.2-4.7 0-.8-.1-1.5-.1-2.4 0-.4 0-.8.1-1.3.1-.4.2-.9.5-1.2.2-.3.5-.5.8-.6s.6-.2 1-.2c.7.1 1.3.5 1.9 1 1.1 1 1.9 2.4 2.7 3.5 1.9 2.2 3.7 4.4 5.6 6.5.1.8.4 1.6.7 2.3zm-7-7.9c-1.1-1-1.9-2.3-2.8-3.1-.5-.4-.9-.7-1.4-.8-.4 0-.9.1-1.2.4s-.4.9-.4 1.7v2.3c0 .8-.1 1.5-.1 2.3s0 1.5.1 2.3c.1 1.6.3 3.1.7 4.7.4 1.5 1 3 1.8 4.2.8 1.3 1.7 2.5 2.4 4 .3.8.6 1.6.8 2.4l.3 1.2.1.5.2.5c.2.6.6 1.1 1 1.4s.9.4 1.3.3c.2 0 .4-.1.6-.2.2-.1.3-.3.5-.5.3-.4.7-1 1-1.5.6-1.1 1.2-2.3 1.7-3.5s1-2.5 1.2-3.8c.2-1.4 0-3-.2-4.5-.1-.8-.3-1.6-.5-2.3-.2-.8-.5-1.5-.9-2.1-2.2-2.1-4.2-4-6.2-5.9z" fill="#e7c1bd" stroke-width="none" opacity="1" stroke="none"></path><path id="SvgjsPath10152" d="M50.4 89.6c.5-1.9 2.1-1 3 .4 1.9 2.6 3.2 6.6 3.6 10 0 .1-.1.2-.1.1-.1.1-.2.1-.2-.1-1.2-.5-1.6-.2-1.2.8 0 .3.1.6.3.9.2.5.6 1 .9 1.5.5.8 1.2 1.5 1.7 2.3.2.3 0 .6-.2.4-1.4-1-3.9-4.3-3.2-6.6.3-.8 1-1.1 1.5-.7-1.1-3.6-4-12-5.8-8.8-.2.1-.3-.1-.3-.2z" fill="#d7a19b" stroke-width="none" opacity="1" stroke="none"></path><path id="SvgjsPath10153" d="M53.3 90.1c-1 2-1.4 4.4-.9 7.1.3 1.5 2.9 9.5 4.9 8.4.2-.1.4.3.2.5-2 1.8-4.2-4.5-4.9-6.5-1.1-3.4-1.4-7.5.5-9.7.1-.1.2 0 .2.2z" fill="#d7a19b" stroke-width="none" opacity="1" stroke="none"></path></g></g><g id="svga-group-ears-right-move" transform="matrix(1,0,0,1,0,0)"><g id="svga-group-ears-right" transform="matrix(1,0,0,1,0,0)"><path id="SvgjsPath10154" d="M138.08 95.16s4.4-4.7 5.8-6.2 3.1-4.7 5-4.1c1.9.5 1.2 2.7 1.3 5.8.1 3.1-.3 9.1-2.2 12.4s-2.9 4.5-3.5 8-2.8 4.2-4.1 3.2-4.3-7-4.4-10.2c0-3.2 1.3-7.6 2.1-8.9z" fill="#f6e4e2" stroke-width="none" opacity="1" stroke="none"></path><path id="SvgjsPath10155" d="M137.9 95.1c1.9-2 3.8-4.3 5.6-6.5.9-1 1.6-2.4 2.7-3.5.5-.5 1.2-1 1.9-1 .3 0 .7 0 1 .2.3.1.6.3.8.6.2.3.4.8.5 1.2.1.4.1.9.1 1.3 0 .8-.1 1.6-.1 2.4 0 1.5-.1 3.2-.2 4.7-.1 1.6-.4 3.2-.7 4.8-.2.8-.4 1.6-.7 2.4s-.6 1.5-1 2.2c-.7 1.3-1.5 2.7-2.1 4-.3.7-.5 1.4-.6 2.1-.1.4-.1.7-.2 1.1l-.1.7-.2.7c-.3.9-.8 1.7-1.4 2.3-.6.5-1.4.8-2 .7-.3 0-.6-.1-.9-.3-.3-.2-.6-.5-.8-.7-.4-.5-.8-1.1-1.1-1.7-.6-1.2-1.2-2.4-1.7-3.8-.2-.7-.5-1.4-.6-2.1-.2-.7-.3-1.5-.3-2.3 0-1.7.3-3.3.7-4.9.2-.8.4-1.6.7-2.3 0-.8.3-1.6.7-2.3zm.1.1c-.4.6-.6 1.4-.9 2.1-.2.8-.4 1.5-.5 2.3-.3 1.5-.4 3.1-.2 4.5s.7 2.6 1.2 3.8c.5 1.2 1.1 2.4 1.7 3.5.3.5.6 1.1 1 1.5.2.2.3.4.5.5s.4.2.6.2c.4.1.9 0 1.3-.3s.7-.8 1-1.4l.2-.5.1-.5.3-1.2c.2-.8.5-1.6.8-2.4.7-1.5 1.6-2.8 2.4-4 .8-1.2 1.4-2.6 1.8-4.2.4-1.5.6-3.1.7-4.7.1-.8.1-1.6.1-2.3 0-.8-.1-1.5-.1-2.3v-2.3c0-.7-.1-1.4-.4-1.7-.3-.3-.8-.5-1.2-.4-.4 0-.9.4-1.4.8-.9.8-1.8 2.1-2.8 3.1-2.3 2-4.3 3.9-6.2 5.9z" fill="#e7c1bd" stroke-width="none" opacity="1" stroke="none"></path><path id="SvgjsPath10156" d="M149.6 89.6c-.5-1.9-2.1-1-3 .4-1.9 2.6-3.2 6.6-3.6 10 0 .1.1.2.1.1.1.1.2.1.2-.1 1.2-.5 1.6-.2 1.2.8 0 .3-.1.6-.3.9-.2.5-.6 1-.9 1.5-.5.8-1.2 1.5-1.7 2.3-.2.3 0 .6.2.4 1.4-1 3.9-4.3 3.2-6.6-.3-.8-1-1.1-1.5-.7 1.1-3.6 4-12 5.8-8.8.2.1.3-.1.3-.2z" fill="#d7a19b" stroke-width="none" opacity="1" stroke="none"></path><path id="SvgjsPath10157" d="M146.7 90.1c1 2 1.4 4.4.9 7.1-.3 1.5-2.9 9.5-4.9 8.4-.2-.1-.4.3-.2.5 2 1.8 4.2-4.5 4.9-6.5 1.1-3.4 1.4-7.5-.5-9.7-.1-.1-.2 0-.2.2z" fill="#d7a19b" stroke-width="none" opacity="1" stroke="none"></path></g></g><g id="svga-group-faceshape-wrap" transform="matrix(1,0,0,1,0,0)"><g id="svga-group-faceshape-single"><path id="SvgjsPath10234" d="M143.2 82v-.3c-1.3-29.9-20.7-46.4-43.2-46.4S58.1 51.8 56.9 81.7v.3c.1 9.4-.6 25.5 2 31.6 1.3 3.1 13.8 23.8 23.4 34.2 5.5 6.1 8.4 6.5 17.7 6.5 9.3 0 12.2-.4 17.7-6.5 9.6-10.4 22.1-31.1 23.4-34.2 2.6-6.1 1.9-22.2 2.1-31.6z" fill="#f6e4e2" stroke-width="none" opacity="1" stroke="none"></path><path id="SvgjsPath10235" d="M117.7 147.8c9.6-10.4 22.1-31.1 23.4-34.2 2.6-6.1 1.9-22.2 2.1-31.6v-.3c-1.3-29.9-20.7-46.4-43.2-46.4S58.1 51.8 56.9 81.7v.3c.1 9.4-.6 25.5 2 31.6 1.3 3.1 13.8 23.8 23.4 34.2 5.5 6.1 8.4 6.5 17.7 6.5s12.2-.4 17.7-6.5zm-30.3 1.4c-1.2-.9-2.3-2-3.4-3.2-2.3-2.4-4.4-6-6.5-8.6-4.2-5.3-8.1-10.8-11.9-16.3-.9-1.4-1.9-2.8-2.8-4.2-.5-.7-.9-1.4-1.3-2.1l-.6-1c-.2-.3-.4-.6-.5-1-.6-1.3-.9-2.9-1.2-4.5s-.5-3.3-.7-4.9c-.6-6.7-.7-13.5-.8-20.3 0-6.7 1.1-13.4 3.6-19.7.1-.4.3-.8.4-1.2l.6-1.1 1.1-2.2c.3-.8.8-1.4 1.3-2.2l1.3-2.1 1.5-2c.5-.6 1-1.3 1.6-1.9 1.2-1.2 2.2-2.4 3.5-3.4.6-.5 1.3-1.1 1.9-1.6l2-1.4 1-.7c.3-.2.7-.4 1.1-.6l2.1-1.2c.7-.4 1.5-.6 2.2-1 .8-.3 1.5-.7 2.3-.9 1.6-.5 3.1-1 4.7-1.3 6.3-1.4 12.9-1.5 19.2-.1l2.4.5 2.3.7c1.6.4 3 1.1 4.5 1.7.8.3 1.4.8 2.1 1.1.7.4 1.5.7 2.1 1.2 1.3.9 2.8 1.7 4 2.8 5.1 4.1 9.3 9.5 12 15.6 2.7 6.1 4.1 12.9 4.4 19.6-.1 3.4-.1 6.8-.2 10.2-.1 3.4-.2 6.8-.6 10.2-.3 3.3-.8 6.8-1.8 9.8l-.5 1.1c-.2.3-.4.7-.6 1-.4.7-.9 1.4-1.3 2.1-.9 1.4-1.9 2.8-2.9 4.2-2 2.8-4 5.5-6 8.2-1 1.3-2 2.7-3.1 4-1 1.3-2.1 2.7-3.1 4-2.1 2.6-4.2 6.2-6.5 8.6-2.2 2.5-4.4 4.7-6.9 5.5-2.5.9-5.8.9-9.2.9-3.3 0-6.8.1-9.4-.6-1.1-.2-2.2-.8-3.4-1.7z" fill="#c8837c" stroke-width="none" opacity="1" stroke="none"></path></g></g><g id="svga-group-mouth-single-move" transform="matrix(1,0,0,1,0,0)"><g id="svga-group-mouth-single" transform="matrix(1,0,0,1,0,0)"><path id="SvgjsPath10326" d="M89.47 129.26c7.15 4.25 15.5 3.75 21.52.68.34-.17.08-.61-.24-.56-3.56.54-6.71 1.36-10.36 1.39-3.63.03-7.5-.8-10.8-1.91-.31-.1-.22.35-.12.4z" fill="#d7a19b" stroke-width="none" opacity="1" transform="translate(0 2)" stroke="none"></path><path id="SvgjsPath10327" d="M108.72 128.48c-2.29.41-4.47 1.09-6.8 1.27-2.34.18-4.58-.1-6.9-.33-.24-.02-.29.35-.08.41 4.27 1.17 9.93 1.12 13.97-.81.32-.15.12-.59-.19-.54z" fill="#fef7f6" stroke-width="none" opacity="1" transform="translate(0 2)" stroke="none"></path><path id="SvgjsPath10328" d="M99.53 122.55c-3.63-.05-7.67.28-9.65.6-3.06.5-4.82-.23-4.95.4-.09.41 5.65 1.29 7.28 1.43 1.63.13 4.66 1.62 7.09 1.88 2.43.27 4.02-.95 5.95-1.39 1.93-.43 6.6-.78 8.04-1 1.9-.26 3.41-1.29.32-1.14-.46.02-.93.01-1.39-.03-2.66-.26-8.31-.69-12.69-.75z" fill="#e28c7c" stroke-width="none" opacity="1" transform="translate(0 2)" stroke="none"></path></g></g><g id="svga-group-eyes-left-move" transform="matrix(1,0,0,1,0,0)"><g id="svga-group-eyes-left" transform="matrix(1,0,0,1,0,0)"><g id="svga-group-eyesback-left"><path id="SvgjsPath10188" d="M89.9 95.2s-.4-2-1.4-3.1c-1-1-5.3-3-8.5-3.7 0 0-3.8 1.6-6.6 5-2.8 3.5-3.2 5.3-3.2 5.3s4.8.7 7.1.7 7.7-1.1 9.8-2.4c2.2-1.3 2.8-1.8 2.8-1.8z" fill="#ffffff" stroke-width="none" opacity="1"></path></g><g id="svga-group-eyesiriswrapper-left" transform="matrix(1,0,0,1,0,0)"><g id="svga-group-eyesiriscontrol-left" transform="matrix(1,0,0,1,0,0)"><g id="svga-group-eyesiris-left" transform="matrix(1,0,0,1,0,0)"><path id="SvgjsPath10248" d="M80.1 88.1c3 0 5.5 2.4 5.5 5.5S83.1 99 80.1 99s-5.5-2.4-5.5-5.5 2.4-5.4 5.5-5.4z" fill="#282978" stroke-width="none" opacity="1"></path><path id="SvgjsPath10249" d="M80.1 99.3c-3.2 0-5.7-2.6-5.7-5.7 0-3.2 2.6-5.7 5.7-5.7 3.2 0 5.7 2.6 5.7 5.7s-2.6 5.7-5.7 5.7zm0-11c-2.9 0-5.2 2.3-5.2 5.2s2.3 5.2 5.2 5.2 5.2-2.3 5.2-5.2c-.1-2.8-2.4-5.2-5.2-5.2z" fill="#0c0d59" stroke-width="none" opacity="1"></path><path id="SvgjsPath10250" d="M80.1 90.6c1.6 0 2.9 1.3 2.9 2.9s-1.3 2.9-2.9 2.9-2.9-1.3-2.9-2.9 1.2-2.9 2.9-2.9z" fill="#000000" stroke-width="none" opacity="1"></path><path id="SvgjsPath10251" d="M78.7 90.5c.6 0 1 .5 1 1s-.5 1-1 1-1-.5-1-1 .5-1 1-1zm3.4 4.7c.2 0 .4.2.4.4s-.2.4-.4.4-.4-.2-.4-.4.2-.4.4-.4z" fill="#ffffff" stroke-width="none" opacity="1"></path></g></g></g><g id="svga-group-eyesfront-left"><path id="SvgjsPath10196" d="M69.4 94.6c0 6.4 4.7 11.5 10.6 11.5s10.6-5.2 10.6-11.5S85.9 83.1 80 83.1s-10.6 5.1-10.6 11.5zm.9 4.1s.4-1.8 3.2-5.3c2.8-3.5 6.6-5 6.6-5 3.1.7 7.5 2.6 8.5 3.7s1.4 3.1 1.4 3.1-.7.5-2.8 1.8c-2.1 1.3-7.5 2.4-9.8 2.4-2.3.1-7.1-.7-7.1-.7z" fill="#f6e4e2" stroke-width="none" opacity="1" stroke="none"></path><path id="SvgjsPath10197" d="m89.6 95.6.9-.6v.1c.8 4.4-3.8 7.5-7.4 8.8-.2.1-.3-.2-.1-.3 2.9-2 7.2-4.2 6.6-8z" fill="#e7c1bd" stroke-width="none" opacity="1" stroke="none"></path><path id="SvgjsPath10198" d="M69.1 100.9c.5-.6.9-1.2 1.3-1.9 6.3 1.8 14.9.8 20-3.9l.1-.1c.1-.1.1-.1.1-.2-.8-4.1-5.4-6.1-9.2-6.5 2.4-.8 5-.8 7.8-.5.6.1.8-.9.3-1.2-8.7-4.4-18.4 6.6-21 13.8-.3.7.4.9.6.5zm1.7-2.4c1.8-2.8 3.4-5.7 6.2-7.8 1.1-.8 2.2-1.4 3.3-1.8l.1.1c3.3 1.2 7.7 1.7 9 5.7.1.2.1.4.2.6-2.9 1.8-6.1 3.3-9.4 3.6-3.2.2-6.3-.5-9.4-.4z" fill="#153a4d" stroke-width="none" opacity="1" stroke="none"></path></g></g></g><g id="svga-group-eyes-right-move" transform="matrix(1,0,0,1,0,0)"><g id="svga-group-eyes-right" transform="matrix(1,0,0,1,0,0)"><g id="svga-group-eyesback-right"><path id="SvgjsPath10189" d="M110.1 95.2s.4-2 1.4-3.1c1-1 5.3-3 8.5-3.7 0 0 3.8 1.6 6.6 5 2.8 3.5 3.2 5.3 3.2 5.3s-4.8.7-7.1.7-7.7-1.1-9.8-2.4c-2.2-1.3-2.8-1.8-2.8-1.8z" fill="#ffffff" stroke-width="none" opacity="1"></path></g><g id="svga-group-eyesiriswrapper-right" transform="matrix(1,0,0,1,0,0)"><g id="svga-group-eyesiriscontrol-right" transform="matrix(1,0,0,1,0,0)"><g id="svga-group-eyesiris-right" transform="matrix(1,0,0,1,0,0)"><path id="SvgjsPath10252" d="M119.9 88.1c3 0 5.5 2.4 5.5 5.5S123 99 119.9 99s-5.5-2.4-5.5-5.5 2.5-5.4 5.5-5.4z" fill="#282978" stroke-width="none" opacity="1"></path><path id="SvgjsPath10253" d="M119.9 99.3c-3.2 0-5.7-2.6-5.7-5.7 0-3.2 2.6-5.7 5.7-5.7 3.2 0 5.7 2.6 5.7 5.7s-2.5 5.7-5.7 5.7zm0-11c-2.9 0-5.2 2.3-5.2 5.2s2.3 5.2 5.2 5.2 5.2-2.3 5.2-5.2c0-2.8-2.3-5.2-5.2-5.2z" fill="#0c0d59" stroke-width="none" opacity="1"></path><path id="SvgjsPath10254" d="M119.9 90.6c1.6 0 2.9 1.3 2.9 2.9s-1.3 2.9-2.9 2.9-2.9-1.3-2.9-2.9 1.3-2.9 2.9-2.9z" fill="#000000" stroke-width="none" opacity="1"></path><path id="SvgjsPath10255" d="M118.6 90.5c.6 0 1 .5 1 1s-.5 1-1 1-1-.5-1-1 .5-1 1-1zm3.4 4.7c.2 0 .4.2.4.4s-.2.4-.4.4-.4-.2-.4-.4.2-.4.4-.4z" fill="#ffffff" stroke-width="none" opacity="1"></path></g></g></g><g id="svga-group-eyesfront-right"><path id="SvgjsPath10199" d="M120 83.1c-5.9 0-10.6 5.2-10.6 11.5s4.7 11.5 10.6 11.5 10.6-5.2 10.6-11.5-4.8-11.5-10.6-11.5zm2.6 16.3c-2.3 0-7.7-1.1-9.8-2.4-2.1-1.3-2.8-1.8-2.8-1.8s.4-2 1.4-3.1 5.3-3 8.5-3.7c0 0 3.8 1.6 6.6 5 2.8 3.5 3.2 5.3 3.2 5.3s-4.8.8-7.1.7z" fill="#f6e4e2" stroke-width="none" opacity="1" stroke="none"></path><path id="SvgjsPath10202" d="m110.4 95.6-.9-.6v.1c-.8 4.4 3.8 7.5 7.4 8.8.2.1.3-.2.1-.3-2.9-2-7.2-4.2-6.6-8z" fill="#e7c1bd" stroke-width="none" opacity="1" stroke="none"></path><path id="SvgjsPath10203" d="M131.6 100.6c-2.6-7.3-12.3-18.2-21-13.8-.5.3-.3 1.2.3 1.2 2.7-.3 5.3-.3 7.8.5-3.8.4-8.5 2.4-9.2 6.5 0 .1 0 .1.1.2l.1.1c5.1 4.7 13.7 5.7 20 3.9.4.6.8 1.3 1.3 1.9.1.2.8 0 .6-.5zm-11.7-1.8c-3.4-.3-6.6-1.9-9.4-3.6 0-.2.1-.4.2-.6 1.3-4 5.7-4.4 9-5.7l.1-.1c1.1.4 2.2 1 3.3 1.8 2.8 2.1 4.4 5 6.2 7.8-3.2 0-6.3.7-9.4.4z" fill="#153a4d" stroke-width="none" opacity="1" stroke="none"></path></g></g></g><g id="svga-group-facehighlight-single"></g><g id="svga-group-eyebrows-left-move" transform="matrix(1,0,0,1,0,0)"><g id="svga-group-eyebrows-left-rotate" transform="matrix(1,0,0,1,0,0)"><g id="svga-group-eyebrows-left" transform="matrix(1,0,0,1,0,0)"><path id="SvgjsPath10113" d="M67.6 82.5c.1-.5.6-.7 1-1 .3-.2.7-.5 1-.7 0-.1 0-.2.1-.3 1.1-1.1 2.9-1.6 4.4-2.1.8-.8 2.1-.7 3.3-.4 1.4-.5 3.4.2 4.5.9.1.1.2.1.2.2.1 0 .3.1.4.1.8.2 1.4.4 1.9 1 1.2.5 2.4 1.1 3.2 2.1.6.2 1.2.5 1.7 1 .2.1.4.2.5.4h.2c.2 0 .4.2.6.3v-.2c-.1-.2.2-.3.3-.1.5.7.6 1.8.1 2.5 0 .1-.1.3-.1.4-.3.4-.6.5-.9.5-.6.2-1.2.2-1.7-.2-2-.1-4.2-1.3-5.9-2.3-.9-.5-2.5-1.3-3.5-2.3-.9-.1-1.8-.3-2.7-.5-1.1-.2-2.3-.2-3.3-.6-.2.1-.4.1-.6.2-.5.3-1.1.6-1.6.8-.6.3-1.2.6-1.9.6-.3 0-.5.2-.8.2-.3 0-.5-.3-.4-.5z" fill="#504543" stroke-width="none" opacity="1"></path><path id="SvgjsPath10114" d="M85.9 81.1c0-.1.1-.3.3-.1 1.3 1.3 1.8 3.6 1 5.3-.1.2-.4.1-.4-.1-.1-.1-.1-.2-.2-.3-.1-.1.1-.2.2-.2h.1c.1-.7.2-1.4 0-2.1-.2-.8-.6-1.6-1-2.5zm1.8.7c1.3 1.2 2.6 3.4 1.9 5.3-.1.2-.4.2-.4-.1.1-2-.9-3.2-1.8-4.9-.2-.3.1-.5.3-.3zm-8-3.4c3.3.5 5.1 4.2 5.8 7.1.1.2-.2.3-.3.1-.7-1.2-1.1-2.6-1.9-3.8-1-1.4-2.4-2.2-3.7-3.1-.2-.1-.1-.3.1-.3zm-2.6-.7c1.1 1 1.8 2.4 2.8 3.5 1.1 1.2 2.3 2.1 3.6 3 .2.1 0 .4-.2.3-2.9-1.3-4.9-3.8-6.7-6.4-.3-.3.2-.6.5-.4zm-2.4.3c.8.1 1.3.9 1.8 1.5.4.5.7 1 1.3 1.3.5.3.9.6 1.3 1 .2.2-.1.5-.3.3-.8-.6-1.7-.9-2.4-1.7-.3-.3-.5-.7-.8-1.1-.3-.4-.7-.6-1-1-.2 0-.1-.3.1-.3zm-5.3 3c1.5-1.4 4.2-1.4 5.8-.2.2.1.1.4-.2.4-1.1-.3-2.1-.6-3.3-.4-.8.2-1.4.6-2.2.6-.2-.1-.3-.3-.1-.4z" fill="#5f5a59" stroke-width="none" opacity="1"></path><path id="SvgjsPath10115" d="M90.6 82.6c-.1-.1-.2 0-.2.1.2.7.7 1.5.7 2.3 0 1.6-1.5 1.9-2.7 1.6-.6-.1-1.2-.3-1.8-.6.3-1.7-.2-3.7-1.2-5.3 1.5 1 2.9 2.3 4.5 2.9.2.1.4-.2.3-.4-1.3-1.9-4.1-3.2-6.1-4.2-2.2-1.1-4.4-1.8-6.9-1.7-2.3 0-4.5.6-6.4 1.9-2.1 1.4-3.7 3.3-5.5 4.9-.4.4.2 1 .7.7 2.6-2.2 5.9-3.2 9.3-2.8 3.2.4 5.8 2.3 8.5 3.8 1.8 1 4.7 2.5 6.8 1.6 2-1 1.1-3.5 0-4.8zm-14.1-4.4c-.1.1-.1.1-.1.2.3 1 1 1.9 1.7 2.7.2.3.4.5.6.8-.3-.1-.6-.2-.8-.3-.1 0-.2-.1-.3-.1-1.2-.7-2.2-1.6-3.4-2.4-.1-.1-.3.1-.2.2.5.7 1.1 1.3 1.8 1.7-.2 0-.5-.1-.7-.1-.2-.1-.3-.2-.5-.3-.1-.1-.2-.1-.3-.2-.1 0-.2-.1-.3-.1-.1-.1-.2.1-.1.2l.2.2c.1.1.2.1.2.1-2.1-.1-4.2.4-6.2 1.3 2.4-2.1 5.2-3.6 8.4-3.9zm9.5 7.6c-.6-.2-1.1-.5-1.6-.8-1.4-.8-2.9-1.7-4.3-2.5-.5-.6-.9-1.2-1.4-1.8-.6-.8-1.1-1.8-1.8-2.5h.8c2.4.1 4.5.9 6.6 2 .5.9 1 1.8 1.3 2.8.3.9.3 1.9.4 2.8z" fill="#413230" stroke-width="none" opacity="1"></path></g></g></g><g id="svga-group-eyebrows-right-move" transform="matrix(1,0,0,1,0,0)"><g id="svga-group-eyebrows-right-rotate" transform="matrix(1,0,0,1,0,0)"><g id="svga-group-eyebrows-right" transform="matrix(1,0,0,1,0,0)"><path id="SvgjsPath10116" d="M132.4 82.5c-.1-.5-.6-.7-1-1-.3-.2-.7-.5-1-.7 0-.1 0-.2-.1-.3-1.1-1.1-2.9-1.6-4.4-2.1-.8-.8-2.1-.7-3.3-.4-1.4-.5-3.4.2-4.5.9-.1.1-.2.1-.2.2-.1 0-.3.1-.4.1-.8.2-1.4.4-1.9 1-1.2.5-2.4 1.1-3.2 2.1-.6.2-1.2.5-1.7 1-.2.1-.4.2-.5.4h-.2c-.2 0-.4.2-.6.3v-.2c.1-.2-.2-.3-.3-.1-.5.7-.6 1.8-.1 2.5 0 .1.1.3.1.4.3.4.6.5.9.5.6.2 1.2.2 1.7-.2 2-.1 4.2-1.3 5.9-2.3.9-.5 2.5-1.3 3.5-2.3.9-.1 1.8-.3 2.7-.5 1.1-.2 2.3-.2 3.3-.6.2.1.4.1.6.2.5.3 1.1.6 1.6.8.6.3 1.2.6 1.9.6.2.2.5.3.8.3.3-.1.5-.4.4-.6z" fill="#504543" stroke-width="none" opacity="1"></path><path id="SvgjsPath10117" d="M114.1 81.1c.1-.2-.1-.3-.2-.2-1.3 1.3-1.8 3.6-1 5.3.1.2.4.1.4-.1.1-.1.1-.2.2-.3.1-.1-.1-.2-.2-.2h-.1c-.1-.7-.2-1.4 0-2.1.1-.7.5-1.5.9-2.4zm-1.8.7c-1.3 1.2-2.6 3.4-1.9 5.3.1.2.4.2.4-.1-.1-2 .9-3.2 1.8-4.9.2-.3-.1-.5-.3-.3zm8-3.4c-3.3.5-5.1 4.2-5.8 7.1-.1.2.2.3.3.1.7-1.2 1.1-2.6 1.9-3.8 1-1.4 2.4-2.2 3.7-3.1.2-.1.1-.3-.1-.3zm2.6-.7c-1.1 1-1.8 2.4-2.8 3.5-1.1 1.2-2.3 2.1-3.6 3-.2.1 0 .4.2.3 2.9-1.3 4.9-3.8 6.7-6.4.3-.3-.2-.6-.5-.4zm2.4.3c-.8.1-1.3.9-1.8 1.5-.4.5-.7 1-1.3 1.3-.5.3-.9.6-1.3 1-.2.2.1.5.3.3.8-.6 1.7-.9 2.4-1.7.3-.3.5-.7.8-1.1.3-.4.7-.6 1-1 .2 0 .1-.3-.1-.3zm5.3 3c-1.5-1.4-4.2-1.4-5.8-.2-.2.1-.1.4.2.4 1.1-.3 2.1-.6 3.3-.4.8.2 1.4.6 2.2.6.2-.1.3-.3.1-.4z" fill="#5f5a59" stroke-width="none" opacity="1"></path><path id="SvgjsPath10118" d="M109.5 87.3c2.1.9 4.9-.6 6.8-1.6 2.8-1.5 5.3-3.4 8.5-3.8 3.4-.4 6.7.6 9.3 2.8.4.4 1.1-.3.6-.7-1.9-1.6-3.4-3.6-5.5-4.9-1.9-1.2-4.1-1.8-6.4-1.9-2.4 0-4.7.7-6.9 1.7-2 1-4.8 2.3-6.1 4.2-.1.2.1.5.3.4 1.6-.6 3-1.9 4.5-2.9-1 1.6-1.6 3.6-1.2 5.3l-1.8.6c-1.3.3-2.7 0-2.7-1.6 0-.8.4-1.6.7-2.3 0-.1-.1-.2-.2-.1-1.1 1.4-2 3.9.1 4.8zm22.3-5.1c-1.9-.9-4-1.4-6.2-1.3.1 0 .2-.1.2-.1l.2-.2c.1-.1 0-.3-.1-.2-.1 0-.2.1-.3.1-.1 0-.2.1-.3.2-.2.1-.4.2-.5.3-.2 0-.5.1-.7.1.7-.5 1.4-1 1.8-1.7.1-.1-.1-.3-.2-.2-1.2.8-2.2 1.7-3.4 2.4-.1 0-.2.1-.3.1-.3.1-.6.2-.8.3.2-.2.4-.5.6-.8.6-.8 1.3-1.7 1.7-2.7 0-.1 0-.2-.1-.2 3.3.2 6.1 1.7 8.4 3.9zm-17.4.8c.3-1 .8-1.9 1.3-2.8 2.1-1.1 4.2-1.9 6.6-2h.8c-.7.7-1.2 1.7-1.8 2.5-.4.6-.9 1.2-1.4 1.8-1.5.8-2.9 1.7-4.3 2.5-.5.3-1.1.6-1.6.8.1-.9.1-1.9.4-2.8z" fill="#413230" stroke-width="none" opacity="1"></path></g></g></g><g id="svga-group-beardwrap" transform="matrix(1,0,0,1,0,0)"><g id="svga-group-beard-single-move" transform="matrix(1,0,0,1,0,0)"><g id="svga-group-beard-single" transform="matrix(1,0,0,1,0,0)"><path id="SvgjsPath10103" d="M83.9 145.3c.7 3.5 3.2 7.2 4.9 9.4 2 2.5 7.1 3.1 7.1 3.1v-.8s.1.8 2.4 1.3 4.6-.1 4.6-.1l1.7-1.4-.1 1.1s2.1-.1 3.7-1.1v1.1s2.7-1.6 5-6.3c2.4-4.7 3.7-5.6 2-8.3-2-3-31.1-5.2-31.3 2z" fill="#504543" stroke-width="none" opacity="1"></path><path id="SvgjsPath10104" d="M90.4 155c-.6-1-1-2.1-1.6-3.1-.1-.1-.3-.1-.3.1.2.7.5 1.4.9 2-.8-.7-1.5-1.5-2.1-2.4-1.6-2.3-2.3-4.9-3-7.5-.1-.2-.3-.1-.3 0 0 5.2 4 11.6 9 13.4.2.1.4-.2.2-.4-1-.7-1.9-1.3-2.8-2.1zm6.1.6c-.1-.2-.4-.1-.3.1.1.8.3 1.5.7 2.3-1.9-2.2-3.6-4.4-4.7-7.2-.1-.2-.3-.1-.3.1.6 2.4 1.8 4.8 3.5 6.7-.7-.3-1.4-.6-2-1.2-.8-.7-1.6-1.5-2.3-2.3-.1-.1-.4.1-.3.2 1.2 1.7 3 4.2 5.3 4 .4.4.9.8 1.4 1.1 0 .1.1.1.1.2.1.2.5 0 .4-.2-.5-1.2-.9-2.6-1.5-3.8zm1.4 1.5c-.2-.3-.6 0-.4.3.4.7 1 1.4 1.8 1.6.2 0 .3-.2.2-.3-.6-.6-1.2-1-1.6-1.6zm-9.8-7.1c.2.2.5-.1.4-.4-1.3-1.8-2.4-3.4-3.2-5.5-.1-.2-.4-.1-.4.1.3 2.2 1.4 4.5 3.2 5.8zm.5-1.5c.3 1 .9 2.3 1.9 2.7.2.1.4-.2.3-.4-.3-.4-.7-.7-1-1.1-.3-.4-.6-.9-.8-1.4 0-.2-.4-.1-.4.2zm13.3 7.1c-.3 1-.5 2-.9 2.9-.1.1.1.3.2.1.6-.9 1-1.9 1-3 0-.2-.3-.2-.3 0zm2-2.3c-.7 1.8-1.3 3.5-2.4 5.1-.1.2.2.4.3.3 1.3-1.4 2.5-3.3 2.6-5.2.1-.5-.4-.5-.5-.2zm.7 1.8c-.3.4-.5 1-.7 1.5-.3.5-.5.9-.9 1.4-.2.2.2.5.4.3.8-.8 1.7-1.9 1.8-3-.1-.4-.5-.4-.6-.2zm1.8.1c-.4.3-.7.8-1 1.2-.4.4-.8.8-1.2 1.1-.3.2 0 .8.3.5.5-.3 1-.7 1.4-1.2.4-.4.8-.9.9-1.5.1-.1-.2-.2-.4-.1zm5.3-6.2c.1-.3-.4-.6-.6-.2-1.4 3-2.5 6.5-5.2 8.6-.2.2.1.5.3.4 3-1.6 4.9-5.8 5.5-8.8zm1.3.4c-1.6 2.4-2.6 5.1-4.4 7.3.1-.2.1-.4.2-.6 0-.2-.2-.3-.4-.1-.3.5-.5 1.1-.7 1.6v.1c0 .2.2.4.3.2 2.7-1.9 4.3-5.3 5.3-8.4.1-.2-.2-.3-.3-.1zm2.1-5.8c0-.4-.6-.4-.6 0-.2 3.4-.8 6.6-2.5 9.6-.1.2.2.3.2.1 1.9-2.8 3.1-6.2 2.9-9.7zm-20.4 7.7c-1.5-2.4-2.8-4.5-3.4-7.3-.1-.4-.8-.2-.7.2.5 2.7 1.6 5.6 3.6 7.5.2.2.6-.1.5-.4zm2.5 3c-1.1-2.2-2.4-4.2-3.4-6.4-.1-.2-.3-.1-.3.1.7 2.3 1.7 4.8 3.3 6.6.3.2.6 0 .4-.3zm1.2.5c-.1-.2-.2-.4-.2-.6-.1-.2-.1-.5-.2-.7-.1-.2-.1-.4-.2-.6-.2-.7-.2-1.3-.4-2-.1-.2-.4-.2-.4.1-.1 1.4.5 2.8 1.1 4 .1.1.4 0 .3-.2zm-8.9-9.1c-.4-1-1-2-1.4-3.1-.1-.1-.3-.1-.2.1.3 1.1.7 2.2 1.4 3.1 0 .1.3.1.2-.1zm11.5 10.2c.2-1.3.3-2.6.4-3.9 0-.1-.1-.1-.1 0-.1 1.3-.4 2.6-.4 3.9h.1zm-.7-1.5c0-.2-.4-.2-.4 0-.3.8-.3 1.8-.4 2.7-.4-.6-.8-1.2-1.2-1.9-.1-.1-.3 0-.2.1 0 .1.1.3.1.4 0 .1.1.2.1.3v.1c0 .1.1.1.1.2.3.8.8 1.6 1.5 2.1.1.1.3 0 .2-.2-.1-.3-.3-.6-.5-.8.5-.9.9-2 .7-3zm3.1-4.3c.4-1.6.5-3.3.6-5 0-.5-.7-.5-.7 0-.1 1.6-.3 3.3-.4 4.9 0 .4.5.4.5.1zm1.7 3.2c.8-1.7 1.2-3.7 1.4-5.6 0-.2-.4-.2-.4 0-.2 1.9-.7 3.6-1.3 5.4 0 .2.3.3.3.2zm3.8-3.1c.7-2 .9-4.2.7-6.4 0-.2-.3-.2-.3 0 .1 2.1-.3 4.2-.7 6.3 0 .2.3.3.3.1zM98.5 146c0-.7-.2-1.4-.2-2.1 0-.2-.3-.1-.3 0 .1.7.1 1.5.3 2.1 0 .1.2.1.2 0zm-1.9 1.2c0-1.6-.3-3.1-.2-4.7 0-.3-.4-.3-.4 0 0 1.6-.1 3.2.3 4.7 0 .3.3.3.3 0zm4.6 9.5c-.1-.2-.4-.2-.4 0-.2.6-.3 1.3-.3 1.9 0 .2.3.3.4.1.2-.6.4-1.4.3-2z" fill="#413230" stroke-width="none" opacity="1"></path></g></g></g><g id="svga-group-mustache-single-move" transform="matrix(1,0,0,1,0,0)"><g id="svga-group-mustache-single" transform="matrix(1,0,0,1,0,0)"></g></g><g id="svga-group-nose-single-move" transform="matrix(1,0,0,1,0,0)"><g id="svga-group-nose-single" transform="matrix(1,0,0,1,0,0)"><path id="SvgjsPath10306" d="M105.29 106.89c.58.27 1.23 1.04 1.94 3.17s1.23 3.69 1.37 4.83c.14 1.14-.99 2.32-1.71 2.46s-1.28-.33-1.56-1.09-.38-1.89-1.23-2.42c0 0-.81 2.27-1.52 2.79s-1.94 1.71-3.65.85c-1.71-.85-1.94-2.08-2.08-2.13-.14-.05-1.28 1.52-1.85 1.89-.57.38-2.37.95-3.13 0-.76-.95-.09-4.59.09-5.73.19-1.14.9-3.74 1.61-4.36.71-.62 1.71-.76 2.37-.33 0 0 .14-3.17.52-4.64.38-1.47 2.37-2.08 4.22-1.89s3.17.71 3.5 1.8c.35 1.1.4 4.46 1.11 4.8z" fill="#f6e4e2" stroke-width="none" opacity="1" transform="translate(0 1)" stroke="none"></path><path id="SvgjsPath10307" d="M96.01 116.09c-.3.22-.45.35-.75.57-.21.16-.43.32-.64.48-.58.5-1.14.44-1.69-.18-1.07-.57-1.09-.69-1.06-1.78.01-.5.08-1.02.14-1.52.17-1.47.94-7.73 3.61-6.8h.02c0 .31 0 .61.01.92.01.27.42.35.48.07.69-2.93.68-6.14.96-9.14.3-3.15.99-6.54.77-9.7-.01-.15-.23-.2-.28-.04-.78 2.89-.76 6.14-1.06 9.11-.28 2.74-.82 5.61-.88 8.4-3.37-1.25-4.22 6.04-4.41 7.99-.13 1.31-.17 3.14 1.35 3.68 1.5.53 2.91-.64 3.66-1.82.1-.14-.09-.34-.23-.24z" fill="#c8837c" stroke-width="none" opacity="1" transform="translate(0 1)" stroke="none"></path><path id="SvgjsPath10308" d="M105.17 115.05c.11.18.15.22.3.33.11.08.26.01.33-.09.03-.04.05-.08.07-.12.07-.16-.01.02.02-.09.03-.15.03-.25-.03-.4-.09-.24-.26-.46-.45-.62-.32-.27-.74-.44-1.16-.4.01-.1.03-.2.03-.29 0-.18-.24-.24-.33-.09-.89 1.4-1.09 3.44-2.94 4.03-2.21.71-3.7-1.7-4.66-3.3.07-.1.08-.25-.02-.33-.86-.72-2.64.33-2.55 1.42.03.3.34.42.57.24.32-.25.51-.6.87-.8.26-.14.54-.23.81-.35.74 2.01 2.24 4.33 4.72 3.96 1.81-.27 3.09-2.13 3.43-3.9.28.08.54.19.75.42.09.11.16.25.24.38z" fill="#c8837c" stroke-width="none" opacity="1" transform="translate(0 1)" stroke="none"></path><path id="SvgjsPath10309" d="M107.09 109.08c-.39-.91-.85-2.69-2.05-2.36.04-1.46-.39-2.97-.53-4.42-.14-1.35-.13-2.72-.32-4.07-.02-.12-.17-.07-.19.03-.22 1.63-.03 3.34.18 4.97.15 1.17.26 2.44.77 3.52-.05.02-.1.03-.15.05-.12.06-.03.22.08.2 1.32-.24 2.37 3.95 2.68 4.9.28.87.64 1.86.66 2.78.03 1.4-1.56 3.39-2.71 1.5-.14-.24-.45-.07-.42.18.14.97 1.15 1.48 2.07 1.24 1.25-.33 1.77-1.73 1.71-2.91-.08-1.88-1.05-3.9-1.78-5.61z" fill="#c8837c" stroke-width="none" opacity="1" transform="translate(0 1)" stroke="none"></path><path id="SvgjsPath10310" d="M103.73 108.8c-.04-1.57-.42-3.09-.82-4.6-.39-1.48-.61-3.13-1.39-4.47-.18-.31-.73-.28-.8.11-.45 2.35.25 5.03.38 7.41.06 1.21.11 2.45-.17 3.63-.26 1.1-.87 2.06-1.2 3.13-.17.55.41 1.19.98.98 2.41-.87 3.07-3.87 3.02-6.19z" fill="#fef7f6" stroke-width="none" opacity="1" transform="translate(0 1)" stroke="none"></path></g></g><g id="svga-group-hair-front" transform="matrix(1,0,0,1,0,0)"><path id="SvgjsPath10349" d="M137.8 58.2s3.6 2.5 3.7 7.5c0 0 1.7.8 1.6 6 0 0 1.4 2.5 1 6.3 0 0 .7 1.7.1 4-.2.7.7 3.6.2 4.5-3.4 5.5-5.6 4.5-5.6 4.5s-1.3-.7-.4-2.9c0 0-2.7.4-1.2-5.4 0 0-1.8-.3-1.2-3.5 0 0-1.7-1.8-.4-5.4 0 0-1.4-2-.1-4.3-.1 0 2-7.3 2.3-11.3zm-75.6 0s-3.6 2.5-3.7 7.5c0 0-1.7.8-1.6 6 0 0-1.4 2.5-1 6.3 0 0-.7 1.7-.1 4 .2.7-.7 3.6-.2 4.5C59 92 61.3 91 61.3 91s1.3-.7.4-2.9c0 0 2.7.4 1.2-5.4 0 0 1.8-.3 1.2-3.5 0 0 1.7-1.8.4-5.4 0 0 1.4-2 .1-4.3 0 0-2.1-7.3-2.4-11.3z" fill="#504543" stroke-width="none" opacity="1" stroke="none"></path><path id="SvgjsPath10350" d="M136.2 70.3c.1-.9.1-1.9.2-2.8-.3.8-.6 1.6-1 2.2-.1.1-.2 0-.2-.1.4-2 1.1-3.8 1.4-5.8.3-2 .4-4 .7-6 0-.2.2-.2.3-.2h.1c2.6 1.1 4.2 5 4.3 8.4.1-.2.4-.3.5-.1.8 1.4 1 3.3.9 5.2.8 1.9 1.1 4.1.9 6.1 0 0 .1 0 .1.1.3 1.4.4 3.2.1 5 2.3 3.2-1.8 8.4-4.6 9.3-.3.1-.4-.3-.3-.5.9-1.2 2.3-1.9 3.2-3.1 1.1-1.4 1.3-2.8 1.3-4.3-.6 2.3-1.8 4.5-3.4 5.6-.1.1-.2-.1-.2-.2 1-1.9 2.2-3.3 2.9-5.4.5-1.6.6-3.3.7-5-.1.5-.2 1-.4 1.4-.1.2-.4.2-.4-.1.2-2.6.2-4.9-.1-7.4-.2.9-.5 1.8-.8 2.5-.1.3-.5.1-.4-.2.3-1.5.6-3.2.6-4.7 0-1.3-.4-2.6-.4-3.9 0 1.1-.1 2.1-.4 2.9-.1.2-.4.1-.4-.1-.1-2.1 0-4.1-.7-6.1-.6-1.8-1.7-2.9-2.6-4.3 0 2.6-.4 5.4-1.2 7.9.1 0 .3 0 .3.2.6 2.2-.1 5.1-1.2 6.9-.1.2-.5.1-.4-.2 0-1 .4-2.1.6-3.2zm1.9 3.2c.4-1.8.4-3.6.6-5.4 0-.2.4-.2.4 0 .4 2.2.1 4.8-.7 7.2.1 0 .2.1.2.2.2 2.5-.4 5.1-1.3 7.3-.1.2-.3.1-.3-.1.6-2.2.8-4.3 1-6.5-.5 1.2-1.1 2.3-1.8 3.2-.2.3-.6-.1-.4-.3 1-1.9 1.8-3.6 2.3-5.6zm3.1 7c.1-.3.5-.3.5.1-.2 2.8-1.5 5.4-3.1 7.6-.1.2-.5-.1-.4-.3 1.5-2.4 2.2-4.8 3-7.4zm-.6 5.6c.1-.2.4-.2.4.1-.1 1.8-.8 3.8-2.1 5-.2.2-.5 0-.4-.3.7-1.6 1.4-3.1 2.1-4.8zM63.8 70.3c-.2-.9-.2-1.9-.2-2.8.3.8.6 1.6 1 2.2.1.1.2 0 .2-.1-.4-2-1.1-3.8-1.4-5.8-.3-2-.4-4-.7-6 0-.2-.2-.2-.3-.2-2.5 1.1-4.2 5-4.3 8.4 0-.2-.4-.3-.5-.1-.8 1.4-1 3.3-.9 5.2-.8 1.9-1.1 4.1-.9 6.1 0 0-.1 0-.1.1-.3 1.4-.3 3.2 0 5-2.3 3.2 1.8 8.4 4.6 9.3.3.1.4-.3.3-.5-.8-1.2-2.3-1.9-3.2-3.1-1.1-1.4-1.3-2.8-1.3-4.3.6 2.3 1.8 4.5 3.4 5.6.1.1.2-.1.2-.2-1-1.9-2.2-3.3-2.8-5.4-.5-1.6-.6-3.3-.7-5 .1.5.2 1 .4 1.4.1.2.4.2.4-.1-.2-2.6-.2-4.9.1-7.4.2.9.5 1.8.8 2.5.1.3.5.1.4-.2-.3-1.5-.6-3.2-.6-4.7 0-1.3.3-2.6.4-3.9 0 1.1.1 2.1.4 2.9.1.2.4.1.4-.1.1-2.1 0-4.1.7-6.1.6-1.8 1.7-2.9 2.6-4.3 0 2.6.4 5.4 1.2 7.9-.1 0-.3 0-.3.2-.6 2.2.1 5.1 1.2 6.9.1.2.5.1.4-.2-.4-1-.7-2.1-.9-3.2zm-1.9 3.2c-.4-1.8-.4-3.6-.6-5.4 0-.2-.4-.2-.4 0-.4 2.2-.1 4.8.7 7.2-.1 0-.2.1-.2.2-.2 2.5.4 5.1 1.3 7.3.1.2.3.1.3-.1-.6-2.2-.8-4.3-1-6.5.5 1.2 1.1 2.3 1.8 3.2.2.3.6-.1.4-.3-1-1.9-1.8-3.6-2.3-5.6zm-3.1 7c-.1-.3-.5-.3-.5.1.2 2.8 1.5 5.4 3.1 7.6.2.2.5-.1.3-.3-1.4-2.4-2.1-4.8-2.9-7.4zm.7 5.6c-.1-.2-.4-.2-.4.1.1 1.8.8 3.8 2.1 5 .2.2.5 0 .4-.3-.8-1.6-1.6-3.1-2.1-4.8z" fill="#413230" stroke-width="none" opacity="1" stroke="none"></path><path id="SvgjsPath10351" d="M139.8 63.6c-.1-.3-.6-.2-.5.1.6 4.1.6 8.2.1 12.3 0 .2.3.3.4.1 1-4.2 1-8.3 0-12.5zm2.1 8.5c-.5 2.4-1.1 5-1.2 7.5 0 .3.5.4.6.1.7-2.3.9-4.9 1.3-7.4 0-.5-.6-.7-.7-.2zm.2 6.8c0 .7-.3 1.2-.4 1.9 0 .2.2.4.4.2.5-.5.6-1.4.6-2.1 0-.4-.6-.4-.6 0zm-78.5-5.2c-1.1-2.3-2-4.4-2.2-7 0-.3-.5-.3-.5 0 0 2.6.7 5.3 2.3 7.3.2.2.5 0 .4-.3zm-3.8-1c-.1-.4-.7-.2-.6.2.4 1.9.9 3.7 1.8 5.4.1.2.4.1.3-.1-.4-1.9-1-3.6-1.5-5.5zM61.6 84c-.7-1.3-1.5-2.4-1.8-3.8-.1-.3-.5-.2-.5.1.2 1.4.8 3 1.9 4 .2.1.5-.1.4-.3z" fill="#5f5a59" stroke-width="none" opacity="1" stroke="none"></path></g><g id="svga-group-glasses-single-move" transform="matrix(1,0,0,1,0,0)"><g id="svga-group-glasses-single" transform="matrix(1,0,0,1,0,0)"></g></g></g></g></g><rect id="svga-credit-rect" width="200" height="15" x="0" y="185" fill="#ecf0f1" opacity="0.5" style="display: none;"></rect><text id="svga-credit-text" font-family="Avenir Next, Roboto, Helvetica, Arial, sans-serif" font-size="10px" text-anchor="start" font-weight="400" size="10px" anchor="start" weight="400" fill="#333333" x="33.402061462402344" y="182.71133995056152" style="display: none;"><tspan id="SvgjsTspan9642" dy="13" x="33.402061462402344">Created on AvatarMaker.com</tspan></text></g></svg>