<svg xmlns="http://www.w3.org/2000/svg" version="1.1" width="600px" height="600px" viewBox="0 0 200 200" style="overflow:hidden!important;"><defs id="SvgjsDefs10372"></defs><g id="svga-group-wrapper"><g id="svga-group-backs-single"><path id="SvgjsPath11082" d="M0 0h200v200H0V0z" fill="#88a65e" stroke-width="none" opacity="1"></path><path id="SvgjsPath11083" d="M0 70.8 39.2 200l39.2-86.3L0 9.9v60.9zM200 0h-47.6l23 37.5L200 0zm-28.9 104.9 16.5-40.7-70.5-26.8 54 67.5zM51.3 200h101.1v-33.1l-73.9 19.5L51.3 200zm27.2-86.3 73.9 53.2L78.5 0v113.7z" fill="#759746" stroke-width="none" opacity="1"></path><path id="SvgjsPath11084" d="m134.4 0 2 130.8L176.2 0h-41.8zm18 166.9 47.6-14.5v-21.5L171.1 105l-18.7 61.9zm22.9-129.4 12.3 26.8 12.4 6.9V0l-24.7 37.5zm-58.2 0L96.7 26.6 117.1 0 81 18.3 46.7 0h-28l56.2 21.4L0 59.3v93.1L94.8 29l22.3 8.5zM0 200h94.2l42.2-69.2L0 189.1V200z" fill="#648732" stroke-width="none" opacity="1"></path><path id="SvgjsPath11085" d="M104.4 70.8 91.1 13.5 166.2 0 90 8.6 88 0H68.2l3.5 10.6L0 18.7v11.1l73.7-13.2 19.5 59-65.3 28L0 70.8v5.4l24 29.2-24 10.2 24.5-9.6 57.4 69.8L51.3 200h27.2l11.1-14.9 12.3 14.9h7.9l-16.7-19.6 24.1-32.4 17.2 52.1-29.2-125.6 94.8-37v-7.6l-95.6 40.9zm12.7 77.1-30.9 24.4-57.7-67.9 65.7-25.7 22.9 69.2zm70.5 52.1H200l-47.6-95.1 35.2 95.1z" fill="#ffffff" stroke-width="none" opacity="1"></path></g><g id="svga-group-humanwrap-move" transform="matrix(1,0,0,1,0,0)"><g id="svga-group-humanwrap" transform="matrix(1,0,0,1,0,0)"><g id="svga-group-hair-back-move" transform="matrix(1,0,0,1,0,0)"><g id="svga-group-hair-back" transform="matrix(1,0,0,1,0,0)"></g></g><g id="svga-group-humanbody-back"><path id="SvgjsPath10773" d="M166.5 181.1c-10.9-6.6-27.6-8.4-35-12.1-4.9-2.5-9.1-4.7-8.9-17.8s1.9-42.4 1.9-42.4H75.4s1.6 29.4 1.9 42.4-4.2 15.6-8.9 17.8c-7.4 3.5-24.1 5.4-35 12.1-10.8 6.6-10 18.9-10 18.9v19.7h153.3V200c-.1 0 .7-12.3-10.2-18.9z" fill="#8c5537" stroke-width="none" opacity="1" stroke="none"></path></g><g id="svga-group-chinshadow-single"><path id="SvgjsPath11024" d="M93 163.2c2.6 1.6 11.4 1.6 14 .1 4.5-2.5 10.6-9.1 15.6-14 .3-13.8 1.9-40.5 1.9-40.5H75.4s1.4 26.5 1.8 40.3c5.1 4.9 11.2 11.6 15.8 14.1z" fill="#6d3415" stroke-width="none" opacity="0.65" stroke="none"></path></g><g id="svga-group-humanbody-front"><path id="SvgjsPath10774" d="M78.7 156.8c.5 4.8 1.7 9.4 3.1 13.9.8 2.3 1.6 4.6 2.6 6.9.8 2 1.7 4.2 3.1 5.9.3.4 1 0 .9-.5-.5-2.2-1.6-4.3-2.4-6.4-.9-2.2-1.7-4.4-2.5-6.6-1.5-4.4-2.8-8.9-4.1-13.3-.2-.4-.8-.3-.7.1zm41.3-1c-1.3 8.2-3.9 16.1-5.4 24.2-.1.4.4.5.6.2 3.1-7.7 4.1-16.1 5.1-24.3-.1-.2-.3-.2-.3-.1zm-25.8 11.9c-.9 3.6 1.9 8.6 6.2 7.6.5-.1.4-.8 0-1-1.4-.5-2.9-.9-3.9-2.1-1.1-1.2-1.5-2.9-1.4-4.5 0-.4-.8-.5-.9 0z" fill="#6d3415" stroke-width="none" opacity="1" stroke="none"></path><path id="SvgjsPath10775" d="M177.3 219.7c-.1-6.6-.3-13.1-.3-19.7l-.3-.3c.1 0 .1 0 .2.1s.1.2.1.1v-1.4c0-.5-.1-.9-.1-1.4-.1-.9-.3-1.9-.5-2.8-.5-1.8-1.1-3.6-2-5.3-1.7-3.4-4.4-6.2-7.7-8.1-3.6-2.2-7.6-3.8-11.6-5.1-4-1.3-8.1-2.4-12.1-3.5-4-1.2-8.1-2.2-11.8-4.2-1.9-1-3.6-2.1-4.8-3.6-1.2-1.6-1.9-3.5-2.3-5.5-.8-4-.4-8.2-.3-12.4l.7-12.6 1.5-25.2.1-1.4h-1.4c-8.2 0-16.4 0-24.6.1l-24.6.3h-.9l.1.9c.8 11.9 1.6 23.8 2.1 35.7.1 3 .3 6 .2 8.9-.1 2.9-.4 5.9-1.6 8.6-.6 1.3-1.4 2.5-2.4 3.5s-2.3 1.8-3.6 2.4c-2.6 1.3-5.4 2.2-8.3 3-5.8 1.5-11.6 2.8-17.3 4.7-2.8.9-5.7 2-8.4 3.4-1.3.7-2.7 1.4-4 2.4-1.3.9-2.4 1.9-3.5 3.1-2.1 2.3-3.6 5.2-4.5 8.1-.5 1.5-.8 3-1 4.6-.1.8-.1 1.6-.1 2.4v2.3l-.2 17.9v1.3h1.4l38.3.2c12.8.1 25.5.1 38.3 0 12.8-.1 25.6-.1 38.3-.3 12.8-.2 25.6-.5 38.3-.7h.6v-.5zm-77.2-1.6H61.8l-37 .2-.1-16.6v-2.2c0-.7 0-1.4.1-2.1.1-1.4.4-2.8.8-4.2.8-2.7 2.1-5.3 3.9-7.5.9-1.1 2-2.1 3.1-2.9 1.1-.9 2.4-1.6 3.7-2.3 2.6-1.4 5.3-2.5 8.1-3.5 5.6-2 11.4-3.4 17.1-5.1 2.9-.8 5.8-1.7 8.5-3.1 1.3-.7 2.7-1.5 3.8-2.6 1.1-1.1 2-2.4 2.6-3.9 1.2-2.9 1.5-5.9 1.6-8.9 0-3-.1-6-.2-9l-1.3-34.8 23.5.4c7.7.1 15.4.1 23.1.1-.4 7.9-.8 15.9-1.1 23.8-.2 4.2-.2 8.4-.3 12.6 0 4.2-.2 8.5.8 12.8.5 2.1 1.3 4.2 2.8 6 1.4 1.7 3.4 2.9 5.3 3.8 3.9 1.9 8 2.8 12.1 3.8s8.2 2 12.2 3.3c4 1.3 7.9 2.8 11.5 5 3.2 1.9 5.8 4.7 7.5 8 .9 1.6 1.5 3.4 1.9 5.2.2.9.4 1.8.4 2.7.1.5.1.9.1 1.4V200l-.3 19c-12.6-.2-25.1-.5-37.7-.7-12.7-.1-25.5-.1-38.2-.2z" fill="#5e2709" stroke-width="none" opacity="1" stroke="none"></path></g><g id="svga-group-clothes-single"><path id="SvgjsPath10909" d="M44.5 170.9s-16 3.4-20.6 10.1c0 0-3.2-.6-4.2 2.8s-7.2 19.8-4 36.3h168.6c3.2-16.6-3-33-4-36.3-1-3.4-4.2-2.8-4.2-2.8-4.6-6.7-20.6-10.1-20.6-10.1s-57.7-10.8-111 0z" fill="#4b2824" stroke-width="none" opacity="1"></path><path id="SvgjsPath10910" d="m86.7 153-2.3 1.2-.2.1-.1.1c7 .1 13.8 3.8 13.8 3.8l-3.5.2c4.2 2 8.2 6.3 8.2 6.3 1.5-3.6 5.3-5.1 5.3-5.1l-3-.6c3.6-3.9 13.9-7.3 13.9-7.3l-2.6-.6c5.4-4.1 10.9-4.1 10.9-4.1 1.5-1.9 6.9-3 6.9-3l-.9 2.2c3.9-1.1 9.8.8 9.8.8l-2.8 1.1c8.1 3.2 11.9 8.3 11.9 8.3l-3.5.3c6 3.4 9 12.4 9 12.4l-2.4-.2c3.8 7.5 3.2 14.8 3.2 14.8l-2.4-3.2c.4 11.2-8.9 20.9-8.9 20.9 0-2.6-1.4-6.9-1.4-6.9-1.1 3-7.2 9.5-7.2 9.5l.2-3.8c-3.8 4.3-13 7.8-13 7.8.6-1.5.7-5.3.7-5.3-2.1 3.4-7.7 6.6-7.7 6.6L117 207c0 5.4-1.8 9.1-1.8 9.1l-7.8-3.4 1.1 3.4c-11.6-1.9-21-6.8-21-6.8l1.1 2.8c-9.6-1.7-16.3-9.2-16.3-9.2v4.3c-3.6-1.9-7.9-7.9-7.9-7.9l.6 4.9c-8.4-5.4-11.4-15.9-11.4-15.9l-1.9 3.8c-2.4-3.6-3.2-10.5-3.2-10.5l-1.7 3.9c-5.8-6-4.2-12.8-4.2-12.8l-3.3 2.3c-2.1-7.3 3.7-12.7 3.7-12.7l-2.1.6c2.4-7.1 11.1-13.3 11.1-13.3l-1.9-1.1c8.2-5.4 12.8-4.9 12.8-4.9l-1.4-1.9s6.5-1.8 12.1 1.7l3.1 1.4 1.6 3.5 2 1.9 6.4 2.8z" fill="#4b2824" stroke-width="none" opacity="1"></path><path id="SvgjsPath10911" d="m86.7 153-2.3 1.2-.2.1-.1.1c7 .1 13.8 3.8 13.8 3.8l-3.5.2c4.2 2 8.2 6.3 8.2 6.3 1.5-3.6 5.3-5.1 5.3-5.1l-3-.6c3.6-3.9 13.9-7.3 13.9-7.3l-2.6-.6c5.4-4.1 10.9-4.1 10.9-4.1 1.5-1.9 6.9-3 6.9-3l-.9 2.2c3.9-1.1 9.8.8 9.8.8l-2.8 1.1c8.1 3.2 11.9 8.3 11.9 8.3l-3.5.3c6 3.4 9 12.4 9 12.4l-2.4-.2c3.8 7.5 3.2 14.8 3.2 14.8l-2.4-3.2c.4 11.2-8.9 20.9-8.9 20.9 0-2.6-1.4-6.9-1.4-6.9-1.1 3-7.2 9.5-7.2 9.5l.2-3.8c-3.8 4.3-13 7.8-13 7.8.6-1.5.7-5.3.7-5.3-2.1 3.4-7.7 6.6-7.7 6.6L117 207c0 5.4-1.8 9.1-1.8 9.1l-7.8-3.4 1.1 3.4c-11.6-1.9-21-6.8-21-6.8l1.1 2.8c-9.6-1.7-16.3-9.2-16.3-9.2v4.3c-3.6-1.9-7.9-7.9-7.9-7.9l.6 4.9c-8.4-5.4-11.4-15.9-11.4-15.9l-1.9 3.8c-2.4-3.6-3.2-10.5-3.2-10.5l-1.7 3.9c-5.8-6-4.2-12.8-4.2-12.8l-3.3 2.3c-2.1-7.3 3.7-12.7 3.7-12.7l-2.1.6c2.4-7.1 11.1-13.3 11.1-13.3l-1.9-1.1c8.2-5.4 12.8-4.9 12.8-4.9l-1.4-1.9s6.5-1.8 12.1 1.7l3.1 1.4 1.6 3.5 2 1.9 6.4 2.8z" fill="#ffffff" stroke-width="none" opacity="0.9"></path><path id="SvgjsPath10912" d="M59.3 180.9c-.6-1.1-1-2.2-1.4-3.4s-.7-2.4-1-3.6-.6-2.4-.8-3.6c0-.2-.1-.3-.3-.4-.2-.1-.5 0-.6.3l-1.4 3.4c-.4-1.2-.6-2.4-.7-3.7-.1-1.6 0-3.3.3-4.9.3-1.6.7-3.2 1.2-4.9.5-1.6 1.1-3.2 1.8-4.7-.8 1.4-1.5 3-2.1 4.6-.6 1.6-1.1 3.2-1.4 4.9-.3 1.7-.5 3.4-.5 5.1.1 1.7.4 3.4 1.1 5 0 .1.1.2.2.2.2.1.5 0 .6-.2l1.3-2.9c.4 1.9.9 3.9 1.5 5.7.4 1.2.9 2.4 1.5 3.5s1.3 2.2 2.2 3.1c.1.1.2.1.3.1.2 0 .4-.2.4-.4l.2-4.2c.7 1.2 1.4 2.4 2.2 3.5l1.5 2.1c.5.7 1.1 1.4 1.7 1.9-.6-.6-1.1-1.4-1.5-2.1-.5-.7-.9-1.5-1.3-2.2-.8-1.5-1.7-3-2.5-4.5 0-.1-.1-.1-.2-.2-.2 0-.3.1-.3.3l-.4 4.3c-.8-.6-1.2-1.3-1.6-2.1zm7.6-10.3c0 .9.2 1.9.4 2.8.2.9.5 1.8.8 2.7.3.9.8 1.8 1.2 2.6.5.8 1.1 1.6 1.8 2.3.1.1.2.1.3.1.3 0 .5-.2.5-.4l.1-1.2c.2.3.4.6.7.9.5.6 1 1.2 1.6 1.8.6.6 1.1 1.2 1.8 1.6.6.5 1.3 1 2.1 1.3-1.3-.9-2.3-2.1-3.3-3.4-1-1.2-1.9-2.6-2.7-3.9-.1-.1-.2-.2-.4-.2-.3 0-.5.2-.5.4l-.2 1.4c-.9-1.1-1.7-2.4-2.3-3.7-.7-1.6-1.4-3.3-1.9-5.1zm29.8 30.7c-.2-.1-.5 0-.6.2l-.6 1.4c-2.4-1.5-4.8-3-7.3-4.3h-.3c-.1.1-.2.2-.1.4.6.9 1.1 1.8 1.7 2.7l-.9-2.1c2.2 1.6 4.5 3.1 6.8 4.5h.1c.2.1.5 0 .7-.3l.6-1.4c2.6 1.4 5.2 2.8 8 4-2.7-1.8-5.3-3.5-8.1-5.1zm50.2-42-1.9.2c-.1 0-.2.1-.3.1-.2.2-.2.5 0 .7 1.1 1.2 2.1 2.4 3 3.7.5.6.9 1.3 1.3 2 .3.5.6 1.1.9 1.6-.7-.3-1.4-.6-2.1-.8.8.5 1.6.9 2.5 1.4h.2c.1 0 .2-.1.1-.3-.2-.8-.6-1.5-.9-2.3-.4-.7-.8-1.5-1.2-2.1-.7-1.1-1.5-2.2-2.4-3.2l2.3-.3c.1 0 .2-.1.3-.2.1-.2.1-.5-.1-.7-1.4-1-2.9-1.7-4.4-2.3-1.5-.6-3.1-1.2-4.7-1.6 1.5.7 3 1.4 4.4 2.2 1 .7 2 1.3 3 1.9zm2.2 23.1c-.2 1.2-.4 2.5-.8 3.6-.4-.5-.8-1.1-1.2-1.6 0-.1-.1-.1-.1-.1-.2-.1-.5 0-.6.2l-1.6 3.2c-.4.7-.7 1.4-1.1 2.1l-.8-2.3c0-.1-.1-.2-.2-.3-.2-.1-.5-.1-.6.2-.8 1.3-1.6 2.7-2.5 4-.4.6-.9 1.3-1.4 1.9-.4.5-.8 1-1.3 1.5v-2.3l-.3 2.7v.1c.1.1.1.1.2 0 1.3-1 2.3-2.2 3.3-3.5.8-1 1.5-2 2.2-3.1l.8 2.4c0 .1.1.2.2.3.2.1.5.1.7-.2.6-1 1.2-2.1 1.7-3.2.4-.9.8-1.7 1.2-2.6.4.5.9 1.1 1.3 1.6.1.1.1.1.2.1.2.1.4-.1.5-.3.4-1.5.6-3 .7-4.6.1-1.5.1-3.1.1-4.6-.1 1.8-.3 3.4-.6 4.8zm-25.8-25.5.1-.1c.1-.2 0-.5-.2-.6-.3-.1-.7-.3-1-.4.3-.2.6-.5.9-.7.6-.3 1.1-.6 1.8-.9 1.2-.5 2.5-.8 3.9-1-1.4-.3-2.8-.2-4.2.2-1.4.4-2.7 1.1-3.7 2.1-.1.1-.1.1-.1.2-.1.2 0 .5.3.6.4.1.8.3 1.2.4-.8 1.1-1.7 2.2-2.4 3.4 1.2-.9 2.3-2.1 3.4-3.2zm17.1 12.8c.6.7 1.1 1.5 1.6 2.3l.6 1.2-.5-.3c-.1-.1-.2-.1-.4-.1-.3.1-.4.3-.4.6.1.6.2 1.3.3 2s.1 1.3.1 2c-.1 1.1-.2 2.3-.7 3.4l-.6-1.2c-.3-.6-.6-1.1-.9-1.7.2.6.4 1.2.7 1.8.2.6.4 1.2.7 1.8 0 .1.1.1.1.1.1.1.3 0 .4-.1.8-1.2 1.2-2.6 1.3-4.1.1-1.1.1-2.1-.1-3.2l.8.5c.1.1.3.1.4.1.3-.1.4-.4.3-.6-.6-1.9-1.7-3.6-3-5-.7-.7-1.4-1.4-2.1-1.9-.8-.6-1.6-1.1-2.4-1.6 1.3 1.2 2.7 2.5 3.8 4zm-18.1 26.6c.1-.8.2-1.5.3-2.2-.3.9-.5 1.8-.8 2.6v.1c0 .1.2.2.3.1.8-.3 1.6-.8 2.4-1.2.8-.5 1.5-1 2.2-1.5 1.1-.8 2-1.7 3-2.6-.1.6-.1 1.3-.1 2 0 .1 0 .2.1.3.1.2.4.2.6.1 1.1-.8 1.9-1.9 2.7-3 .7-1.1 1.3-2.2 1.8-3.4-.7 1.1-1.5 2.1-2.3 3.1-.6.7-1.2 1.4-1.9 2 .1-.7.2-1.5.2-2.2 0-.1 0-.3-.1-.4-.2-.2-.5-.2-.7 0-1.2 1.2-2.5 2.4-3.8 3.5-1.3.9-2.5 1.9-3.9 2.7zM62.7 163c.7-.3 1.3-.6 1.9-.9.1.9.2 1.9.3 2.8.1.6.2 1.1.3 1.6.1.5.3 1.1.6 1.6-.2-.5-.3-1.1-.4-1.6-.1-.6-.1-1.1-.1-1.7-.1-1.1-.1-2.2-.1-3.3v-.1c-.1-.2-.3-.3-.5-.2-.5.2-1.1.4-1.6.6.4-1.2.8-2.4 1.4-3.5.7-1.4 1.5-2.8 2.4-4 .1-.1.1-.2.1-.3 0-.2-.2-.4-.5-.4-.7.1-1.3.1-2 .1l.6-.9c.4-.5.8-.9 1.3-1.3.9-.8 2-1.5 3.2-2-1.2.3-2.4.9-3.5 1.6-.5.4-1 .8-1.5 1.3s-.8 1-1.2 1.6v.2c0 .2.2.4.4.4h1.7c-.8 1.1-1.4 2.2-2 3.4-.7 1.5-1.3 3-1.6 4.6v.3c.3.1.5.2.8.1zm30.4 3.8-2.3.4c-.1 0-.2.1-.3.2-.2.2-.1.5.1.7 1 .7 2 1.5 3 2.4.8.7 1.5 1.4 2.2 2.1l-1.5.4c-.1 0-.2.1-.2.1-.2.2-.1.4 0 .6.9.8 1.8 1.7 2.6 2.6l2.1 2.7c-.7-.1-1.4-.2-2.1-.2l2.4.6h.1c.1 0 .1-.1.1-.2-.6-1.1-1.3-2.1-2.1-3.1-.6-.8-1.3-1.6-2-2.3l1.6-.4c.1 0 .1-.1.2-.1.2-.2.2-.4 0-.6-.9-1-1.8-1.9-2.8-2.8-.7-.6-1.4-1.2-2.2-1.8l2.1-.4c.1 0 .2-.1.2-.1.2-.2.2-.5 0-.6-1.5-1.6-3.5-2.4-5.4-3.2-1-.4-1.9-.7-2.9-.9-1-.2-2-.5-3-.6 2 .6 3.9 1.2 5.8 2 1.5.5 3 1.4 4.3 2.5zm-46.8-3.2c.2-.4.5-.7.8-1.1.3-.4.6-.7.9-1l1.8-2 .1-.1c0-.2-.1-.3-.2-.4l-1.8-.5c.5-.7 1.3-1.2 2.1-1.8.9-.6 2-1.2 3-1.7.1-.1.2-.2.2-.3.1-.3-.1-.5-.4-.6l-1.4-.3c.4-.4.9-.8 1.4-1.1.7-.5 1.5-.9 2.3-1.4 1.6-.8 3.2-1.6 4.9-2.2-.9.2-1.8.4-2.6.7-.9.3-1.7.6-2.5.9-.8.4-1.7.8-2.5 1.2-.8.5-1.5 1-2.2 1.8 0 .1-.1.1-.1.2-.1.2.1.5.3.6l.9.2c-.7.4-1.3.8-1.9 1.2-.5.3-1 .7-1.4 1.1-.4.4-.9.9-1.2 1.5v.1c0 .2.1.4.3.5l1.9.4c-.4.6-.9 1.1-1.3 1.7-.5.8-1 1.5-1.4 2.4zm27.5 33.1c-.1-.1-.2-.1-.4-.1-.2.1-.4.3-.3.5l.3 1.5c-.9-.5-1.7-1-2.5-1.6l-3.3-2.4c-.1-.1-.2-.1-.3-.1-.2 0-.4.2-.4.5 0 .4.1.8.1 1.2-.6-.5-1.1-.9-1.7-1.5-.7-.7-1.4-1.5-1.9-2.4.4 1 1 1.9 1.6 2.7.7.8 1.4 1.6 2.2 2.3.1.1.2.1.2.1.2 0 .3-.2.3-.4v-1c1.9 1.6 4 3 6.2 4.2.1.1.2.1.3 0 .2-.1.4-.3.3-.6l-.4-1.4c.8.5 1.6 1 2.4 1.4.6.3 1.2.6 1.8.8.6.2 1.3.4 1.9.6l-1.8-.9c-.6-.3-1.1-.7-1.7-1-.9-.8-2-1.5-2.9-2.4z" fill="#2c100c" stroke-width="none" opacity="1"></path><path id="SvgjsPath10913" d="M77.9 148.2c-.7-1.5-.9-2-1.4-3.4l-2-1-1.8-.8c-.8-.6-2-.8-3-1.2-.9-.3-1.9-.5-2.9-.6-2-.2-4 0-5.9.4 0 0-.1.1 0 .2l1.3 1.8c-1.1-.1-2.2.1-3.2.3-1.1.3-2.3.6-3.3 1.1-1.1.4-2.1.9-3.2 1.5l-1.5.9-1.5.9-.1.1c0 .1 0 .2.1.2l1.4.8c-2.3 1.7-4.4 3.6-6.3 5.7-1 1.1-1.9 2.3-2.7 3.5s-1.5 2.6-2 4v.2c0 .1.2.2.3.2l1.2-.3-1.5 2.1c-.6 1-1 2.1-1.4 3.2-.3 1.1-.5 2.3-.5 3.5v1c-1.8.6-3.6 1.2-5.3 1.9-1.8.8-3.6 1.6-5.2 2.7-1.6 1-3.1 2.2-4.3 3.8-.9-.1-1.8 0-2.6.5s-1.4 1.3-1.7 2.2c-.6 1.7-1.1 3.4-1.7 5.1-1 3.4-1.9 6.9-2.6 10.4-.6 3.5-1 7.1-1.1 10.6-.1 3.6.1 7.2.8 10.7.1.4.4.6.8.6 74.4 1.4 168.6 0 168.6 0 .4 0 .7-.3.8-.6 1.9-7.2 1.7-14.5.5-21.6-.6-3.5-1.4-7-2.4-10.5-.5-1.7-1-3.4-1.6-5.1-.3-1-.9-2-2-2.6-.5-.3-1-.5-1.6-.6-.4-.1-.7-.1-1-.1-1.8-2.3-4.2-3.8-6.5-5.1-2.6-1.4-5.2-2.4-8-3.3-1.4-.4-2.7-.8-4.1-1.2-.7-.2-1.4-.4-2.1-.5h-.1c-.1-.3-.2-.5-.4-.8l2.1.3h.1c.1-.1.2-.2.2-.4-.9-2.5-2.1-4.9-3.6-7.1-.8-1.1-1.6-2.2-2.5-3.1-.7-.7-1.5-1.4-2.3-1.9l2.5-.1c.1 0 .1 0 .2-.1s.2-.3.1-.5c-.8-1-1.7-1.9-2.6-2.7-.9-.8-1.9-1.6-2.9-2.3s-2.1-1.4-3.2-2c-.8-.4-1.7-.8-2.5-1.2l1.9-.8c.1 0 .2-.1.2-.2.1-.2-.1-.4-.3-.5-1.6-.5-3.2-.8-4.9-1-1.4-.1-2.8-.2-4.2.1l.6-1.5v-.3c-.1-.2-.3-.4-.5-.3-1.3.3-2.5.6-3.7 1.1-.6.2-1.2.5-1.8.8-.5.3-1.1.6-1.5 1.1-1 .1-1.9.2-2.8.4-1 .2-1.9.5-2.9.9s-1.8.8-2.7 1.3c-.9.5-1.7 1.1-2.5 1.6l-.2.2c0 .2.1.4.3.4l1.3.3c-2.1.8-4.1 1.6-6.1 2.6-1.2.6-2.4 1.2-3.5 1.9s-2.2 1.5-3.2 2.5l-.1.1c0 .2.1.3.2.4l2.5.6c-.9.5-1.7 1.1-2.5 1.9-.5.4-.9.9-1.3 1.5-.3.4-.6.9-.8 1.4-1.2-1.3-2.5-2.4-3.9-3.5-1.2-.9-2.6-1.8-4-2.5h3.3c.1 0 .1 0 .1-.1s0-.2-.1-.2c-2.2-1.1-4.4-1.9-6.8-2.6-1.2-.3-2.3-.6-3.6-.8-1.1-.2-2.2-.3-3.3-.3l1.9-1.2-6-3.1-2-1.9zm-14.7-4.4-1.5-2.3c1.9-.4 3.8-.5 5.7-.4 1 .1 1.9.3 2.9.6.9.3 5.7 2.2 6.5 2.8l.1.2c1.4 4 3.6 5 6 6.3 1.9.9 2.3 1.1 4 2.1l-2.8 1.4h.4c1.2.1 2.3.2 3.5.4 1.1.2 2.4.6 3.5.9 1.8.5 3.9 1.4 5.9 2.3l-3.2-.1c-.1 0-.2.1-.2.1 0 .1 0 .2.1.2.5.3 2.6 1.4 4.6 2.9 1.3 1.1 2.8 2.5 4 3.7l.2.1c.1 0 .3-.1.3-.2.3-.6.5-1.1.9-1.6s.8-1 1.2-1.4c.9-.9 1.9-1.6 3-2.1.1 0 .1-.1.2-.2 0-.1-.1-.3-.2-.3l-2.7-.6c.8-.8 1.7-1.4 2.7-2 1.1-.7 2.3-1.3 3.4-1.9 2.4-1.1 4.8-2.1 7.3-2.9.1 0 .2-.1.2-.3s-.1-.4-.3-.4l-1.8-.4c.6-.4 1.1-.8 1.7-1.1.8-.5 1.7-.9 2.6-1.2s1.8-.6 2.8-.8 1.9-.4 2.8-.4c.1 0 .2-.1.3-.2.3-.4.9-.8 1.4-1 .5-.3 1.1-.5 1.7-.8.9-.3 1.8-.6 2.8-.9l-.6 1.4v.3c.1.2.3.4.5.3 1.5-.4 3.1-.4 4.8-.2 1.2.1 2.4.4 3.6.7l-1.7.7c-.1 0-.2.1-.2.2-.1.2 0 .4.2.5 1.1.5 2.2.9 3.3 1.5s2.1 1.2 3.1 1.9 2 1.4 2.9 2.2l2.1 2.1-2.9.2c-.1 0-.2.1-.3.2-.1.2 0 .4.1.4 1.1.6 2.1 1.5 3 2.4s1.7 2 2.5 3c1.4 2 2.5 4.2 3.4 6.5l-2.1-.3h-.2c-.1.1-.2.2-.1.4 1.1 2.3 2 4.7 2.6 7.1.5 2.3.8 4.6.8 6.9l-2.1-2.7c0-.1-.1-.1-.2-.1s-.2.1-.2.2c0 1.9-.1 3.8-.6 5.7-.4 1.9-1 3.7-1.9 5.4-.8 1.7-1.7 3.4-2.8 5-1 1.5-2.1 2.9-3.2 4.2-.1-1.1-.2-2.1-.5-3.1-.3-1.2-.6-2.3-1-3.4 0-.1-.1-.1-.1-.1-.1 0-.2 0-.2.1-.4.9-.9 1.7-1.5 2.6l-1.8 2.4c-1.1 1.4-2.2 2.7-3.4 4l.3-3.2c0-.1 0-.1-.1-.2s-.2-.1-.3 0c-.8.9-1.8 1.8-2.9 2.5-1 .8-2.1 1.4-3.2 2.1-2.1 1.2-4.2 2.2-6.4 3.1.2-.7.3-1.4.4-2.2.1-.9.2-1.8.2-2.8 0-.1 0-.2-.1-.3s-.3-.1-.4.1c-.9 1.4-2.2 2.6-3.5 3.6s-2.6 1.9-4 2.7L117 206c-.1-.1-.2-.1-.3-.1.1-1.5.1-2.9-.1-4.4-.2-1.4-.4-2.7-.9-4.1l.9.4h.2c.2 0 .3-.2.2-.4-.2-1-.6-1.9-.9-2.9l-1.2-2.7c-.7-1.5-1.5-2.9-2.2-4.4l2.1.5c.1 0 .2 0 .3-.1.2-.1.3-.4.2-.7-1.2-2.1-2.7-4-4.2-5.9-1.3-1.6-2.6-3.1-4-4.6l2 .2h.1c.2-.1.3-.2.3-.4-.5-2.1-1.3-4.2-2.4-6.1-.5-1-1.2-1.9-1.8-2.8-.7-.9-1.4-1.7-2.2-2.4.7.8 1.4 1.7 2 2.6.6.9 1.1 1.9 1.6 2.8.5 1 .9 2 1.2 3 .3.9.5 1.7.7 2.6l-2.6-.4c-.1 0-.2 0-.3.1-.2.2-.2.4 0 .6 2.9 3.2 5.8 6.6 8.1 10.3l-1.9-.4c-.1 0-.2 0-.3.1-.2.1-.3.4-.2.6 1 1.7 1.9 3.5 2.8 5.2.8 1.6 1.6 3.2 2.1 4.8l-.9-.3h-.2c-.2.1-.2.2-.2.4.3.7.5 1.5.7 2.2.2.8.4 1.5.5 2.3.3 1.4.4 2.9.4 4.4-.2 0-.3.2-.3.3 0 1.6-.2 3.1-.4 4.6-.3 1.4-.6 2.8-1.1 4.1l-7.9-3.4c-.1 0-.2-.1-.3 0-.2.1-.3.3-.2.5l1 2.7c-3.4-.6-6.7-1.4-10-2.5-3.5-1.1-7-2.5-10.3-4.1-.1-.1-.2-.1-.4 0s-.3.4-.3.6l.8 2c-1.2-.3-2.5-.6-3.7-1.1-1.4-.6-2.9-1.2-4.2-2-1.3-.8-2.7-1.7-3.9-2.6-1.2-1-2.4-2-3.5-3.1-.1-.1-.2-.1-.3-.1-.3 0-.5.2-.5.5v3.4c-1.3-.8-2.4-1.9-3.5-3-1.3-1.3-2.4-2.8-3.5-4.3-.1-.1-.3-.2-.4-.2-.3 0-.5.3-.4.5l.4 3.8c-1-.8-2-1.6-2.9-2.5-1.1-1.2-2.2-2.4-3.1-3.8-.9-1.4-1.8-2.8-2.5-4.2-.7-1.5-1.4-3-1.8-4.5 0-.1-.1-.2-.2-.3-.2-.1-.5 0-.7.2l-1.5 2.9c-.7-1.3-1.2-2.7-1.6-4.2-.5-1.8-.8-3.6-1.1-5.3 0-.2-.1-.3-.3-.4-.2-.1-.5 0-.6.3l-1.4 3.3c-.6-.7-1.1-1.4-1.6-2.1-.6-.9-1-2-1.4-3.1-.3-1.1-.5-2.2-.6-3.3 0-1.1 0-2.3.3-3.3 0-.1 0-.2-.1-.3-.1-.2-.4-.2-.5-.1l-2.9 2.1c-.2-.9-.4-1.8-.3-2.8.4-1 .5-2.1.8-3.1.3-1.1.7-2.1 1.3-3.1.5-1 1.2-1.9 2-2.7.1-.1.1-.2.1-.3s-.2-.2-.3-.2l-1.5.4c.5-1.2 1-2.3 1.7-3.4.8-1.2 1.7-2.4 2.6-3.5 1.9-2.2 4.1-4.2 6.4-5.9v-.1c0-.1 0-.2-.1-.3l-1.4-.8 1.2-.8 1.5-.9c1-.5 2-1.1 3.1-1.5s5.7-.9 6.9-1.2zm-5.4 75.5c-13.8-.1-27.6-.1-41.5 0-1.2-6.6-1.1-13.5-.1-20.2.5-3.5 1.3-6.9 2.2-10.3l1.5-5.1c.2-.8.7-1.5 1.4-2 .7-.4 1.6-.6 2.4-.5.1 0 .2 0 .2-.1 1-1.6 2.6-2.8 4.2-3.9s3.4-1.9 5.2-2.7c1.7-.7 3.5-1.4 5.2-1.9.1.8.2 1.5.4 2.3 0 0 0 .1.1.1.1.2.3.2.5.1l2.6-1.8c-.1.9-.2 1.7-.2 2.6 0 1.2.2 2.4.6 3.5.3 1.1.8 2.2 1.4 3.3.6 1 1.4 1.9 2.2 2.8 0 .1.1.1.2.1.2.1.5 0 .6-.2l1-2.4c.2 1.3.5 2.5.8 3.8.5 1.8 1.1 3.6 2.2 5.2 0 .1.1.1.2.2.2.1.5 0 .7-.2l1.4-2.7c.4 1.2.9 2.4 1.5 3.6.8 1.5 1.6 3 2.6 4.4s2 2.7 3.2 3.9 2.5 2.3 3.9 3.2c.1.1.2.1.3.1.3 0 .4-.3.4-.5l-.4-3.2c.8 1 1.7 2 2.6 3 .7.7 1.3 1.4 2.1 2s1.5 1.2 2.4 1.7c.1 0 .2.1.2.1.3 0 .5-.2.5-.5v-3.2c.9.9 1.8 1.7 2.8 2.4 1.3 1 2.6 1.9 4 2.7s2.8 1.5 4.3 2.1 3.1 1 4.7 1.3h.3c.2-.1.3-.4.2-.6l-.7-1.7c3.1 1.4 6.2 2.6 9.4 3.6 1.8.6 3.6 1.1 5.4 1.5.2 0 .3.1.5.1v4.7h-3.3c-14.2-.3-28.2-.6-42.3-.7zm125.8 0-41.5.4c-12.3.1-24.6.1-36.9.1v-4.2l3 .6h.2c.2-.1.3-.3.2-.6l-1-2.4 7.3 3.1c.2.1.4 0 .5-.2.6-1.5 1-3 1.3-4.6.2-1.2.3-2.5.4-3.7l1.1 1.6c.1.1.3.2.4.1 1.5-.9 3-1.8 4.3-2.9 1.1-.9 2.1-1.8 3-2.9 0 .6-.1 1.1-.1 1.7-.1.9-.2 1.8-.5 2.6v.2c.1.1.2.2.4.1 2.4-1 4.7-2.1 7-3.4 1.1-.7 2.2-1.3 3.3-2.1.9-.6 1.7-1.3 2.5-2.1l-.3 3.3c0 .1 0 .1.1.2s.2.1.3 0c1.3-1.5 2.6-3 3.9-4.6l1.8-2.4c.5-.7.9-1.4 1.3-2.2.3 1 .6 1.9.8 2.9.3 1.1.5 2.3.5 3.5 0 0 0 .1.1.1.1.1.2.1.2 0 1.3-1.4 2.5-3 3.5-4.6 1.1-1.6 2-3.3 2.8-5.1s1.4-3.6 1.9-5.5c.4-1.7.6-3.4.6-5.2l2.1 2.7c0 .1.1.1.2.1s.2-.1.2-.2c.1-2.6-.2-5.1-.8-7.7-.3-1.2-.6-2.5-1-3.7.2.1.4.1.7.2 1.3.4 2.7.7 4 1.2 2.6.9 5.2 1.9 7.6 3.1 2.4 1.2 4.7 2.8 6.2 4.8.2.3.6.5 1 .4h.9l.9.3c.5.3.9.9 1.1 1.6.5 1.7 1.1 3.4 1.6 5 1 3.4 1.8 6.8 2.4 10.2 1.3 6.7 1.6 13.5.5 20.2zM34.1 199.4c-.2-1.6-.4-3.2-.7-4.8-.1-.4-.1-.8-.2-1.2l-.3-1.2c-.2-.8-.6-1.5-1-2.3-.8-1.4-1.7-2.8-2.8-4-1.1-1.2-2.3-2.3-3.9-2.9 1.4.8 2.6 1.9 3.5 3.2 1 1.3 1.8 2.6 2.4 4.1.3.7.7 1.5.9 2.2.1.4.2.8.3 1.1.1.4.2.8.2 1.2l.6 4.8c.3 3.2.6 6.4 1 9.6l.5 4.8.5 4.8c0-3.2-.1-6.4-.2-9.7-.2-3.3-.4-6.5-.8-9.7zm136.2-13.5c-1.1 1.2-2 2.6-2.8 4-.4.7-.8 1.4-1 2.3l-.3 1.2c-.1.4-.2.8-.2 1.2-.3 1.6-.5 3.2-.7 4.8-.3 3.2-.6 6.4-.7 9.6-.1 3.2-.2 6.4-.2 9.7l.5-4.8.5-4.8.9-9.6.6-4.8c.1-.4.1-.8.2-1.2.1-.4.1-.8.3-1.1.2-.7.6-1.5.9-2.2.7-1.4 1.5-2.8 2.4-4.1s2.1-2.4 3.5-3.2c-1.6.7-2.8 1.8-3.9 3zm-90.7-35.2" fill="#2c100c" stroke-width="none" opacity="1"></path></g><g id="svga-group-head" transform="matrix(1,0,0,1,0,0)"><g id="svga-group-ears-left-move" transform="matrix(1,0,0,1,0,0)"><g id="svga-group-ears-left" transform="matrix(1,0,0,1,0,0)"><path id="SvgjsPath10932" d="M62.9 100.1s-1.8-5-3.3-7.9-3.6-6.4-6.7-7.2c-3.1-.8-4.1 3.9-2.9 8.3 1.2 4.4 4.3 13.9 5 17.7.7 3.7 1.8 8.2 3.6 7.5 1.7-.7 7.2-7.7 4.3-18.4z" fill="#8c5537" stroke-width="none" opacity="1" stroke="none"></path><path id="SvgjsPath10933" d="M63.8 105.1c.2 1.7.1 3.4-.1 5.1-.5 3.3-1.9 6.4-4 8.4l-.4.3c-.2.1-.3.2-.5.3-.4.2-.9 0-1.3-.3-.8-.6-1.2-1.5-1.5-2.3-.6-1.7-.9-3.3-1.3-5-.3-1.6-.7-3.2-1.1-4.8l-1.3-4.9c-.4-1.6-.9-3.2-1.3-4.8l-.7-2.4c-.2-.8-.5-1.6-.6-2.5-.2-.8-.3-1.7-.3-2.6s.1-1.7.3-2.6c.2-.8.6-1.6 1.2-2.1s1.4-.6 2.1-.5c1.4.3 2.7 1.2 3.7 2.4 1.1 1.2 1.9 2.6 2.6 4.1.8 1.4 1.4 3 2 4.5.6 1.6 1.2 3.1 1.7 4.7.3 1.6.7 3.3.8 5zm-5.1-13.7c-.9-1.4-1.7-2.6-2.7-3.7-1-1-2.1-1.8-3.2-2.2-.6-.2-1.1-.1-1.6.2-.5.3-.8.9-1.1 1.6-.5 1.4-.5 3.1-.2 4.7.1.8.3 1.6.6 2.4.2.8.5 1.6.7 2.4l1.5 4.8c.5 1.6 1.1 3.2 1.5 4.8.5 1.6 1 3.2 1.3 4.9.4 1.6.7 3.3 1.3 4.7.3.7.6 1.4 1 1.6.2.1.3.2.5.1.1 0 .2-.1.3-.2l.3-.3c.9-.8 1.7-2 2.4-3.2.7-1.3 1.2-2.7 1.6-4.2.8-3 .7-6.5-.2-9.7-1-3.1-2.3-6.1-4-8.7z" fill="#7d4425" stroke-width="none" opacity="1" stroke="none"></path><path id="SvgjsPath10934" d="M50.9 88.1c1.9-.8 3.6 1.4 4.8 3.3 1.6 2.5 2.7 5.5 3 8.7v.2c0 .3 0 .5.1.8 0 .2-.2.2-.2 0-.1-.4-.2-.9-.3-1.4-.1-.1-.1-.2-.2-.4-1.2-.6-1.8-.3-1.8.8 0 .7.2 1.5.3 2.2.3 1.2.9 2.3 1.3 3.5.1.2-.2.4-.3.2-.9-1.6-2.6-5.3-1.5-7.2.5-.9 1.4-.8 1.9-.2-.5-2-1.2-4.3-2.2-6.2-2.1 4.5-1 9.2.1 14.2 0 .2-.2.3-.3.1-1.4-4.6-2.7-10.8 0-14.5-1-2.2-2.6-3.9-4.6-3.7-.1 0-.2-.3-.1-.4z" fill="#6d3415" stroke-width="none" opacity="1" stroke="none"></path><path id="SvgjsPath10935" d="M58.6 108.1c.2 1.1 0 2.4-.6 3.2-.1.1-.2 0-.1-.1.3-1 .6-1.9.6-3.1 0-.1.1-.1.1 0z" fill="#6d3415" stroke-width="none" opacity="1" stroke="none"></path></g></g><g id="svga-group-ears-right-move" transform="matrix(1,0,0,1,0,0)"><g id="svga-group-ears-right" transform="matrix(1,0,0,1,0,0)"><path id="SvgjsPath10936" d="M137.1 100.1s1.8-5 3.3-7.9 3.6-6.4 6.7-7.2c3.1-.8 4.1 3.9 2.9 8.3-1.2 4.4-4.3 13.9-5 17.7s-1.8 8.2-3.6 7.5c-1.7-.7-7.2-7.7-4.3-18.4z" fill="#8c5537" stroke-width="none" opacity="1" stroke="none"></path><path id="SvgjsPath10937" d="M137.1 100.1c.6-1.6 1.1-3.1 1.7-4.7.6-1.5 1.2-3.1 2-4.5.7-1.5 1.6-2.9 2.6-4.1s2.3-2.1 3.7-2.4c.7-.2 1.5 0 2.1.5s1 1.3 1.2 2.1c.2.8.3 1.7.3 2.6s-.1 1.7-.3 2.6c-.1.9-.4 1.7-.6 2.5l-.7 2.4c-.5 1.6-.9 3.2-1.3 4.8l-1.3 4.9c-.4 1.6-.8 3.2-1.1 4.8-.3 1.7-.7 3.3-1.3 5-.3.8-.7 1.7-1.5 2.3-.4.3-.9.4-1.3.3-.2-.1-.4-.2-.5-.3l-.4-.3c-2.1-2-3.5-5.1-4-8.4-.3-1.7-.3-3.4-.1-5.1 0-1.7.4-3.4.8-5zm.1 0c-.9 3.2-1 6.7-.2 9.7.4 1.5.9 2.9 1.6 4.2.7 1.3 1.5 2.4 2.4 3.2l.3.3c.1.1.2.1.3.2.2.1.3 0 .5-.1.4-.3.7-.9 1-1.6.6-1.4.9-3.1 1.3-4.7.3-1.7.8-3.3 1.3-4.9l1.5-4.8 1.5-4.8c.2-.8.5-1.6.7-2.4l.6-2.4c.3-1.6.2-3.3-.2-4.7-.2-.7-.6-1.3-1.1-1.6-.5-.3-1-.3-1.6-.2-1.2.3-2.3 1.1-3.2 2.2-1 1.1-1.8 2.3-2.7 3.6-1.6 2.7-2.9 5.7-4 8.8z" fill="#7d4425" stroke-width="none" opacity="1" stroke="none"></path><path id="SvgjsPath10938" d="M149.1 88.1c-1.9-.8-3.6 1.4-4.8 3.3-1.6 2.5-2.7 5.5-3 8.7v.2c0 .3 0 .5-.1.8 0 .2.2.2.2 0 .1-.4.2-.9.3-1.4.1-.1.1-.2.2-.4 1.2-.6 1.8-.3 1.8.8 0 .7-.2 1.5-.3 2.2-.3 1.2-.9 2.3-1.3 3.5-.1.2.2.4.3.2.9-1.6 2.6-5.3 1.5-7.2-.5-.9-1.4-.8-1.9-.2.5-2 1.2-4.3 2.2-6.2 2.1 4.5 1 9.2-.1 14.2 0 .2.2.3.3.1 1.4-4.6 2.7-10.8 0-14.5 1.2-2.2 2.8-3.9 4.7-3.8 0 .1.1-.2 0-.3z" fill="#6d3415" stroke-width="none" opacity="1" stroke="none"></path><path id="SvgjsPath10939" d="M141.4 108.1c-.2 1.1 0 2.4.6 3.2.1.1.2 0 .1-.1-.3-1-.6-1.9-.6-3.1 0-.1-.1-.1-.1 0z" fill="#6d3415" stroke-width="none" opacity="1" stroke="none"></path></g></g><g id="svga-group-faceshape-wrap" transform="matrix(1,0,0,1,0,0)"><g id="svga-group-faceshape-single"><path id="SvgjsPath11014" d="M143.2 82.9v-.3c-1.3-30.5-20.7-47.3-43.2-47.3S58.1 52.1 56.9 82.6v.3c0 2.4-.5 15.6 3.1 26.5 3.2 9.8 5.7 17.5 13.5 24.1 5.5 4.6 13.8 14.7 19.6 17.9 2.6 1.4 11.4 1.4 14 0 5.8-3.3 14.1-13.4 19.6-17.9 7.8-6.5 10.4-14.3 13.5-24.1 3.4-10.9 2.9-24.2 3-26.5z" fill="#8c5537" stroke-width="none" opacity="1" stroke="none"></path><path id="SvgjsPath11015" d="M73.5 133.4c5.5 4.6 13.8 14.7 19.6 17.9 2.6 1.4 11.4 1.4 14 0 5.8-3.3 14.1-13.4 19.6-17.9 7.8-6.5 10.4-14.3 13.5-24.1 3.4-10.9 2.9-24.2 3-26.5v-.3C141.9 52 122.5 35.2 100 35.2S58.1 52.1 56.9 82.6v.3c0 2.4-.5 15.6 3.1 26.5 3.2 9.8 5.7 17.5 13.5 24zM58 89.6c-.2-3.3-.3-6.7 0-10 .4-6.6 1.9-13.2 4.7-19.2 2.8-5.9 6.9-11.2 12.1-15.1C80 41.5 86 39.1 92.2 38c6.2-1 12.6-.7 18.6.9 6.1 1.5 11.7 4.6 16.6 8.7l.9.8c.3.3.6.6.9.8l1.7 1.7c.6.5 1 1.2 1.6 1.8l1.5 1.9c.9 1.4 1.8 2.8 2.6 4.2l1.1 2.2c.4.7.8 1.4 1 2.2 2.6 6.1 3.9 12.7 4.2 19.5-.1 3.4-.1 6.7-.4 10.1-.3 3.4-.7 6.6-1.5 9.9-.4 1.6-.8 3.3-1.3 4.8s-1.1 3.2-1.7 4.7c-1.2 3.2-2.5 6.2-4 9-1.6 2.8-3.4 5.4-5.6 7.5-.5.6-1.1 1-1.7 1.6l-1.9 1.5c-1.4 1.1-2.6 2.2-3.8 3.5-2.5 2.3-4.8 4.7-7.1 6.9s-4.8 4.5-7.2 6.1c-.3.2-1.8 1.3-8 1.1-.8 0-1.5-.1-2.2-.2-.7-.1-3-1.2-3.3-1.4-.6-.4-1.2-.9-1.8-1.3-2.4-1.9-4.8-4.3-7.1-6.6-2.4-2.3-4.7-4.7-7.3-7-.6-.6-1.3-1.1-2-1.7-.6-.5-1.2-1-1.7-1.5-1.1-1-2.2-2.2-3.1-3.5-1.9-2.4-3.4-5.3-4.7-8.2-1.3-3-2.4-6.1-3.6-9.3-1.1-3.1-1.9-6.2-2.5-9.5-.8-3-1.2-6.2-1.4-9.6z" fill="#5e2709" stroke-width="none" opacity="1" stroke="none"></path></g></g><g id="svga-group-mouth-single-move" transform="matrix(1,0,0,1,0,0)"><g id="svga-group-mouth-single" transform="matrix(1,0,0,1,0,0)"><path id="SvgjsPath11129" d="M100.36 129.39c-.49.05-9.78-2.48-12.1-3.52 0 0 6.49-1.32 8.19-1.56.77-.11 3.58 1.46 3.58 1.46s2.68-1.6 3.45-1.57c1.22.04 9.47.7 9.47.7s-9.34 4.18-12.59 4.49z" fill="#de5a2b" stroke-width="none" opacity="1" transform="translate(0 2)" stroke="none"></path><path id="SvgjsPath11130" d="M88.64 126.16s2.22 4.74 3.61 6.45 4.63 2.76 8.5 2.83 6.93-2.13 7.9-3.18 4.11-7.24 4.11-7.24-10.77 4.8-12.51 4.69-8.03-2.3-8.57-2.46-3.04-1.09-3.04-1.09z" fill="#e66638" stroke-width="none" opacity="1" transform="translate(0 2)" stroke="none"></path><path id="SvgjsPath11131" d="M113.83 124.15c-4.53 1.15-8.14 3.43-13.6 4.82-2.19-.21-4.23-.98-6.26-1.56-2.22-.63-4.39-1.41-6.58-2.13-.26-.09-.42.31-.18.44 2.07 1.14 4.23 2.04 6.46 2.82 2.09.73 4.39 1.64 6.63 1.72.53-.05 1.1-.3 1.27-.35 4.48-1.44 8.35-3.02 12.49-5.23.28-.17.08-.61-.23-.53z" fill="#d74f1f" stroke-width="none" opacity="1" transform="translate(0 2)" stroke="none"></path></g></g><g id="svga-group-eyes-left-move" transform="matrix(1,0,0,1,0,0)"><g id="svga-group-eyes-left" transform="matrix(1,0,0,1,0,0)"><g id="svga-group-eyesback-left"><path id="SvgjsPath10968" d="M89.9 95.2s-.4-2-1.4-3.1c-1-1-5.3-3-8.5-3.7 0 0-3.8 1.6-6.6 5-2.8 3.5-3.2 5.3-3.2 5.3s4.8.7 7.1.7 7.7-1.1 9.8-2.4c2.2-1.3 2.8-1.8 2.8-1.8z" fill="#ffffff" stroke-width="none" opacity="1"></path></g><g id="svga-group-eyesiriswrapper-left" transform="matrix(1,0,0,1,0,0)"><g id="svga-group-eyesiriscontrol-left" transform="matrix(1,0,0,1,0,0)"><g id="svga-group-eyesiris-left" transform="matrix(1,0,0,1,0,0)"><path id="SvgjsPath11028" d="M80.1 87.8c3.2 0 5.7 2.6 5.7 5.7s-2.6 5.7-5.7 5.7-5.7-2.6-5.7-5.7 2.5-5.7 5.7-5.7z" fill="#3e4442" stroke-width="none" opacity="1"></path><path id="SvgjsPath11029" d="M80.1 88.1c3 0 5.5 2.4 5.5 5.5 0 3-2.4 5.5-5.5 5.5-3 0-5.5-2.4-5.5-5.5s2.4-5.5 5.5-5.5m0-.6c-3.3 0-6 2.7-6 6s2.7 6 6 6 6-2.7 6-6-2.7-6-6-6z" fill="#1b2522" stroke-width="none" opacity="1"></path><path id="SvgjsPath11030" d="M77 95.1c0 1.4.6 2.7 1.4 3.6.5.2 1.1.2 1.6.2 3 0 5.5-2.4 5.5-5.5 0-1.1-.3-2.2-.9-3-.7-.4-1.5-.6-2.4-.6-2.9.1-5.2 2.5-5.2 5.3z" fill="#535353" stroke-width="none" opacity="1"></path><path id="SvgjsPath11031" d="M80.1 90.6c1.6 0 2.9 1.3 2.9 2.9s-1.3 2.9-2.9 2.9-2.9-1.3-2.9-2.9 1.2-2.9 2.9-2.9z" fill="#000000" stroke-width="none" opacity="1"></path><path id="SvgjsPath11032" d="M78.7 90.5c.6 0 1 .5 1 1s-.5 1-1 1-1-.5-1-1 .5-1 1-1zm3.4 4.7c.2 0 .4.2.4.4s-.2.4-.4.4-.4-.2-.4-.4.2-.4.4-.4z" fill="#ffffff" stroke-width="none" opacity="1"></path><path id="SvgjsPath11033" d="M80.1 99c.3 0 .6 0 .8-.1-.2 0-.4-.2-.4-.4-.1.3-.3.4-.4.5-.3 0-.5-.2-.6-.4-.1.2-.4.3-.6.3-.2-.1-.4-.3-.4-.5-.2.2-.4.2-.7.1s-.4-.3-.3-.6c-.2.2-.5.1-.7 0s-.2-.5-.1-.7c-.2.2-.5.2-.7 0-.2-.2-.2-.5 0-.7-.3 0-.5-.1-.7-.3.8 1.6 2.6 2.8 4.8 2.8zm-5-3.2zm9.5.7c-.1.1-.3.2-.5.2.1.4-.4.9-.8.8.1.2 0 .5-.2.6-.2.1-.5.1-.6 0 0 .2-.2.5-.4.5-.2.1-.5 0-.6-.2 0 .2-.1.4-.2.5 1.3-.3 2.5-1.2 3.3-2.4zm-2-7.6c.3-.1.6.2.6.5.4-.2.8.3.7.6.2-.1.4 0 .5.2.1.2.1.4-.1.5.2 0 .5.1.6.3s.1.5-.1.7c.2 0 .5.2.5.4s0 .5-.2.6c.2.1.4.3.4.5s-.1.4-.3.5c.2.1.3.3.3.6s-.2.4-.4.4c.3.2.1.8-.3.8.1.1.1.3.1.5.5-.8.8-1.8.8-2.8 0-2.2-1.3-4.1-3.1-4.9-.1.4 0 .5 0 .6zm-.6-.3c.1-.1.2-.1.4 0-.5-.2-1-.4-1.6-.5l-.1.1c.5-.1 1 .1 1.3.4z" fill="#0e1613" stroke-width="none" opacity="1"></path></g></g></g><g id="svga-group-eyesfront-left"><path id="SvgjsPath10976" d="M69.4 94.6c0 6.4 4.7 11.5 10.6 11.5s10.6-5.2 10.6-11.5S85.9 83.1 80 83.1s-10.6 5.1-10.6 11.5zm.9 4.1s.4-1.8 3.2-5.3c2.8-3.5 6.6-5 6.6-5 3.1.7 7.5 2.6 8.5 3.7s1.4 3.1 1.4 3.1-.7.5-2.8 1.8c-2.1 1.3-7.5 2.4-9.8 2.4-2.3.1-7.1-.7-7.1-.7z" fill="#8c5537" stroke-width="none" opacity="1" stroke="none"></path><path id="SvgjsPath10977" d="m89.6 95.6.9-.6v.1c.8 4.4-3.8 7.5-7.4 8.8-.2.1-.3-.2-.1-.3 2.9-2 7.2-4.2 6.6-8z" fill="#7d4425" stroke-width="none" opacity="1" stroke="none"></path><path id="SvgjsPath10978" d="M69.1 100.9c.5-.6.9-1.2 1.3-1.9 6.3 1.8 14.9.8 20-3.9l.1-.1c.1-.1.1-.1.1-.2-.8-4.1-5.4-6.1-9.2-6.5 2.4-.8 5-.8 7.8-.5.6.1.8-.9.3-1.2-8.7-4.4-18.4 6.6-21 13.8-.3.7.4.9.6.5zm1.7-2.4c1.8-2.8 3.4-5.7 6.2-7.8 1.1-.8 2.2-1.4 3.3-1.8l.1.1c3.3 1.2 7.7 1.7 9 5.7.1.2.1.4.2.6-2.9 1.8-6.1 3.3-9.4 3.6-3.2.2-6.3-.5-9.4-.4z" fill="#1b1929" stroke-width="none" opacity="1" stroke="none"></path></g></g></g><g id="svga-group-eyes-right-move" transform="matrix(1,0,0,1,0,0)"><g id="svga-group-eyes-right" transform="matrix(1,0,0,1,0,0)"><g id="svga-group-eyesback-right"><path id="SvgjsPath10969" d="M110.1 95.2s.4-2 1.4-3.1c1-1 5.3-3 8.5-3.7 0 0 3.8 1.6 6.6 5 2.8 3.5 3.2 5.3 3.2 5.3s-4.8.7-7.1.7-7.7-1.1-9.8-2.4c-2.2-1.3-2.8-1.8-2.8-1.8z" fill="#ffffff" stroke-width="none" opacity="1"></path></g><g id="svga-group-eyesiriswrapper-right" transform="matrix(1,0,0,1,0,0)"><g id="svga-group-eyesiriscontrol-right" transform="matrix(1,0,0,1,0,0)"><g id="svga-group-eyesiris-right" transform="matrix(1,0,0,1,0,0)"><path id="SvgjsPath11034" d="M119.9 87.8c3.2 0 5.7 2.6 5.7 5.7s-2.6 5.7-5.7 5.7-5.7-2.6-5.7-5.7 2.6-5.7 5.7-5.7z" fill="#3e4442" stroke-width="none" opacity="1"></path><path id="SvgjsPath11035" d="M119.9 88.1c3 0 5.5 2.4 5.5 5.5 0 3-2.4 5.5-5.5 5.5-3 0-5.5-2.4-5.5-5.5.1-3.1 2.5-5.5 5.5-5.5m0-.6c-3.3 0-6 2.7-6 6s2.7 6 6 6 6-2.7 6-6-2.6-6-6-6z" fill="#1b2522" stroke-width="none" opacity="1"></path><path id="SvgjsPath11036" d="M116.9 95.1c0 1.4.6 2.7 1.4 3.6.5.2 1.1.2 1.6.2 3 0 5.5-2.4 5.5-5.5 0-1.1-.3-2.2-.9-3-.7-.4-1.5-.6-2.4-.6-2.9.1-5.2 2.5-5.2 5.3z" fill="#535353" stroke-width="none" opacity="1"></path><path id="SvgjsPath11037" d="M119.9 90.6c1.6 0 2.9 1.3 2.9 2.9s-1.3 2.9-2.9 2.9-2.9-1.3-2.9-2.9 1.3-2.9 2.9-2.9z" fill="#000000" stroke-width="none" opacity="1"></path><path id="SvgjsPath11038" d="M118.6 90.5c.6 0 1 .5 1 1s-.5 1-1 1-1-.5-1-1 .5-1 1-1zm3.4 4.7c.2 0 .4.2.4.4s-.2.4-.4.4-.4-.2-.4-.4.2-.4.4-.4z" fill="#ffffff" stroke-width="none" opacity="1"></path><path id="SvgjsPath11039" d="M119.9 99c.3 0 .6 0 .8-.1-.2 0-.4-.2-.4-.4 0 .3-.2.4-.4.5-.3 0-.5-.2-.6-.4-.1.2-.4.3-.6.3-.2-.1-.4-.3-.4-.5-.2.2-.4.2-.7.1s-.4-.3-.3-.6c-.2.2-.5.1-.7 0s-.2-.5-.1-.7c-.2.2-.5.2-.7 0-.2-.2-.2-.5 0-.7-.3 0-.5-.1-.7-.3.9 1.6 2.7 2.8 4.8 2.8zm-4.9-3.2zm9.5.7c-.1.1-.3.2-.5.2.1.4-.4.9-.8.8.1.2 0 .5-.2.6-.2.1-.5.1-.6 0 0 .2-.2.5-.4.5-.2.1-.5 0-.6-.2 0 .2-.1.4-.2.5 1.3-.3 2.5-1.2 3.3-2.4zm-2-7.6c.3-.1.6.2.6.5.4-.2.8.3.7.6.2-.1.4 0 .5.2.1.2.1.4-.1.5.2 0 .5.1.6.3.1.2.1.5-.1.7.2 0 .5.2.5.4s0 .5-.2.6c.2.1.4.3.4.5s-.1.4-.3.5c.2.1.3.3.3.6s-.2.4-.4.4c.3.2.1.8-.3.8.1.1.1.3.1.5.5-.8.8-1.8.8-2.8 0-2.2-1.3-4.1-3.1-4.9-.1.4 0 .5 0 .6zm-.6-.3c.1-.1.2-.1.4 0-.5-.2-1-.4-1.6-.5l-.1.1c.5-.1 1 .1 1.3.4z" fill="#0e1613" stroke-width="none" opacity="1"></path></g></g></g><g id="svga-group-eyesfront-right"><path id="SvgjsPath10979" d="M120 83.1c-5.9 0-10.6 5.2-10.6 11.5s4.7 11.5 10.6 11.5 10.6-5.2 10.6-11.5-4.8-11.5-10.6-11.5zm2.6 16.3c-2.3 0-7.7-1.1-9.8-2.4-2.1-1.3-2.8-1.8-2.8-1.8s.4-2 1.4-3.1 5.3-3 8.5-3.7c0 0 3.8 1.6 6.6 5 2.8 3.5 3.2 5.3 3.2 5.3s-4.8.8-7.1.7z" fill="#8c5537" stroke-width="none" opacity="1" stroke="none"></path><path id="SvgjsPath10982" d="m110.4 95.6-.9-.6v.1c-.8 4.4 3.8 7.5 7.4 8.8.2.1.3-.2.1-.3-2.9-2-7.2-4.2-6.6-8z" fill="#7d4425" stroke-width="none" opacity="1" stroke="none"></path><path id="SvgjsPath10983" d="M131.6 100.6c-2.6-7.3-12.3-18.2-21-13.8-.5.3-.3 1.2.3 1.2 2.7-.3 5.3-.3 7.8.5-3.8.4-8.5 2.4-9.2 6.5 0 .1 0 .1.1.2l.1.1c5.1 4.7 13.7 5.7 20 3.9.4.6.8 1.3 1.3 1.9.1.2.8 0 .6-.5zm-11.7-1.8c-3.4-.3-6.6-1.9-9.4-3.6 0-.2.1-.4.2-.6 1.3-4 5.7-4.4 9-5.7l.1-.1c1.1.4 2.2 1 3.3 1.8 2.8 2.1 4.4 5 6.2 7.8-3.2 0-6.3.7-9.4.4z" fill="#1b1929" stroke-width="none" opacity="1" stroke="none"></path></g></g></g><g id="svga-group-facehighlight-single"></g><g id="svga-group-eyebrows-left-move" transform="matrix(1,0,0,1,0,0)"><g id="svga-group-eyebrows-left-rotate" transform="matrix(1,0,0,1,0,0)"><g id="svga-group-eyebrows-left" transform="matrix(1,0,0,1,0,0)"><path id="SvgjsPath10891" d="M72.61 81.6c.54-.64 1.34-1.05 2.14-1.38.01-.03.02-.05.05-.08.41-.33.91-.56 1.44-.72.37-.22.82-.36 1.3-.44.02-.05.06-.11.13-.13.52-.22 1.1-.13 1.65-.05.01-.01.01-.02.02-.02.28-.21.65-.19 1.02-.1.08-.13.23-.22.39-.22.2.01.41.04.6.07.31.02.64.1.95.21.04-.01.09-.04.14-.04 1.36-.19 2.89.45 4.19.84 1.33.4 2.76.72 3.88 1.57.19.14.18.44.02.6 1.01.59 2.09 1.34 2.52 2.36.06.06.11.14.14.24.06.07.12.15.18.23.38.42.3.94.01 1.33.18.37-.02.94-.42 1.12-.96.45-1.86-.62-2.51-1.35-.1-.07-.18-.13-.27-.19-.63-.47-1.18-.92-1.48-1.62-.16-.17-.32-.36-.47-.54-.86-.45-1.68-1-2.54-1.47-.72-.4-1.58-.74-2.25-1.25-.15-.07-.28-.17-.4-.29-.02.01-.04.02-.06.02-.54-.01-1.05-.26-1.56-.46-.65-.1-1.32-.17-1.98-.24-.27-.02-.55-.03-.83-.05-.04.03-.08.06-.14.07-.68.07-1.34.18-1.98.39-.3.09-.58.21-.87.31-.97.46-1.84 1.14-2.85 1.51-.12.01-.24-.14-.16-.23z" fill="#caa478" stroke-width="none" opacity="1"></path><path id="SvgjsPath10892" d="M78.07 79.27c3.13-1.57 6.98.79 9.72 3.13-.88-1.12-1.8-2.11-2.82-3.16-.2-.2-.01-.52.27-.43 1.3.46 2.22 1.82 2.99 2.9.79 1.13 1.55 2.27 2.54 3.23-.33-.73-.58-1.46-1.03-2.14-.42-.66-.94-1.23-1.29-1.94-.13-.26.23-.5.44-.32 1.9 1.65 2.04 4.45 3.97 5.98.09.08.07.25-.07.25-.25 0-.47-.06-.67-.16-.06-.01-.12-.03-.19-.04-.07.01-.09-.06-.07-.1-.15-.11-.3-.25-.42-.4-.03 0-.05-.01-.08-.02-.82-.45-1.48-1.04-2.06-1.72-1.63-.93-2.99-2.27-4.59-3.25-2.11-1.3-4.09-1.59-6.51-1.43-.28.02-.33-.28-.13-.38z" fill="#d9ba97" stroke-width="none" opacity="1"></path><path id="SvgjsPath10893" d="M93.75 83.92c-1.19-1.69-3.03-3.02-4.84-3.99-7.92-4.23-18.07-1.06-21.89 7.16-.14.3.3.48.45.2.01-.01.02-.03.03-.04.03-.01.06-.03.07-.06 1.97-2.25 3.79-4.39 6.47-5.83 2.71-1.47 5.73-1.75 8.67-.8 2.79.9 4.68 2.62 6.59 4.75.9 1 2.44 2.59 3.98 2.02 1.51-.56 1.21-2.36.47-3.41zm-.47.63c-.03 1.91-.6 2.52-1.72 1.82-.68-.35-1.23-.93-1.75-1.48-1.66-1.76-3.23-3.36-5.5-4.33-2-.86-4.31-1.26-6.48-1.01-1.56.17-3.26.8-4.87 1.72 2.41-1.59 5.22-2.54 8.22-2.55 2.74-.01 5.49.74 7.86 2.12 1.36.79 2.65 1.8 3.68 3 .21.22.39.46.56.71z" fill="#bb8f5c" stroke-width="none" opacity="1"></path></g></g></g><g id="svga-group-eyebrows-right-move" transform="matrix(1,0,0,1,0,0)"><g id="svga-group-eyebrows-right-rotate" transform="matrix(1,0,0,1,0,0)"><g id="svga-group-eyebrows-right" transform="matrix(1,0,0,1,0,0)"><path id="SvgjsPath10894" d="M127.41 81.68c-.53-.64-1.33-1.07-2.12-1.4a.177.177 0 0 0-.05-.08c-.4-.34-.9-.57-1.43-.74-.37-.22-.81-.37-1.3-.45a.25.25 0 0 0-.13-.14c-.52-.22-1.1-.14-1.65-.07-.01-.01-.01-.02-.02-.02-.28-.21-.65-.2-1.01-.11a.476.476 0 0 0-.39-.23c-.2.01-.41.03-.6.06-.31.01-.65.1-.95.2-.04-.01-.09-.04-.14-.05-1.36-.21-2.9.42-4.2.79-1.33.39-2.77.69-3.9 1.53-.19.14-.18.44-.03.6-1.01.58-2.1 1.32-2.54 2.33-.06.06-.11.14-.14.24-.06.07-.12.15-.18.23-.38.42-.31.94-.02 1.33-.18.37.01.94.4 1.12.95.46 1.87-.6 2.53-1.32.1-.07.19-.13.27-.19.64-.46 1.19-.91 1.49-1.6.16-.17.32-.36.47-.54.87-.44 1.69-.98 2.55-1.45.72-.39 1.58-.72 2.27-1.23.15-.07.28-.17.41-.29.02.01.04.02.06.02.54-.01 1.06-.25 1.56-.44.66-.1 1.32-.16 1.98-.22.27-.02.55-.03.83-.05.04.03.08.06.14.07.68.08 1.34.19 1.98.41.3.1.58.22.87.32.96.47 1.83 1.16 2.83 1.54.12.07.24-.07.16-.17z" fill="#caa478" stroke-width="none" opacity="1"></path><path id="SvgjsPath10895" d="M121.98 79.29c-3.12-1.61-6.99.71-9.75 3.02.89-1.12 1.82-2.1 2.86-3.13.2-.2.02-.52-.26-.43-1.31.44-2.24 1.8-3.02 2.87-.8 1.13-1.58 2.25-2.57 3.21.34-.73.6-1.45 1.05-2.13.43-.66.96-1.22 1.31-1.92.13-.26-.22-.5-.44-.32-1.92 1.63-2.09 4.43-4.04 5.94-.09.08-.07.25.07.25.25 0 .47-.06.67-.15.06-.01.12-.03.19-.04.07.01.09-.06.07-.1.15-.11.3-.25.43-.39.03 0 .05-.01.08-.02.83-.44 1.49-1.03 2.08-1.69 1.63-.91 3.02-2.24 4.63-3.2 2.12-1.28 4.1-1.55 6.53-1.36.25 0 .31-.31.11-.41z" fill="#d9ba97" stroke-width="none" opacity="1"></path><path id="SvgjsPath10896" d="M106.68 87.2c1.53.59 3.09-.97 4-1.97 1.93-2.11 3.84-3.81 6.64-4.68 2.96-.93 5.97-.61 8.67.89 2.66 1.48 4.46 3.63 6.41 5.9.03.02.05.05.07.06.01.01.02.03.03.04.15.28.59.1.46-.2-3.74-8.25-13.85-11.53-21.82-7.39-1.82.95-3.66 2.27-4.88 3.94-.76 1.03-1.08 2.83.42 3.41zm.59-3.49c1.04-1.19 2.35-2.19 3.71-2.96a15.56 15.56 0 0 1 7.89-2.04c2.98.04 5.8 1.01 8.19 2.64-1.59-.93-3.28-1.58-4.85-1.77-2.16-.26-4.47.12-6.49.94-2.28.94-3.87 2.53-5.55 4.27-.53.54-1.07 1.11-1.77 1.46-1.13.69-1.7.08-1.7-1.84.18-.25.37-.49.57-.7z" fill="#bb8f5c" stroke-width="none" opacity="1"></path></g></g></g><g id="svga-group-beardwrap" transform="matrix(1,0,0,1,0,0)"><g id="svga-group-beard-single-move" transform="matrix(1,0,0,1,0,0)"><g id="svga-group-beard-single" transform="matrix(1,0,0,1,0,0)"></g></g></g><g id="svga-group-mustache-single-move" transform="matrix(1,0,0,1,0,0)"><g id="svga-group-mustache-single" transform="matrix(1,0,0,1,0,0)"></g></g><g id="svga-group-nose-single-move" transform="matrix(1,0,0,1,0,0)"><g id="svga-group-nose-single" transform="matrix(1,0,0,1,0,0)"><path id="SvgjsPath11102" d="M104.31 104.57c1.37.25 4.28.67 5.61 3.45 1.33 2.79-.41 3.93-1.08 4.28-.67.35-2.6.22-3.3-.32 0 0-.57 2.15-1.55 2.72-.98.57-3.61 1.68-6.15.86-2.53-.82-2.95-2.98-3.14-3.23s-.76-.76-2.09.03c-1.33.79-2.79-.51-3.2-2.06-.41-1.55.7-3.36 1.3-3.83.6-.48 2.22-1.77 3.87-2.28 1.66-.5 6.76-.16 9.73.38z" fill="#8c5537" stroke-width="none" opacity="1" transform="translate(0 1)" stroke="none"></path><path id="SvgjsPath11103" d="M94.78 104.05c-2.51.17-5.71 2.79-5.82 5.44-.08 1.96 2.12 4.81 4.09 3.01.28-.25-.08-.63-.38-.49-.64.3-1.77.08-2.24-.45-.46-.5-.62-1.07-.67-1.7-.08-1.15.38-2.24 1.16-3.08 1.12-1.21 2.73-1.55 3.91-2.61.05-.04.01-.13-.05-.12z" fill="#5e2709" stroke-width="none" opacity="1" transform="translate(0 1)" stroke="none"></path><path id="SvgjsPath11104" d="M92.77 111.88c1.39-1.44 2.08 1.93 2.34 2.43.19.38.42.71.75.98 1.2.97 3.18.97 4.63.97 1.32 0 2.69-.22 3.74-1.09.48-.4.81-.85 1.06-1.43.14-.33.21-.68.32-1.02.26-.78.83-3.11 2.5-1.65.14.12.42.01.34-.2-.42-1.16-1.77-1.15-2.6-.35-.56.54-.74 1.29-.98 1.99-.72 2.02-1.91 2.88-4.06 2.94-1.55.05-3.59.08-4.62-1.19-.67-.83-.67-1.96-1.38-2.75-.71-.8-1.84-.91-2.45.05-.15.26.2.53.41.32z" fill="#5e2709" stroke-width="none" opacity="1" transform="translate(0 1)" stroke="none"></path><path id="SvgjsPath11105" d="M106.27 112.52c2.42 1.76 5.03-1.25 4.39-3.68-.7-2.63-3.83-5.04-6.6-4.45-.2.04-.19.34 0 .39 1.93.47 3.59.85 4.93 2.48.89 1.09 1.45 2.47.71 3.78-.74 1.32-2 1.34-3.34 1.17-.2-.04-.21.22-.09.31z" fill="#5e2709" stroke-width="none" opacity="1" transform="translate(0 1)" stroke="none"></path><path id="SvgjsPath11106" d="M96.12 103.88c1.81-.45 3.62-.63 5.47-.8.11-.01.15-.18.03-.21-1.89-.35-3.81-.04-5.6.64-.22.09-.14.43.1.37z" fill="#5e2709" stroke-width="none" opacity="1" transform="translate(0 1)" stroke="none"></path><path id="SvgjsPath11107" d="M106.47 107.66c-.46-2.36-4.41-2.81-6.35-2.83-2.78-.04-4.85.85-6.69 2.88-.22.24-.01.64.32.55 1.95-.53 4.36-.78 6.37-.62 1.08.08 2.17.36 3.17.76.9.35 1.52.75 2.51.45.52-.16.77-.66.67-1.19z" fill="#945e41" stroke-width="none" opacity="1" transform="translate(0 1)" stroke="none"></path><path id="SvgjsPath11108" d="M103.53 113.42c-.85.24-1.6.62-2.49.68-.97.07-1.92-.12-2.79-.53-.33-.15-.62.32-.29.5 1.68.93 4.33 1.25 5.83-.21.19-.18 0-.51-.26-.44z" fill="#945e41" stroke-width="none" opacity="1" transform="translate(0 1)" stroke="none"></path></g></g><g id="svga-group-hair-front" transform="matrix(1,0,0,1,0,0)"><path id="SvgjsPath11153" d="M59.1 95.5c-1.2-2.1-2.8-7.7-3.7-10.5 0 0-.1-1.7-.3-8.4s2.9-18.3 8.3-26.4 15.2-16.2 18.3-20c3.1-3.8 10.1-11.1 10.6-13.5l.2 6s2.9-4.5 3.3-8.1L96 20s1.9-6.4 1.7-8.3c0 0 1.7 4.5 1.7 5.5l.7-2.9s2.4 3.8 5 6.9c0 0 .7-5.7.7-7.4.3.4 3.7 7 7.2 11.4 2.4 3.1 12.2 10.8 15.3 14.2 3.1 3.3 11.6 14 13.7 24s2.9 21.7 2.4 22.9-.2 3.8-1.7 7.1-2.1 5.7-3.1 4.1c-.9-1.7.3-16-2.6-18.8-4.2-4-6.7-24.4-12.2-25.8-8.5-2.2-18.1 4.6-25.2 4.6-5.5 0-17.9-8.2-24.9-3.3-4.3 3.1-5.7 14.3-9.6 21.8-1.6 3.1-3.5 3.9-3.7 4.8-.4 1.7-.3 10.4-.4 14.3 0 1-1.4 1.3-1.9.4z" fill="#caa478" stroke-width="none" opacity="1" stroke="none"></path><path id="SvgjsPath11154" d="M98.7 15.7c-.1-.4-.8-.3-.7.1.9 8.7-4.2 15.1-7.3 22.8-2 5.1-2.8 10.9.6 15.6.2.3.6 0 .4-.3-7.1-13.7 9.4-24.4 7-38.2zm-2.6 4.8c.1-.3-.4-.4-.5-.1-3.4 8.8-19.1 21.4-9 31.4.2.2.7-.1.5-.4-8.1-12.9 6.4-19.8 9-30.9zm-9.2 7.2c-6 6.5-15.8 16-11.2 25.7.2.4.9.1.7-.3-4-10 5.6-17.8 10.9-25 .3-.3-.2-.7-.4-.4zM69.7 46.4c.2-.3-.2-.6-.5-.3-3.5 3.9-5.4 13-1 17.1.1.1.3.2.5.1l.3-.2c.2-.1.2-.3.1-.5 0-.1-.1-.1-.1-.2-.1-.1-.2-.2-.3 0-.1.2-1.7-3.8-1.8-4.5-.2-1.2-.2-2.5-.2-3.7.3-2.9 1.5-5.4 3-7.8zm-6.4 31.9c-5.5-4.5-2.9-13.5-.5-18.8.2-.4-.4-.8-.6-.3-2.8 4.8-5.5 16.2.8 19.6.2.1.6-.3.3-.5zm-3.4 17.4c-6.5-8.2-4.1-22-1.7-31.4 0-.2-.2-.3-.3-.1-1.9 6.2-2.8 12.8-2.8 19.2 0 4.7.8 9.5 4.5 12.6.2.3.5 0 .3-.3zm50.6-58.8c-1.2-7.5-6.3-13.5-9.3-20.4-.2-.4-.7-.1-.6.3 1.7 6 6 10.7 8 16.6 2.3 7.1 1.2 14.3-1.9 21-.2.3.3.6.5.3 3.2-5.4 4.3-11.6 3.3-17.8zm6.5-1c-3.8-6.7-7.3-12.6-9.5-20.1-.1-.3-.5-.2-.4.1.8 5.1 2.6 9.9 5.2 14.4 3.6 6.4 8 11.8 6.2 19.6-.1.6.7.8.9.2 2-4.9.1-9.8-2.4-14.2zm-1.6-5c-.2-.2-.5.1-.3.3 7.4 7.1 21 17 15.3 28.7-.2.4.3.6.5.3 7.6-11-8.1-23.4-15.5-29.3zm22.1 25.3c-.1-.2-.5-.1-.4.2 2.4 7.7 5 15.3 1.5 23.1-.1.2.2.4.3.2 4.5-7.5 1.8-16.1-1.4-23.5zm5.6 17.8c-.1-.3-.6-.2-.5.2 1.3 8.6 2.4 15.8-3 23.2-.2.2.2.5.4.3 6.4-5.9 5.6-16.2 3.1-23.7z" fill="#bb8f5c" stroke-width="none" opacity="1" stroke="none"></path><path id="SvgjsPath11155" d="M100.6 20.3c-.1-.3-.6-.2-.5.1 2.5 10.6 7.6 20.7 2.3 31.4-.3.5.5 1 .8.5 6.7-9.3 1.3-22.6-2.6-32zm8.8 6.8c-.1-.3-.6-.2-.5.1.9 3.4 2.4 6.6 3.2 10 1.1 4.6.2 8.9-1.1 13.3-.1.3.4.5.5.1 3.3-8.3 1.3-15.4-2.1-23.5zm8.4 8.1c-.1-.2-.4 0-.3.2 3.9 5.2 7.8 9.8 8.8 16.5.1.5.7.3.8-.1.5-6.8-5.3-11.9-9.3-16.6zm4.7 4.3c-.2-.2-.4 0-.3.2 2.2 3.2 5.7 7 6.1 11.1 0 .3.6.4.6 0-.1-4.2-3.7-8.3-6.4-11.3zm-24.9-7.2c.1-.2-.3-.4-.4-.2-3.4 6.6-7.7 14.6-3 21.6.2.2.6 0 .4-.2-4.1-7.3.5-14.4 3-21.2zM66.3 65.2c-1.1-3-1.9-5.8-1.4-9.1 0-.2-.3-.3-.4 0-.7 3.1-.5 6.6 1.2 9.4.2.2.7 0 .6-.3zM134 50.6c-.1-.1-.2 0-.2.1 2.3 6 3.7 12.2 4.5 18.6 0 .2.4.2.4 0-.3-6.6-1.9-12.8-4.7-18.7z" fill="#d9ba97" stroke-width="none" opacity="1" stroke="none"></path></g><g id="svga-group-glasses-single-move" transform="matrix(1,0,0,1,0,0)"><g id="svga-group-glasses-single" transform="matrix(1,0,0,1,0,0)"></g></g></g></g></g><rect id="svga-credit-rect" width="200" height="15" x="0" y="185" fill="#ecf0f1" opacity="0.5" style="display: none;"></rect><text id="svga-credit-text" font-family="Avenir Next, Roboto, Helvetica, Arial, sans-serif" font-size="10px" text-anchor="start" font-weight="400" size="10px" anchor="start" weight="400" fill="#333333" x="33.402061462402344" y="182.71133995056152" style="display: none;"><tspan id="SvgjsTspan10425" dy="13" x="33.402061462402344">Created on AvatarMaker.com</tspan></text></g></svg>