<svg xmlns="http://www.w3.org/2000/svg" version="1.1" width="600px" height="600px" viewBox="0 0 200 200" style="overflow:hidden!important;"><defs id="SvgjsDefs8011"></defs><g id="svga-group-wrapper"><g id="svga-group-backs-single"><path id="SvgjsPath8715" d="M0 0h200v200H0V0z" fill="#e5fcc2" stroke-width="none" opacity="1"></path><path id="SvgjsPath8716" d="M88.8 158.9s-21.3-3-23.6-17.1c-1.5-9.3 10.5-9.3 14.8-5.5 0 0 3.3-8.7 9.9-7.2 8.4 1.9 9.2 12.7-1.1 29.8zM38.7 51s14.9-16.3 6.8-30.1c-5.3-9.2-14.9-1.5-15.7 4.6 0 0-8.8-5.6-13 0-5.4 7 1.6 17 21.9 25.5zM168 165s-2.6-14.4 1.6-22.7 14.8-4 13.3 4.9c0 0 8.2-2 10.6 4.5 2.3 6.4-10 12.7-25.5 13.3zm6.6-139.5s5.2-1.9 5.9-4.8c.8-3-3-3.5-4.5-1.6 0 0-1.1-2.8-3.1-2.2-1.9.5-2.2 2.6 1.7 8.6z" fill="#b8dd7e" stroke-width="none" opacity="1"></path><path id="SvgjsPath8717" d="M125 33.1s-13-1.2-19.2-6.8.1-13.7 7.4-10.3c0 0 .2-7.6 6.3-8 6.2-.5 8.7 11.5 5.5 25.1zm15.9 84.9s3.6-4.2 2.8-7.1c-.8-3-4.4-1.6-4.7.8 0 0-2.4-1.9-3.8-.4s-.6 3.4 5.7 6.7zm12.2 66.9s7.1-.7 9-4.2-2.7-5.4-5.2-3.4c0 0-.5-3.9-3.2-3.8s-3.6 2.7-.6 11.4zm-122.9 5.7s23.3-3.5 29-15.3-9.8-17.2-17.5-10.6c0 0-2.3-12.8-11-11.9s-11.7 9.5-.5 37.8zm3.5-106.7s3.3-12.8-1.5-18.3-11 1.3-9.3 6.7c0 0-7.1-1.6-8.5 3-1.4 4.8 2.3 8.2 19.3 8.6z" fill="#ceed9f" stroke-width="none" opacity="1"></path><path id="SvgjsPath8718" d="M149.4 76.1s-24.7-19.3-16.5-40.8c5.4-14.2 20.6-5.7 23.2 2.7 0 0 11-10 18.2-3.2 9.1 8.6 1.6 24.4-24.9 41.3zm7 29.6s-4.5-12.3-2-20.2 12.4-5.8 12.4 2.3c0 0 6.9-3 10 2.3 3 5.4-6.9 12.7-20.4 15.6zM53.9 143.9s-13-1.2-19.2-6.8.1-13.7 7.4-10.3c0 0 .2-7.6 6.3-8s8.7 11.6 5.5 25.1zm89.6 23.3s-4.6-9.3-3.3-15.7c1.2-6.5 9.3-5.6 10 .8 0 0 5.2-3 8 1s-4.3 10.5-14.7 13.9zM65.3 46s5.8-6.7 4.5-11.4-7-2.5-7.5 1.2c0 0-3.8-3.1-6-.7-2.2 2.4-1 5.6 9 10.9zm-40.7 81.2s4.7-5.4 3.7-9.3-5.7-2-6.1 1c0 0-3.1-2.5-4.9-.6s-.8 4.6 7.3 8.9zm53 60.3s5.2-1.9 5.9-4.8-3-3.5-4.5-1.6c0 0-1.1-2.8-3.1-2.2-1.8.6-2.1 2.7 1.7 8.6zm47.7-12.7s4.7-5.4 3.7-9.3c-1-3.9-5.7-2-6.1 1 0 0-3.1-2.5-4.9-.6-1.9 2-.9 4.6 7.3 8.9zm-22.6-132s4.7-5.4 3.7-9.3-5.7-2-6.1 1c0 0-3.1-2.5-4.9-.6-1.9 2-.9 4.6 7.3 8.9zM77.3 94.4s8.8-4.2 9.6-9.5-5.9-5.6-8.2-2.1c0 0-2.5-4.8-5.8-3.3-3.2 1.4-3.4 5.1 4.4 14.9z" fill="#d9f4b0" stroke-width="none" opacity="1"></path></g><g id="svga-group-humanwrap-move" transform="matrix(1,0,0,1,0,0)"><g id="svga-group-humanwrap" transform="matrix(1,0,0,1,0,0)"><g id="svga-group-hair-back-move" transform="matrix(1,0,0,1,0,0)"><g id="svga-group-hair-back" transform="matrix(1,0,0,1,0,0)"></g></g><g id="svga-group-humanbody-back"><path id="SvgjsPath8412" d="M166.5 181.1c-10.9-6.6-27.6-8.4-35-12.1-4.9-2.5-9.1-4.7-8.9-17.8s1.9-42.4 1.9-42.4H75.4s1.6 29.4 1.9 42.4-4.2 15.6-8.9 17.8c-7.4 3.5-24.1 5.4-35 12.1-10.8 6.6-10 18.9-10 18.9v19.7h153.3V200c-.1 0 .7-12.3-10.2-18.9z" fill="#875732" stroke-width="none" opacity="1" stroke="none"></path></g><g id="svga-group-chinshadow-single"><path id="SvgjsPath8660" d="M77.3 153c2.7 4.4 5.1 8.5 5.8 9.8 1.5 2.6 9.5 5.9 16.8 5.9 7.5 0 15.4-3.3 16.9-5.9.7-1.3 3.1-5.4 5.8-9.9v-1.7c.2-13.1 1.9-42.4 1.9-42.4H75.4s1.6 29.4 1.9 42.4v1.8z" fill="#683712" stroke-width="none" opacity="0.65" stroke="none"></path></g><g id="svga-group-humanbody-front"><path id="SvgjsPath8413" d="M78.7 156.8c.5 4.8 1.7 9.4 3.1 13.9.8 2.3 1.6 4.6 2.6 6.9.8 2 1.7 4.2 3.1 5.9.3.4 1 0 .9-.5-.5-2.2-1.6-4.3-2.4-6.4-.9-2.2-1.7-4.4-2.5-6.6-1.5-4.4-2.8-8.9-4.1-13.3-.2-.4-.8-.3-.7.1zm41.3-1c-1.3 8.2-3.9 16.1-5.4 24.2-.1.4.4.5.6.2 3.1-7.7 4.1-16.1 5.1-24.3-.1-.2-.3-.2-.3-.1zm-25.8 11.9c-.9 3.6 1.9 8.6 6.2 7.6.5-.1.4-.8 0-1-1.4-.5-2.9-.9-3.9-2.1-1.1-1.2-1.5-2.9-1.4-4.5 0-.4-.8-.5-.9 0z" fill="#683712" stroke-width="none" opacity="1" stroke="none"></path><path id="SvgjsPath8414" d="M177.3 219.7c-.1-6.6-.3-13.1-.3-19.7l-.3-.3c.1 0 .1 0 .2.1s.1.2.1.1v-1.4c0-.5-.1-.9-.1-1.4-.1-.9-.3-1.9-.5-2.8-.5-1.8-1.1-3.6-2-5.3-1.7-3.4-4.4-6.2-7.7-8.1-3.6-2.2-7.6-3.8-11.6-5.1-4-1.3-8.1-2.4-12.1-3.5-4-1.2-8.1-2.2-11.8-4.2-1.9-1-3.6-2.1-4.8-3.6-1.2-1.6-1.9-3.5-2.3-5.5-.8-4-.4-8.2-.3-12.4l.7-12.6 1.5-25.2.1-1.4h-1.4c-8.2 0-16.4 0-24.6.1l-24.6.3h-.9l.1.9c.8 11.9 1.6 23.8 2.1 35.7.1 3 .3 6 .2 8.9-.1 2.9-.4 5.9-1.6 8.6-.6 1.3-1.4 2.5-2.4 3.5s-2.3 1.8-3.6 2.4c-2.6 1.3-5.4 2.2-8.3 3-5.8 1.5-11.6 2.8-17.3 4.7-2.8.9-5.7 2-8.4 3.4-1.3.7-2.7 1.4-4 2.4-1.3.9-2.4 1.9-3.5 3.1-2.1 2.3-3.6 5.2-4.5 8.1-.5 1.5-.8 3-1 4.6-.1.8-.1 1.6-.1 2.4v2.3l-.2 17.9v1.3h1.4l38.3.2c12.8.1 25.5.1 38.3 0 12.8-.1 25.6-.1 38.3-.3 12.8-.2 25.6-.5 38.3-.7h.6v-.5zm-77.2-1.6H61.8l-37 .2-.1-16.6v-2.2c0-.7 0-1.4.1-2.1.1-1.4.4-2.8.8-4.2.8-2.7 2.1-5.3 3.9-7.5.9-1.1 2-2.1 3.1-2.9 1.1-.9 2.4-1.6 3.7-2.3 2.6-1.4 5.3-2.5 8.1-3.5 5.6-2 11.4-3.4 17.1-5.1 2.9-.8 5.8-1.7 8.5-3.1 1.3-.7 2.7-1.5 3.8-2.6 1.1-1.1 2-2.4 2.6-3.9 1.2-2.9 1.5-5.9 1.6-8.9 0-3-.1-6-.2-9l-1.3-34.8 23.5.4c7.7.1 15.4.1 23.1.1-.4 7.9-.8 15.9-1.1 23.8-.2 4.2-.2 8.4-.3 12.6 0 4.2-.2 8.5.8 12.8.5 2.1 1.3 4.2 2.8 6 1.4 1.7 3.4 2.9 5.3 3.8 3.9 1.9 8 2.8 12.1 3.8s8.2 2 12.2 3.3c4 1.3 7.9 2.8 11.5 5 3.2 1.9 5.8 4.7 7.5 8 .9 1.6 1.5 3.4 1.9 5.2.2.9.4 1.8.4 2.7.1.5.1.9.1 1.4V200l-.3 19c-12.6-.2-25.1-.5-37.7-.7-12.7-.1-25.5-.1-38.2-.2z" fill="#592a06" stroke-width="none" opacity="1" stroke="none"></path></g><g id="svga-group-clothes-single"><path id="SvgjsPath8554" d="M149.9 220.3c-.4-19.5 5.9-44.6 5.9-44.6l-12.6-3.6s-8.7 28.3-45.2 27.1-41.2-27.1-41.2-27.1l-12.6 3.6s6.3 25.2 5.9 44.6h99.8z" fill="#dcc96b" stroke-width="none" opacity="1"></path><path id="SvgjsPath8555" d="m156 174.9-12.6-3.6c-.4-.1-.9.1-1.1.5-.7 2-1.7 4.1-2.9 6-1.1 1.9-2.4 3.8-3.9 5.5-1.4 1.7-3 3.3-4.7 4.8-1.7 1.4-3.5 2.8-5.4 3.9-3.8 2.4-8 4.1-12.4 5.2-4.4 1.1-8.9 1.6-13.4 1.6s-9.1-.4-13.5-1.4c-1.1-.2-2.2-.5-3.3-.8-1.1-.4-2.2-.7-3.2-1.1-2.1-.8-4.2-1.7-6.2-2.9-3.9-2.2-7.5-5.2-10.2-8.7-1.4-1.8-2.6-3.7-3.6-5.7s-1.8-4.1-2.2-6.3c-.1-.3-.4-.5-.8-.4L44 174.9c-.4.1-.6.5-.5.9.8 3.6 1.6 7.3 2.3 11 .7 3.7 1.3 7.4 1.8 11.1.5 3.7.9 7.4 1.2 11.2.3 3.7.4 7.5.3 11.2 0 .6.5 1.1 1.1 1.1l25.2-.1c8.4 0 16.8-.1 25.1-.2l12.5-.1 12.4-.2 24.7-.4c.1-3.8.3-7.6.7-11.3.4-3.7.9-7.4 1.4-11.2.6-3.7 1.3-7.4 2-11.1.8-3.7 1.5-7.4 2.4-11 0-.4-.2-.8-.6-.9zm-3.3 11.6c-.7 3.7-1.2 7.4-1.7 11.2s-.9 7.5-1.1 11.3c-.2 3.8-.3 7.5-.1 11.2l-25.2-.4-12.5-.2-12.4-.1c-8.3-.1-16.6-.2-24.8-.2l-23.7-.1c0-3.4-.2-6.9-.4-10.3-.3-3.8-.8-7.5-1.3-11.3-1.1-7.2-2.5-14.4-4.2-21.5l11.2-3.3c2.5 8.9 8.9 16.1 16.8 20.4 8.1 4.5 17.4 6.2 26.5 6.3 4.6.1 9.2-.3 13.7-1.3s8.9-2.6 12.9-5c4-2.3 7.6-5.4 10.6-8.9 2.8-3.4 5.2-7.1 6.8-11.3l11.1 3.1c-.8 3.5-1.6 7-2.2 10.4z" fill="#bda736" stroke-width="none" opacity="1"></path></g><g id="svga-group-head" transform="matrix(1,0,0,1,0,0)"><g id="svga-group-ears-left-move" transform="matrix(1,0,0,1,0,0)"><g id="svga-group-ears-left" transform="matrix(1,0,0,1,0,0)"><path id="SvgjsPath8564" d="M60.8 95.5s-3.2-5.5-5-8c-1.8-2.4-4.1-5-4.9-.8s-.9 12.5.3 18.1 6.2 11.3 8.3 11.3c2.2 0 3.6-8.4 3.6-11.4 0-2.8-1.1-7.1-2.3-9.2z" fill="#875732" stroke-width="none" opacity="1" stroke="none"></path><path id="SvgjsPath8565" d="M62.6 94.8c.3.8-.2 4.4 0 5.3.4 1.6.8 3.3.9 5 0 1.7-.1 3.3-.4 4.8-.3 1.5-.6 3-1.1 4.3-.3.7-.6 1.3-1 1.9-.2.3-.4.5-.7.7-.2.1-.3.1-.5.1s-.3 0-.5-.1c-.6-.2-1.2-.5-1.7-.9-.3-.2-.5-.5-.8-.7l-.8-.8c-1-1.1-1.9-2.3-2.7-3.7-.8-1.4-1.5-2.9-2-4.6-.1-.4-.2-.8-.3-1.3-.1-.4-.2-.8-.2-1.3-.1-.8-.2-1.7-.3-2.5-.2-1.7-.3-3.3-.3-4.9-.1-3.3-.1-6.5.4-9.6.2-.8.3-1.6.8-2.2l.2-.2c.1-.1.1-.1.2-.1.1-.1.3-.1.5-.2.2 0 5.7.6 6.5 1.9.7 1.5 3.5 8.3 3.8 9.1zM55.8 88c-.9-1.1-1.8-2.2-2.7-2.7-.5-.2-.8-.2-1.1.2-.3.4-.5 1-.6 1.6-.3 1.4-.5 2.9-.6 4.4s-.2 3.1-.2 4.7.1 3.2.3 4.9c.1.8.2 1.6.4 2.4l.3 1.2c.1.4.2.8.3 1.1.5 1.5 1.2 2.9 2 4.1s1.7 2.4 2.6 3.3c.9.9 1.9 1.8 2.8 2 .8.3 1.4-.9 1.9-2.1s.8-2.6 1.1-4 .6-2.9.6-4.4-.2-3.2-.5-4.8c-.3-1.6-.8-3.2-1.6-4.6-1.6-2.4-3.3-5-5-7.3z" fill="#784620" stroke-width="none" opacity="1" stroke="none"></path><path id="SvgjsPath8566" d="M53.7 91.4c1.6 1.3 3.1 3.5 3.8 6.1 0 .2-.1.2-.2.1 0 0 0-.1-.1-.1-.5-.5-1-1.1-1.5-1.1-.8.1-.7 1.6-.4 2.7.4 1.6 1.1 3 1.8 4.4.1.2 0 .3-.1.2-1-1.5-2.7-4.8-2.4-6.9.2-1.9 1.5-1 2.3-.1-.6-1.3-1.3-2.6-2.1-3.6-1.1-1.3-3.4-3.3-3.8-.7 0 .2-.2.1-.2-.1-.2-2.5 1.8-1.7 2.9-.9z" fill="#683712" stroke-width="none" opacity="1" stroke="none"></path><path id="SvgjsPath8567" d="M57.8 106.7c1 2.6-.6 3.3-1.7 2.2-1.8-1.7-3.1-5.6-3.4-8.8 0-.2.2-.2.2 0 .3 1.8.7 3.5 1.4 5.1.4 1 .9 2 1.5 2.7.4.5.8.9 1.2 1 .9-.1 1.2-.8.8-2.2-.1 0 0-.1 0 0z" fill="#683712" stroke-width="none" opacity="1" stroke="none"></path></g></g><g id="svga-group-ears-right-move" transform="matrix(1,0,0,1,0,0)"><g id="svga-group-ears-right" transform="matrix(1,0,0,1,0,0)"><path id="SvgjsPath8568" d="M139.2 95.5s3.2-5.5 5-8c1.8-2.4 4.1-5 4.9-.8s.9 12.5-.3 18.1-6.2 11.3-8.3 11.3c-2.2 0-3.6-8.4-3.6-11.4s1.1-7.1 2.3-9.2z" fill="#875732" stroke-width="none" opacity="1" stroke="none"></path><path id="SvgjsPath8569" d="M141.3 85.8c.8-1.4 6.3-2 6.5-1.9.2 0 .3.1.5.2.1 0 .1.1.2.1l.2.2c.5.6.7 1.4.8 2.2.5 3.1.5 6.4.4 9.6-.1 1.6-.2 3.3-.3 4.9-.1.8-.2 1.7-.3 2.5-.1.4-.1.8-.2 1.3-.1.4-.2.8-.3 1.3-.5 1.7-1.2 3.2-2 4.6s-1.7 2.6-2.7 3.7c-.2.3-.5.5-.8.8-.3.2-.5.5-.8.7-.5.4-1.1.8-1.7.9-.2 0-.3.1-.5.1s-.3-.1-.5-.1c-.3-.2-.5-.4-.7-.7-.4-.5-.7-1.2-1-1.9-.5-1.4-.9-2.8-1.1-4.3-.3-1.5-.4-3.1-.4-4.8.1-1.7.4-3.4.9-5 .2-.8-.3-4.5 0-5.3.2-.9 3-7.7 3.8-9.1zm-2.1 9.7c-.7 1.4-1.2 3-1.6 4.6-.3 1.6-.5 3.3-.5 4.8.1 1.5.4 3 .6 4.4.3 1.4.6 2.8 1.1 4s1.1 2.3 1.9 2.1c.9-.2 1.9-1 2.8-2 .9-1 1.8-2.1 2.6-3.3.8-1.3 1.5-2.6 2-4.1.1-.4.2-.8.3-1.1l.3-1.2c.2-.8.3-1.6.4-2.4.2-1.6.3-3.3.3-4.9s0-3.2-.2-4.7c-.1-1.5-.3-3.1-.6-4.4-.2-.7-.4-1.3-.6-1.6-.3-.3-.7-.4-1.1-.2-.9.5-1.8 1.6-2.7 2.7-1.7 2.1-3.4 4.7-5 7.3z" fill="#784620" stroke-width="none" opacity="1" stroke="none"></path><path id="SvgjsPath8570" d="M146.3 91.4c-1.6 1.3-3.1 3.5-3.8 6.1 0 .2.1.2.2.1 0 0 0-.1.1-.1.5-.5 1-1.1 1.5-1.1.8.1.7 1.6.4 2.7-.4 1.6-1.1 3-1.8 4.4-.1.2 0 .3.1.2 1-1.5 2.7-4.8 2.4-6.9-.2-1.9-1.5-1-2.3-.1.6-1.3 1.3-2.6 2.1-3.6 1.1-1.3 3.4-3.3 3.8-.7 0 .2.2.1.2-.1.2-2.5-1.8-1.7-2.9-.9z" fill="#683712" stroke-width="none" opacity="1" stroke="none"></path><path id="SvgjsPath8571" d="M142.2 106.7c-1 2.6.6 3.3 1.7 2.2 1.8-1.7 3.1-5.6 3.4-8.8 0-.2-.2-.2-.2 0-.3 1.8-.7 3.5-1.4 5.1-.4 1-.9 2-1.5 2.7-.4.5-.8.9-1.2 1-.9-.1-1.2-.8-.8-2.2.1 0 0-.1 0 0z" fill="#683712" stroke-width="none" opacity="1" stroke="none"></path></g></g><g id="svga-group-faceshape-wrap" transform="matrix(1,0,0,1,0,0)"><g id="svga-group-faceshape-single"><path id="SvgjsPath8648" d="M143.1 82v-.3c-1.3-29.9-20.7-46.4-43.2-46.4S58 51.7 56.7 81.7v.3c0 2.2-.4 18.8 1.4 25.3 2 7 7.7 14.1 11.2 19 3.5 4.9 12.1 18.7 13.6 21.3s9.5 5.9 16.8 5.9c7.4 0 15.3-3.3 16.8-5.9 1.5-2.6 10.1-16.4 13.6-21.3 3.5-4.9 9.2-12 11.2-19 2.2-6.5 1.9-23.2 1.8-25.3z" fill="#875732" stroke-width="none" opacity="1" stroke="none"></path><path id="SvgjsPath8649" d="M116.5 147.6c1.5-2.6 10.1-16.4 13.6-21.3 3.5-4.9 9.2-12 11.2-19 2.2-6.5 1.9-23.2 1.8-25.3v-.3c-1.3-29.9-20.7-46.4-43.2-46.4S58 51.7 56.7 81.7v.3c0 2.2-.4 18.8 1.4 25.3 2 7 7.7 14.1 11.2 19 3.5 4.9 12.1 18.7 13.6 21.3s9.5 5.9 16.8 5.9c7.4 0 15.3-3.3 16.8-5.9zm-29.7 0c-.6-.3-1.2-.8-1.5-1.1-.1 0-.6-1-1.1-1.7-1.7-2.9-3.5-4.8-5.3-7.7s-3.6-5.8-5.5-8.7c-.9-1.4-2-2.9-3-4.3l-3.1-4c-2-2.7-3.9-5.4-5.5-8.2-.8-1.4-1.5-2.9-2-4.4s-.8-3-1.1-4.7c-.5-3.3-.7-6.7-.9-10-.1-1.7-.2-3.4-.2-5.1l-.1-5.1c.1-6.7 1.2-13.4 3.7-19.6.2-.4.3-.8.4-1.2l.6-1.1 1.1-2.2c.3-.8.9-1.4 1.3-2.1.4-.7.9-1.4 1.3-2.1 2-2.6 4.1-5.2 6.7-7.3.6-.5 1.2-1.1 1.9-1.6l2-1.4 1-.7 1.1-.6 2.1-1.2c.7-.4 1.5-.6 2.2-1 .8-.3 1.5-.7 2.3-.9 1.5-.5 3.1-1 4.7-1.3.8-.2 1.6-.4 2.4-.5l2.4-.3 1.2-.1h1.2l2.4-.1c.8 0 1.6.1 2.4.1.8.1 1.6 0 2.4.2 1.6.3 3.2.3 4.8.8l2.4.5 2.3.7c1.6.4 3 1.2 4.5 1.8.8.3 1.4.8 2.1 1.1.7.4 1.5.7 2.1 1.2 1.3.9 2.8 1.7 4 2.8 5.1 4.1 9.3 9.5 12 15.6s4.1 12.9 4.4 19.6c.1 6.8-.1 13.6-1.2 20.2-.3 1.6-.6 3.3-1.2 4.8-.5 1.6-1.2 3-2 4.5-1.6 2.9-3.6 5.6-5.6 8.2l-3.2 4c-1.1 1.3-2.1 2.8-3.1 4.2s-1.9 2.8-2.9 4.3l-2.8 4.3c-1.8 2.9-3.6 4.8-5.3 7.7l-1.3 2.1c0 .1-.5.6-1.1.9-1.1.7-2.6 1.4-4 1.9-2.9 1-6.1 1.7-9.1 1.7s-6.2-.5-9.1-1.4c-1.6-.2-3-.8-4.2-1.5z" fill="#592a06" stroke-width="none" opacity="1" stroke="none"></path></g></g><g id="svga-group-mouth-single-move" transform="matrix(1,0,0,1,0,0)"><g id="svga-group-mouth-single" transform="matrix(1,0,0,1,0,0)"><path id="SvgjsPath8763" d="M89.9 128.6s-.1-3.9 6.7-6.1c.3-.1.6 0 .8.2.4.3 1.1.8 2.2.8 1.2 0 1.9-.5 2.2-.9.2-.2.4-.4.8-.4.8 0 2.8.4 4.6 1.6 2.6 1.8 3.2 3.6 3.5 5 0 0-2.1.4-3.8-.5-1.6-.9-3.6-1-4.8-1.1-1.2-.1-4.6-.2-4.8-.1-.2 0-5.1.9-5.4 1.2-.3.3-2 .3-2 .3z" fill="#de5a2b" stroke-width="none" opacity="1" transform="translate(0 2)"></path><path id="SvgjsPath8764" d="M90.3 129.4s1.6 3.2 2.2 4c.7.8 2.2 1.4 6.8 1.4s7.8-.1 8.8-.7c1-.6 2.3-4.8 2.2-5.3 0 0-2.8-.5-4.9-1.2s-6.7-1.4-9.9-.4c-3.2 1-5.2 2.2-5.2 2.2z" fill="#e66638" stroke-width="none" opacity="1" transform="translate(0 2)"></path><path id="SvgjsPath8765" d="M87.7 127.9c.6.9 1.4 1.2 2.3 1.8.2.1.5.1.7 0 2.8-1.7 4.9-2.4 9.4-2.2 1.9.1 3.8.3 5.6.9 2.4.9 7.1 2.8 8.1-1.1.1-.4-.4-.8-.8-.4-2 2.1-4.3 1.4-6.8.5-1.5-.7-4-.8-6.1-.8-2-.1-4.1-.2-5.9.3-1 .3-1.9.7-2.8 1.2-1.3.7-2 .2-3.2-.7-.3-.1-.6.2-.5.5z" fill="#d74f1f" stroke-width="none" opacity="1" transform="translate(0 2)"></path><path id="SvgjsPath8766" d="M112.6 126.3c.5.4 1 .7 1.3 1.3.1.3.2.6.2.9v.9c.1.3.5.5.8.3.8-.6.8-2 .4-2.8-.4-.9-1.3-1.9-2.4-1.7-.4.2-.8.7-.3 1.1zm-25.5.8c-.3.5-.6 1-.7 1.5 0 .2.2.3.4.2.4-.3.7-.9.9-1.4.3-.3-.4-.7-.6-.3z" fill="#7f4e29" stroke-width="none" opacity="1" transform="translate(0 2)"></path></g></g><g id="svga-group-eyes-left-move" transform="matrix(1,0,0,1,0,0)"><g id="svga-group-eyes-left" transform="matrix(1,0,0,1,0,0)"><g id="svga-group-eyesback-left"><path id="SvgjsPath8602" d="M89.9 95.2s-.4-2-1.4-3.1c-1-1-5.3-3-8.5-3.7 0 0-3.8 1.6-6.6 5-2.8 3.5-3.2 5.3-3.2 5.3s4.8.7 7.1.7 7.7-1.1 9.8-2.4c2.2-1.3 2.8-1.8 2.8-1.8z" fill="#ffffff" stroke-width="none" opacity="1"></path></g><g id="svga-group-eyesiriswrapper-left" transform="matrix(1,0,0,1,0,0)"><g id="svga-group-eyesiriscontrol-left" transform="matrix(1,0,0,1,0,0)"><g id="svga-group-eyesiris-left" transform="matrix(1,0,0,1,0,0)"><path id="SvgjsPath8664" d="M80 88.1c3 0 5.5 2.4 5.5 5.4 0 3-2.4 5.5-5.4 5.5s-5.5-2.4-5.5-5.4c0-3 2.4-5.5 5.4-5.5z" fill="#79a519" stroke-width="none" opacity="1"></path><path id="SvgjsPath8665" d="M80.1 99.3c-3.2 0-5.8-2.5-5.8-5.7s2.5-5.8 5.7-5.8 5.8 2.5 5.8 5.7-2.5 5.7-5.7 5.8zm-.1-11c-2.9 0-5.2 2.4-5.1 5.2s2.4 5.2 5.2 5.1c2.9 0 5.2-2.4 5.1-5.2 0-2.8-2.3-5.1-5.2-5.1z" fill="#699507" stroke-width="none" opacity="1"></path><path id="SvgjsPath8666" d="M80 88.9c2.6 0 4.7 2.1 4.7 4.6 0 2.6-2.1 4.7-4.6 4.7s-4.7-2.1-4.7-4.6c0-2.6 2-4.7 4.6-4.7z" fill="#81ac22" stroke-width="none" opacity="1"></path><path id="SvgjsPath8667" d="M80 89.5c2.2 0 4 1.8 4.1 4 0 2.2-1.8 4-4 4.1s-4-1.8-4.1-4c0-2.3 1.8-4.1 4-4.1z" fill="#8ab42d" stroke-width="none" opacity="1"></path><path id="SvgjsPath8668" d="M80 90.6c1.6 0 2.9 1.3 3 2.9 0 1.6-1.3 2.9-2.9 3s-2.9-1.3-3-2.9c0-1.7 1.3-3 2.9-3z" fill="#000000" stroke-width="none" opacity="1"></path><path id="SvgjsPath8669" d="M78.7 90.6c.6 0 1 .4 1 1s-.4 1-1 1-1-.4-1-1 .5-1 1-1zm3.4 4.6c.2 0 .4.2.4.4s-.1.4-.4.4-.4-.2-.4-.4.2-.4.4-.4z" fill="#ffffff" stroke-width="none" opacity="1"></path></g></g></g><g id="svga-group-eyesfront-left"><path id="SvgjsPath8610" d="M69.4 94.6c0 6.4 4.7 11.5 10.6 11.5s10.6-5.2 10.6-11.5S85.9 83.1 80 83.1s-10.6 5.1-10.6 11.5zm.9 4.1s.4-1.8 3.2-5.3c2.8-3.5 6.6-5 6.6-5 3.1.7 7.5 2.6 8.5 3.7s1.4 3.1 1.4 3.1-.7.5-2.8 1.8c-2.1 1.3-7.5 2.4-9.8 2.4-2.3.1-7.1-.7-7.1-.7z" fill="#875732" stroke-width="none" opacity="1" stroke="none"></path><path id="SvgjsPath8611" d="m89.6 95.6.9-.6v.1c.8 4.4-3.8 7.5-7.4 8.8-.2.1-.3-.2-.1-.3 2.9-2 7.2-4.2 6.6-8z" fill="#784620" stroke-width="none" opacity="1" stroke="none"></path><path id="SvgjsPath8612" d="M69.1 100.9c.5-.6.9-1.2 1.3-1.9 6.3 1.8 14.9.8 20-3.9l.1-.1c.1-.1.1-.1.1-.2-.8-4.1-5.4-6.1-9.2-6.5 2.4-.8 5-.8 7.8-.5.6.1.8-.9.3-1.2-8.7-4.4-18.4 6.6-21 13.8-.3.7.4.9.6.5zm1.7-2.4c1.8-2.8 3.4-5.7 6.2-7.8 1.1-.8 2.2-1.4 3.3-1.8l.1.1c3.3 1.2 7.7 1.7 9 5.7.1.2.1.4.2.6-2.9 1.8-6.1 3.3-9.4 3.6-3.2.2-6.3-.5-9.4-.4z" fill="#0f190c" stroke-width="none" opacity="1" stroke="none"></path></g></g></g><g id="svga-group-eyes-right-move" transform="matrix(1,0,0,1,0,0)"><g id="svga-group-eyes-right" transform="matrix(1,0,0,1,0,0)"><g id="svga-group-eyesback-right"><path id="SvgjsPath8603" d="M110.1 95.2s.4-2 1.4-3.1c1-1 5.3-3 8.5-3.7 0 0 3.8 1.6 6.6 5 2.8 3.5 3.2 5.3 3.2 5.3s-4.8.7-7.1.7-7.7-1.1-9.8-2.4c-2.2-1.3-2.8-1.8-2.8-1.8z" fill="#ffffff" stroke-width="none" opacity="1"></path></g><g id="svga-group-eyesiriswrapper-right" transform="matrix(1,0,0,1,0,0)"><g id="svga-group-eyesiriscontrol-right" transform="matrix(1,0,0,1,0,0)"><g id="svga-group-eyesiris-right" transform="matrix(1,0,0,1,0,0)"><path id="SvgjsPath8670" d="M119.9 88.1c3 0 5.5 2.4 5.5 5.4S123 99 120 99s-5.5-2.4-5.5-5.4 2.4-5.5 5.4-5.5z" fill="#79a519" stroke-width="none" opacity="1"></path><path id="SvgjsPath8671" d="M120 99.3c-3.2 0-5.8-2.5-5.8-5.7s2.5-5.8 5.7-5.8 5.8 2.5 5.8 5.7-2.5 5.7-5.7 5.8zm-.1-11c-2.9 0-5.2 2.4-5.1 5.2 0 2.9 2.4 5.2 5.2 5.1 2.9 0 5.2-2.4 5.1-5.2 0-2.8-2.3-5.1-5.2-5.1z" fill="#699507" stroke-width="none" opacity="1"></path><path id="SvgjsPath8672" d="M119.9 88.9c2.6 0 4.7 2.1 4.7 4.6s-2.1 4.7-4.6 4.7-4.7-2.1-4.7-4.6 2-4.7 4.6-4.7z" fill="#81ac22" stroke-width="none" opacity="1"></path><path id="SvgjsPath8673" d="M119.9 89.5c2.2 0 4 1.8 4.1 4 0 2.2-1.8 4-4 4.1-2.2 0-4-1.8-4.1-4 0-2.3 1.8-4.1 4-4.1z" fill="#8ab42d" stroke-width="none" opacity="1"></path><path id="SvgjsPath8674" d="M119.9 90.6c1.6 0 2.9 1.3 3 2.9 0 1.6-1.3 2.9-2.9 3-1.6 0-2.9-1.3-3-2.9 0-1.7 1.3-3 2.9-3z" fill="#000000" stroke-width="none" opacity="1"></path><path id="SvgjsPath8675" d="M118.6 90.6c.6 0 1 .4 1 1s-.4 1-1 1-1-.4-1-1 .5-1 1-1zm3.4 4.6c.2 0 .4.2.4.4s-.1.4-.4.4-.4-.2-.4-.4.2-.4.4-.4z" fill="#ffffff" stroke-width="none" opacity="1"></path></g></g></g><g id="svga-group-eyesfront-right"><path id="SvgjsPath8613" d="M120 83.1c-5.9 0-10.6 5.2-10.6 11.5s4.7 11.5 10.6 11.5 10.6-5.2 10.6-11.5-4.8-11.5-10.6-11.5zm2.6 16.3c-2.3 0-7.7-1.1-9.8-2.4-2.1-1.3-2.8-1.8-2.8-1.8s.4-2 1.4-3.1 5.3-3 8.5-3.7c0 0 3.8 1.6 6.6 5 2.8 3.5 3.2 5.3 3.2 5.3s-4.8.8-7.1.7z" fill="#875732" stroke-width="none" opacity="1" stroke="none"></path><path id="SvgjsPath8616" d="m110.4 95.6-.9-.6v.1c-.8 4.4 3.8 7.5 7.4 8.8.2.1.3-.2.1-.3-2.9-2-7.2-4.2-6.6-8z" fill="#784620" stroke-width="none" opacity="1" stroke="none"></path><path id="SvgjsPath8617" d="M131.6 100.6c-2.6-7.3-12.3-18.2-21-13.8-.5.3-.3 1.2.3 1.2 2.7-.3 5.3-.3 7.8.5-3.8.4-8.5 2.4-9.2 6.5 0 .1 0 .1.1.2l.1.1c5.1 4.7 13.7 5.7 20 3.9.4.6.8 1.3 1.3 1.9.1.2.8 0 .6-.5zm-11.7-1.8c-3.4-.3-6.6-1.9-9.4-3.6 0-.2.1-.4.2-.6 1.3-4 5.7-4.4 9-5.7l.1-.1c1.1.4 2.2 1 3.3 1.8 2.8 2.1 4.4 5 6.2 7.8-3.2 0-6.3.7-9.4.4z" fill="#0f190c" stroke-width="none" opacity="1" stroke="none"></path></g></g></g><g id="svga-group-facehighlight-single"></g><g id="svga-group-eyebrows-left-move" transform="matrix(1,0,0,1,0,0)"><g id="svga-group-eyebrows-left-rotate" transform="matrix(1,0,0,1,0,0)"><g id="svga-group-eyebrows-left" transform="matrix(1,0,0,1,0,0)"><path id="SvgjsPath8530" d="M66.1 85c.5-1.2 1.7-2.2 2.6-3.1.8-.9 1.7-1.9 2.6-2.7.4-.9 1.2-1.5 1.9-2.2l.1-.1c.1-.2.2-.3.3-.5.3-.5.7-1 1.2-1.4h.2l.1-.1c.1 0 .1-.1.1-.1.1-.1.2-.2.3-.2.1-.1.2-.1.3 0h.1c.3 0 .4.2.5.4h.2c.5.2.9.3 1.4.4.3.1.4.3.4.5l1.5.6c.4.2.8.3 1.3.6.6.3 1.2.5 1.8.8.2.1.3.2.3.4.1 0 .1.1.2.1s.1.1.1.2c.1.1.2.1.4.2 1.3.4 2.5.9 3.7 1.6.2.1.2.2.3.3.1.1.2.1.3.2.3.1.5.2.8.3 1 .3 1.9.7 2.8 1.3.1.1.1.2.1.3.2.1.3.2.5.4.3.2.1.8-.3.7-.1 0-.2-.1-.3-.1-.2.6-.5 1.2-.9 1.7v.1c0 .2 0 .4-.1.6 0 .4-.4.8-.8.6l-3.6-2.4c-1.3-.8-2.6-1.6-3.8-2.6-1.4-.8-2.8-1.6-4.1-2.5-.8-.4-1.5-.9-2.2-1.4-.2.2-.5.3-.7.4-.6.5-1.1.9-1.7 1.4-.8.6-1.6 1.3-2.6 1.6-.3.4-.7.8-1.1 1.2-.5.5-1.1 1.1-1.8 1.5-.2.2-.4.3-.6.4-.5.5-.9.9-1.5 1.2-.2-.1-.5-.4-.3-.6z" fill="#decfbc" stroke-width="none" opacity="1"></path><path id="SvgjsPath8531" d="M89.5 86.3c0-.1.1-.2.2-.3-.1-.1-.2-.2-.2-.3.2-.7.4-1.3.4-2 .1-.9-.2-1.6-.4-2.4-.1-.2.2-.4.4-.3 1.4.9.9 2.9.4 4.3.2-.2.3-.3.4-.5.4-.6.7-1.2 1-1.9.1-.3.6-.2.5.2-.1.7-.4 1.4-.8 2.1-.3.5-.9 1.4-1.5 1.6-.3 0-.5-.2-.4-.5zM76.2 74.7c2.3 1.6 4.2 3.9 6.3 5.7 1.1.9 2.3 1.8 3.5 2.6-.6-.9-1.2-1.7-1.9-2.4-1.2-1.3-2.6-2.3-3.8-3.5-.2-.2 0-.7.3-.5 3 1.4 5.1 4.4 6.6 7.3l1.2.9c-.3-.8-.7-1.7-1.1-2.5-.5-.9-1.2-1.7-1.7-2.6-.1-.2.1-.4.3-.3 1.9 1.1 3 3.8 3.2 6l.1.1c.1.1 0 .3-.1.3-.1.2-.3.2-.4 0 0-.1-.1-.2-.1-.2-2.4-1.2-4.6-2.9-6.7-4.5-2.1-1.7-4.8-3.6-6.2-5.9-.1-.4.2-.7.5-.5zm-4.1 3.2c.4-.5 1.2-.6 1.8-.6.7-.1 1.5-.1 2.1.2.2.1.2.4-.1.4-.7.1-1.3 0-2 0-.6.1-1.2.4-1.8.3 0 .1-.1-.1 0-.3zm-2.3 2.6c.7-.6 1.7-.9 2.5-1.2 1-.4 2.1-.8 3.2-1.2.2-.1.3.2.2.3-.9.5-1.9 1-2.9 1.4-.9.4-1.8.9-2.8 1.1-.3.1-.4-.3-.2-.4z" fill="#ede8e1" stroke-width="none" opacity="1"></path><path id="SvgjsPath8532" d="M76 78.3c2.1 1.6 4.5 2.9 6.7 4.3 2.4 1.5 4.7 3 7.2 4.4v.1c-.1.2.2.4.4.3.1.1.2.1.3.1.8-.3 1.5-1.3 2-2 .6-.8 1.1-1.6 1.4-2.5.1-.3-.3-.4-.5-.2-.3.4-.6.8-.8 1.2.2-.8.4-1.6.3-2.3 0-.1-.1-.2-.2-.2-.1-.2-.3-.3-.4-.1-.2.2-.3.4-.5.6-5.1-2.9-10.7-5.2-16-7.8h-.4c-2.2 1.9-4.1 4-6 6.1-1.9 2.1-4 4.2-5.4 6.6v.1c-.1.1-.2.3-.4.4-.1.2 0 .4.2.3 2.2-1 4.1-2.8 6-4.3C72 81.6 74 80 76 78.3zm-.2-.4c-2.2 1.4-4.3 3.1-6.4 4.7-.7.6-1.6 1.1-2.3 1.7.9-1.1 1.8-2.3 2.8-3.4 1.9-2.1 3.8-4.1 5.6-6.2 5.3 2.5 10.5 5.4 15.9 7.6-.2.3-.5.5-.6.9-.1.2.1.3.3.3.3-.1.5-.2.7-.4-.2.5-.3.9-.5 1.3-.3.8-.8 1.4-1.3 2.1-2.3-1.6-4.6-3.1-7-4.6-2.2-1.4-4.4-3.1-6.8-4.3-.1-.1-.3 0-.4.3z" fill="#cfb89a" stroke-width="none" opacity="1"></path></g></g></g><g id="svga-group-eyebrows-right-move" transform="matrix(1,0,0,1,0,0)"><g id="svga-group-eyebrows-right-rotate" transform="matrix(1,0,0,1,0,0)"><g id="svga-group-eyebrows-right" transform="matrix(1,0,0,1,0,0)"><path id="SvgjsPath8533" d="M134 85c-.5-1.2-1.7-2.1-2.6-3.1-.9-.9-1.7-1.9-2.6-2.7-.4-.8-1.2-1.5-1.9-2.2l-.1-.1c-.1-.2-.2-.3-.3-.5-.3-.5-.7-1-1.2-1.4-.1-.1-.1-.1-.2-.1l-.1-.1c-.1 0-.1-.1-.1-.1-.1-.1-.2-.2-.3-.2-.1-.1-.2-.1-.3 0h-.1c-.3 0-.4.2-.5.4h-.2c-.5.2-.9.3-1.4.4-.3.1-.4.3-.4.5l-1.5.6c-.4.2-.8.3-1.3.6-.6.3-1.2.5-1.8.8-.2.1-.3.2-.3.4-.1 0-.1.1-.2.1-.1.1-.1.1-.1.2-.1.1-.2.1-.4.2-1.3.4-2.5.9-3.7 1.6-.2.1-.2.2-.3.3-.1.1-.2.1-.3.2-.3.1-.5.2-.8.3-1 .3-1.9.7-2.8 1.3-.1.1-.1.2-.1.3-.2.1-.3.2-.5.4-.3.2-.1.8.3.7.1 0 .2-.1.3-.1.2.6.5 1.2.9 1.7v.1c0 .2 0 .4.1.6 0 .4.4.8.8.6l3.6-2.4c1.3-.8 2.6-1.6 3.7-2.6 1.4-.8 2.8-1.6 4.1-2.5.8-.4 1.5-.9 2.2-1.4.2.2.5.3.7.4.6.5 1.1.9 1.7 1.4.8.6 1.6 1.3 2.5 1.6.3.4.6.8 1.1 1.2.5.5 1.1 1.1 1.8 1.5.2.2.4.3.6.4.5.5.9.9 1.5 1.2.3 0 .6-.3.5-.5z" fill="#decfbc" stroke-width="none" opacity="1"></path><path id="SvgjsPath8534" d="M110.5 86.3c0-.1-.1-.2-.2-.3.1-.1.2-.2.2-.3-.2-.7-.4-1.3-.4-2-.1-.9.2-1.6.4-2.4.1-.2-.2-.4-.4-.3-1.3.9-.9 2.9-.4 4.3-.2-.2-.3-.3-.4-.5-.4-.6-.7-1.2-1-1.9-.1-.3-.6-.1-.5.2.1.7.4 1.4.8 2.1.3.5.9 1.4 1.5 1.6.3 0 .5-.2.4-.5zm13.3-11.6c-2.3 1.6-4.2 3.9-6.3 5.7-1.1.9-2.3 1.8-3.5 2.7.6-.9 1.2-1.7 1.9-2.4 1.2-1.3 2.6-2.3 3.8-3.5.2-.2 0-.7-.3-.5-3 1.4-5.1 4.4-6.6 7.3l-1.2.9c.3-.8.6-1.7 1.1-2.5.5-.9 1.2-1.7 1.7-2.6.1-.2-.1-.4-.3-.3-1.9 1.1-3 3.8-3.2 6l-.1.1c-.1.1 0 .3.1.3.1.2.3.2.4 0 0-.1.1-.2.1-.2 2.4-1.2 4.6-2.9 6.7-4.6 2.1-1.7 4.8-3.6 6.2-5.9.1-.4-.2-.7-.5-.5zm4.1 3.2c-.4-.5-1.2-.6-1.8-.6-.7-.1-1.5-.1-2.1.2-.2.1-.2.4.1.4.7.1 1.3 0 2 0 .6.1 1.2.4 1.8.3 0 0 .1-.1 0-.3zm2.3 2.6c-.7-.6-1.7-.9-2.5-1.2-1-.4-2.1-.8-3.2-1.2-.2-.1-.3.2-.2.3.9.5 1.9 1 2.9 1.4.9.4 1.8.9 2.8 1.1.3.1.4-.3.2-.4z" fill="#ede8e1" stroke-width="none" opacity="1"></path><path id="SvgjsPath8535" d="M130.1 83.2c1.9 1.5 3.8 3.3 6 4.3.2.1.4-.2.2-.3-.1-.1-.2-.3-.4-.4v-.1c-1.4-2.4-3.5-4.5-5.4-6.6-1.9-2.1-3.8-4.2-6-6.1-.1-.1-.2-.1-.2 0h-.2c-5.3 2.6-10.8 4.9-16 7.8-.1-.2-.3-.4-.5-.6-.2-.1-.3 0-.4.1-.1 0-.2.1-.2.2-.1.7.1 1.5.3 2.3-.3-.4-.6-.8-.8-1.2-.2-.2-.6-.1-.5.2.3.9.8 1.7 1.4 2.5.5.7 1.2 1.7 2 2 .1 0 .2 0 .3-.1.2.1.5-.1.4-.3v-.1c2.4-1.4 4.8-2.9 7.2-4.4 2.2-1.4 4.6-2.7 6.7-4.3 1.9 1.9 4 3.5 6.1 5.1zm-6.4-5.6c-2.4 1.2-4.6 2.8-6.8 4.3-2.3 1.5-4.7 3-7 4.6-.4-.7-.9-1.3-1.3-2.1-.2-.4-.4-.9-.5-1.3.2.2.4.4.7.4.2 0 .3-.1.3-.3-.1-.3-.4-.6-.6-.9 5.4-2.2 10.7-5.1 15.9-7.6 1.8 2.1 3.8 4.1 5.6 6.2 1 1.1 1.9 2.2 2.8 3.4-.8-.6-1.6-1.1-2.4-1.7-2.1-1.6-4.2-3.2-6.4-4.6.1-.4-.1-.6-.3-.4z" fill="#cfb89a" stroke-width="none" opacity="1"></path></g></g></g><g id="svga-group-beardwrap" transform="matrix(1,0,0,1,0,0)"><g id="svga-group-beard-single-move" transform="matrix(1,0,0,1,0,0)"><g id="svga-group-beard-single" transform="matrix(1,0,0,1,0,0)"></g></g></g><g id="svga-group-mustache-single-move" transform="matrix(1,0,0,1,0,0)"><g id="svga-group-mustache-single" transform="matrix(1,0,0,1,0,0)"></g></g><g id="svga-group-nose-single-move" transform="matrix(1,0,0,1,0,0)"><g id="svga-group-nose-single" transform="matrix(1,0,0,1,0,0)"><path id="SvgjsPath8735" d="M100.57 118.86c-1.05.15-3.5-1.3-3.9-1.3s-1.1 1-2.6.95c-1.5-.05-2.7-.4-2.7-1.8s1.1-3.85 1.35-5.31.54-2.68 1.52-2.89c0 0 .23-.61.43-1.56.2-.95 1.3-9.01 1.8-9.91s5.06-2.05 7.11.25c0 0 1.7 10.41 2.05 11.01 0 0 .75.2 1.2 1.7.45 1.5 1.1 3.25 1.55 4.21.45.95.7 2.45.25 3.1-.45.65-1.05.7-1.05.7s-1.4.15-1.95-.25-1.05-.7-1.4-.7c-.35 0-1.15 1.05-2.05 1.45-.91.4-1.61.35-1.61.35z" fill="#875732" stroke-width="none" opacity="1" transform="translate(0 1)"></path><path id="SvgjsPath8736" d="M94.84 118.22c-.67.22-1.27.02-1.79-.6-1.17-.15-1.54-.71-1.09-1.68.13-.75.33-1.49.5-2.23.17-.74.35-1.48.53-2.23l.18-.74c.04-.93.6-1.48 1.68-1.66.09.25.5.23.5-.07-.01-.52-.29-.88-.69-.99.98-2.9 1.29-6.16 1.77-9.15.49-3 .97-6.06 1.1-9.11 0-.1-.16-.13-.18-.02-.69 3.21-1.09 6.48-1.63 9.72-.47 2.81-1.26 5.68-1.46 8.53-.16.01-.32.05-.49.14-1.35.66-1.45 3.45-1.74 4.68-.32 1.35-1.44 3.93-.51 5.28.77 1.12 2.33.9 3.42.51.24-.1.14-.42-.1-.38z" fill="#592a06" stroke-width="none" opacity="1" transform="translate(0 1)"></path><path id="SvgjsPath8737" d="M103.83 116.56c-.35.22-.57.47-.89.74-1.27 1.05-2.41 1.52-4.06.79-1.82-.81-3.94-2.66-5.88-1.09-.16.13.02.36.19.32 3.02-.69 4.45 1.92 7.21 2.04 2.36.1 3.3-2.46 5.58-2.61.21-.01.34-.32.12-.44-.83-.41-1.49-.24-2.27.25z" fill="#592a06" stroke-width="none" opacity="1" transform="translate(0 1)"></path><path id="SvgjsPath8738" d="M105.55 107.1c-.17-2.48-.83-4.95-1.23-7.4-.44-2.69-.91-5.38-1.31-8.07-.02-.11-.2-.08-.19.03.51 5.07.82 10.63 2.4 15.49.05.16.35.15.33-.05z" fill="#592a06" stroke-width="none" opacity="1" transform="translate(0 1)"></path><path id="SvgjsPath8739" d="M108.1 112.37c-.45-1.13-.89-3.39-1.89-4.2-.62-.5-1.36-.41-1.59.37-.04.15.16.22.24.1.75-1.09 1.68 1.64 1.8 1.95.29.77.58 1.53.88 2.3.52 1.35 2.15 4.32-.36 4.92-.18.04-.23.33-.05.41.84.39 1.59-.02 2.02-.84.81-1.53-.49-3.61-1.05-5.01z" fill="#592a06" stroke-width="none" opacity="1" transform="translate(0 1)"></path><path id="SvgjsPath8740" d="M102.44 108.2c-.34-2.54-.69-5.09-1.02-7.63-.3-2.33-.08-4.95-1.04-7.12-.17-.38-.69-.21-.81.11-.65 1.75-.36 3.65-.3 5.48.06 1.91.07 3.83.25 5.73.16 1.77.37 3.53.64 5.28.23 1.53 1.42 4.45.05 5.49-.42.32-.49 1.16.17 1.27 4.63.82 2.36-6.42 2.06-8.61z" fill="#8f603c" stroke-width="none" opacity="1" transform="translate(0 1)"></path><path id="SvgjsPath8741" d="M107.83 114.6c-.25-1.04-.66-2.05-1.01-3.05-.31-.88-.46-1.65-1.23-2.21-.14-.1-.33.01-.38.15-.36 1.15.33 2.38.69 3.48.36 1.1 1.43 3 .37 3.97-.49.45.13 1.15.68.88 1.22-.6 1.16-2.06.88-3.22z" fill="#8f603c" stroke-width="none" opacity="1" transform="translate(0 1)"></path></g></g><g id="svga-group-hair-front" transform="matrix(1,0,0,1,0,0)"></g><g id="svga-group-glasses-single-move" transform="matrix(1,0,0,1,0,0)"><g id="svga-group-glasses-single" transform="matrix(1,0,0,1,0,0)"></g></g></g></g></g><rect id="svga-credit-rect" width="200" height="15" x="0" y="185" fill="#ecf0f1" opacity="0.5" style="display: none;"></rect><text id="svga-credit-text" font-family="Avenir Next, Roboto, Helvetica, Arial, sans-serif" font-size="10px" text-anchor="start" font-weight="400" size="10px" anchor="start" weight="400" fill="#333333" x="33.402061462402344" y="182.71133995056152" style="display: none;"><tspan id="SvgjsTspan8064" dy="13" x="33.402061462402344">Created on AvatarMaker.com</tspan></text></g></svg>