<svg xmlns="http://www.w3.org/2000/svg" version="1.1" width="600px" height="600px" viewBox="0 0 200 200" style="overflow:hidden!important;"><defs id="SvgjsDefs12869"></defs><g id="svga-group-wrapper"><g id="svga-group-backs-single"><path id="SvgjsPath13580" d="M0 151.2s23.5-5.1 41.7 13.1S59.6 192.1 87 200H0v-48.8z" fill="#ff0000" stroke-width="none" opacity="1"></path><path id="SvgjsPath13581" d="M133.6 180.5c-23.4-5.2-55.2-7.3-78.3-46.1S0 100 0 100v51.2s23.5-5.1 41.7 13.1S59.6 192.1 87 200h80.9s-10.9-14.4-34.3-19.5z" fill="#ff6700" stroke-width="none" opacity="1"></path><path id="SvgjsPath13582" d="M170.8 156c-37.1 6.4-73.1-10.7-84.6-38.1-17-40.6-35.4-62.5-53.5-65-17.9-2.5-32.8 0-32.8 0V100s32.3-4.5 55.3 34.4 54.9 41 78.3 46.1 34.3 19.5 34.3 19.5H200v-50.1s-13.7 3.4-29.2 6.1z" fill="#ffb600" stroke-width="none" opacity="1"></path><path id="SvgjsPath13583" d="M149.1 124.2c-28.7-13.4-33-30-37.2-43.8-4.2-13.7-16.3-50-45.7-65.3S0 8 0 8v45s14.9-2.5 32.8 0c18.1 2.5 36.4 24.5 53.5 65 11.5 27.4 47.5 44.5 84.6 38.1 15.5-2.7 29.2-6.1 29.2-6.1v-14.3c-.1-.1-22.3 1.9-51-11.5z" fill="#378c00" stroke-width="none" opacity="1"></path><path id="SvgjsPath13584" d="M170.3 103c-17.6-9.8-25.8-29.7-34.3-63.3C127.5 6 100 0 100 0H0v8s36.8-8.2 66.1 7.2 41.5 51.6 45.7 65.3 8.5 30.4 37.2 43.8c28.7 13.4 50.9 11.4 50.9 11.4v-21.2c.1-.1-12-1.7-29.6-11.5z" fill="#00b1ba" stroke-width="none" opacity="1"></path><path id="SvgjsPath13585" d="M166.1 37.8C152.1 27.3 149.9 0 149.9 0H100s27.5 6 36 39.6 16.6 53.5 34.3 63.3 29.7 11.4 29.7 11.4V61.1s-19.8-12.9-33.9-23.3z" fill="#0530e2" stroke-width="none" opacity="1"></path><path id="SvgjsPath13586" d="M149.9 0s2.1 27.3 16.2 37.8S200 61.1 200 61.1V0h-50.1z" fill="#8900ea" stroke-width="none" opacity="1"></path><path id="SvgjsPath13587" d="M74.2 196.2c-2.6-1.1-5-2.4-7.4-3.9l-1.7-1.2c-.6-.4-1.1-.9-1.7-1.3-.5-.4-1.1-.9-1.7-1.3-.5-.5-1-.9-1.6-1.4-.5-.5-1.1-.9-1.6-1.4l-1.5-1.5c-1-1-2-2.1-3-3.1-3.9-4.4-7.2-9.2-10.5-14.1-1.7-2.4-3.2-5-5.1-7.4-.5-.6-.9-1.2-1.4-1.8-.5-.6-1-1.2-1.6-1.8l-.8-.8-.9-.8c-.6-.5-1.3-1-1.9-1.4-2.7-1.7-5.7-2.9-8.7-3.6s-6.1-1-9.2-1c-3.1 0-6.1.3-9 .9-1.7.3-3.3.7-5 1.2v1.6c4.7-.2 9.3-.2 13.8.2 2.8.3 5.6.7 8.3 1.4 2.7.7 5.2 1.7 7.7 2.9 1.2.6 2.4 1.3 3.5 2.1.6.4 1.1.8 1.6 1.3.5.4 1 1 1.6 1.5 2.1 2 4 4.2 5.8 6.5 3.5 4.7 6.4 9.8 9.7 14.8 1.7 2.5 3.4 5 5.4 7.3.5.6 1 1.1 1.5 1.7s1.1 1.1 1.7 1.6c.6.5 1.1 1.1 1.7 1.5l1.8 1.4c1.9 1.5 3.9 2.7 6 3.9h14.6c-.9-.3-1.7-.6-2.6-.9-2.6-1.1-5.2-2-7.8-3.1zm82.6-11.6c-.5-.3-1.1-.6-1.6-.9l-1.6-.8c-1.1-.5-2.2-1.1-3.3-1.6l-3.4-1.4c-1.1-.5-2.3-.9-3.4-1.3-4.6-1.7-9.3-3-14-4-2.4-.6-4.8-.9-7.1-1.3-2.4-.3-4.8-.7-7.2-.9-2.4-.3-4.8-.5-7.2-.7-1.2-.1-2.3-.2-3.4-.3-1.1-.2-2.2-.3-3.3-.6-8.8-1.9-17.1-6.4-24.4-12.2-7.3-5.8-13.6-13.1-19-20.9-2.7-3.9-5.1-8-7.4-12.1-1.2-2.1-2.3-4.2-3.4-6.2l-1.7-3.1c-.6-1.1-1.2-2.2-1.9-3.2-2.8-4.1-6.3-7.9-10.4-10.7-2-1.5-4.2-2.7-6.4-3.8-2.2-1.1-4.6-1.9-6.9-2.7-2.4-.8-4.8-1.2-7.2-1.6-2.4-.4-4.8-.6-7.3-.7-1.8 0-3.5 0-5.3.1v2c6.4.5 12.6 1.7 18.5 3.8 2.1.8 4.2 1.7 6.2 2.8 2 1.1 4 2.2 5.8 3.6.9.6 1.8 1.4 2.6 2.1.8.8 1.7 1.5 2.5 2.3l1.2 1.2 1.1 1.3c.8.8 1.4 1.7 2.2 2.6.7.9 1.3 1.8 2 2.8.7 1 1.3 2 2 3 1.4 2 2.7 3.9 4.1 5.9 2.8 3.9 5.6 7.8 8.5 11.6 5.7 7.7 11.5 15.2 18.5 22 3.5 3.4 7.3 6.5 11.5 9s8.8 4.5 13.7 5.7c1.2.3 2.4.5 3.7.8 1.2.2 2.5.4 3.7.5 2.3.3 4.7.6 7 .9 2.3.3 4.6.7 7 1.1 2.3.4 4.6.8 6.9 1.3 9.2 1.8 18.1 4.4 26.5 8.3 4.2 1.9 8.2 4.3 12.1 6.9l2.9 2c.9.7 1.8 1.5 2.8 2.2l.9.7h1.9c-5.5-6.2-11.9-11.5-19-15.5zm-6.8-28.8c-5.6-.1-11.3-.7-16.8-1.7-5.5-1.1-10.8-2.7-15.9-5.1-10-4.9-18.3-12.8-24.3-22.6-1.5-2.4-3-4.9-4.3-7.4-1.4-2.5-2.7-5.1-4-7.7-2.5-5.2-4.9-10.5-7.3-15.8-1.2-2.6-2.4-5.3-3.7-7.9-1.2-2.6-2.5-5.2-3.9-7.8-2.8-5.2-6-10.2-9.9-14.7-4-4.5-8.7-8.4-14.1-11.2-5.3-2.9-11.1-4.8-17-5.8-.7-.1-1.5-.3-2.2-.4l-2.2-.2-2.2-.2h-4.4l-2.2.1c-1.5 0-3 .2-4.4.4-.7.1-1.5.2-2.2.3l-2.2.4c-1.4.3-2.9.6-4.3 1.1-.8.2-1.7.5-2.5.8v1.5c9.4-1.9 19-1.9 28.2.2 1.4.3 2.7.6 4 1.1l2 .6 1 .3 1 .4c1.3.5 2.6 1 3.9 1.6l3.7 1.9c.6.3 1.2.7 1.8 1 .6.4 1.2.7 1.8 1.1l1.6.9 1.7 1.2c2.2 1.7 4.3 3.6 6.2 5.6 7.9 8 14 17.9 19.1 28.3 2.5 5.2 4.9 10.5 7.2 15.8 2.4 5.3 4.7 10.6 7.5 15.8 2.7 5.2 6 10.3 10.2 14.6 4.1 4.4 9 8 14.4 10.8 10.7 5.6 22.9 7.9 34.7 8 11.9 0 23.6-1.8 34.9-5 5.1-1.5 10.2-3.2 15.1-5.2v-2.8c-5.3 1.6-10.7 3.1-16.1 4.2-11.2 2.3-22.6 3.6-33.9 3.5zm41.1-20.2-2.1-.1-2.1-.1c-.7 0-1.4-.1-2.1-.2-2.9-.2-5.6-.7-8.5-1.1-2.8-.6-5.6-1.1-8.3-2-2.8-.7-5.4-1.7-8.1-2.6-1.3-.5-2.6-1.1-3.9-1.7-1.3-.6-2.6-1-3.9-1.7-2.5-1.3-5.1-2.5-7.5-3.9-1.2-.7-2.4-1.5-3.6-2.2-1.1-.8-2.4-1.6-3.5-2.4-2.3-1.7-4.4-3.5-6.5-5.5-4.1-4-7.6-8.5-10.6-13.5-2.9-5-5.2-10.3-7.2-15.7-2-5.4-3.5-11-5.2-16.6-.8-2.8-1.7-5.6-2.6-8.4-.9-2.8-1.9-5.6-3-8.3-1.1-2.7-2.4-5.5-3.8-8.1-1.4-2.6-2.9-5.2-4.5-7.7-1.7-2.5-3.4-4.9-5.3-7.2s-4-4.5-6.2-6.6c-4.4-4.1-9.6-7.5-15.1-10.1C61.8 7.3 56 5.5 50 4.6c-5.9-.9-11.9-1.1-17.8-.8-3 .1-5.9.4-8.8.8-1.5.2-2.9.4-4.4.7l-4.3.8c-2.9.7-5.7 1.3-8.6 2.1-2 .6-4.1 1.2-6.1 1.9v.8C10.7 9 21.5 7.6 32.3 7.8c5.7 0 11.4.5 16.9 1.6 5.5 1.1 10.9 2.8 15.9 5.2 2.5 1.2 4.9 2.5 7.2 4.1 2.3 1.6 4.5 3.2 6.6 5.1 4.2 3.7 7.9 8 11.2 12.6 3.2 4.7 6.2 9.6 8.6 14.7 2.4 5.2 4.6 10.5 6.6 16 2 5.4 4.1 10.9 6.2 16.3 1.1 2.7 2.2 5.4 3.4 8.1.6 1.3 1.3 2.6 1.9 4 .7 1.3 1.3 2.6 2.1 3.9 1.4 2.6 2.9 5.1 4.6 7.5 1.6 2.5 3.5 4.8 5.4 7.1 3.9 4.5 8.4 8.6 13.4 11.8 2.5 1.7 5.1 3 7.8 4.4 1.3.7 2.7 1.2 4.1 1.9 1.4.6 2.7 1.2 4.1 1.7 5.6 2 11.4 3.5 17.3 4.3 3 .3 5.9.6 8.9.7.7 0 1.5.1 2.2.1l2.2-.1 2.2-.1 2.2-.2c2.2-.2 4.5-.5 6.7-.9v-2c-2.3.2-4.5.2-6.8.2l-2.1-.2zM118.9 6.8c1.3 1.3 2.5 2.7 3.6 4.1 2.2 2.9 4.4 5.9 6.3 9 1.9 3.1 3.6 6.4 5 9.8l1 2.6c.3.9.5 1.8.8 2.7.3.9.4 1.8.6 2.7.2.9.4 1.8.6 2.8 1.3 7.5 2.5 15 4.1 22.5.9 3.7 1.7 7.5 3 11.2.3.9.6 1.8 1 2.8l1.1 2.7.6 1.3.7 1.3c.4.9.9 1.8 1.3 2.6 1.9 3.5 4.2 6.8 6.9 9.7 2.7 3 5.8 5.6 9.3 7.7 3.5 2.1 7.4 3.5 11.2 4.4 3.9.9 7.7 1.4 11.6 1.6l2.9.1h2.9c1.9 0 3.8-.1 5.8-.2.3 0 .6-.1.9-.1v-2.4c-4.1-.3-8.1-.8-12.1-1.4-.9-.1-1.8-.3-2.7-.5l-1.4-.2-1.4-.3c-1.8-.3-3.6-.8-5.3-1.3-3.5-1.1-6.7-2.4-9.7-4.3-6.1-3.7-11-9-14.9-15.2-.5-.8-.9-1.6-1.4-2.4l-.7-1.2-.6-1.2-1.2-2.5-1.1-2.5c-.4-.8-.8-1.7-1.1-2.6l-1.1-2.6c-.7-1.7-1.3-3.5-1.9-5.3-2.4-7.1-4.1-14.5-5.1-22-.5-3.8-1-7.6-2-11.4-.9-3.8-2.2-7.5-4-11-1.8-3.5-3.9-6.8-6.5-9.8-1.3-1.5-2.6-2.9-4-4.3-1.4-1.3-2.8-2.6-4.3-3.8h-5.9c1.1.9 2.2 1.9 3.3 2.9 1.4 1.3 2.7 2.6 3.9 4zm32.4-1.4c.2 2.4.4 4.9 1 7.3.2 1.2.6 2.4.8 3.6.4 1.2.7 2.4 1.1 3.5.7 2.3 1.7 4.6 2.8 6.8 1.2 2.2 2.5 4.3 4 6.2.7 1 1.5 1.9 2.3 2.9.4.5.8.9 1.2 1.4s.8.9 1.2 1.4c.9.8 1.7 1.7 2.5 2.6l1.2 1.3 1.2 1.3c.8.9 1.6 1.7 2.4 2.7.8.9 1.7 1.7 2.5 2.6.8.9 1.7 1.7 2.6 2.5.9.8 1.8 1.7 2.8 2.3l3 2.1c1.1.6 2.1 1.2 3.2 1.8 1.1.5 2.2 1 3.4 1.5 1.1.4 2.3.8 3.5 1.2 1.2.3 2.4.7 3.6.9.8.2 1.6.3 2.4.4v-3.1c-1.6-.6-3.1-1.2-4.6-1.9l-3.1-1.5-3.1-1.5c-1-.6-2-1.1-3-1.7-1-.6-2-1.2-3-1.7s-2-1.2-3-1.7-2-1.1-3-1.8c-1-.6-1.9-1.3-2.9-2-.9-.7-1.8-1.5-2.7-2.3-.4-.4-.9-.8-1.3-1.2l-1.2-1.3c-.8-.9-1.6-1.8-2.3-2.7-1.4-1.8-2.6-3.8-3.6-5.9-2-4.2-3.4-8.5-4.6-12.9-1.1-4.4-1.6-9-2.1-13.5-.2-1.7-.3-3.3-.4-5h-5c0 1.8 0 3.6.2 5.4z" fill="#ffffff" stroke-width="none" opacity="1"></path></g><g id="svga-group-humanwrap-move" transform="matrix(1,0,0,1,0,0)"><g id="svga-group-humanwrap" transform="matrix(1,0,0,1,0,0)"><g id="svga-group-hair-back-move" transform="matrix(1,0,0,1,0,0)"><g id="svga-group-hair-back" transform="matrix(1,0,0,1,0,0)"></g></g><g id="svga-group-humanbody-back"><path id="SvgjsPath13270" d="M166.5 181.1c-10.9-6.6-27.6-8.4-35-12.1-4.9-2.5-9.1-4.7-8.9-17.8s1.9-42.4 1.9-42.4H75.4s1.6 29.4 1.9 42.4-4.2 15.6-8.9 17.8c-7.4 3.5-24.1 5.4-35 12.1-10.8 6.6-10 18.9-10 18.9v19.7h153.3V200c-.1 0 .7-12.3-10.2-18.9z" fill="#73512d" stroke-width="none" opacity="1" stroke="none"></path></g><g id="svga-group-chinshadow-single"><path id="SvgjsPath13530" d="M75.7 162.4c5.4 3.4 13.9 4.6 24.3 4.6 10.4.1 18.9-1.1 24.3-4.5-1.1-2.5-1.8-6-1.7-11.3.2-13.1 1.9-42.4 1.9-42.4H75.4s1.6 29.4 1.9 42.4c.1 5.2-.5 8.7-1.6 11.2z" fill="#543310" stroke-width="none" opacity="0.65" stroke="none"></path></g><g id="svga-group-humanbody-front"><path id="SvgjsPath13271" d="M78.7 156.8c.5 4.8 1.7 9.4 3.1 13.9.8 2.3 1.6 4.6 2.6 6.9.8 2 1.7 4.2 3.1 5.9.3.4 1 0 .9-.5-.5-2.2-1.6-4.3-2.4-6.4-.9-2.2-1.7-4.4-2.5-6.6-1.5-4.4-2.8-8.9-4.1-13.3-.2-.4-.8-.3-.7.1zm41.3-1c-1.3 8.2-3.9 16.1-5.4 24.2-.1.4.4.5.6.2 3.1-7.7 4.1-16.1 5.1-24.3-.1-.2-.3-.2-.3-.1zm-25.8 11.9c-.9 3.6 1.9 8.6 6.2 7.6.5-.1.4-.8 0-1-1.4-.5-2.9-.9-3.9-2.1-1.1-1.2-1.5-2.9-1.4-4.5 0-.4-.8-.5-.9 0z" fill="#543310" stroke-width="none" opacity="1" stroke="none"></path><path id="SvgjsPath13272" d="M177.3 219.7c-.1-6.6-.3-13.1-.3-19.7l-.3-.3c.1 0 .1 0 .2.1s.1.2.1.1v-1.4c0-.5-.1-.9-.1-1.4-.1-.9-.3-1.9-.5-2.8-.5-1.8-1.1-3.6-2-5.3-1.7-3.4-4.4-6.2-7.7-8.1-3.6-2.2-7.6-3.8-11.6-5.1-4-1.3-8.1-2.4-12.1-3.5-4-1.2-8.1-2.2-11.8-4.2-1.9-1-3.6-2.1-4.8-3.6-1.2-1.6-1.9-3.5-2.3-5.5-.8-4-.4-8.2-.3-12.4l.7-12.6 1.5-25.2.1-1.4h-1.4c-8.2 0-16.4 0-24.6.1l-24.6.3h-.9l.1.9c.8 11.9 1.6 23.8 2.1 35.7.1 3 .3 6 .2 8.9-.1 2.9-.4 5.9-1.6 8.6-.6 1.3-1.4 2.5-2.4 3.5s-2.3 1.8-3.6 2.4c-2.6 1.3-5.4 2.2-8.3 3-5.8 1.5-11.6 2.8-17.3 4.7-2.8.9-5.7 2-8.4 3.4-1.3.7-2.7 1.4-4 2.4-1.3.9-2.4 1.9-3.5 3.1-2.1 2.3-3.6 5.2-4.5 8.1-.5 1.5-.8 3-1 4.6-.1.8-.1 1.6-.1 2.4v2.3l-.2 17.9v1.3h1.4l38.3.2c12.8.1 25.5.1 38.3 0 12.8-.1 25.6-.1 38.3-.3 12.8-.2 25.6-.5 38.3-.7h.6v-.5zm-77.2-1.6H61.8l-37 .2-.1-16.6v-2.2c0-.7 0-1.4.1-2.1.1-1.4.4-2.8.8-4.2.8-2.7 2.1-5.3 3.9-7.5.9-1.1 2-2.1 3.1-2.9 1.1-.9 2.4-1.6 3.7-2.3 2.6-1.4 5.3-2.5 8.1-3.5 5.6-2 11.4-3.4 17.1-5.1 2.9-.8 5.8-1.7 8.5-3.1 1.3-.7 2.7-1.5 3.8-2.6 1.1-1.1 2-2.4 2.6-3.9 1.2-2.9 1.5-5.9 1.6-8.9 0-3-.1-6-.2-9l-1.3-34.8 23.5.4c7.7.1 15.4.1 23.1.1-.4 7.9-.8 15.9-1.1 23.8-.2 4.2-.2 8.4-.3 12.6 0 4.2-.2 8.5.8 12.8.5 2.1 1.3 4.2 2.8 6 1.4 1.7 3.4 2.9 5.3 3.8 3.9 1.9 8 2.8 12.1 3.8s8.2 2 12.2 3.3c4 1.3 7.9 2.8 11.5 5 3.2 1.9 5.8 4.7 7.5 8 .9 1.6 1.5 3.4 1.9 5.2.2.9.4 1.8.4 2.7.1.5.1.9.1 1.4V200l-.3 19c-12.6-.2-25.1-.5-37.7-.7-12.7-.1-25.5-.1-38.2-.2z" fill="#452706" stroke-width="none" opacity="1" stroke="none"></path></g><g id="svga-group-clothes-single"><path id="SvgjsPath13412" d="M129.8 165.2c-1.6-4-5.9-16.6-5.9-16.6-1.3 3.6-4.1 12-9 16-4.3 3.6-13 11.4-14.8 13-1.8-1.6-10.5-9.4-14.8-13-4.9-4-7.6-12.2-8.9-15.8 0 0-4.4 12.4-6 16.5 0 0 6.3 26.5 8.6 31.5 0 0 .1-.1.2-.4.3 2.6.7 5.1 1.3 7.3 2.9 10.7 8.6 17.9 8.6 17.9h21.7s10.3-13.7 11.6-23.8c.2-1.9.4-3.9.4-5.8 2.8-9.3 7-26.8 7-26.8z" fill="#ffffff" stroke-width="none" opacity="1"></path><path id="SvgjsPath13413" d="M96 196.2s-5.3-10.6-5.9-13.8c0 0 11.2-12.1 20.3 1.1l-5.2 12.7s3.3 17.4 3.3 23.9H92.1s1.3-16.5 3.9-23.9z" fill="#222222" stroke-width="none" opacity="1"></path><path id="SvgjsPath13414" d="M110.8 183.2c-2.7-3.9-5.9-6.1-9.5-6.4-6.3-.5-11.4 5-11.6 5.2-.1.1-.2.3-.1.4.5 3 5.1 12.2 5.8 13.7-2.6 7.5-3.8 23.2-3.9 23.8 0 .1 0 1.3.1 1.4s.2.2.4.2h16.4c.3 0 .5-1.2.5-1.5 0-6.3-2.9-22-3.3-23.9l5.2-12.5c.1 0 .1-.2 0-.4zm-6.1 12.8c0 .1-.1.2 0 .3 0 .2 3.1 16.5 3.3 23.3H92.6c.2-2.9 1.6-16.7 3.9-23.2.1-.1 0-.3 0-.4-.1-.1-5.1-10-5.8-13.4.9-.9 5.5-5.1 10.6-4.7 3.2.2 6.1 2.1 8.6 5.7l-5.2 12.4z" fill="#87c5cf" stroke-width="none" opacity="1"></path><path id="SvgjsPath13415" d="M97.1 188.9c-.9 2.4 1.6 7 1.6 7 .5-4.1-.7-9.4-1.6-7zm6.4-1.6c-1.7.7-1.8 7.9-1.8 7.9 1.8-2.8 3.5-8.6 1.8-7.9zm-.8 14.9c0 1.1.2 5.5 1.4 4.1 1.2-1.4-1.2-7.8-1.2-7.8s-.2 2.6-.2 3.7zm-3.7 2.9c-.5 3.9 1.4 5.2 1.7 2.4.3-2.8-.3-9.2-.3-9.2s-.9 2.9-1.4 6.8zm-2.2-1.4c.7 1.4 1.4-3.3 1.2-5 0-.1-1.9 3.6-1.2 5z" fill="#000000" stroke-width="none" opacity="1"></path><path id="SvgjsPath13416" d="M71.3 157.1s-10.6 8-16.5 10.6l2.3 2.6s-22.3 5.2-26.9 6.7-6.7 3.6-6.7 3.6-1.7-1.3-4.2.2-3.6 39.4-3.6 39.4h72.6s-10.9-23.9-17.6-58.4c.1-.1.6-2.6.6-4.7zm112.9 63s-1.1-37.9-3.6-39.4-4.2-.2-4.2-.2-2.1-2.1-6.7-3.6-26.9-6.7-26.9-6.7l2.3-2.6c-5.9-2.5-16.5-10.6-16.5-10.6 0 2.1.6 4.6.6 4.6-6.7 34.5-17.6 58.4-17.6 58.4l72.6.1z" fill="#cbe9ee" stroke-width="none" opacity="1"></path><path id="SvgjsPath13417" d="M184.1 198c-.3-3.7-.6-7.4-1.1-11-.3-1.9-.5-3.7-1.1-5.6-.1-.2-.2-.5-.4-.8-.1-.1-.2-.3-.4-.4l-.4-.2c-.4-.2-.9-.4-1.5-.5-.9-.2-1.8-.1-2.7.3-2.4-1.9-5.1-2.9-7.8-3.6-2.9-.8-5.8-1.4-8.6-2.1l-16.7-4 2-2.1.1-.1c.1-.2 0-.4-.2-.5-1.5-.6-2.9-1.5-4.2-2.3-1.4-.9-2.7-1.8-4.1-2.7-2.7-1.9-5.3-3.8-7.9-5.8-.1-.1-.3-.2-.4-.2l-1.2.3s-3-7.8-3.7-8.7c-.6 1.3-1.4 4.2-4 9.4-1.1 1.9-3 4.5-5.5 6.5-2.7 2.1-5.2 4.3-7.7 6.5-2.2 1.9-4.3 3.9-6.4 5.8-2.1-1.9-4.2-3.9-6.4-5.8-2.5-2.2-5.1-4.4-7.7-6.4-7.4-6.9-7.1-10-9.2-15-.3-.5-.5-.5-.5-.5l-3.8 7.9c-.2-.1-1.4 0-1.6.1-2.6 2-5.2 3.9-7.8 5.8-1.3.9-2.7 1.8-4.1 2.7-1.4.9-2.8 1.7-4.2 2.3 0 0-.1 0-.1.1-.2.1-.2.4 0 .5l2 2.1-16.7 4c-2.9.7-5.7 1.4-8.6 2.1-2.8.7-5.5 1.8-7.8 3.6-.9-.4-1.8-.5-2.7-.3-.5.1-1 .3-1.5.5-.1.1-.2.1-.4.2l-.4.4c-.2.3-.3.5-.4.8-.6 1.9-.9 3.7-1.1 5.6-.5 3.7-.8 7.4-1.1 11-.5 7.4-.9 14.7-1.2 22.1 0 .6.5 1.1 1.1 1.1 12.2 0 24.9.5 37.1.3l36.2.1c-.1-.4-.8-2.1-.9-2.4l-.3-.9-.7-1.8c-.4-1.2-.9-2.4-1.3-3.6-.8-2.4-1.7-4.8-2.5-7.2-1.2-3.5-2.2-7-3.3-10.5.9-1.6 1.9-3.2 3-4.7.8-1 1.6-1.9 2.4-2.8.4-.4.9-.8 1.4-1.2l1.5-1.2c1-.8 1.9-1.7 2.8-2.7.4-.5.9-1 1.2-1.5.2-.2.4-.5.6-.6.1-.1.3-.3.6-.4.9-.5 2.1-.9 3.3-1.2.6-.1 5.7-.1 6.3 0 1.2.3 2.3.6 3.3 1.2.2.1.4.3.6.4l.6.6 1.2 1.5c.9 1 1.8 1.8 2.8 2.7l1.5 1.2c.5.4.9.8 1.4 1.2.9.8 1.7 1.8 2.4 2.8 1.1 1.5 2.1 3.1 3 4.7-1.1 3.5-2.1 7-3.3 10.5-.8 2.4-1.6 4.8-2.5 7.2-.4 1.2-.9 2.4-1.3 3.6l-.7 1.8-.3.9c-.1.3-1 1.9-1.1 2.4l36.7-.7c12.2.2 24.5.4 36.7.3.6 0 1-.5 1-1.1-.4-7.3-.8-14.6-1.3-22zM16.9 219c.2-7 .4-14 .8-20.9.2-3.7.5-7.3.9-10.9.2-1.8.4-3.7.9-5.3.1-.2.1-.4.2-.5 0-.1.1-.1 0-.1 0 0 .1-.1.2-.1.4-.2.7-.4 1.1-.4.7-.2 1.6-.1 2.1.2.2.1.5.1.6 0 1.8 2.7 3.1 5.6 4 8.6.5 1.6.8 3.2 1 4.9.2 1.7.5 3.3.6 5l1.1 10.1c.4 3.1.8 6.3 1.3 9.4H16.9zm34.8.4-19.6-.3c.2-3.2.2-6.4.1-9.6-.1-3.4-.3-6.8-.7-10.3-.2-1.7-.4-3.4-.8-5.1-.3-1.7-.8-3.4-1.4-5.1-1.2-3.1-3-5.9-5.4-8.1 1-.9 2.2-1.7 3.5-2.3 1.3-.6 2.6-1.1 4.1-1.6 2.8-.8 5.7-1.6 8.5-2.3 5.7-1.4 11.5-2.9 17.2-4.1.6.6 1.2 1.1 2 1.6-.2.2-.5.3-.7.5-1.2.8-2.5 1.6-3.7 2.3-.3.2-.5.6-.4 1 1.5 3.8 3.1 7.6 4.7 11.4 1.6 3.8 3.3 7.5 5 11.2 1.8 3.7 3.6 7.4 5.5 11 1 1.8 1.9 3.6 3 5.4 1 1.7 2 3.3 3.1 4.9l-24-.5zm33.5-6.2c.5 1.2 1 2.4 1.5 3.5.3.6.5 1.2.8 1.7l.4.9c.2.3.2.6.4.8l-12.4-.2c-1.8-3.6-3.4-7.2-5-10.8L66 197.7l-5-11.2-4.8-10.6c2.3-1.5 4.5-3.2 6.6-4.9 1.1-.9 2.3-1.9 3.4-2.9s2.2-1.9 3.3-3c-2.4 1.7-4.8 3.4-7.3 5-.9.6-1.7 1.2-2.6 1.8-.5-.8-1.1-1.5-1.7-2.2-.7-.6-1.3-1.2-2.2-1.7l-.3-.3c1.4-.6 2.7-1.3 4-2 1.4-.8 2.8-1.7 4.2-2.5 2.3-1.5 4.6-3 6.8-4.6-.1 1-.3 1.9-.5 2.9v.3c.9 5 2 10 3.3 15 1.2 5 2.6 9.9 4.1 14.7s3.2 9.7 5 14.5c.9 2.5 1.9 4.8 2.9 7.2zm11.2-36.1c-1.3.4-2.5.8-3.8 1.5-.3.2-.6.4-.9.7-.2.3-.4.5-.6.8-.4.5-.8 1-1.1 1.5-.8.9-1.6 1.8-2.5 2.6-.4.4-.9.9-1.4 1.3-.5.4-1 .9-1.4 1.4-.9 1-1.6 2-2.4 3.1-.9 1.4-1.8 2.9-2.5 4.3-.3-1-.6-2.1-.9-3.1-1.4-4.9-2.7-9.8-3.9-14.7-1.2-4.7-2.2-9.4-3.2-14.1.1-.3.1-.6.2-1 .2-1.4 1.8-4.9 2.8-7.6l1.5-4.7c0 .1.6 2.1 1.5 5.2 1.4 3.6 4.6 8.6 7.2 10.9 2.5 2.2 4.7 4.6 7.2 6.9l5.5 4.9c-.5-.1-.9 0-1.3.1zm21.3 12.8c-.7-1.1-1.5-2.1-2.4-3.1-.4-.5-.9-.9-1.4-1.4-.5-.4-.9-.8-1.4-1.3-.9-.9-1.8-1.7-2.5-2.6-.4-.5-.7-.9-1.1-1.5-.2-.3-.4-.5-.6-.8-.3-.3-.6-.5-.9-.7-1.2-.7-2.5-1.1-3.8-1.5-.4-.1-.8-.2-1.3-.3l5.5-4.9c2.5-2.2 4.6-4.4 7.1-6.6 5-4.9 6.6-9.1 7.5-11.9 1.1-3.5 1.3-4.1 1.3-4.2 0 0 1.1 3.2 2.1 6.1.7 2 2.3 6.7 2.3 7-1 4.7-2 9.4-3.2 14.1-1.2 4.9-2.5 9.8-3.9 14.7-.3 1.1-.6 2.1-.9 3.1-.7-1.3-1.5-2.8-2.4-4.2zm-6 30.2c.2-.1.3-.5.4-.8l.4-.9c.3-.6.5-1.2.8-1.7.5-1.2 1-2.3 1.5-3.5 1-2.4 2-4.7 2.8-7.1 1.8-4.8 3.5-9.6 5-14.5s2.9-9.8 4.1-14.7c1.3-4.9 2.3-9.9 3.3-15v-.3c-.2-.9-.4-1.9-.5-2.9 2.2 1.6 4.5 3.1 6.8 4.6 1.4.9 2.8 1.7 4.2 2.5 1.3.7 2.6 1.4 3.9 2l-.3.3c-.8.5-1.5 1.1-2.1 1.7-.6.6-1.2 1.4-1.7 2.2-.9-.6-1.8-1.1-2.6-1.8-2.4-1.6-4.8-3.4-7.3-5l3.3 3c1.1 1 2.2 1.9 3.4 2.9 2.1 1.7 4.2 3.4 6.6 4.9l-4.8 10.6-5 11.2L129 209c-1.6 3.6-3.2 7.3-5 10.8l-12.3.3zm36.6-.7-24.2.5c1.1-1.6 2.2-3.2 3.1-4.9 1.1-1.8 2-3.6 3-5.4 1.9-3.6 3.7-7.3 5.5-11 1.7-3.7 3.4-7.4 5.1-11.2 1.6-3.8 3.2-7.5 4.7-11.4.1-.4 0-.8-.4-1-1.2-.7-2.5-1.5-3.7-2.3-.2-.2-.5-.3-.7-.5.8-.4 1.4-1 2-1.6 5.8 1.3 11.5 2.7 17.2 4.1 2.9.7 5.7 1.5 8.5 2.3 1.4.4 2.8.9 4.1 1.6 1.3.6 2.5 1.4 3.5 2.3-2.4 2.2-4.1 5.1-5.4 8.1-.7 1.6-1.1 3.4-1.4 5.1-.3 1.7-.6 3.4-.8 5.1-.4 3.4-.6 6.8-.7 10.3-.1 3.2-.1 6.4.1 9.6-6.4 0-12.9.1-19.5.3zm19.7-.3c.5-3.1.9-6.3 1.3-9.4l1.1-10.1c.2-1.7.4-3.4.6-5 .2-1.7.6-3.3 1.1-4.9.9-3 2.2-5.9 4-8.6.2.1.4.1.6 0 .5-.3 1.4-.4 2.1-.2.4.1.8.2 1.1.4.1 0 .2.1.2.1v.1c.1.1.1.3.2.5.5 1.6.7 3.5.9 5.3.4 3.6.6 7.3.9 10.9.4 7 .7 13.9.8 20.9-4.8-.1-9.8-.1-14.9 0z" fill="#87c5cf" stroke-width="none" opacity="1"></path></g><g id="svga-group-head" transform="matrix(1,0,0,1,0,0)"><g id="svga-group-ears-left-move" transform="matrix(1,0,0,1,0,0)"><g id="svga-group-ears-left" transform="matrix(1,0,0,1,0,0)"><path id="SvgjsPath13442" d="M62.9 100.1s-1.8-5-3.3-7.9-3.6-6.4-6.7-7.2c-3.1-.8-4.1 3.9-2.9 8.3 1.2 4.4 4.3 13.9 5 17.7.7 3.7 1.8 8.2 3.6 7.5 1.7-.7 7.2-7.7 4.3-18.4z" fill="#73512d" stroke-width="none" opacity="1" stroke="none"></path><path id="SvgjsPath13443" d="M63.8 105.1c.2 1.7.1 3.4-.1 5.1-.5 3.3-1.9 6.4-4 8.4l-.4.3c-.2.1-.3.2-.5.3-.4.2-.9 0-1.3-.3-.8-.6-1.2-1.5-1.5-2.3-.6-1.7-.9-3.3-1.3-5-.3-1.6-.7-3.2-1.1-4.8l-1.3-4.9c-.4-1.6-.9-3.2-1.3-4.8l-.7-2.4c-.2-.8-.5-1.6-.6-2.5-.2-.8-.3-1.7-.3-2.6s.1-1.7.3-2.6c.2-.8.6-1.6 1.2-2.1s1.4-.6 2.1-.5c1.4.3 2.7 1.2 3.7 2.4 1.1 1.2 1.9 2.6 2.6 4.1.8 1.4 1.4 3 2 4.5.6 1.6 1.2 3.1 1.7 4.7.3 1.6.7 3.3.8 5zm-5.1-13.7c-.9-1.4-1.7-2.6-2.7-3.7-1-1-2.1-1.8-3.2-2.2-.6-.2-1.1-.1-1.6.2-.5.3-.8.9-1.1 1.6-.5 1.4-.5 3.1-.2 4.7.1.8.3 1.6.6 2.4.2.8.5 1.6.7 2.4l1.5 4.8c.5 1.6 1.1 3.2 1.5 4.8.5 1.6 1 3.2 1.3 4.9.4 1.6.7 3.3 1.3 4.7.3.7.6 1.4 1 1.6.2.1.3.2.5.1.1 0 .2-.1.3-.2l.3-.3c.9-.8 1.7-2 2.4-3.2.7-1.3 1.2-2.7 1.6-4.2.8-3 .7-6.5-.2-9.7-1-3.1-2.3-6.1-4-8.7z" fill="#64411d" stroke-width="none" opacity="1" stroke="none"></path><path id="SvgjsPath13444" d="M50.9 88.1c1.9-.8 3.6 1.4 4.8 3.3 1.6 2.5 2.7 5.5 3 8.7v.2c0 .3 0 .5.1.8 0 .2-.2.2-.2 0-.1-.4-.2-.9-.3-1.4-.1-.1-.1-.2-.2-.4-1.2-.6-1.8-.3-1.8.8 0 .7.2 1.5.3 2.2.3 1.2.9 2.3 1.3 3.5.1.2-.2.4-.3.2-.9-1.6-2.6-5.3-1.5-7.2.5-.9 1.4-.8 1.9-.2-.5-2-1.2-4.3-2.2-6.2-2.1 4.5-1 9.2.1 14.2 0 .2-.2.3-.3.1-1.4-4.6-2.7-10.8 0-14.5-1-2.2-2.6-3.9-4.6-3.7-.1 0-.2-.3-.1-.4z" fill="#543310" stroke-width="none" opacity="1" stroke="none"></path><path id="SvgjsPath13445" d="M58.6 108.1c.2 1.1 0 2.4-.6 3.2-.1.1-.2 0-.1-.1.3-1 .6-1.9.6-3.1 0-.1.1-.1.1 0z" fill="#543310" stroke-width="none" opacity="1" stroke="none"></path></g></g><g id="svga-group-ears-right-move" transform="matrix(1,0,0,1,0,0)"><g id="svga-group-ears-right" transform="matrix(1,0,0,1,0,0)"><path id="SvgjsPath13446" d="M137.1 100.1s1.8-5 3.3-7.9 3.6-6.4 6.7-7.2c3.1-.8 4.1 3.9 2.9 8.3-1.2 4.4-4.3 13.9-5 17.7s-1.8 8.2-3.6 7.5c-1.7-.7-7.2-7.7-4.3-18.4z" fill="#73512d" stroke-width="none" opacity="1" stroke="none"></path><path id="SvgjsPath13447" d="M137.1 100.1c.6-1.6 1.1-3.1 1.7-4.7.6-1.5 1.2-3.1 2-4.5.7-1.5 1.6-2.9 2.6-4.1s2.3-2.1 3.7-2.4c.7-.2 1.5 0 2.1.5s1 1.3 1.2 2.1c.2.8.3 1.7.3 2.6s-.1 1.7-.3 2.6c-.1.9-.4 1.7-.6 2.5l-.7 2.4c-.5 1.6-.9 3.2-1.3 4.8l-1.3 4.9c-.4 1.6-.8 3.2-1.1 4.8-.3 1.7-.7 3.3-1.3 5-.3.8-.7 1.7-1.5 2.3-.4.3-.9.4-1.3.3-.2-.1-.4-.2-.5-.3l-.4-.3c-2.1-2-3.5-5.1-4-8.4-.3-1.7-.3-3.4-.1-5.1 0-1.7.4-3.4.8-5zm.1 0c-.9 3.2-1 6.7-.2 9.7.4 1.5.9 2.9 1.6 4.2.7 1.3 1.5 2.4 2.4 3.2l.3.3c.1.1.2.1.3.2.2.1.3 0 .5-.1.4-.3.7-.9 1-1.6.6-1.4.9-3.1 1.3-4.7.3-1.7.8-3.3 1.3-4.9l1.5-4.8 1.5-4.8c.2-.8.5-1.6.7-2.4l.6-2.4c.3-1.6.2-3.3-.2-4.7-.2-.7-.6-1.3-1.1-1.6-.5-.3-1-.3-1.6-.2-1.2.3-2.3 1.1-3.2 2.2-1 1.1-1.8 2.3-2.7 3.6-1.6 2.7-2.9 5.7-4 8.8z" fill="#64411d" stroke-width="none" opacity="1" stroke="none"></path><path id="SvgjsPath13448" d="M149.1 88.1c-1.9-.8-3.6 1.4-4.8 3.3-1.6 2.5-2.7 5.5-3 8.7v.2c0 .3 0 .5-.1.8 0 .2.2.2.2 0 .1-.4.2-.9.3-1.4.1-.1.1-.2.2-.4 1.2-.6 1.8-.3 1.8.8 0 .7-.2 1.5-.3 2.2-.3 1.2-.9 2.3-1.3 3.5-.1.2.2.4.3.2.9-1.6 2.6-5.3 1.5-7.2-.5-.9-1.4-.8-1.9-.2.5-2 1.2-4.3 2.2-6.2 2.1 4.5 1 9.2-.1 14.2 0 .2.2.3.3.1 1.4-4.6 2.7-10.8 0-14.5 1.2-2.2 2.8-3.9 4.7-3.8 0 .1.1-.2 0-.3z" fill="#543310" stroke-width="none" opacity="1" stroke="none"></path><path id="SvgjsPath13449" d="M141.4 108.1c-.2 1.1 0 2.4.6 3.2.1.1.2 0 .1-.1-.3-1-.6-1.9-.6-3.1 0-.1-.1-.1-.1 0z" fill="#543310" stroke-width="none" opacity="1" stroke="none"></path></g></g><g id="svga-group-faceshape-wrap" transform="matrix(1,0,0,1,0,0)"><g id="svga-group-faceshape-single"><path id="SvgjsPath13520" d="M143.6 82.2v-.3C142.3 52 122.5 35.3 100 35.3S57.8 52.1 56.5 82.1v.3c0 1.8.3 11.9 2.6 24.5 2.6 13.9 7.9 28.3 11.5 35.9 3.5 7.7 14.6 10.1 29.4 10.1s25.8-2.4 29.4-10.1c3.5-7.7 8.9-22 11.5-35.9 2.3-12.7 2.7-22.9 2.7-24.7z" fill="#73512d" stroke-width="none" opacity="1" stroke="none"></path><path id="SvgjsPath13521" d="M70.6 142.8c3.5 7.7 14.6 10.1 29.4 10.1s25.8-2.4 29.4-10.1c3.5-7.7 8.9-22 11.5-35.9 2.3-12.7 2.7-22.9 2.7-24.7v-.3C142.3 52 122.5 35.3 100 35.3S57.8 52.1 56.5 82.1v.3c0 1.8.3 11.9 2.6 24.5 2.6 13.9 7.9 28.3 11.5 35.9zM58.1 75.5c.3-1.7.5-3.4.9-5l.7-2.5c.2-.8.4-1.7.7-2.4l.9-2.4c.2-.4.3-.8.5-1.2l.6-1.1 1.1-2.3c.4-.8.9-1.5 1.3-2.2.5-.7.9-1.4 1.4-2.1l1.6-2 .8-1 .9-.9 1.8-1.8c.6-.6 1.3-1.1 1.9-1.6.7-.5 1.2-1.1 2-1.6 1.4-.9 2.7-1.9 4.2-2.6 2.9-1.7 6-2.7 9.2-3.7 6.4-1.6 13.1-1.8 19.6-.7 6.4 1.3 12.7 3.8 18 7.9 5.3 4.1 9.6 9.5 12.4 15.8 2.8 6.2 4.7 13.3 4.9 20.2-.1 6.9-1.1 13.6-2.4 20.4-1.2 6.8-3.3 13.4-5.6 19.8-2.4 6.4-5 12.8-7.9 19-.2.4-1 2-2.5 3.3-1.1.9-2.3 1.7-3.7 2.4-2.8 1.2-6 2-9.3 2.4-6.6.9-13.5.9-20.2.4-3.3-.2-6.6-.7-9.7-1.6-3.1-.9-5.9-2.2-7.8-4.3-.4-.5-.9-1.1-1.2-1.7l-1.1-2.3c-.7-1.5-4.6-11.1-5.8-14.3-2.3-6.5-4.4-13-5.8-19.7-1.5-6.6-2.5-13.5-2.8-20.4-.3-3.4.1-6.8.4-10.2z" fill="#452706" stroke-width="none" opacity="1" stroke="none"></path></g></g><g id="svga-group-mouth-single-move" transform="matrix(1,0,0,1,0,0)"><g id="svga-group-mouth-single" transform="matrix(1,0,0,1,0,0)"><path id="SvgjsPath13643" d="M86.62 127.55s2.05 2.59 5.62 4.12 13.46 4.37 22.92-4c0 0-1.83-1.01-4.25-2.59s-3.79-2.39-5.87-2.71-3.23.58-4.6.64c-1.37.05-2.88-.8-4.51-.66-3.58.3-9.36 4.5-9.36 4.5l.05.7z" fill="#ff5027" stroke-width="none" opacity="1" transform="translate(0 2)" stroke="none"></path><path id="SvgjsPath13644" d="M85.9 127.36c1.93 1.35 3.95.8 6.06.2 1.1-.31 1.84-.44 3.03-.4 1.4.05 1.65.32 2.77.82.84.37 1.64.61 2.55.48 1.07-.15 1.89-.82 2.89-1.19 2.34-.87 4.17.21 6.35.86 2.06.61 4.33 1.01 6.18-.31.5-.36.08-1.04-.47-.81-2.86 1.23-5.62-.26-8.45-.67-2.23-.32-3.49.46-5.64.81-2.45.4-4.48-1.02-6.92-1.03-2.61-.02-5.17 1.6-7.62 0-.78-.53-1.48.71-.73 1.24z" fill="#f0380d" stroke-width="none" opacity="1" transform="translate(0 2)" stroke="none"></path></g></g><g id="svga-group-eyes-left-move" transform="matrix(1,0,0,1,0,0)"><g id="svga-group-eyes-left" transform="matrix(1,0,0,1,0,0)"><g id="svga-group-eyesback-left"><path id="SvgjsPath13478" d="M89.2 98s-.1-2.4-1.3-4.2c-1.2-1.8-3.7-4.7-8.4-4.9S71 90.8 71 90.8s.5 3.5 2.2 4.9c1.7 1.4 4.6 3.5 9.3 3.3 4.8-.1 6.7-1 6.7-1z" fill="#ffffff" stroke-width="none" opacity="1"></path></g><g id="svga-group-eyesiriswrapper-left" transform="matrix(1,0,0,1,0,0)"><g id="svga-group-eyesiriscontrol-left" transform="matrix(1,0,0,1,0,0)"><g id="svga-group-eyesiris-left" transform="matrix(1,0,0,1,0,0)"><path id="SvgjsPath13534" d="M80.1 87.8c3.2 0 5.7 2.6 5.7 5.7s-2.6 5.7-5.7 5.7-5.7-2.6-5.7-5.7 2.5-5.7 5.7-5.7z" fill="#4d3623" stroke-width="none" opacity="1"></path><path id="SvgjsPath13535" d="M80.1 88.1c3 0 5.5 2.4 5.5 5.5 0 3-2.4 5.5-5.5 5.5-3 0-5.5-2.4-5.5-5.5s2.4-5.5 5.5-5.5m0-.6c-3.3 0-6 2.7-6 6s2.7 6 6 6 6-2.7 6-6-2.7-6-6-6z" fill="#2e1b0c" stroke-width="none" opacity="1"></path><path id="SvgjsPath13536" d="M77 95.1c0 1.4.6 2.7 1.4 3.6.5.2 1.1.2 1.6.2 3 0 5.5-2.4 5.5-5.5 0-1.1-.3-2.2-.9-3-.7-.4-1.5-.6-2.4-.6-2.9.1-5.2 2.5-5.2 5.3z" fill="#5c4633" stroke-width="none" opacity="1"></path><path id="SvgjsPath13537" d="M80.1 90.6c1.6 0 2.9 1.3 2.9 2.9s-1.3 2.9-2.9 2.9-2.9-1.3-2.9-2.9 1.2-2.9 2.9-2.9z" fill="#000000" stroke-width="none" opacity="1"></path><path id="SvgjsPath13538" d="M78.8 90.4c.8 0 1.5.7 1.5 1.5s-.7 1.5-1.5 1.5-1.5-.7-1.5-1.5.7-1.5 1.5-1.5zm2.9 4.3c.5 0 1 .4 1 1s-.4 1-1 1-1-.4-1-1 .4-1 1-1z" fill="#ffffff" stroke-width="none" opacity="1"></path></g></g></g><g id="svga-group-eyesfront-left"><path id="SvgjsPath13486" d="M69.4 94.6c0 6.4 4.7 11.5 10.6 11.5 5.9 0 10.6-5.2 10.6-11.5S85.9 83.1 80 83.1c-5.8 0-10.6 5.1-10.6 11.5zm1.6-3.8s3.7-2.1 8.5-1.9c4.8.2 7.3 3 8.4 4.9 1.2 1.8 1.3 4.2 1.3 4.2s-2 .9-6.7 1c-4.7.1-7.6-1.9-9.3-3.3-1.7-1.4-2.2-4.9-2.2-4.9z" fill="#73512d" stroke-width="none" opacity="1" stroke="none"></path><path id="SvgjsPath13487" d="M90.6 95.9c-2-3.6-4.1-6.6-8.3-7.9-4.3-1.4-8.1-.2-11.9 1.9-.2.1-.5-.2-.3-.4 6.3-5.7 18.8-2.3 20.6 6.3.1.2 0 .2-.1.1z" fill="#64411d" stroke-width="none" opacity="1" stroke="none"></path><path id="SvgjsPath13488" d="M83.1 89.2c-4.8-2-10.6-.9-14.6 2.4-.5.4.1 1.1.6.8.5-.3 1-.6 1.6-.9 1.3 8.3 11.8 9.4 18.2 6.8.1.4.1.8.2 1.2 0 .3.5.4.6.1.7-4.5-2.5-8.7-6.6-10.4zm-4.6 8.9c-3.5-.9-6.2-3.4-6.7-7 0-.1 0-.1-.1-.1 3-1.5 6.2-2.3 9.7-1.3 4.2 1.2 6.7 4.2 7.5 8.2-3.6.2-6.9 1.2-10.4.2z" fill="#131111" stroke-width="none" opacity="1" stroke="none"></path></g></g></g><g id="svga-group-eyes-right-move" transform="matrix(1,0,0,1,0,0)"><g id="svga-group-eyes-right" transform="matrix(1,0,0,1,0,0)"><g id="svga-group-eyesback-right"><path id="SvgjsPath13479" d="M110.8 98s.1-2.4 1.3-4.2c1.2-1.8 3.7-4.7 8.4-4.9s8.5 1.9 8.5 1.9-.5 3.5-2.2 4.9c-1.7 1.4-4.6 3.5-9.3 3.3-4.8-.1-6.7-1-6.7-1z" fill="#ffffff" stroke-width="none" opacity="1"></path></g><g id="svga-group-eyesiriswrapper-right" transform="matrix(1,0,0,1,0,0)"><g id="svga-group-eyesiriscontrol-right" transform="matrix(1,0,0,1,0,0)"><g id="svga-group-eyesiris-right" transform="matrix(1,0,0,1,0,0)"><path id="SvgjsPath13539" d="M119.9 87.8c3.2 0 5.7 2.6 5.7 5.7s-2.6 5.7-5.7 5.7-5.7-2.6-5.7-5.7 2.6-5.7 5.7-5.7z" fill="#4d3623" stroke-width="none" opacity="1"></path><path id="SvgjsPath13540" d="M119.9 88.1c3 0 5.5 2.4 5.5 5.5 0 3-2.4 5.5-5.5 5.5s-5.5-2.4-5.5-5.5c.1-3.1 2.5-5.5 5.5-5.5m0-.6c-3.3 0-6 2.7-6 6s2.7 6 6 6 6-2.7 6-6-2.6-6-6-6z" fill="#2e1b0c" stroke-width="none" opacity="1"></path><path id="SvgjsPath13541" d="M116.9 95.1c0 1.4.6 2.7 1.4 3.6.5.2 1.1.2 1.6.2 3 0 5.5-2.4 5.5-5.5 0-1.1-.3-2.2-.9-3-.7-.4-1.5-.6-2.4-.6-2.9.1-5.2 2.5-5.2 5.3z" fill="#5c4633" stroke-width="none" opacity="1"></path><path id="SvgjsPath13542" d="M119.9 90.6c1.6 0 2.9 1.3 2.9 2.9s-1.3 2.9-2.9 2.9-2.9-1.3-2.9-2.9 1.3-2.9 2.9-2.9z" fill="#000000" stroke-width="none" opacity="1"></path><path id="SvgjsPath13543" d="M118.7 90.4c.8 0 1.5.7 1.5 1.5s-.7 1.5-1.5 1.5-1.5-.7-1.5-1.5.7-1.5 1.5-1.5zm2.8 4.3c.5 0 1 .4 1 1s-.4 1-1 1-1-.4-1-1 .5-1 1-1z" fill="#ffffff" stroke-width="none" opacity="1"></path></g></g></g><g id="svga-group-eyesfront-right"><path id="SvgjsPath13489" d="M120 83.1c-5.9 0-10.6 5.2-10.6 11.5s4.7 11.5 10.6 11.5c5.9 0 10.6-5.2 10.6-11.5s-4.8-11.5-10.6-11.5zm6.8 12.6c-1.7 1.4-4.6 3.5-9.3 3.3-4.7-.1-6.7-1-6.7-1s.1-2.4 1.3-4.2c1.2-1.8 3.7-4.7 8.4-4.9 4.8-.2 8.5 1.9 8.5 1.9s-.5 3.5-2.2 4.9z" fill="#73512d" stroke-width="none" opacity="1" stroke="none"></path><path id="SvgjsPath13492" d="M109.4 95.9c2-3.6 4.1-6.6 8.3-7.9 4.3-1.4 8.1-.2 11.9 1.9.2.1.5-.2.3-.4-6.3-5.7-18.8-2.3-20.6 6.3-.1.2 0 .2.1.1z" fill="#64411d" stroke-width="none" opacity="1" stroke="none"></path><path id="SvgjsPath13493" d="M131.5 91.6c-4-3.3-9.7-4.4-14.6-2.4-4 1.7-7.3 5.9-6.6 10.4.1.3.5.2.6-.1 0-.4.1-.8.2-1.2 6.5 2.6 17 1.4 18.2-6.8.5.3 1 .6 1.6.9.4.3 1-.5.6-.8zm-3.2-.5c-.5 3.6-3.3 6.1-6.7 7-3.6 1-6.9 0-10.4-.3.8-3.9 3.3-7 7.5-8.2 3.5-1 6.7-.1 9.7 1.3-.1.1-.1.2-.1.2z" fill="#131111" stroke-width="none" opacity="1" stroke="none"></path></g></g></g><g id="svga-group-facehighlight-single"></g><g id="svga-group-eyebrows-left-move" transform="matrix(1,0,0,1,0,0)"><g id="svga-group-eyebrows-left-rotate" transform="matrix(1,0,0,1,0,0)"><g id="svga-group-eyebrows-left" transform="matrix(1,0,0,1,0,0)"><path id="SvgjsPath13388" d="M68.1 81c.2-.2.4-.5.6-.7.1-.2.2-.4.4-.6.3-.4.6-.7 1-1 .2-.2.6-.3.8-.1.3-.3.7-.5 1.1-.7 1.2-.7 2.4-1.3 3.8-1.2 1.2-.3 2.5-.2 3.6-.2 1.7 0 3.4.2 5 .8 1 .3 3 1.3 4 2.5 1.2.6 2.1 1.6 2.3 3.1.2 1.5-1 2.5-2.3 3-1.7.6-3.2-.1-4.6-1-.8-.5-1.6-.9-2.5-1.4-1.5-.4-3-.6-4.6-.8-.6-.1-1.1-.2-1.7-.3h-.1c-.1.1-.2.2-.4.3-.4.2-.9.4-1.5.5-1.2.5-2.4 1-3.5 1.6-.2.1-.3.1-.5.1-.3.4-.7.7-1.3.5-.4-.1-.6-.4-.7-.8-.2-.1-.4-.4-.5-.7 0-1 1-2.1 1.6-2.9z" fill="#b84131" stroke-width="none" opacity="1"></path><path id="SvgjsPath13389" d="M84 77.8c2.6 1.4 3.5 5 3.5 7.8 0 .2-.4.3-.4.1-.3-1.4-.5-2.8-1-4.1-.5-1.3-1.3-2.4-2.3-3.5-.1-.2 0-.4.2-.3zm4.1 7.9c.4-.8.8-1.5 1-2.4.1-.9.1-1.7-.1-2.6 0-.2.2-.3.3-.2 1 1.6.7 4.3-.9 5.4-.2.2-.4 0-.3-.2zm-11.8-8.6c.3.1.6.2.8.4 0-.1.1-.1.2-.1 3 .2 5.5 4.2 5.7 6.8 0 .3-.4.3-.5.1-.6-1.4-1.2-2.8-2.1-4-.6-.7-1.2-1.2-1.9-1.7 1 1.1 1.6 2.6 1.8 3.9 0 .2-.3.3-.3.1-.4-1.1-.9-2.1-1.6-3-.7-.8-1.5-1.4-2.3-2.2-.2-.1 0-.3.2-.3zm-3.4.8c2.3-.1 4.4 2.5 4.7 4.5.1.3-.3.5-.5.2-.7-.9-1-2-1.8-2.8-.7-.7-1.7-1.1-2.5-1.6-.2 0-.1-.3.1-.3zm-2.5 2c1.9-.2 3.8 1.1 4.7 2.5.1.2-.1.3-.3.2-.6-.6-1.3-1.2-2.1-1.6-.8-.4-1.6-.5-2.5-.8-.1 0 0-.3.2-.3zm-1.2 2.4c1.1-.1 2 .3 2.8 1.1.1.1 0 .2-.1.2-.8-.6-1.7-.9-2.6-.9-.2-.2-.2-.4-.1-.4z" fill="#c75849" stroke-width="none" opacity="1"></path><path id="SvgjsPath13390" d="M91 84.6c1-1.4.6-3.9-.6-5.1-.2-.2-.5.1-.4.3.1.1.1.2.2.4-.4-.6-.8-1.1-1.3-1.6-3.4-3.2-8.6-3.5-13-2.8-4.2.7-8.1 2.9-9.3 7.2v.2c-.1 0-.2.1-.2.2-.8 1.3.4 2.8 1.8 2.9 1 .1 2-.4 2.8-.9 1.3-.7 2.6-1.3 4-1.6 3-.5 5.5.5 8.1 1.8 1.6.8 3.3 1.5 5.2 1.1 1.5-.4 2.4-1.1 2.7-2.1zm-7.4-7.3c.7 1.5 1.3 3 1.7 4.6.3 1.1.4 2.3.5 3.4-.6-.2-1.2-.4-1.7-.7.3-2.7-.8-5.6-2.5-7.7.7.1 1.4.2 2 .4zm-8.1 5.1c-.3-1.1-.8-2-1.5-2.9-.4-.5-.9-1.1-1.5-1.6.8-.3 1.6-.6 2.5-.7.9.7 1.7 1.3 2.4 2.1.8 1 1.5 2.1 2 3.2-.3-.1-.5-.1-.8-.2-1 0-2.1 0-3.1.1zm-4-4c.6.6 1.3 1 1.9 1.7.6.7 1.1 1.6 1.5 2.4-.5.1-.9.2-1.4.3-.6-.7-1.2-1.4-1.9-1.9-.6-.4-1.3-.9-2-1.2.6-.5 1.2-.9 1.9-1.3zm-4.4 4.8c.4-1.2 1.1-2.2 1.9-3 .7.4 1.5.7 2.1 1.2.7.5 1.3 1.1 1.8 1.7-.8.3-1.5.7-2.3 1.1-.9.5-3.9 1.9-3.6-.6 0-.1 0-.2-.1-.2l.2-.2zm14-6.3c.8 1.2 1.4 2.4 1.8 3.7.4 1.2.5 2.4.6 3.7-1.2-.6-2.3-1.2-3.6-1.5-.6-2.1-2-4.3-3.8-5.7 1-.1 1.9-.2 2.9-.2h2.1zm8.8 7.2c-.6 1.4-2 1.6-3.3 1.4.1-2.7-1-5.8-2.3-8.1.7.2 1.3.4 1.9.7 1.8 1 4.8 3.6 3.7 6z" fill="#a92d1c" stroke-width="none" opacity="1"></path></g></g></g><g id="svga-group-eyebrows-right-move" transform="matrix(1,0,0,1,0,0)"><g id="svga-group-eyebrows-right-rotate" transform="matrix(1,0,0,1,0,0)"><g id="svga-group-eyebrows-right" transform="matrix(1,0,0,1,0,0)"><path id="SvgjsPath13391" d="M131.9 81c-.2-.2-.4-.5-.6-.7-.1-.2-.2-.4-.4-.6-.3-.4-.6-.7-1-1-.2-.2-.6-.3-.8-.1-.4-.3-.7-.5-1.1-.7-1.2-.7-2.4-1.3-3.8-1.2-1.2-.3-2.5-.2-3.6-.2-1.7 0-3.4.2-5 .8-1 .3-3 1.3-4 2.5-1.2.6-2.1 1.6-2.3 3.1-.2 1.5 1 2.5 2.3 3 1.7.6 3.2-.1 4.6-1 .8-.5 1.6-.9 2.5-1.4 1.5-.4 3-.6 4.6-.8.6-.1 1.1-.2 1.7-.3h.1c.1.1.2.2.4.3.4.2.9.4 1.5.5 1.2.5 2.4 1 3.5 1.6.2.1.4.1.5.1.3.4.7.7 1.3.5.4-.1.6-.4.7-.8.2-.1.4-.4.5-.7 0-1-1-2.1-1.6-2.9z" fill="#b84131" stroke-width="none" opacity="1"></path><path id="SvgjsPath13392" d="M116 77.8c-2.6 1.4-3.5 5-3.5 7.8 0 .2.4.3.4.1.3-1.4.5-2.8 1-4.1.5-1.3 1.3-2.4 2.3-3.5.1-.2 0-.4-.2-.3zm-4.1 7.9c-.4-.8-.8-1.5-1-2.4-.1-.9-.1-1.7.1-2.6 0-.2-.2-.3-.3-.2-1 1.6-.7 4.3.9 5.4.2.2.4 0 .3-.2zm11.8-8.6c-.3.1-.6.2-.8.4 0-.1-.1-.1-.2-.1-3 .2-5.5 4.2-5.7 6.8 0 .3.4.3.5.1.6-1.4 1.2-2.8 2.1-4 .6-.7 1.2-1.2 1.9-1.7-1 1.1-1.6 2.6-1.8 3.9 0 .2.3.3.3.1.4-1.1.9-2.1 1.6-3 .7-.8 1.5-1.4 2.3-2.2.2-.1 0-.3-.2-.3zm3.4.8c-2.3-.1-4.4 2.5-4.7 4.5-.1.3.3.5.5.2.7-.9 1-2 1.8-2.8.7-.7 1.7-1.1 2.5-1.6.2 0 .1-.3-.1-.3zm2.5 2c-1.9-.2-3.8 1.1-4.7 2.5-.1.2.1.3.3.2.6-.6 1.3-1.2 2.1-1.6.8-.4 1.6-.5 2.5-.8.1 0 .1-.3-.2-.3zm1.2 2.4c-1.1-.1-2 .3-2.8 1.1-.1.1 0 .2.1.2.8-.6 1.7-.9 2.6-.9.2-.2.2-.4.1-.4z" fill="#c75849" stroke-width="none" opacity="1"></path><path id="SvgjsPath13393" d="M111.7 86.7c1.8.4 3.5-.3 5.2-1.1 2.6-1.3 5.1-2.3 8.1-1.8 1.5.2 2.7.8 4 1.6.9.5 1.8 1 2.8.9 1.4-.1 2.6-1.6 1.8-2.9l-.2-.2V83c-1.2-4.3-5.1-6.6-9.3-7.2-4.4-.7-9.5-.4-13 2.8-.5.4-.9 1-1.3 1.6.1-.1.1-.2.2-.4.1-.3-.2-.5-.4-.3-1.2 1.1-1.6 3.6-.6 5.1.3 1 1.2 1.7 2.7 2.1zm4.7-9.4c.7-.2 1.3-.3 2-.3-1.7 2.1-2.8 5-2.5 7.7-.5.2-1.1.5-1.7.7.2-1.2.2-2.3.5-3.4.4-1.7 1-3.2 1.7-4.7zm5 5.2c-.3 0-.5.1-.8.2.6-1.2 1.2-2.2 2-3.2.7-.8 1.6-1.5 2.4-2.1.8.2 1.7.4 2.5.7-.6.4-1.1 1-1.5 1.6-.7.9-1.2 1.8-1.5 2.9-1-.3-2.1-.3-3.1-.1zm9-2.8c-.7.3-1.4.8-2 1.2-.7.6-1.4 1.2-1.9 1.9-.5-.1-.9-.2-1.4-.3.4-.8.9-1.7 1.5-2.4s1.2-1.1 1.9-1.7c.7.4 1.3.8 1.9 1.3zm2.5 3.6c-.1.1-.1.1-.1.2.3 2.5-2.6 1.1-3.6.6-.7-.4-1.5-.8-2.3-1.1.6-.6 1.2-1.2 1.8-1.7.6-.5 1.4-.8 2.1-1.2.8.8 1.5 1.8 1.9 3 .2.1.2.1.2.2zm-11.8-6.4c.9 0 1.9.1 2.9.2-1.8 1.3-3.2 3.6-3.8 5.7-1.3.3-2.4.9-3.6 1.5.1-1.2.2-2.5.6-3.7.4-1.3 1.1-2.5 1.8-3.7h2.1zm-7.2 1.3c.6-.3 1.2-.6 1.9-.7-1.4 2.3-2.5 5.3-2.3 8.1-1.4.2-2.7 0-3.3-1.4-1.2-2.5 1.8-5.1 3.7-6z" fill="#a92d1c" stroke-width="none" opacity="1"></path></g></g></g><g id="svga-group-beardwrap" transform="matrix(1,0,0,1,0,0)"><g id="svga-group-beard-single-move" transform="matrix(1,0,0,1,0,0)"><g id="svga-group-beard-single" transform="matrix(1,0,0,1,0,0)"></g></g></g><g id="svga-group-mustache-single-move" transform="matrix(1,0,0,1,0,0)"><g id="svga-group-mustache-single" transform="matrix(1,0,0,1,0,0)"></g></g><g id="svga-group-nose-single-move" transform="matrix(1,0,0,1,0,0)"><g id="svga-group-nose-single" transform="matrix(1,0,0,1,0,0)"><path id="SvgjsPath13620" d="M109.05 113.12c.28.89.49 2.03-.2 2.51-.69.49-2.8-.08-3.4 0s-1.26.12-2.03.89-1.62 2.15-2.76 2.07c-1.13-.08-1.82-.89-2.39-1.54s-1.78-1.78-2.43-1.9-1.78.65-2.63 1.18c-.85.53-2.39.65-2.43-1.09-.04-1.74 1.54-7.46 1.9-8.71.36-1.26 1.78-4.86 2.39-5.96.61-1.09 6.2-3.61 9.04 0s4.94 12.55 4.94 12.55z" fill="#73512d" stroke-width="none" opacity="1" transform="translate(0 1)" stroke="none"></path><path id="SvgjsPath13621" d="M95.41 99.54c-2.42 4.09-3.81 8.9-4.62 13.56-.19 1.09-.85 3.07.4 3.8.94.55 2-.14 2.72-.74.17-.14-.05-.41-.23-.3-3.43 2.04-2.36-2.33-2.12-3.62.27-1.49.62-2.97 1.04-4.42.8-2.81 1.95-5.47 3.03-8.17.05-.14-.15-.22-.22-.11z" fill="#452706" stroke-width="none" opacity="1" transform="translate(0 1)" stroke="none"></path><path id="SvgjsPath13622" d="M92.73 114.39c1.98.45 3.69 1.11 5.06 2.68.69.78 1.27 1.84 2.39 2.05 3.17.6 3.33-4.52 6.24-4.77.33-.03.34-.5 0-.52-3.06-.15-4.19 6.6-7.29 3.72-.95-.88-1.57-1.93-2.72-2.62-1.11-.67-2.33-1.02-3.62-.95-.23 0-.3.35-.06.41z" fill="#452706" stroke-width="none" opacity="1" transform="translate(0 1)" stroke="none"></path><path id="SvgjsPath13623" d="M105.14 115.86c1.2-.21 3.1 1.16 4.14.01.81-.9.07-2.83-.15-3.8-.92-4.09-2.38-8.7-4.96-12.08-.18-.23-.52-.04-.39.23 1.44 3.25 3.1 6.25 4.15 9.69.23.77.45 1.54.63 2.32.1.45.2.89.29 1.34.52.92.27 1.44-.73 1.58-1.28.64-.86.17-2.02.17-.61 0-.53 0-1.06.28-.17.07-.05.28.1.26z" fill="#452706" stroke-width="none" opacity="1" transform="translate(0 1)" stroke="none"></path><path id="SvgjsPath13624" d="M97.56 106.48c2.43-1.42 4.5-.86 6.61.77.18.14.48-.03.34-.27-1.47-2.51-5.14-2.59-7.2-.83-.18.16.05.45.25.33z" fill="#452706" stroke-width="none" opacity="1" transform="translate(0 1)" stroke="none"></path><path id="SvgjsPath13625" d="M102.21 107.74c-1.68-.7-4.03-1.05-5.37.46-.23.26-.26.79.12.96 1.91.84 3.92.73 5.56 2.23.8.74 2.87 2.56 3.3.4.39-1.91-2.17-3.44-3.61-4.05z" fill="#7b5936" stroke-width="none" opacity="1" transform="translate(0 1)" stroke="none"></path></g></g><g id="svga-group-hair-front" transform="matrix(1,0,0,1,0,0)"><path id="SvgjsPath13665" d="M61.3 97.9s.9-21.3 1.5-25.4c.5-4.2 2.5-15.6 6.4-18.7s7.1-6 16.9-4 11.4 4 18.5 2.4 11.3-3.1 11.3-3.1 5.6 1.1 9.3 2c3.6.9 6.5 4.5 9.1 10.9 2.5 6.4 5.6 18.9 4.9 27.8-.7 8.9.9 7.6.9 7.6l3.3-7.3s3.1-5.8 1.6-10.5c0 0 .7-4.2.6-6.4s-1.8-5.3-1.8-5.3.7-6.9 0-9.3-1.3-3.3-1.3-3.3.6-4.2-1.3-7.3-5.4-6-5.4-6-4.7-12-8.9-14-6-5.1-11.3-6c-5.3-.9-11.6.5-11.6.5s-2.5-2-8.2-.2c0 0-4-1.6-10.4.9s-8.7 6.4-8.7 6.4-6.4 2.2-8.2 5.3c0 0-8.2 4-10.4 10.9s-.9 10.7-.9 10.7-2.5 5.8-.7 11.5c0 0-3.1 3.3-.9 11.3 0 0-1.8 3.8.5 9.4 2.3 5.7 2.1 9 5.2 9.2z" fill="#b84131" stroke-width="none" opacity="1" stroke="none"></path><path id="SvgjsPath13666" d="M144.4 67.3c.7-4.2.2-8.7-1.3-12.2 0-.1-.1-.2-.2-.2.1-1.3.1-2.6-.2-4-.8-4.1-3.6-6.7-6.7-9.3-.1 0-.1-.1-.1-.1-1.3-4.4-3.6-8.6-6.6-11.9-6.3-7.1-17.5-11.7-26.2-6-.2.2-.1.6.2.5 9.9-4 19.9-.2 26.2 8.2 5.2 6.9 6.2 14.6 5.6 23-.1.6.9.7 1.1.2 1.1-3.9 1.1-8.1.1-12.1 1.5 1.7 3.3 3.2 4.3 5.2 2.7 5.4.1 11.5-3.1 16-.4.5.5 1 .8.5 1.9-2.6 3.5-5.5 4.2-8.6.6 3.4 1 6.6.4 10.1-.6 3.4-2.2 6.3-3.6 9.5-.2.4.3.9.7.5 1.8-1.9 3-4.4 3.8-7.2.4 2 .7 3.9.4 6-.2 2.2-1.2 4.1-1.5 6.2 0 .3.4.5.6.3.4-.4.8-.9 1.1-1.5 0 3.4-.7 6.4-1.9 9.6-.5 1.3-1.7 4.8-3 6.6.7-10.4-.3-22-3.5-31.8-1.7-5.2-4.7-10.9-9.5-13.5.6 0 1.3-.1 1.9-.2.5-.1.5-.9 0-1-5.9-1.1-11.6-1.8-16.8-5.2-6.8-4.5-11.4-12.8-9.3-21 .1-.5-.6-.7-.8-.2-3.9 9.8 3.3 20 12.6 24.8-2.1.7-4.3 1.3-6.4 1.8-8.5 0-17.6-2.6-20.1-11.9-2.8-10.2 6.4-18 16.1-15.9.4.1.6-.5.2-.6-3-1.2-5.9-1.2-8.6-.3-6.4-.8-13.1 1-17.6 5.7h-.2c-3.6 2.1-7.2 4.2-9.8 7.2-7.6 3.3-14.3 13.7-11.7 21.8-1.1 3.3-1.4 7.2-.8 10.9-1.5 3-2.1 8.1-.8 11.8-1.4 4.4.5 9.3 2.2 13.4 1.2 2.8 1 5.2 4 6.4.2.1.4.1.5-.1.4-.1.7-.3.8-.8.1-11.4.8-22.8 3.6-33.8 1.2-4.8 2.8-10.3 7.4-12.8 5.2-2.9 12-1.2 17.4.2h.1c8 3.5 18.2 2.3 25.6-2.1 2.5 1 5.1 1.7 7.6 1.9 7.9 2.9 10.9 12.9 12.2 20.6 1.6 8.8 2.4 17.4 1.8 26.3-.1.8.9.9 1.3.5 2.6-1.3 2.5-3.6 3.6-6.3 1.8-4.1 3.5-9.1 2.2-13.4 1.8-3.6 1.2-8.7-.3-11.7zM66.2 57c-5.3 12.1-5.6 27-5.7 40-1.4-1.6-2.7-5.5-3.3-7-1.2-3.2-2-6.2-1.9-9.6.3.6.7 1.1 1.1 1.5.2.2.7.1.6-.3-.3-2.1-1.3-4.1-1.5-6.2-.2-2.1 0-4 .5-6 .7 2.7 2 5.3 3.8 7.2.4.4.9-.1.7-.5-1.4-3.2-3-6-3.6-9.5-.5-2.9-.3-5.7.1-8.6.7 1.3 1.7 2.6 3 3.7.4.3 1.1-.1.8-.6-6.4-9-2.3-19 5.9-24.7-.6 1-1.1 2.2-1.4 3.4-1.1 4.2.7 9.5 5 11.1.4.2.7-.4.4-.7-4.3-4.4-5.8-9.6-1.6-15 .2-.2.3-.4.5-.5.1 0 .1-.1.2-.1.1-.1.2-.2.2-.3 1.7-1.7 3.9-2.8 5.9-4.2-3.5 5.8-2.8 13.4 2.9 17.4.3.2.7-.3.4-.5-5-5-5.6-12.1-1.2-17.7 1.5-1.9 3.3-3.3 5.2-4.3-5.4 5.2-4.8 15.3-.2 20.9 1.1 1.4 2.3 2.5 3.7 3.5-8-2.2-16.7-1-20.5 7.6zm21-9.5c-8.1-6.1-8.7-18.1-.3-24 2.2-.6 4.5-1 6.8-1.1-5.1 2.5-8.7 8.2-8.1 14.3.9 8.2 7.6 13.5 15.1 14.9-4.6.2-9.2-.8-13.5-4.1z" fill="#a92d1c" stroke-width="none" opacity="1" stroke="none"></path><path id="SvgjsPath13667" d="M127.9 46.8c-5.5 0-10.3-2.4-13.9-6.4-3.4-3.7-8.8-10.4-6.5-15.8.2-.4-.3-.7-.5-.3-2.8 5.2 1.5 11 4.7 15 4 5 9.6 8.8 16.2 8.1.4 0 .4-.6 0-.6zM105 44.4c-4.9-4.8-10.2-10.6-7-18.1.2-.4-.3-.7-.5-.3-3.8 7.3 1.3 14.6 7.2 18.8.2.2.5-.2.3-.4zm-.4 2.1c-6.3-4.2-12.4-9.2-12.3-17.4 0-.3-.5-.3-.5 0-.4 8.2 5.5 14.6 12.6 17.8.2 0 .4-.2.2-.4zm2 .8C100.8 47 95.8 45 92 40.5c-.2-.2-.6.1-.4.4 3.6 4.4 9.2 7.3 14.9 7 .4-.1.4-.5.1-.6zm-17.4-2.1C84 40 81.4 32.7 87 26.6c.3-.4-.2-.9-.5-.5-6.2 5.6-4.3 15.4 2.2 20 .4.2.9-.5.5-.9zM80.6 44c-3-4-3.9-8.9-1.8-13.5.2-.3-.3-.6-.5-.3-2.4 4.6-1.9 10.4 1.9 14.1.2.2.5 0 .4-.3zm-8.7-8.3c.1-.3-.3-.4-.4-.1-.7 2.6-.8 5.6.4 8 .1.3.6.1.5-.2-.7-2.6-1.1-5-.5-7.7zm0 10.2c-.8-1-1.6-1.9-2.1-3.1-.1-.2-.4 0-.3.1.5 1.2 1.2 2.4 2.3 3.2 0 .1.2-.1.1-.2zM63.8 53c-2.1-3.9-2.4-7.4-1.2-11.6.1-.4-.5-.6-.6-.2-1.3 3.8-1.9 9.1 1.3 12.2.2.4.7 0 .5-.4zm-2 3.6c-1.5-2.5-2.4-4.8-2.2-7.7 0-.2-.3-.2-.4 0-.3 2.8.2 5.9 2.2 8 .3.2.6 0 .4-.3zm-2.2 15.1c-1.2-3.3-2-6.4-1.7-10.1 0-.2-.3-.3-.4 0-.5 3.5-.3 7.3 1.5 10.4.2.2.7 0 .6-.3zM56 74.4c-.1-.2-.3 0-.3.1.4 1.1.7 2.2 1.3 3.2.1.2.4.1.3-.1-.2-1.1-.8-2.2-1.3-3.2zM139.8 52c-.2-1.5-.3-4.5-2.2-4.6-.3 0-.4.4-.1.5 1.6.8 1.5 5.2 1.5 6.6-.1 2.1-.6 4-1.3 5.9-.1.3.4.5.6.2 1.3-2.6 1.8-5.6 1.5-8.6zm2.3 9.7c-.1-.4-.6-.2-.6.2.6 3.1-.3 5.8-1.9 8.4-.2.3.2.6.5.4 2.2-2.4 2.8-6 2-9zm1.2 11.7c0-.3-.5-.3-.5 0 .2 1.8-.1 3.5-.5 5.2 0 .2.2.3.3.1.8-1.6.9-3.5.7-5.3zm-22.7-46.8c-.3-.1-.4.3-.1.4 7.2 3 11.4 13.5 13.6 20.3.1.3.5.2.4-.1-1.7-7.2-6.5-17.8-13.9-20.6z" fill="#c75849" stroke-width="none" opacity="1" stroke="none"></path></g><g id="svga-group-glasses-single-move" transform="matrix(1,0,0,1,0,0)"><g id="svga-group-glasses-single" transform="matrix(1,0,0,1,0,0)"></g></g></g></g></g><rect id="svga-credit-rect" width="200" height="15" x="0" y="185" fill="#ecf0f1" opacity="0.5" style="display: none;"></rect><text id="svga-credit-text" font-family="Avenir Next, Roboto, Helvetica, Arial, sans-serif" font-size="10px" text-anchor="start" font-weight="400" size="10px" anchor="start" weight="400" fill="#333333" x="33.402061462402344" y="182.71133995056152" style="display: none;"><tspan id="SvgjsTspan12922" dy="13" x="33.402061462402344">Created on AvatarMaker.com</tspan></text></g></svg>